<svg width="51" height="51" viewBox="0 0 51 51" fill="none" xmlns="http://www.w3.org/2000/svg">
<g id="&#208;&#161;&#208;&#184;&#208;&#189;&#209;&#150;&#208;&#185;">
<path id="Vector" d="M50.4 25.5C50.4 39.2519 39.2519 50.4 25.5 50.4C11.7481 50.4 0.6 39.2519 0.6 25.5C0.6 11.7481 11.7481 0.6 25.5 0.6C39.2519 0.6 50.4 11.7481 50.4 25.5Z" fill="#DCF0FD" stroke="#0066A9" stroke-width="1.2"/>
<path id="Vector_2" d="M13.6871 17.7998C13.6709 17.7831 13.6545 17.7671 13.638 17.7518H13.6414H13.6488H13.6563H13.6637H13.6712H13.6786H13.686H13.6935H13.7009H13.7084H13.7158H13.7232H13.7307H13.7381H13.7455H13.753H13.7604H13.7679H13.7753H13.7827H13.7902H13.7976H13.8051H13.8125H13.8199H13.8274H13.8348H13.8422H13.8497H13.8571H13.8646H13.872H13.8794H13.8869H13.8943H13.9018H13.9092H13.9166H13.9241H13.9315H13.9389H13.9464H13.9538H13.9613H13.9687H13.9761H13.9836H13.991H13.9985H13.9993L13.9997 18.3285C13.9647 18.2299 13.9241 18.1447 13.8844 18.0736C13.8411 17.9962 13.7983 17.9345 13.7634 17.8892C13.7459 17.8665 13.7302 17.8476 13.7172 17.8327C13.7107 17.8253 13.7048 17.8188 13.6998 17.8132L13.6927 17.8057L13.6896 17.8024L13.6882 17.8009L13.6875 17.8002L13.6871 17.7999C13.6871 17.7998 13.6871 17.7998 13.6863 17.8006L13.6871 17.7998ZM15.1146 18.0845L14.9155 17.7518H14.9208H14.9283H14.9357H14.9432H14.9506H14.958H14.9655H14.9729H14.9804H14.9829C18.1352 23.0023 21.2875 28.2529 24.4405 33.5035H24.3417C22.4393 30.3241 20.5366 27.1447 18.6338 23.9651C17.4608 22.005 16.2877 20.0448 15.1146 18.0845ZM14.0171 32.5556C14.0346 32.724 14.092 32.9974 14.293 33.2571C14.3701 33.3568 14.4552 33.4374 14.5419 33.5027H13.2132C13.3535 33.4081 13.5018 33.2861 13.6424 33.1289L13.6433 33.1278C13.8249 32.9238 13.9423 32.7194 14.0171 32.5556Z" fill="#0066AA" stroke="#0066A9" stroke-width="1.2"/>
<path id="Vector_3" d="M29.4602 24.7569C29.3675 24.9235 29.2747 25.09 29.182 25.2566C27.9995 27.3801 26.817 29.5037 25.6254 31.6438C23.0376 27.2183 20.4502 22.7932 17.8629 18.3677L25.1088 30.5688L25.6347 31.4545L26.1456 30.56L29.4602 24.7569ZM33.8204 33.2186C34.0245 33.0178 34.1562 32.8063 34.2409 32.6304C34.2405 32.9217 34.2402 33.213 34.2398 33.5042H33.4559C33.5765 33.4298 33.7002 33.3365 33.8197 33.2193L33.8204 33.2186Z" fill="#0066AA" stroke="#0066A9" stroke-width="1.2"/>
<path id="Vector_4" d="M36.3606 17.7518V17.7662V17.7955V17.8247V17.854V17.8833V17.9125V17.9418V17.971V18.0003V18.0296V18.0588V18.0881V18.1173V18.1466V18.1759V18.2051V18.2344V18.2636V18.2929V18.3221V18.3514V18.3807V18.4099V18.4392V18.4684V18.4977V18.527V18.5562V18.5855V18.6147V18.644V18.6733V18.7025V18.7318V18.761V18.7903V18.8195V18.8488V18.8781V18.9073V18.9366V18.9658V18.9951V19.0244V19.0536V19.0829V19.1121V19.1414V19.1707V19.1999V19.2292V19.2584V19.2877V19.3169V19.3462V19.3755V19.4047V19.434V19.4632V19.4925V19.5218V19.551V19.5803V19.6095V19.6388V19.6681V19.6973V19.7266V19.7558V19.7851V19.8143V19.8436V19.8729V19.9021V19.9314V19.9606V19.9899V20.0192V20.0484V20.0777V20.1069V20.1362V20.1655V20.1947V20.224V20.2532V20.2825V20.3117V20.341V20.3703V20.3995V20.4288V20.458V20.4873V20.5166V20.5458V20.5751V20.6043V20.6336V20.6628V20.6921V20.7214V20.7506V20.7799V20.8091V20.8384V20.8677V20.8969V20.9262V20.9554V20.9847V21.014V21.0432V21.0725V21.1017V21.131V21.1602V21.1895V21.2188V21.248V21.2773V21.3065V21.3358V21.3651V21.3943V21.4236V21.4528V21.4821V21.5113V21.5406V21.5699V21.5991V21.6284V21.6576V21.6869V21.7162V21.7454V21.7747V21.8039V21.8332V21.8624V21.8917V21.921V21.9502V21.9795V22.0087V22.038V22.0673V22.0965V22.1258V22.155V22.1843V22.2136V22.2428V22.2721V22.3013V22.3306V22.3598V22.3891V22.4184V22.4476V22.4769V22.5061V22.5354V22.5647V22.5939V22.6232V22.6524V22.6817V22.7109V22.7402V22.7695V22.7987V22.828V22.8572V22.8865V22.9157V22.945V22.9743V23.0035V23.0328V23.062V23.0913V23.1206V23.1498V23.1791V23.2083V23.2376V23.2668V23.2961V23.3254V23.3546V23.3839V23.4131V23.4424V23.4717V23.5009V23.5302V23.5594V23.5887V23.6179V23.6472V23.6765V23.7057V23.735V23.7642V23.7935V23.8228V23.852V23.8813V23.9105V23.9398V23.969V23.9983V24.0276V24.0568V24.0861V24.1153V24.1446V24.1738V24.2031V24.2324V24.2616V24.2909V24.3201V24.3494V24.3787V24.4079V24.4372V24.4664V24.4957V24.5249V24.5542V24.5835V24.6127V24.642V24.6712V24.7005V24.7297V24.759V24.7883V24.8175V24.8468V24.876V24.9053V24.9345V24.9638V24.9931V25.0223V25.0516V25.0808V25.1101V25.1394V25.1686V25.1979V25.2271V25.2564V25.2856V25.3149V25.3442V25.3734V25.4027V25.4319V25.4612V25.4904V25.5197V25.549V25.5782V25.6075V25.6367V25.666V25.6952V25.7245V25.7538V25.783V25.8123V25.8415V25.8708V25.9V25.9293V25.9586V25.9878V26.0171V26.0463V26.0756V26.1048V26.1341V26.1634V26.1926V26.2219V26.2511V26.2804V26.3096V26.3389V26.3682V26.3974V26.4267V26.4559V26.4852V26.5144V26.5437V26.573V26.6022V26.6315V26.6607V26.69V26.7192V26.7485V26.7778V26.807V26.8363V26.8655V26.8948V26.924V26.9533V26.9826V27.0118V27.0411V27.0703V27.0996V27.1288V27.1581V27.1874V27.2166V27.2459V27.2751V27.3044V27.3336V27.3629V27.3922V27.4214V27.4507V27.4799V27.5092V27.5384V27.5677V27.597V27.6262V27.6555V27.6847V27.714V27.7432V27.7725V27.8018V27.831V27.8603V27.8895V27.9188V27.948V27.9773V28.0065V28.0358V28.0651V28.0943V28.1236V28.1528V28.1821V28.2113V28.2406V28.2699V28.2991V28.3284V28.3576V28.3869V28.4161V28.4454V28.4747V28.5039V28.5332V28.5624V28.5917V28.6209V28.6502V28.6794V28.7087V28.738V28.7672V28.7965V28.8257V28.855V28.8842V28.9135V28.9428V28.972V29.0013V29.0305V29.0598V29.089V29.1183V29.1475V29.1768V29.2061V29.2353V29.2646V29.2938V29.3231V29.3523V29.3816V29.4108V29.4401V29.4694V29.4986V29.5279V29.5571V29.5864V29.6156V29.6449V29.6742V29.7034V29.7327V29.7619V29.7912V29.8204V29.8497V29.8789V29.9082V29.9375V29.9667V29.996V30.0252V30.0545V30.0837V30.113V30.1422V30.1715V30.2008V30.23V30.2593V30.2885V30.3178V30.347V30.3763V30.4055V30.4348V30.4641V30.4933V30.5226V30.5518V30.5811V30.6103V30.6396V30.6688V30.6981V30.7273V30.7566V30.7859V30.8151V30.8444V30.8736V30.9029V30.9321V30.9614V30.9906V31.0199V31.0492V31.0784V31.1077V31.1369V31.1662V31.1954V31.2247V31.2539V31.2832V31.3125V31.3417V31.371V31.4002V31.4295V31.4587V31.488V31.5172V31.5465V31.5757V31.605V31.6343V31.6635V31.6928V31.722V31.7513V31.7805V31.8098V31.839V31.8683V31.8975V31.9268V31.9561V31.9853V32.0146V32.0438V32.0731V32.1023V32.1316V32.2013L36.3766 32.2692C36.407 32.3981 36.4576 32.5617 36.5434 32.7342M36.3606 17.7518L36.5434 32.7342M36.3606 17.7518H36.3606H36.3586H36.3566H36.3546H36.3527H36.3507H36.3487H36.3467H36.3447H36.3427H36.3407H36.3387H36.3368H36.3348H36.3328H36.3308H36.3288H36.3268H36.3248H36.3229H36.3209H36.3189H36.3169H36.3149H36.3129H36.3109H36.3089H36.307H36.305H36.303H36.301H36.299H36.297H36.295H36.293H36.2911H36.2891H36.2871H36.2851H36.2831H36.2811H36.2791H36.2772H36.2752H36.2732H36.2712H36.2692H36.2672H36.2652H36.2632H36.2613H36.2593H36.2573H36.2553H36.2533H36.2513H36.2493H36.2474H36.2454H36.2434H36.2414H36.2394H36.2374H36.2354H36.2334H36.2315H36.2295H36.2275H36.2255H36.2235H36.2215H36.2195H36.2175H36.2156H36.2136H36.2116H36.2096H36.2076H36.2056H36.2036H36.2017H36.1997H36.1977H36.1957H36.1937H36.1917H36.1897H36.1877H36.1858H36.1838H36.1818H36.1798H36.1778H36.1758H36.1738H36.1718H36.1699H36.1679H36.1659H36.1639H36.1619H36.1599H36.1579H36.156H36.154H36.152H36.15H36.148H36.146H36.144H36.142H36.1401H36.1381H36.1361H36.1341H36.1321H36.1301H36.1281H36.1262H36.1242H36.1222H36.1202H36.1182H36.1162H36.1142H36.1122H36.1103H36.1083H36.1063H36.1043H36.1023H36.1003H36.0983H36.0963H36.0944H36.0924H36.0904H36.0884H36.0864H36.0844H36.0824H36.0805H36.0785H36.0765H36.0745H36.0725H36.0705H36.0685H36.0665H36.0646H36.0626H36.0606H36.0586H36.0566H36.0546H36.0526H36.0507H36.0487H36.0467H36.0447H36.0427H36.0407H36.0387H36.0367H36.0348H36.0328H36.0308H36.0288H36.0268H36.0248H36.0228H36.0208H36.0189H36.0169H36.0149H36.0129H36.0109H36.0089H36.0069H36.005H36.003H36.001H35.999H35.997H35.995H35.993H35.991H35.9891H35.9871H35.9851H35.9831H35.9811H35.9791H35.9771H35.9751H35.9732H35.9712H35.9692H35.9672H35.9652H35.9632H35.9612H35.9593H35.9573H35.9553H35.9533H35.9513H35.9493H35.9473H35.9453H35.9434H36.3606ZM36.5434 32.7342C36.6422 32.9327 36.7877 33.1431 37.003 33.3255M36.5434 32.7342L37.003 33.3255M37.003 33.3255C37.0031 33.3256 37.0032 33.3257 37.0033 33.3258L37.3911 32.8679L37.0028 33.3253C37.0029 33.3254 37.0029 33.3254 37.003 33.3255ZM38.581 33.1972V33.5027M38.581 33.1972L38.5794 33.7972H38.5778H38.5761H38.5745H38.5728H38.5712H38.5695H38.5679H38.5662H38.5646H38.5629H38.5613H38.5597H38.558H38.5564H38.5547H38.5531H38.5514H38.5498H38.5481H38.5465H38.5448H38.5432H38.5415H38.5399H38.5382H38.5366H38.535H38.5333H38.5317H38.53H38.5284H38.5267H38.5251H38.5234H38.5218H38.5201H38.5185H38.5168H38.5152H38.5136H38.5119H38.5103H38.5086H38.507H38.5053H38.5037H38.502H38.5004H38.4987H38.4971H38.4954H38.4938H38.4921H38.4905H38.4889H38.4872H38.4856H38.4839H38.4823H38.4806H38.479H38.4773H38.4757H38.474H38.4724H38.4707H38.4691H38.4675H38.4658H38.4642H38.4625H38.4609H38.4592H38.4576H38.4559H38.4543H38.4526H38.451H38.4493H38.4477H38.4461H38.4444H38.4428H38.4411H38.4395H38.4378H38.4362H38.4345H38.4329H38.4312H38.4296H38.4279H38.4263H38.4247H38.423H38.4214H38.4197H38.4181H38.4164H38.4148H38.4131H38.4115H38.4098H38.4082H38.4065H38.4049H38.4033H38.4016H38.4H38.3983H38.3967H38.395H38.3934H38.3917H38.3901H38.3884H38.3868H38.3851H38.3835H38.3819H38.3802H38.3786H38.3769H38.3753H38.3736H38.372H38.3703H38.3687H38.367H38.3654H38.3637H38.3621H38.3605H38.3588H38.3572H38.3555H38.3539H38.3522H38.3506H38.3489H38.3473H38.3456H38.344H38.3423H38.3407H38.3391H38.3374C37.9577 33.7972 37.5877 33.7151 37.2456 33.5027H37.246H37.2523H37.2586H37.265H37.2713H37.2776H37.2839H37.2903H37.2966H37.3029H37.3092H37.3156H37.3219H37.3282H37.3345H37.3409H37.3472H37.3535H37.3598H37.3661H37.3725H37.3788H37.3851H37.3914H37.3978H37.4041H37.4104H37.4167H37.4231H37.4294H37.4357H37.442H37.4484H37.4547H37.461H37.4673H37.4736H37.48H37.4863H37.4926H37.4989H37.5053H37.5116H37.5179H37.5242H37.5306H37.5369H37.5432H37.5495H37.5558H37.5622H37.5685H37.5748H37.5811H37.5875H37.5938H37.6001H37.6064H37.6128H37.6191H37.6254H37.6317H37.6381H37.6444H37.6507H37.657H37.6633H37.6697H37.676H37.6823H37.6886H37.695H37.7013H37.7076H37.7139H37.7203H37.7266H37.7329H37.7392H37.7456H37.7519H37.7582H37.7645H37.7708H37.7772H37.7835H37.7898H37.7961H37.8025H37.8088H37.8151H37.8214H37.8278H37.8341H37.8404H37.8467H37.8531H37.8594H37.8657H37.872H37.8783H37.8847H37.891H37.8973H37.9036H37.91H37.9163H37.9226H37.9289H37.9353H37.9416H37.9479H37.9542H37.9606H37.9669H37.9732H37.9795H37.9858H37.9922H37.9985H38.0048H38.0111H38.0175H38.0238H38.0301H38.0364H38.0428H38.0491H38.0554H38.0617H38.0681H38.0744H38.0807H38.087H38.0933H38.0997H38.106H38.1123H38.1186H38.125H38.1313H38.1376H38.1439H38.1503H38.1566H38.1629H38.1692H38.1756H38.1819H38.1882H38.1945H38.2008H38.2072H38.2135H38.2198H38.2261H38.2325H38.2388H38.2451H38.2514H38.2578H38.2641H38.2704H38.2767H38.2831H38.2894H38.2957H38.302H38.3083H38.3147H38.321H38.3273H38.3336H38.3374H38.34H38.3463H38.3526H38.3589H38.3653H38.3716H38.3779H38.3842H38.3906H38.3969H38.4032H38.4095H38.4158H38.4222H38.4285H38.4348H38.4411H38.4475H38.4538H38.4601H38.4664H38.4728H38.4791H38.4854H38.4917H38.498H38.5044H38.5107H38.517H38.5233H38.5297H38.536H38.5423H38.5486H38.555H38.5613H38.5676H38.5739H38.5803H38.581M38.581 33.1972H39.181V33.5027M38.581 33.1972L39.181 33.5027M38.581 33.5027H38.5866H38.5929H38.5992H38.6055H38.6119H38.6182H38.6245H38.6308H38.6372H38.6435H38.6498H38.6561H38.6625H38.6688H38.6751H38.6814H38.6878H38.6941H38.7004H38.7067H38.713H38.7194H38.7257H38.732H38.7383H38.7447H38.751H38.7573H38.7636H38.77H38.7763H38.7826H38.7889H38.7953H38.8016H38.8079H38.8142H38.8205H38.8269H38.8332H38.8395H38.8458H38.8522H38.8585H38.8648H38.8711H38.8775H38.8838H38.8901H38.8964H38.9028H38.9091H38.9154H38.9217H38.928H38.9344H38.9407H38.947H38.9533H38.9597H38.966H38.9723H38.9786H38.985H38.9913H38.9976H39.0039H39.0103H39.0166H39.0229H39.0292H39.0355H39.0419H39.0482H39.0545H39.0608H39.0672H39.0735H39.0798H39.0861H39.0925H39.0988H39.1051H39.1114H39.1178H39.1241H39.1304H39.1367H39.143H39.1494H39.1557H39.162H39.1683H39.1747H39.181M38.581 33.5027H39.181M39.181 33.7972V34.1027V33.7972Z" fill="#0066AA" stroke="#0066A9" stroke-width="1.2"/>
</g>
</svg>
