<?xml version="1.0" standalone="no"?>
<!DOCTYPE svg PUBLIC "-//W3C//DTD SVG 20010904//EN"
 "http://www.w3.org/TR/2001/REC-SVG-20010904/DTD/svg10.dtd">
<svg version="1.0" xmlns="http://www.w3.org/2000/svg"
 width="260.000000pt" height="260.000000pt" viewBox="0 0 260.000000 260.000000"
 preserveAspectRatio="xMidYMid meet">
<metadata>
Created by potrace 1.14, written by Peter Selinger 2001-2017
</metadata>
<g transform="translate(0.000000,260.000000) scale(0.100000,-0.100000)"
fill="#000000" stroke="none">
<path d="M1096 2585 c-183 -30 -352 -96 -513 -200 -119 -77 -309 -270 -382
-388 -206 -334 -256 -737 -136 -1101 68 -211 159 -354 329 -521 135 -132 233
-200 388 -267 289 -125 625 -141 922 -43 211 68 354 159 521 329 132 135 200
233 267 388 125 289 141 625 43 922 -68 211 -159 354 -329 521 -182 179 -350
274 -596 337 -97 25 -140 30 -270 33 -106 3 -183 0 -244 -10z m464 -54 c237
-53 433 -157 604 -321 196 -188 320 -413 373 -678 24 -120 23 -357 -1 -472
-52 -246 -159 -449 -326 -624 -188 -196 -413 -320 -678 -373 -120 -24 -357
-23 -472 1 -246 52 -449 159 -624 326 -196 188 -320 413 -373 678 -24 120 -23
357 1 472 52 246 159 449 326 624 214 224 466 348 790 390 72 9 297 -5 380
-23z"/>
<path d="M587 1711 c-4 -16 2 -20 36 -24 23 -3 47 -14 54 -23 10 -14 13 -98
13 -364 0 -346 0 -347 -22 -367 -13 -12 -36 -23 -53 -25 -22 -2 -30 -8 -30
-23 0 -19 8 -20 128 -23 l127 -3 0 26 c0 22 -4 25 -32 25 -61 0 -58 -15 -56
374 l3 358 234 -391 233 -391 39 0 40 0 -15 28 c-8 15 -125 209 -258 432
l-244 405 -96 3 c-87 2 -96 1 -101 -17z"/>
<path d="M840 1726 c0 -15 464 -795 470 -791 4 3 95 161 200 352 106 192 197
352 202 357 4 6 8 -148 8 -342 0 -339 -1 -353 -20 -372 -12 -12 -33 -20 -55
-20 -31 0 -35 -3 -35 -25 0 -25 1 -25 85 -25 l85 0 0 436 0 435 -47 -3 -47 -3
-190 -332 -190 -332 -90 152 c-50 84 -140 234 -199 335 -107 179 -109 182
-143 182 -19 0 -34 -2 -34 -4z"/>
<path d="M1830 1296 l0 -436 85 0 c84 0 85 0 85 25 0 22 -4 25 -38 25 -73 0
-71 -12 -74 426 l-3 389 -27 3 -28 3 0 -435z"/>
</g>
</svg>
