<?xml version="1.0" standalone="no"?>
<!DOCTYPE svg PUBLIC "-//W3C//DTD SVG 1.1//EN" "http://www.w3.org/Graphics/SVG/1.1/DTD/svg11.dtd" >
<svg xmlns="http://www.w3.org/2000/svg" xmlns:xlink="http://www.w3.org/1999/xlink" version="1.1">
<metadata>
Created by FontForge 20190801 at Fri Apr  7 07:27:43 2017
 By root
Copyright (c) 2017 by Artegra. All rights reserved.
</metadata>
<defs>
<font id="ArtegraSans-Medium" horiz-adv-x="1199" >
  <font-face 
    font-family="ArtegraSans-Medium"
    font-weight="500"
    font-stretch="normal"
    units-per-em="2048"
    panose-1="2 0 6 3 4 0 0 2 0 4"
    ascent="1521"
    descent="-527"
    x-height="1014"
    cap-height="1434"
    bbox="-190 -691 2979 2138"
    underline-thickness="102"
    underline-position="-409"
    unicode-range="U+000D-FE65"
  />
<missing-glyph horiz-adv-x="922" 
 />
    <glyph glyph-name="ff" unicode="ff" horiz-adv-x="1467" 
d="M1064 1014h293v-155h-293v-859h-189v859h-425v-859h-189v859h-191v155h191q0 118 15 200t51 143t100 90t158 29q117 0 208 -43l-55 -138q-72 26 -143 26q-90 0 -117.5 -68t-27.5 -239h425q0 111 8.5 189.5t30 144.5t59 105.5t96 61t140.5 21.5q127 0 218 -43l-55 -138
q-80 26 -153 26q-35 0 -59.5 -8.5t-42 -29.5t-28 -47.5t-16 -71.5t-7.5 -92t-2 -118z" />
    <glyph glyph-name="fi" unicode="fi" horiz-adv-x="1194" 
d="M450 1014h614v-1014h-189v859h-425v-859h-189v859h-191v155h191q0 261 104.5 391.5t334.5 130.5q228 0 343 -143l-125 -98q-86 86 -208 86q-142 0 -201 -85.5t-59 -281.5z" />
    <glyph glyph-name="fl" unicode="fl" horiz-adv-x="1265" 
d="M450 859v-859h-189v859h-191v155h191q0 261 104.5 391.5t334.5 130.5q88 0 164 -23t115.5 -48t84.5 -63v-1121q0 -31 1.5 -48.5t8.5 -38t23 -30t42 -9.5h36v-155h-56q-65 0 -111.5 17t-71.5 42t-39.5 65t-18 74.5t-3.5 82.5v578h-425zM710 1381q-142 0 -201 -85.5
t-59 -281.5h425v318q-68 49 -165 49z" />
    <glyph glyph-name="ffi" unicode="ffi" horiz-adv-x="1808" 
d="M1064 1014h614v-1014h-189v859h-425v-859h-189v859h-425v-859h-189v859h-191v155h191q0 118 15 200t51 143t100 90t158 29q117 0 208 -43l-55 -138q-72 26 -143 26q-90 0 -117.5 -68t-27.5 -239h425q0 261 104.5 391.5t334.5 130.5q228 0 343 -143l-125 -98
q-86 86 -208 86q-142 0 -201 -85.5t-59 -281.5z" />
    <glyph glyph-name="ffl" unicode="ffl" horiz-adv-x="1879" 
d="M1064 859v-859h-189v859h-425v-859h-189v859h-191v155h191q0 118 15 200t51 143t100 90t158 29q117 0 208 -43l-55 -138q-72 26 -143 26q-90 0 -117.5 -68t-27.5 -239h425q0 261 104.5 391.5t334.5 130.5q88 0 164 -23t115.5 -48t84.5 -63v-1121q0 -31 1.5 -48.5t8.5 -38
t23 -30t42 -9.5h36v-155h-56q-65 0 -111.5 17t-71.5 42t-39.5 65t-18 74.5t-3.5 82.5v578h-425zM1324 1381q-142 0 -201 -85.5t-59 -281.5h425v318q-68 49 -165 49z" />
    <glyph glyph-name=".notdef" horiz-adv-x="922" 
 />
    <glyph glyph-name=".null" horiz-adv-x="0" 
 />
    <glyph glyph-name="nonmarkingreturn" unicode="&#xd;" horiz-adv-x="922" 
 />
    <glyph glyph-name="null" horiz-adv-x="0" 
 />
    <glyph glyph-name="null" horiz-adv-x="0" 
 />
    <glyph glyph-name="space" unicode=" " horiz-adv-x="573" 
 />
    <glyph glyph-name="exclam" unicode="!" horiz-adv-x="578" 
d="M205 371l-15 1063h199l-15 -1063h-169zM170 109q0 49 35 84t84 35t84 -35t35 -84t-35 -84t-84 -35t-84 35t-35 84z" />
    <glyph glyph-name="quotedbl" unicode="&#x22;" horiz-adv-x="728" 
d="M128 977l-18 457h204l-17 -457h-169zM431 977l-17 457h204l-17 -457h-170z" />
    <glyph glyph-name="numbersign" unicode="#" horiz-adv-x="1435" 
d="M754 0l59 372h-301l-59 -372h-189l59 372h-213v170h240l56 350h-212v170h239l60 372h189l-60 -372h301l60 372h188l-60 -372h214v-170h-241l-55 -350h213v-170h-240l-59 -372h-189zM595 892l-56 -350h301l56 350h-301z" />
    <glyph glyph-name="dollar" unicode="$" horiz-adv-x="1319" 
d="M1143 1337l-95 -140q-178 91 -397 91q-157 0 -233 -54.5t-76 -154.5q0 -97 79 -152t266 -94q275 -58 403.5 -159.5t128.5 -279.5q0 -188 -121.5 -293.5t-348.5 -118.5v-201h-165v203q-292 20 -484 149l95 140q227 -127 492 -127q98 0 165.5 19.5t103 55.5t50 77.5
t14.5 95.5q0 102 -82 160.5t-286 100.5q-272 56 -390.5 160t-118.5 264q0 68 23 128.5t72 114t137.5 88t208.5 42.5v201h165v-202q228 -16 394 -114z" />
    <glyph glyph-name="uni0025" unicode="%" horiz-adv-x="1503" 
d="M243 0l805 1434h212l-805 -1434h-212zM110 1157q0 125 84.5 211t212.5 86t212.5 -86t84.5 -211t-84.5 -211t-212.5 -86t-212.5 86t-84.5 211zM293 1157q0 -50 30.5 -82t83.5 -32t83.5 32t30.5 82t-30.5 82t-83.5 32t-83.5 -32t-30.5 -82zM799 277q0 125 84.5 211
t212.5 86t212.5 -86t84.5 -211t-84.5 -211t-212.5 -86t-212.5 86t-84.5 211zM982 277q0 -50 30.5 -82t83.5 -32t83.5 32t30.5 82t-30.5 82t-83.5 32t-83.5 -32t-30.5 -82z" />
    <glyph glyph-name="ampersand" unicode="&#x26;" horiz-adv-x="1450" 
d="M578 1454q161 0 243 -87t82 -228q0 -181 -194 -333l-107 -90q126 -173 299 -326q61 100 113 289l182 -53q-56 -228 -145 -360q106 -88 236 -180q68 -50 123 -86h-305q-25 15 -54 33q-75 49 -119 85q-144 -138 -378 -138q-95 0 -173 21t-140 64.5t-96.5 117.5t-34.5 173
q0 122 60.5 217t173.5 186q-111 171 -111 337q0 167 91 262.5t254 95.5zM309 356q0 -100 68.5 -155t173.5 -55q141 0 237 96q-82 72 -173.5 168t-165.5 191q-140 -105 -140 -245zM502 871l91 74q111 79 111 194q0 149 -126 149q-67 0 -106.5 -48t-39.5 -144q0 -126 70 -225z
" />
    <glyph glyph-name="quotesingle" unicode="'" horiz-adv-x="424" 
d="M128 977l-18 457h204l-17 -457h-169z" />
    <glyph glyph-name="parenleft" unicode="(" horiz-adv-x="834" 
d="M329 597q0 -385 207 -598q91 -92 208 -135l-66 -178q-154 50 -274 164q-274 262 -274 747t274 747q123 115 274 164l66 -178q-117 -43 -208 -135q-207 -213 -207 -598z" />
    <glyph glyph-name="parenright" unicode=")" horiz-adv-x="834" 
d="M505 597q0 384 -208 598q-91 93 -207 135l66 178q151 -49 274 -164q274 -262 274 -747t-274 -747q-120 -114 -274 -164l-66 178q116 42 207 135q208 214 208 598z" />
    <glyph glyph-name="asterisk" unicode="*" horiz-adv-x="940" 
d="M613 708l-143 218l-143 -218l-151 111l174 200l-260 70l53 178l248 -97l-14 264h186l-14 -264l248 97l53 -178l-260 -70l174 -200z" />
    <glyph glyph-name="plus" unicode="+" horiz-adv-x="1161" 
d="M1051 774v-166h-383v-388h-178v388h-380v166h380v386h178v-386h383z" />
    <glyph glyph-name="comma" unicode="," horiz-adv-x="572" 
d="M90 -221l154 436h218l-189 -436h-183z" />
    <glyph glyph-name="hyphen" unicode="-" horiz-adv-x="875" 
d="M110 475v155h655v-155h-655z" />
    <glyph glyph-name="period" unicode="." horiz-adv-x="458" 
d="M110 109q0 49 35 84t84 35t84 -35t35 -84t-35 -84t-84 -35t-84 35t-35 84z" />
    <glyph glyph-name="slash" unicode="/" horiz-adv-x="1085" 
d="M110 0l659 1434h206l-659 -1434h-206z" />
    <glyph glyph-name="zero" unicode="0" horiz-adv-x="1334" 
d="M667 -20q-115 0 -210 37.5t-162.5 104.5t-114 160t-68.5 202t-22 233t22 233t68.5 202t114 160t162.5 104.5t210 37.5t210 -37.5t162.5 -104.5t114 -160t68.5 -202t22 -233t-22 -233t-68.5 -202t-114 -160t-162.5 -104.5t-210 -37.5zM667 146q94 0 166 45.5t114 125.5
t63 180.5t21 219.5t-21 219.5t-63 180.5t-114 125.5t-166 45.5t-166 -45.5t-114 -125.5t-63 -180.5t-21 -219.5t21 -219.5t63 -180.5t114 -125.5t166 -45.5z" />
    <glyph glyph-name="one" unicode="1" horiz-adv-x="699" 
d="M171 945l-131 147l378 342h151v-1434h-199v1125z" />
    <glyph glyph-name="two" unicode="2" horiz-adv-x="1190" 
d="M297 1065l-173 64q8 29 23 62.5t52.5 83t87 87t133 65t184.5 27.5q211 0 335.5 -102t124.5 -288q0 -58 -17.5 -114.5t-55 -115.5t-73 -104t-94.5 -112l-419 -452h675v-166h-970v124l590 638q165 178 165 302q0 224 -261 224q-225 0 -307 -223z" />
    <glyph glyph-name="three" unicode="3" horiz-adv-x="1207" 
d="M90 233l173 64q88 -151 319 -151q172 0 254 68.5t82 187.5q0 62 -22.5 107t-60 72.5t-97 43.5t-122.5 21.5t-148 5.5v166q95 0 165 10.5t130 36.5t91.5 76.5t31.5 124.5q0 222 -294 222q-69 0 -125 -16t-90 -42.5t-52.5 -48t-31.5 -44.5l-173 64q14 31 35 61t60.5 66
t89 63t124.5 45t163 18q224 0 358.5 -99.5t134.5 -288.5q0 -64 -19 -117.5t-47.5 -88.5t-64.5 -61t-67 -39t-59 -18q57 -13 106 -38t91.5 -64.5t67 -100.5t24.5 -137q0 -207 -143 -314.5t-392 -107.5q-393 0 -492 253z" />
    <glyph glyph-name="four" unicode="4" horiz-adv-x="1310" 
d="M1025 0h-199v359h-716v127l733 948h182v-909h195v-166h-195v-359zM371 525h455v588z" />
    <glyph glyph-name="five" unicode="5" horiz-adv-x="1250" 
d="M1049 1434v-166h-663l-23 -374q40 18 117.5 30t153.5 12q111 0 198.5 -26.5t144.5 -71t94.5 -106.5t53 -130t15.5 -145q0 -76 -15.5 -143.5t-53 -129.5t-94.5 -106.5t-144.5 -71t-198.5 -26.5q-105 0 -193.5 16.5t-148 44.5t-98 54.5t-64.5 56.5l112 123
q152 -129 392 -129q88 0 151.5 25t98.5 69.5t51 98t16 118.5q0 66 -16 120t-51 98.5t-98.5 69.5t-151.5 25q-184 0 -345 -68q-74 -31 -129 -67l49 799h840z" />
    <glyph glyph-name="six" unicode="6" horiz-adv-x="1271" 
d="M1034 1394l-82 -149q-190 68 -327.5 26t-217 -166t-97.5 -310q44 92 134.5 141.5t195.5 49.5q127 0 229 -42t164.5 -113.5t95 -160t32.5 -186.5q0 -79 -20 -151.5t-62.5 -137t-103 -112.5t-146.5 -75.5t-189 -27.5q-101 0 -184 26.5t-141 72t-100 109.5t-65 136t-31 154
q-20 204 6.5 373t89.5 282.5t154.5 190.5t201 106.5t228 21t235.5 -57.5zM962 484q0 65 -19.5 124t-57.5 107t-101.5 76.5t-143.5 28.5q-81 0 -144.5 -28.5t-101 -76.5t-57 -107t-19.5 -124q0 -52 11.5 -100t37.5 -91.5t63 -76t91 -51.5t119 -19t118.5 19t91 51.5t63 76
t37.5 91.5t12 100z" />
    <glyph glyph-name="seven" unicode="7" horiz-adv-x="1137" 
d="M110 1268v166h917v-134l-594 -1300h-202l578 1268h-699z" />
    <glyph glyph-name="eight" unicode="8" horiz-adv-x="1268" 
d="M634 -20q-247 0 -395.5 110.5t-148.5 321.5q0 113 63 206t164 133q-74 32 -129 118t-55 182q0 185 137 294t364 109t364 -109t137 -294q0 -96 -55 -182t-129 -118q101 -41 164 -133t63 -206q0 -211 -148.5 -321.5t-395.5 -110.5zM634 146q167 0 256 74t89 192t-89 192
t-256 74t-256 -74t-89 -192t89 -192t256 -74zM634 814q141 0 221.5 65.5t80.5 171.5t-80.5 171.5t-221.5 65.5t-221.5 -65.5t-80.5 -171.5t80.5 -171.5t221.5 -65.5z" />
    <glyph glyph-name="nine" unicode="9" horiz-adv-x="1271" 
d="M237 40l82 149q191 -69 327.5 -26t216 166.5t98.5 309.5q-44 -92 -134.5 -141.5t-195.5 -49.5q-127 0 -229 42t-164.5 113.5t-95 160t-32.5 186.5q0 79 20 151.5t62.5 137t103 112.5t146.5 75.5t189 27.5q101 0 184 -26.5t141 -72t100 -109.5t65 -136t31 -154
q17 -180 0 -325.5t-63.5 -258t-115 -192t-154.5 -127t-182 -65t-198 -4t-202 55.5zM309 950q0 -65 19.5 -124t57.5 -107t101.5 -76.5t143.5 -28.5q81 0 144.5 28.5t101 76.5t57 107t19.5 124q0 52 -11.5 100t-37.5 91.5t-63 76t-91 51.5t-119 19t-118.5 -19t-91 -51.5
t-63 -76t-37.5 -91.5t-12 -100z" />
    <glyph glyph-name="colon" unicode=":" horiz-adv-x="458" 
d="M110 109q0 49 35 84t84 35t84 -35t35 -84t-35 -84t-84 -35t-84 35t-35 84zM110 905q0 49 35 84t84 35t84 -35t35 -84t-35 -84t-84 -35t-84 35t-35 84z" />
    <glyph glyph-name="semicolon" unicode=";" horiz-adv-x="518" 
d="M170 905q0 49 35 84t84 35t84 -35t35 -84t-35 -84t-84 -35t-84 35t-35 84zM10 -221l154 436h218l-189 -436h-183z" />
    <glyph glyph-name="less" unicode="&#x3c;" horiz-adv-x="1157" 
d="M110 667l917 472v-210l-676 -329l676 -329v-210l-917 472v134z" />
    <glyph glyph-name="equal" unicode="=" horiz-adv-x="1017" 
d="M110 419v166h797v-166h-797zM110 743v166h797v-166h-797z" />
    <glyph glyph-name="greater" unicode="&#x3e;" horiz-adv-x="1157" 
d="M130 1139l917 -472v-134l-917 -472v210l676 329l-676 329v210z" />
    <glyph glyph-name="question" unicode="?" horiz-adv-x="1126" 
d="M242 1103l-152 86q15 30 34.5 59t59.5 68.5t88.5 68t123.5 49t162 20.5q125 0 220 -33t150 -89.5t81.5 -124t26.5 -143.5q0 -48 -11 -93.5t-39.5 -94.5t-73.5 -89t-119.5 -73t-170.5 -49v-294h-199v420q198 2 306 70.5t108 202.5q0 108 -74 166t-205 58q-208 0 -316 -185
zM404 108q0 50 34 84.5t84 34.5t84.5 -34.5t34.5 -84.5t-34.5 -84t-84.5 -34t-84 34t-34 84z" />
    <glyph glyph-name="at" unicode="@" horiz-adv-x="1680" 
d="M1265 385q-93 0 -152.5 42.5t-74.5 101.5q-25 -85 -92 -143.5t-173 -58.5q-44 0 -87.5 11.5t-87.5 41t-75.5 73.5t-47.5 115t-8 159q10 90 44 160.5t76.5 111t95 66.5t95.5 34.5t82 8.5q153 0 294 -69q-15 -188 -19 -312q-5 -176 120 -176q63 0 99.5 41.5t36.5 124.5
q0 175 -76 306.5t-200 198t-275 66.5t-275 -66.5t-200 -198t-76 -306.5t76 -306.5t200 -198t275 -66.5q288 0 448 142l121 -127q-190 -181 -569 -181q-203 0 -373 90t-273.5 260t-103.5 387q0 163 60.5 302.5t162.5 233.5t239 147.5t288 53.5t288 -53.5t239 -147.5
t162.5 -233.5t60.5 -302.5q0 -153 -82 -242.5t-243 -89.5zM653 716q-11 -103 26.5 -163t115.5 -60q144 0 173 249q5 46 12 126q2 32 3 60q-133 41 -224 -13t-106 -199z" />
    <glyph glyph-name="A" unicode="A" horiz-adv-x="1478" 
d="M251 0h-211l613 1434h172l613 -1434h-211l-171 409h-634zM987 575l-248 593l-248 -593h496z" />
    <glyph glyph-name="B" unicode="B" horiz-adv-x="1387" 
d="M774 0h-644v1434h624q111 0 197.5 -24t140 -62t88 -91t48 -105.5t13.5 -110.5q0 -95 -46 -174t-149 -120q129 -38 190 -132t61 -208q0 -62 -15 -118t-52.5 -110t-95.5 -92.5t-150 -62.5t-210 -24zM329 166h445q74 0 130 13.5t90 35.5t55.5 54t29 65t7.5 73
q0 241 -312 241h-445v-482zM329 814h425q276 0 276 227t-276 227h-425v-454z" />
    <glyph glyph-name="C" unicode="C" horiz-adv-x="1393" 
d="M90 717q0 158 49.5 292.5t142 233.5t233.5 155t314 56q316 0 494 -150l-98 -134q-163 118 -396 118q-128 0 -229 -44t-165.5 -121.5t-98 -181t-33.5 -224.5t33.5 -224.5t98 -181t165.5 -121.5t229 -44q233 0 396 118l98 -134q-178 -150 -494 -150q-173 0 -314 56
t-233.5 155t-142 233.5t-49.5 292.5z" />
    <glyph glyph-name="D" unicode="D" horiz-adv-x="1427" 
d="M1337 717q0 -335 -177 -526t-520 -191h-510v1434h510q343 0 520 -191.5t177 -525.5zM329 1268v-1102h311q127 0 223 41t154 116t86.5 173.5t28.5 220.5t-28.5 220.5t-86.5 173.5t-154 116t-223 41h-311z" />
    <glyph glyph-name="E" unicode="E" horiz-adv-x="1227" 
d="M329 815h742v-166h-742v-483h788v-166h-987v1434h977v-166h-778v-453z" />
    <glyph glyph-name="F" unicode="F" horiz-adv-x="1217" 
d="M329 815h742v-166h-742v-649h-199v1434h977v-166h-778v-453z" />
    <glyph glyph-name="G" unicode="G" horiz-adv-x="1503" 
d="M829 146q244 0 365 92v390h-345v187h544v-659q-188 -176 -564 -176q-173 0 -314 56t-233.5 155t-142 233.5t-49.5 292.5t49.5 292.5t142 233.5t233.5 155t314 56q165 0 311.5 -42t248.5 -124l-102 -134q-197 134 -458 134q-128 0 -229 -44t-165.5 -121.5t-98 -181
t-33.5 -224.5t33.5 -224.5t98 -181t165.5 -121.5t229 -44z" />
    <glyph glyph-name="H" unicode="H" horiz-adv-x="1421" 
d="M1092 816v618h199v-1434h-199v650h-763v-650h-199v1434h199v-618h763z" />
    <glyph glyph-name="I" unicode="I" horiz-adv-x="459" 
d="M130 0v1434h199v-1434h-199z" />
    <glyph glyph-name="J" unicode="J" horiz-adv-x="1097" 
d="M70 267l181 51q33 -82 93.5 -127t164.5 -45q143 0 201 71.5t58 234.5v982h199v-982q0 -246 -112 -359t-346 -113q-349 0 -439 287z" />
    <glyph glyph-name="K" unicode="K" horiz-adv-x="1362" 
d="M329 735l726 699h257l-645 -621l655 -813h-243l-548 682l-202 -195v-487h-199v1434h199v-699z" />
    <glyph glyph-name="L" unicode="L" horiz-adv-x="1141" 
d="M329 1434v-1268h722v-166h-921v1434h199z" />
    <glyph glyph-name="M" unicode="M" horiz-adv-x="1762" 
d="M382 1434l499 -1149l499 1149h252v-1434h-199v1069l-466 -1069h-172l-466 1069v-1069h-199v1434h252z" />
    <glyph glyph-name="N" unicode="N" horiz-adv-x="1448" 
d="M130 0v1434h227l762 -1132v1132h199v-1434h-227l-762 1132v-1132h-199z" />
    <glyph glyph-name="O" unicode="O" horiz-adv-x="1658" 
d="M829 -20q-173 0 -314 56t-233.5 155t-142 233.5t-49.5 292.5t49.5 292.5t142 233.5t233.5 155t314 56t314 -56t233.5 -155t142 -233.5t49.5 -292.5t-49.5 -292.5t-142 -233.5t-233.5 -155t-314 -56zM829 146q127 0 228 44t165.5 121.5t98.5 181t34 224.5t-34 224.5
t-98.5 181t-165.5 121.5t-228 44q-128 0 -229 -44t-165.5 -121.5t-98 -181t-33.5 -224.5t33.5 -224.5t98 -181t165.5 -121.5t229 -44z" />
    <glyph glyph-name="P" unicode="P" horiz-adv-x="1354" 
d="M739 1268h-410v-576h410q296 0 296 288t-296 288zM329 0h-199v1434h609q249 0 377 -118.5t128 -335.5q0 -215 -128 -334.5t-377 -119.5h-410v-526z" />
    <glyph glyph-name="Q" unicode="Q" horiz-adv-x="1658" 
d="M829 -20q-173 0 -314 56t-233.5 155t-142 233.5t-49.5 292.5t49.5 292.5t142 233.5t233.5 155t314 56t314 -56t233.5 -155t142 -233.5t49.5 -292.5q0 -196 -73.5 -352.5t-213.5 -254.5l184 -200h-242l-102 117q-132 -47 -292 -47zM829 146q90 0 170 23l-182 210h216
l121 -132q99 76 150 197.5t51 272.5q0 121 -34 224.5t-98.5 181t-165.5 121.5t-228 44q-128 0 -229 -44t-165.5 -121.5t-98 -181t-33.5 -224.5t33.5 -224.5t98 -181t165.5 -121.5t229 -44z" />
    <glyph glyph-name="R" unicode="R" horiz-adv-x="1323" 
d="M329 0h-199v1434h609q240 0 366 -115.5t126 -308.5q0 -171 -99 -275.5t-256 -132.5l357 -602h-222l-347 586h-335v-586zM739 1268h-410v-516h410q143 0 213 71t70 187q0 258 -283 258z" />
    <glyph glyph-name="S" unicode="S" horiz-adv-x="1259" 
d="M1113 1337l-95 -140q-178 91 -397 91q-157 0 -233 -54.5t-76 -154.5q0 -97 79 -152t266 -94q275 -58 403.5 -159.5t128.5 -279.5q0 -200 -138 -307t-394 -107q-361 0 -587 153l95 140q227 -127 492 -127q98 0 165.5 19.5t103 55.5t50 77.5t14.5 95.5q0 102 -82 160.5
t-286 100.5q-272 56 -390.5 160t-118.5 264q0 58 15.5 109.5t53 101t94 85.5t145 57.5t200.5 21.5q157 0 272.5 -28t219.5 -89z" />
    <glyph glyph-name="T" unicode="T" horiz-adv-x="1347" 
d="M70 1434h1207v-166h-504v-1268h-199v1268h-504v166z" />
    <glyph glyph-name="U" unicode="U" horiz-adv-x="1454" 
d="M727 146q398 0 398 476v812h199v-812q0 -306 -148 -474t-449 -168t-449 168t-148 474v812h199v-812q0 -476 398 -476z" />
    <glyph glyph-name="V" unicode="V" horiz-adv-x="1438" 
d="M251 1434l468 -1168l468 1168h211l-593 -1434h-172l-593 1434h211z" />
    <glyph glyph-name="W" unicode="W" horiz-adv-x="1980" 
d="M510 0l-470 1434h208l339 -1053l276 1053h254l276 -1053l339 1053h208l-470 -1434h-167l-313 1190l-313 -1190h-167z" />
    <glyph glyph-name="X" unicode="X" horiz-adv-x="1417" 
d="M708 902l388 532h234l-500 -686l547 -748h-234l-435 594l-434 -594h-234l546 748l-499 686h234z" />
    <glyph glyph-name="Y" unicode="Y" horiz-adv-x="1399" 
d="M1359 1434l-560 -840v-594h-199v594l-560 840h233l426 -654l427 654h233z" />
    <glyph glyph-name="Z" unicode="Z" horiz-adv-x="1344" 
d="M395 166h839v-166h-1124v97l840 1171h-815v166h1099v-97z" />
    <glyph glyph-name="bracketleft" unicode="[" horiz-adv-x="762" 
d="M359 1268v-1431h283v-166h-482v1763h482v-166h-283z" />
    <glyph glyph-name="backslash" unicode="\" horiz-adv-x="1105" 
d="M325 1434l660 -1434h-205l-660 1434h205z" />
    <glyph glyph-name="bracketright" unicode="]" horiz-adv-x="762" 
d="M403 -163v1431h-283v166h482v-1763h-482v166h283z" />
    <glyph glyph-name="asciicircum" unicode="^" horiz-adv-x="1068" 
d="M747 835l-213 337l-213 -337h-211l359 599h130l359 -599h-211z" />
    <glyph glyph-name="underscore" unicode="_" horiz-adv-x="1488" 
d="M110 -532v155h1268v-155h-1268z" />
    <glyph glyph-name="grave" unicode="`" horiz-adv-x="675" 
d="M322 1434l263 -299h-190l-305 299h232z" />
    <glyph glyph-name="a" unicode="a" horiz-adv-x="1149" 
d="M598 879q-177 0 -340 -80l-73 132q85 49 196.5 76t216.5 27q81 0 146 -13.5t108.5 -34.5t75 -55t49 -67t27.5 -78.5t12.5 -81.5t2.5 -84v-620h-189v169q-37 -85 -118.5 -137t-209.5 -52q-191 0 -301.5 86t-110.5 242q0 69 24.5 125.5t66.5 95t101 66t124 42.5t140 21.5
t144 5.5t140 -7q-2 116 -48.5 169t-183.5 53zM286 308q0 -80 55.5 -126.5t170.5 -46.5q155 0 236.5 89.5t81.5 222.5v80q-64 8 -131 9t-143 -10t-134.5 -34.5t-97 -70.5t-38.5 -113z" />
    <glyph glyph-name="b" unicode="b" horiz-adv-x="1282" 
d="M319 0h-189v1516h189v-703q53 108 156.5 164.5t213.5 56.5q154 0 270 -71.5t174.5 -190t58.5 -265.5t-58.5 -265.5t-174.5 -190t-270 -71.5q-110 0 -213.5 56.5t-156.5 164.5v-201zM659 879q-85 0 -152 -32.5t-107 -86.5t-60.5 -119t-20.5 -134q0 -70 20.5 -134.5
t60.5 -118.5t107 -86.5t152 -32.5t152 32.5t107 86.5t60.5 118.5t20.5 134.5q0 69 -20.5 134t-60.5 119t-107 86.5t-152 32.5z" />
    <glyph glyph-name="c" unicode="c" horiz-adv-x="1101" 
d="M285 507q0 -74 22 -140t64.5 -118.5t112.5 -83t159 -30.5q171 0 294 97l94 -121q-138 -131 -388 -131q-255 0 -404 148t-149 379t149 379t404 148q250 0 388 -131l-94 -121q-123 97 -294 97q-89 0 -159 -30.5t-112.5 -83t-64.5 -118.5t-22 -140z" />
    <glyph glyph-name="d" unicode="d" horiz-adv-x="1282" 
d="M1152 0h-189v201q-53 -108 -156.5 -164.5t-213.5 -56.5q-154 0 -270 71.5t-174.5 190t-58.5 265.5t58.5 265.5t174.5 190t270 71.5q110 0 213.5 -56.5t156.5 -164.5v703h189v-1516zM623 879q-85 0 -152 -32.5t-107 -86.5t-60.5 -119t-20.5 -134q0 -70 20.5 -134.5
t60.5 -118.5t107 -86.5t152 -32.5t152 32.5t107 86.5t60.5 118.5t20.5 134.5q0 69 -20.5 134t-60.5 119t-107 86.5t-152 32.5z" />
    <glyph glyph-name="e" unicode="e" 
d="M600 135q180 0 325 114l114 -112q-67 -67 -176.5 -112t-262.5 -45q-234 0 -372 148t-138 379t138 379t372 148q242 0 379 -160t129 -460h-815q9 -116 91 -197.5t216 -81.5zM294 579h612q-5 57 -23.5 107t-52.5 95t-93.5 71.5t-136.5 26.5t-136 -26.5t-93.5 -71
t-53.5 -95.5t-23 -107z" />
    <glyph glyph-name="f" unicode="f" horiz-adv-x="853" 
d="M450 1014h293v-155h-293v-859h-189v859h-191v155h191q0 111 8.5 189.5t30 144.5t59 105.5t96 61t140.5 21.5q127 0 218 -43l-55 -138q-80 26 -153 26q-35 0 -59.5 -8.5t-42 -29.5t-28 -47.5t-16 -71.5t-7.5 -92t-2 -118z" />
    <glyph glyph-name="g" unicode="g" horiz-adv-x="1282" 
d="M963 20v181q-53 -108 -156.5 -164.5t-213.5 -56.5q-154 0 -270 71.5t-174.5 190t-58.5 265.5t58.5 265.5t174.5 190t270 71.5q110 0 213.5 -56.5t156.5 -164.5v201h189v-994q0 -155 -37.5 -264t-110.5 -171t-167.5 -89.5t-219.5 -27.5q-122 0 -242 32.5t-200 92.5
l104 127q158 -97 338 -97q191 0 268.5 100t77.5 297zM623 879q-85 0 -152 -32.5t-107 -86.5t-60.5 -119t-20.5 -134q0 -70 20.5 -134.5t60.5 -118.5t107 -86.5t152 -32.5t152 32.5t107 86.5t60.5 118.5t20.5 134.5q0 69 -20.5 134t-60.5 119t-107 86.5t-152 32.5z" />
    <glyph glyph-name="h" unicode="h" 
d="M319 545v-545h-189v1516h189v-655q25 74 104 123.5t187 49.5q230 0 344.5 -130.5t114.5 -358.5v-545h-189v545q0 334 -280 334q-281 0 -281 -334z" />
    <glyph glyph-name="i" unicode="i" horiz-adv-x="503" 
d="M157 0v1014h189v-1014h-189zM130 1312q0 51 35.5 86.5t85.5 35.5q51 0 86.5 -35.5t35.5 -86.5q0 -50 -35.5 -85.5t-86.5 -35.5q-50 0 -85.5 35.5t-35.5 85.5z" />
    <glyph glyph-name="j" unicode="j" horiz-adv-x="502" 
d="M-170 -491l53 140q68 -26 138 -26q84 0 109.5 73t25.5 257v1061h189v-1061q0 -96 -7 -165.5t-28 -133t-56.5 -102t-93.5 -61.5t-139 -23q-103 0 -191 41zM129 1312q0 51 35.5 86.5t85.5 35.5q51 0 86.5 -35.5t35.5 -86.5q0 -50 -35.5 -85.5t-86.5 -35.5q-50 0 -85.5 35.5
t-35.5 85.5z" />
    <glyph glyph-name="k" unicode="k" horiz-adv-x="1120" 
d="M319 580l492 434h263l-472 -416l478 -598h-234l-381 477l-146 -128v-349h-189v1516h189v-936z" />
    <glyph glyph-name="l" unicode="l" horiz-adv-x="520" 
d="M130 281v1235h189v-1235q0 -31 1.5 -48.5t8.5 -38t23 -30t42 -9.5h36v-155h-56q-65 0 -111 16t-71.5 40t-40 64t-18 75t-3.5 86z" />
    <glyph glyph-name="m" unicode="m" horiz-adv-x="1775" 
d="M130 0v1014h189v-142q26 69 93 115.5t164 46.5q256 0 354 -195q19 35 44.5 66t63 61.5t89.5 49t112 18.5q201 0 303.5 -117.5t102.5 -346.5v-570h-189v570q0 148 -59.5 228.5t-177.5 80.5t-177.5 -80.5t-59.5 -228.5v-570h-189v570q0 148 -59.5 228.5t-177.5 80.5
t-177.5 -80.5t-59.5 -228.5v-570h-189z" />
    <glyph glyph-name="n" unicode="n" 
d="M319 545v-545h-189v1014h189v-153q25 74 104 123.5t187 49.5q230 0 344.5 -130.5t114.5 -358.5v-545h-189v545q0 334 -280 334q-281 0 -281 -334z" />
    <glyph glyph-name="o" unicode="o" horiz-adv-x="1286" 
d="M643 -20q-255 0 -404 148t-149 379t149 379t404 148q254 0 403.5 -148t149.5 -379t-149.5 -379t-403.5 -148zM643 135q89 0 159 30.5t112.5 82.5t64.5 118t22 141q0 74 -22 140t-64.5 118.5t-112.5 83t-159 30.5t-159 -30.5t-112.5 -83t-64.5 -118.5t-22 -140
q0 -75 22 -141t64.5 -118t112.5 -82.5t159 -30.5z" />
    <glyph glyph-name="p" unicode="p" horiz-adv-x="1282" 
d="M130 1014h189v-201q54 110 148 165.5t202 55.5q163 0 283.5 -71.5t180 -190t59.5 -265.5t-59.5 -265.5t-180 -190t-283.5 -71.5q-108 0 -202 55.5t-148 165.5v-733h-189v1546zM659 135q68 0 125 21.5t96 58t66.5 84.5t40 100.5t12.5 107.5q0 70 -20.5 134.5t-60.5 118.5
t-107 86.5t-152 32.5t-152 -32.5t-107 -86.5t-60.5 -118.5t-20.5 -134.5q0 -69 20.5 -134t60.5 -119t107 -86.5t152 -32.5z" />
    <glyph glyph-name="q" unicode="q" horiz-adv-x="1282" 
d="M963 1014h189v-1546h-189v733q-54 -110 -148 -165.5t-202 -55.5q-163 0 -283.5 71.5t-180 190t-59.5 265.5t59.5 265.5t180 190t283.5 71.5q108 0 202 -55.5t148 -165.5v201zM623 135q85 0 152 32.5t107 86.5t60.5 119t20.5 134q0 70 -20.5 134.5t-60.5 118.5t-107 86.5
t-152 32.5t-152 -32.5t-107 -86.5t-60.5 -118.5t-20.5 -134.5q0 -55 12.5 -107.5t40 -100.5t66.5 -84.5t96 -58t125 -21.5z" />
    <glyph glyph-name="r" unicode="r" horiz-adv-x="875" 
d="M835 990l-85 -145q-58 34 -150 34q-281 0 -281 -334v-545h-189v1014h189v-153q25 74 104 123.5t187 49.5q126 0 225 -44z" />
    <glyph glyph-name="s" unicode="s" horiz-adv-x="1020" 
d="M894 934l-88 -128q-136 73 -297 73q-95 0 -152 -32.5t-57 -94.5q0 -65 54.5 -97.5t182.5 -56.5q213 -40 313 -111.5t100 -206.5q0 -153 -117.5 -226.5t-329.5 -73.5q-272 0 -433 131l88 128q80 -55 172.5 -79.5t172.5 -24.5q140 0 196 36t56 109q0 68 -56.5 100.5
t-194.5 58.5q-211 39 -305 114t-94 199q0 127 104.5 204.5t299.5 77.5q223 0 385 -100z" />
    <glyph glyph-name="t" unicode="t" horiz-adv-x="853" 
d="M70 859v155h195v299h189v-299h293v-155h-293v-441q0 -68 2.5 -109t11 -78.5t24.5 -56.5t42.5 -29.5t65.5 -10.5q70 0 138 21l45 -146q-72 -29 -183 -29q-103 0 -168.5 24t-102.5 80.5t-50.5 134t-13.5 199.5v441h-195z" />
    <glyph glyph-name="u" unicode="u" 
d="M880 469v545h189v-1014h-189v153q-25 -74 -104 -123.5t-187 -49.5q-231 0 -345 130.5t-114 358.5v545h189v-545q0 -334 280 -334q281 0 281 334z" />
    <glyph glyph-name="v" unicode="v" horiz-adv-x="1154" 
d="M244 1014l333 -814l333 814h204l-437 -1014h-200l-437 1014h204z" />
    <glyph glyph-name="w" unicode="w" horiz-adv-x="1570" 
d="M1005 0l-220 726l-220 -726h-182l-343 1014h203l226 -758l231 758h170l231 -758l226 758h203l-343 -1014h-182z" />
    <glyph glyph-name="x" unicode="x" horiz-adv-x="1136" 
d="M688 527l408 -527h-227l-301 393l-301 -393h-227l407 527l-375 487h227l269 -353l269 353h227z" />
    <glyph glyph-name="y" unicode="y" horiz-adv-x="1154" 
d="M244 1014l333 -814l333 814h204l-562 -1304q-51 -122 -117.5 -182t-182.5 -60t-190 47l61 135q59 -27 104 -27q33 0 57.5 10.5t44 36.5t31 48t30.5 66l87 216l-437 1014h204z" />
    <glyph glyph-name="z" unicode="z" horiz-adv-x="1103" 
d="M110 0v91l605 768h-584v155h862v-91l-605 -768h605v-155h-883z" />
    <glyph glyph-name="braceleft" unicode="{" horiz-adv-x="860" 
d="M365 556q87 -42 136 -148.5t49 -270.5q0 -130 57 -218.5t143 -88.5v-176q-177 0 -284.5 131.5t-107.5 345.5q0 160 -64 240t-184 102v166q120 22 184 102t64 240q0 214 107.5 345.5t284.5 131.5v-176q-86 0 -143 -88.5t-57 -218.5q0 -164 -49 -270.5t-136 -148.5z" />
    <glyph glyph-name="bar" unicode="|" horiz-adv-x="459" 
d="M130 -532v1966h199v-1966h-199z" />
    <glyph glyph-name="braceright" unicode="}" horiz-adv-x="860" 
d="M495 556q-87 42 -136 148.5t-49 270.5q0 130 -57 218.5t-143 88.5v176q177 0 284.5 -131.5t107.5 -345.5q0 -160 64 -240t184 -102v-166q-120 -22 -184 -102t-64 -240q0 -214 -107.5 -345.5t-284.5 -131.5v176q86 0 143 88.5t57 218.5q0 164 49 270.5t136 148.5z" />
    <glyph glyph-name="asciitilde" unicode="~" horiz-adv-x="1088" 
d="M591 814q4 -5 16 -19t17.5 -20.5t17.5 -17.5t20.5 -16t21.5 -9t26 -4q41 0 62 60q10 27 11 60h195q-8 -87 -38 -152q-68 -152 -230 -152q-78 0 -125.5 25.5t-87.5 77.5q-3 4 -16 19t-18 20.5t-17 17t-21 16t-21.5 9t-25.5 4.5q-41 0 -62 -60q-10 -27 -11 -60h-195
q8 87 38 152q70 152 230 152q78 0 125.5 -25.5t87.5 -77.5z" />
    <glyph glyph-name="uni00A0" unicode="&#xa0;" horiz-adv-x="573" 
 />
    <glyph glyph-name="exclamdown" unicode="&#xa1;" horiz-adv-x="498" 
d="M333 531l15 -1063h-199l15 1063h169zM368 793q0 -49 -35 -84t-84 -35t-84 35t-35 84t35 84t84 35t84 -35t35 -84z" />
    <glyph glyph-name="cent" unicode="&#xa2;" horiz-adv-x="1101" 
d="M285 507q0 -74 22 -140t64.5 -118.5t112.5 -83t159 -30.5q171 0 294 97l94 -121q-121 -116 -327 -129v-213h-160v218q-211 27 -332.5 170t-121.5 350t121 348.5t333 171.5v218h160v-213q202 -13 327 -129l-94 -121q-123 97 -294 97q-89 0 -159 -30.5t-112.5 -83
t-64.5 -118.5t-22 -140z" />
    <glyph glyph-name="sterling" unicode="&#xa3;" horiz-adv-x="1331" 
d="M110 630v165h146q-15 102 -15 186q0 67 15.5 130.5t53.5 127t95 110.5t147 76t202 29q89 0 164 -19t123.5 -47t87 -67t58.5 -72.5t34 -69.5l-151 -79q-39 86 -112 137t-204 51q-158 0 -236 -86.5t-78 -220.5q0 -86 15 -186h486v-165h-457q26 -139 26 -241q0 -84 -39 -164
q-16 -33 -38 -59h763v-166h-997v127q28 35 56 84q56 102 56 184q0 95 -26 235h-175z" />
    <glyph glyph-name="currency" unicode="&#xa4;" horiz-adv-x="1180" 
d="M788 1371l145 145l137 -138l-145 -145q54 -91 54 -197q0 -107 -54 -198l145 -145l-137 -138l-145 145q-89 -53 -197 -53q-109 0 -197 54l-146 -146l-138 138l146 146q-55 90 -54 197q-1 106 54 196l-146 146l138 138l146 -146q88 54 197 54q108 0 197 -53zM376 1036
q0 -89 63 -152t152 -63t152 63t63 152t-63 152t-152 63t-152 -63t-63 -152z" />
    <glyph glyph-name="yen" unicode="&#xa5;" horiz-adv-x="1399" 
d="M294 185v156h306v96h-306v156h306v1l-560 840h233l426 -654l427 654h233l-560 -840v-1h306v-156h-306v-96h306v-156h-306v-185h-199v185h-306z" />
    <glyph glyph-name="brokenbar" unicode="&#xa6;" horiz-adv-x="459" 
d="M130 640v794h199v-794h-199zM130 -532v794h199v-794h-199z" />
    <glyph glyph-name="section" unicode="&#xa7;" horiz-adv-x="1339" 
d="M153 1079q0 58 15.5 109.5t53 101t94 85.5t145 57.5t200.5 21.5q157 0 272.5 -28t219.5 -89l-95 -140q-178 91 -397 91q-157 0 -233 -54.5t-76 -154.5q0 -97 79 -152t266 -94q275 -58 403.5 -159.5t128.5 -279.5q0 -202 -139 -309q96 -96 96 -242q0 -58 -15.5 -109.5
t-53 -101t-94 -85.5t-145 -57.5t-200.5 -21.5q-157 0 -272.5 28t-219.5 89l95 140q175 -91 397 -91q156 0 232.5 54t76.5 155q0 98 -78.5 151.5t-266.5 94.5q-275 58 -403.5 159.5t-128.5 279.5q0 201 139 308q-96 96 -96 243zM1030 394q0 102 -82 160.5t-286 100.5
q-146 29 -249 75q-104 -61 -104 -202q0 -102 82 -160.5t286 -100.5q148 -32 248 -75q105 58 105 202z" />
    <glyph glyph-name="dieresis" unicode="&#xa8;" horiz-adv-x="876" 
d="M110 1312q0 51 35.5 86.5t85.5 35.5q51 0 86.5 -35.5t35.5 -86.5q0 -50 -35.5 -85.5t-86.5 -35.5q-50 0 -85.5 35.5t-35.5 85.5zM523 1312q0 51 35.5 86.5t85.5 35.5q51 0 86.5 -35.5t35.5 -86.5q0 -50 -35.5 -85.5t-86.5 -35.5q-50 0 -85.5 35.5t-35.5 85.5z" />
    <glyph glyph-name="copyright" unicode="&#xa9;" horiz-adv-x="1654" 
d="M619 717q0 -101 60 -172.5t156 -71.5q65 0 108.5 16t88.5 55l95 -120q-121 -118 -292 -118q-174 0 -289.5 117.5t-115.5 293.5t115.5 293.5t289.5 117.5q171 0 292 -118l-95 -120q-45 39 -88.5 55t-108.5 16q-96 0 -156 -71.5t-60 -172.5zM90 717q0 150 58.5 286.5
t157 235t235 157t286.5 58.5t286.5 -58.5t235 -157t157 -235t58.5 -286.5t-58.5 -286.5t-157 -235t-235 -157t-286.5 -58.5t-286.5 58.5t-235 157t-157 235t-58.5 286.5zM256 717q0 -155 76.5 -286.5t208 -208t286.5 -76.5t286.5 76.5t208 208t76.5 286.5t-76.5 286.5
t-208 208t-286.5 76.5t-286.5 -76.5t-208 -208t-76.5 -286.5z" />
    <glyph glyph-name="ordfeminine" unicode="&#xaa;" horiz-adv-x="651" 
d="M352 1317q-102 0 -187 -49l-57 119q101 65 244 65q75 0 125 -22.5t73.5 -65t32 -87t8.5 -105.5v-356h-138v68q-18 -41 -62 -60.5t-92 -19.5q-103 0 -171 54t-68 157q0 58 27 100.5t69 63.5t94 35t102 13.5t92 -0.5q-1 24 -3.5 36.5t-11.5 27t-27.5 20.5t-49.5 6z
M201 1015q0 -73 98 -73q74 0 114 42t40 118q-23 4 -65.5 1.5t-84 -7.5t-72 -26.5t-30.5 -54.5z" />
    <glyph glyph-name="guillemotleft" unicode="&#xab;" horiz-adv-x="1472" 
d="M762 944l-428 -324l428 -324v-242l-652 507v118l652 507v-242zM1342 944l-428 -324l428 -324v-242l-652 507v118l652 507v-242z" />
    <glyph glyph-name="logicalnot" unicode="&#xac;" horiz-adv-x="1176" 
d="M110 638v176h956v-552h-189v376h-767z" />
    <glyph glyph-name="uni00AD" unicode="&#xad;" horiz-adv-x="1000" 
d="M110 542v166h780v-166h-780z" />
    <glyph glyph-name="registered" unicode="&#xae;" horiz-adv-x="1062" 
d="M467 803h-88v424h198q62 0 97 -35.5t35 -100.5q0 -95 -88 -122l86 -166h-95l-78 151h-67v-151zM577 1140h-110v-98h110q44 0 44 49t-44 49zM189 1013q0 -141 100.5 -241.5t241.5 -100.5t241.5 100.5t100.5 241.5t-100.5 241.5t-241.5 100.5t-241.5 -100.5t-100.5 -241.5z
M90 1013q0 183 129 312t312 129t312 -129t129 -312t-129 -312t-312 -129t-312 129t-129 312z" />
    <glyph glyph-name="overscore" unicode="&#xaf;" horiz-adv-x="889" 
d="M90 1279v155h709v-155h-709z" />
    <glyph glyph-name="degree" unicode="&#xb0;" horiz-adv-x="574" 
d="M40 1207q0 104 69 175.5t177 71.5q109 0 178.5 -71.5t69.5 -175.5q0 -106 -69 -176.5t-179 -70.5q-108 0 -177 70.5t-69 176.5zM175 1207q0 -48 29.5 -80t81.5 -32t81.5 32t29.5 80t-29.5 80t-81.5 32t-81.5 -32t-29.5 -80z" />
    <glyph glyph-name="plusminus" unicode="&#xb1;" horiz-adv-x="1161" 
d="M1051 268v-166h-941v166h941zM1051 957v-166h-381v-388h-182v388h-378v166h378v386h182v-386h381z" />
    <glyph glyph-name="twosuperior" unicode="&#xb2;" horiz-adv-x="545" 
d="M173 1230l-113 61q63 153 219 153q87 0 144 -51.5t57 -137.5q0 -38 -15 -74t-28 -53.5t-45 -54.5q-6 -7 -9 -11l-109 -119h211v-127h-424v99l230 249q19 20 26.5 29t15.5 26.5t8 35.5q0 27 -16 44.5t-46 17.5q-13 0 -24.5 -3t-21.5 -10t-17 -12.5t-15 -16.5t-11 -15.5
t-9.5 -16.5t-7.5 -13z" />
    <glyph glyph-name="threesuperior" unicode="&#xb3;" horiz-adv-x="563" 
d="M60 923l106 67q11 -17 27 -29q35 -28 90 -28q80 0 80 70q0 24 -14.5 39.5t-42.5 21.5t-51.5 8t-60.5 2v109q153 0 153 85q0 49 -64 49q-44 0 -74 -26q-11 -9 -22 -25l-106 67q15 28 44 55q62 56 158 56q89 0 146.5 -48t57.5 -128q0 -91 -86 -133q44 -14 73 -46.5
t29 -85.5q0 -95 -62.5 -146t-157.5 -51q-113 0 -179 58q-29 26 -44 59z" />
    <glyph glyph-name="acute" unicode="&#xb4;" horiz-adv-x="675" 
d="M90 1135l263 299h232l-305 -299h-190z" />
    <glyph glyph-name="mu" unicode="&#xb5;" horiz-adv-x="1220" 
d="M610 -20q-108 0 -182.5 50t-108.5 133v-695h-189v1546h189v-545q0 -55 10 -103.5t32 -91.5t55 -73.5t82.5 -48t111.5 -17.5t111.5 17.5t82.5 48t55 73.5t32 91.5t10 103.5v545h189v-1014h-189v163q-34 -83 -108.5 -133t-182.5 -50z" />
    <glyph glyph-name="paragraph" unicode="&#xb6;" horiz-adv-x="1358" 
d="M1129 0h-199v1268h-108v-1268h-199v614h-93q-106 0 -188 33t-132 90.5t-75 130t-25 156.5t25 156.5t75 130t132 90.5t188 33h718v-166h-119v-1268zM623 1268h-93q-115 0 -168 -67.5t-53 -176.5q0 -108 53 -175.5t168 -67.5h93v487z" />
    <glyph glyph-name="middot" unicode="&#xb7;" horiz-adv-x="458" 
d="M110 650q0 50 35 84.5t84 34.5t84 -34.5t35 -84.5t-35 -84.5t-84 -34.5t-84 34.5t-35 84.5z" />
    <glyph glyph-name="cedilla" unicode="&#xb8;" horiz-adv-x="626" 
d="M90 -429l44 109q23 -12 62 -21.5t82.5 -11.5t76.5 17t37 60q4 31 -14.5 48.5t-56 20.5t-76 -0.5t-91.5 -12.5l97 293h143l-54 -176q90 2 146.5 -44.5t48.5 -135.5q-7 -75 -56.5 -122.5t-117.5 -60.5t-141 -3.5t-130 40.5z" />
    <glyph glyph-name="onesuperior" unicode="&#xb9;" horiz-adv-x="417" 
d="M152 1151l-92 101l202 182h95v-618h-138v395z" />
    <glyph glyph-name="ordmasculine" unicode="&#xba;" horiz-adv-x="725" 
d="M60 1125q0 141 84 230t219 89q134 0 218 -88.5t84 -230.5t-84 -230t-219 -88t-218.5 88t-83.5 230zM199 1125q0 -81 45.5 -131t117.5 -50t117.5 50t45.5 131t-45 131t-117 50q-73 0 -118.5 -50t-45.5 -131z" />
    <glyph glyph-name="guillemotright" unicode="&#xbb;" horiz-adv-x="1472" 
d="M1138 620l-428 324v242l652 -507v-118l-652 -507v242zM558 620l-428 324v242l652 -507v-118l-652 -507v242z" />
    <glyph glyph-name="onequarter" unicode="&#xbc;" horiz-adv-x="1400" 
d="M1188 0h-146v153h-335v102l352 466h129v-434h102v-134h-102v-153zM901 287h141v187zM209 1137l-99 102l204 195h108v-721h-146v488zM188 0l823 1434h179l-823 -1434h-179z" />
    <glyph glyph-name="onehalf" unicode="&#xbd;" horiz-adv-x="1479" 
d="M188 0l823 1434h179l-823 -1434h-179zM979 487l-126 49q7 25 16.5 48.5t31 53.5t48.5 51.5t71.5 36.5t98.5 15q106 0 172.5 -58t66.5 -158q0 -113 -116 -229l-155 -162h282v-134h-515v96l273 284q58 65 70 87q15 27 15 58q0 35 -22.5 58.5t-70.5 23.5q-100 0 -140 -120z
M209 1137l-99 102l204 195h108v-721h-146v488z" />
    <glyph glyph-name="threequarters" unicode="&#xbe;" horiz-adv-x="1498" 
d="M286 0l823 1434h179l-823 -1434h-179zM1286 0h-146v153h-335v102l352 466h129v-434h102v-134h-102v-153zM999 287h141v187zM110 832l122 62q12 -19 31 -34q46 -34 109 -34q115 0 115 92q0 49 -54.5 67.5t-153.5 18.5v134q191 0 191 105q0 34 -25.5 55.5t-72.5 21.5
q-56 0 -94 -40q-16 -17 -25 -39l-126 66q18 40 51 73q74 74 194 74q108 0 176 -57t68 -154q0 -55 -29 -97.5t-76 -63.5q48 -14 85 -53.5t37 -110.5q0 -112 -73.5 -168.5t-187.5 -56.5q-133 0 -210 69q-34 31 -52 70z" />
    <glyph glyph-name="questiondown" unicode="&#xbf;" horiz-adv-x="966" 
d="M804 -201l152 -86q-15 -30 -34.5 -59t-59.5 -68.5t-88.5 -68t-123.5 -49t-162 -20.5q-125 0 -220 33t-150 89.5t-81.5 124t-26.5 143.5q0 48 11 93.5t39.5 94.5t73.5 89t119.5 73t170.5 49v294h199v-420q-199 -4 -306.5 -71.5t-107.5 -201.5q0 -109 73.5 -166.5
t205.5 -57.5q57 0 107 15t80 32.5t60 48.5t40.5 46t28.5 43zM642 794q0 -50 -34 -84.5t-84 -34.5t-84.5 34.5t-34.5 84.5t34.5 84t84.5 34t84 -34t34 -84z" />
    <glyph glyph-name="Agrave" unicode="&#xc0;" horiz-adv-x="1478" 
d="M251 0h-211l613 1434h172l613 -1434h-211l-171 409h-634zM987 575l-248 593l-248 -593h496zM574 1835l263 -299h-190l-305 299h232z" />
    <glyph glyph-name="Aacute" unicode="&#xc1;" horiz-adv-x="1478" 
d="M251 0h-211l613 1434h172l613 -1434h-211l-171 409h-634zM987 575l-248 593l-248 -593h496zM644 1536l263 299h232l-305 -299h-190z" />
    <glyph glyph-name="Acircumflex" unicode="&#xc2;" horiz-adv-x="1478" 
d="M251 0h-211l613 1434h172l613 -1434h-211l-171 409h-634zM987 575l-248 593l-248 -593h496zM739 1682l-162 -146h-166l270 299h116l270 -299h-166z" />
    <glyph glyph-name="Atilde" unicode="&#xc3;" horiz-adv-x="1478" 
d="M251 0h-211l613 1434h172l613 -1434h-211l-171 409h-634zM987 575l-248 593l-248 -593h496zM701 1610q-2 2 -11.5 8.5t-15 10t-14 8.5t-16.5 7t-16 2q-35 0 -49 -39q-6 -18 -6 -39h-175q2 67 26 114q54 115 209 115q41 0 72.5 -16t72.5 -48q2 -2 11.5 -8.5t15 -10
t14 -8.5t16.5 -7t16 -2q35 0 49 39q6 16 6 39h175q-2 -68 -26 -115q-59 -114 -209 -114q-41 0 -72.5 16t-72.5 48z" />
    <glyph glyph-name="Adieresis" unicode="&#xc4;" horiz-adv-x="1478" 
d="M251 0h-211l613 1434h172l613 -1434h-211l-171 409h-634zM987 575l-248 593l-248 -593h496zM411 1657q0 51 35.5 86.5t85.5 35.5q51 0 86.5 -35.5t35.5 -86.5q0 -50 -35.5 -85.5t-86.5 -35.5q-50 0 -85.5 35.5t-35.5 85.5zM824 1657q0 51 35.5 86.5t85.5 35.5
q51 0 86.5 -35.5t35.5 -86.5q0 -50 -35.5 -85.5t-86.5 -35.5q-50 0 -85.5 35.5t-35.5 85.5z" />
    <glyph glyph-name="Aring" unicode="&#xc5;" horiz-adv-x="1478" 
d="M251 0h-211l613 1434h172l613 -1434h-211l-171 409h-634zM987 575l-248 593l-248 -593h496zM538 1738q0 83 59.5 142.5t142.5 59.5t142.5 -59.5t59.5 -142.5t-59.5 -142.5t-142.5 -59.5t-142.5 59.5t-59.5 142.5zM655 1738q0 -35 25 -60t60 -25t60 25t25 60t-25 60
t-60 25t-60 -25t-25 -60z" />
    <glyph glyph-name="AE" unicode="&#xc6;" horiz-adv-x="2100" 
d="M1202 815h742v-166h-742v-483h788v-166h-987v487h-400l-326 -487h-237l965 1434h975v-166h-778v-453zM1003 1085l-290 -432h290v432z" />
    <glyph glyph-name="Ccedilla" unicode="&#xc7;" horiz-adv-x="1393" 
d="M588 -429l44 109q23 -12 62 -21.5t82.5 -11.5t76.5 17t37 60q4 31 -14.5 48.5t-56 20.5t-76 -0.5t-91.5 -12.5l68 206q-198 22 -341.5 122.5t-216 257t-72.5 351.5q0 158 49.5 292.5t142 233.5t233.5 155t314 56q316 0 494 -150l-98 -134q-163 118 -396 118
q-128 0 -229 -44t-165.5 -121.5t-98 -181t-33.5 -224.5t33.5 -224.5t98 -181t165.5 -121.5t229 -44q233 0 396 118l98 -134q-164 -139 -460 -149l-25 -84q90 2 146.5 -44.5t48.5 -135.5q-7 -75 -56.5 -122.5t-117.5 -60.5t-141 -3.5t-130 40.5z" />
    <glyph glyph-name="Egrave" unicode="&#xc8;" horiz-adv-x="1227" 
d="M329 815h742v-166h-742v-483h788v-166h-987v1434h977v-166h-778v-453zM487 1835l263 -299h-190l-305 299h232z" />
    <glyph glyph-name="Eacute" unicode="&#xc9;" horiz-adv-x="1227" 
d="M329 815h742v-166h-742v-483h788v-166h-987v1434h977v-166h-778v-453zM527 1536l263 299h232l-305 -299h-190z" />
    <glyph glyph-name="Ecircumflex" unicode="&#xca;" horiz-adv-x="1227" 
d="M329 815h742v-166h-742v-483h788v-166h-987v1434h977v-166h-778v-453zM623 1682l-162 -146h-166l270 299h116l270 -299h-166z" />
    <glyph glyph-name="Edieresis" unicode="&#xcb;" horiz-adv-x="1227" 
d="M329 815h742v-166h-742v-483h788v-166h-987v1434h977v-166h-778v-453zM295 1657q0 51 35.5 86.5t85.5 35.5q51 0 86.5 -35.5t35.5 -86.5q0 -50 -35.5 -85.5t-86.5 -35.5q-50 0 -85.5 35.5t-35.5 85.5zM708 1657q0 51 35.5 86.5t85.5 35.5q51 0 86.5 -35.5t35.5 -86.5
q0 -50 -35.5 -85.5t-86.5 -35.5q-50 0 -85.5 35.5t-35.5 85.5z" />
    <glyph glyph-name="Igrave" unicode="&#xcc;" horiz-adv-x="460" 
d="M131 0v1434h199v-1434h-199zM62 1835l263 -299h-190l-305 299h232z" />
    <glyph glyph-name="Iacute" unicode="&#xcd;" horiz-adv-x="491" 
d="M130 0v1434h199v-1434h-199zM136 1536l263 299h232l-305 -299h-190z" />
    <glyph glyph-name="Icircumflex" unicode="&#xce;" horiz-adv-x="616" 
d="M209 0v1434h199v-1434h-199zM308 1682l-162 -146h-166l270 299h116l270 -299h-166z" />
    <glyph glyph-name="Idieresis" unicode="&#xcf;" horiz-adv-x="736" 
d="M269 0v1434h199v-1434h-199zM40 1657q0 51 35.5 86.5t85.5 35.5q51 0 86.5 -35.5t35.5 -86.5q0 -50 -35.5 -85.5t-86.5 -35.5q-50 0 -85.5 35.5t-35.5 85.5zM453 1657q0 51 35.5 86.5t85.5 35.5q51 0 86.5 -35.5t35.5 -86.5q0 -50 -35.5 -85.5t-86.5 -35.5
q-50 0 -85.5 35.5t-35.5 85.5z" />
    <glyph glyph-name="Eth" unicode="&#xd0;" horiz-adv-x="1574" 
d="M40 634v166h237v634h510q343 0 520 -191.5t177 -525.5q0 -335 -177 -526t-520 -191h-510v634h-237zM476 634v-468h311q127 0 223 41t154 116t86.5 173.5t28.5 220.5t-28.5 220.5t-86.5 173.5t-154 116t-223 41h-311v-468h317v-166h-317z" />
    <glyph glyph-name="Ntilde" unicode="&#xd1;" horiz-adv-x="1448" 
d="M130 0v1434h227l762 -1132v1132h199v-1434h-227l-762 1132v-1132h-199zM686 1610q-2 2 -11.5 8.5t-15 10t-14 8.5t-16.5 7t-16 2q-35 0 -49 -39q-6 -18 -6 -39h-175q2 67 26 114q54 115 209 115q41 0 72.5 -16t72.5 -48q2 -2 11.5 -8.5t15 -10t14 -8.5t16.5 -7t16 -2
q35 0 49 39q6 16 6 39h175q-2 -68 -26 -115q-59 -114 -209 -114q-41 0 -72.5 16t-72.5 48z" />
    <glyph glyph-name="Ograve" unicode="&#xd2;" horiz-adv-x="1658" 
d="M829 -20q-173 0 -314 56t-233.5 155t-142 233.5t-49.5 292.5t49.5 292.5t142 233.5t233.5 155t314 56t314 -56t233.5 -155t142 -233.5t49.5 -292.5t-49.5 -292.5t-142 -233.5t-233.5 -155t-314 -56zM829 146q127 0 228 44t165.5 121.5t98.5 181t34 224.5t-34 224.5
t-98.5 181t-165.5 121.5t-228 44q-128 0 -229 -44t-165.5 -121.5t-98 -181t-33.5 -224.5t33.5 -224.5t98 -181t165.5 -121.5t229 -44zM664 1835l263 -299h-190l-305 299h232z" />
    <glyph glyph-name="Oacute" unicode="&#xd3;" horiz-adv-x="1658" 
d="M829 -20q-173 0 -314 56t-233.5 155t-142 233.5t-49.5 292.5t49.5 292.5t142 233.5t233.5 155t314 56t314 -56t233.5 -155t142 -233.5t49.5 -292.5t-49.5 -292.5t-142 -233.5t-233.5 -155t-314 -56zM829 146q127 0 228 44t165.5 121.5t98.5 181t34 224.5t-34 224.5
t-98.5 181t-165.5 121.5t-228 44q-128 0 -229 -44t-165.5 -121.5t-98 -181t-33.5 -224.5t33.5 -224.5t98 -181t165.5 -121.5t229 -44zM752 1536l263 299h232l-305 -299h-190z" />
    <glyph glyph-name="Ocircumflex" unicode="&#xd4;" horiz-adv-x="1658" 
d="M829 -20q-173 0 -314 56t-233.5 155t-142 233.5t-49.5 292.5t49.5 292.5t142 233.5t233.5 155t314 56t314 -56t233.5 -155t142 -233.5t49.5 -292.5t-49.5 -292.5t-142 -233.5t-233.5 -155t-314 -56zM829 146q127 0 228 44t165.5 121.5t98.5 181t34 224.5t-34 224.5
t-98.5 181t-165.5 121.5t-228 44q-128 0 -229 -44t-165.5 -121.5t-98 -181t-33.5 -224.5t33.5 -224.5t98 -181t165.5 -121.5t229 -44zM829 1682l-162 -146h-166l270 299h116l270 -299h-166z" />
    <glyph glyph-name="Otilde" unicode="&#xd5;" horiz-adv-x="1658" 
d="M829 -20q-173 0 -314 56t-233.5 155t-142 233.5t-49.5 292.5t49.5 292.5t142 233.5t233.5 155t314 56t314 -56t233.5 -155t142 -233.5t49.5 -292.5t-49.5 -292.5t-142 -233.5t-233.5 -155t-314 -56zM829 146q127 0 228 44t165.5 121.5t98.5 181t34 224.5t-34 224.5
t-98.5 181t-165.5 121.5t-228 44q-128 0 -229 -44t-165.5 -121.5t-98 -181t-33.5 -224.5t33.5 -224.5t98 -181t165.5 -121.5t229 -44zM791 1600q-2 2 -11.5 8.5t-15 10t-14 8.5t-16.5 7t-16 2q-35 0 -49 -39q-6 -18 -6 -39h-175q2 67 26 114q54 115 209 115q41 0 72.5 -16
t72.5 -48q2 -2 11.5 -8.5t15 -10t14 -8.5t16.5 -7t16 -2q35 0 49 39q6 16 6 39h175q-2 -68 -26 -115q-59 -114 -209 -114q-41 0 -72.5 16t-72.5 48z" />
    <glyph glyph-name="Odieresis" unicode="&#xd6;" horiz-adv-x="1658" 
d="M829 -20q-173 0 -314 56t-233.5 155t-142 233.5t-49.5 292.5t49.5 292.5t142 233.5t233.5 155t314 56t314 -56t233.5 -155t142 -233.5t49.5 -292.5t-49.5 -292.5t-142 -233.5t-233.5 -155t-314 -56zM829 146q127 0 228 44t165.5 121.5t98.5 181t34 224.5t-34 224.5
t-98.5 181t-165.5 121.5t-228 44q-128 0 -229 -44t-165.5 -121.5t-98 -181t-33.5 -224.5t33.5 -224.5t98 -181t165.5 -121.5t229 -44zM501 1657q0 51 35.5 86.5t85.5 35.5q51 0 86.5 -35.5t35.5 -86.5q0 -50 -35.5 -85.5t-86.5 -35.5q-50 0 -85.5 35.5t-35.5 85.5zM914 1657
q0 51 35.5 86.5t85.5 35.5q51 0 86.5 -35.5t35.5 -86.5q0 -50 -35.5 -85.5t-86.5 -35.5q-50 0 -85.5 35.5t-35.5 85.5z" />
    <glyph glyph-name="multiply" unicode="&#xd7;" horiz-adv-x="1075" 
d="M537 537l-308 -308l-117 117l309 308l-311 311l116 117l311 -311l311 311l117 -117l-311 -311l308 -308l-116 -117z" />
    <glyph glyph-name="Oslash" unicode="&#xd8;" horiz-adv-x="1658" 
d="M829 -20q-123 0 -237 30l-34 -71h-208l69 143q-159 93 -244 259.5t-85 375.5q0 158 49.5 292.5t142 233.5t233.5 155t314 56q124 0 236 -31l35 72h208l-70 -144q159 -93 244.5 -259t85.5 -375q0 -158 -49.5 -292.5t-142 -233.5t-233.5 -155t-314 -56zM829 146
q127 0 228 44t165.5 121.5t98.5 181t34 224.5q0 149 -50 269.5t-147 197.5l-491 -1018q77 -20 162 -20zM829 1288q-128 0 -229 -44t-165.5 -121.5t-98 -181t-33.5 -224.5q0 -150 50 -270.5t147 -196.5l490 1017q-73 21 -161 21z" />
    <glyph glyph-name="Ugrave" unicode="&#xd9;" horiz-adv-x="1454" 
d="M727 146q398 0 398 476v812h199v-812q0 -306 -148 -474t-449 -168t-449 168t-148 474v812h199v-812q0 -476 398 -476zM559 1835l263 -299h-190l-305 299h232z" />
    <glyph glyph-name="Uacute" unicode="&#xda;" horiz-adv-x="1454" 
d="M727 146q398 0 398 476v812h199v-812q0 -306 -148 -474t-449 -168t-449 168t-148 474v812h199v-812q0 -476 398 -476zM612 1536l263 299h232l-305 -299h-190z" />
    <glyph glyph-name="Ucircumflex" unicode="&#xdb;" horiz-adv-x="1454" 
d="M727 146q398 0 398 476v812h199v-812q0 -306 -148 -474t-449 -168t-449 168t-148 474v812h199v-812q0 -476 398 -476zM727 1682l-162 -146h-166l270 299h116l270 -299h-166z" />
    <glyph glyph-name="Udieresis" unicode="&#xdc;" horiz-adv-x="1454" 
d="M727 146q398 0 398 476v812h199v-812q0 -306 -148 -474t-449 -168t-449 168t-148 474v812h199v-812q0 -476 398 -476zM399 1656q0 51 35.5 86.5t85.5 35.5q51 0 86.5 -35.5t35.5 -86.5q0 -50 -35.5 -85.5t-86.5 -35.5q-50 0 -85.5 35.5t-35.5 85.5zM812 1656
q0 51 35.5 86.5t85.5 35.5q51 0 86.5 -35.5t35.5 -86.5q0 -50 -35.5 -85.5t-86.5 -35.5q-50 0 -85.5 35.5t-35.5 85.5z" />
    <glyph glyph-name="Yacute" unicode="&#xdd;" horiz-adv-x="1399" 
d="M1359 1434l-560 -840v-594h-199v594l-560 840h233l426 -654l427 654h233zM594 1536l263 299h232l-305 -299h-190z" />
    <glyph glyph-name="Thorn" unicode="&#xde;" horiz-adv-x="1067" 
d="M577 304h-248v-304h-199v1434h199v-304h248q187 0 293.5 -112.5t106.5 -300.5t-106.5 -300.5t-293.5 -112.5zM329 964v-494h248q101 0 151 66.5t50 180.5t-50 180.5t-151 66.5h-248z" />
    <glyph glyph-name="germandbls" unicode="&#xdf;" horiz-adv-x="1273" 
d="M433 47v162q146 -74 287 -74q126 0 200 62t74 192q0 283 -299 283h-204v155h202q117 0 183 60t66 167q0 67 -24 115.5t-68 76t-98 40.5t-121 13q-51 0 -89 -6.5t-82.5 -32t-73 -69t-48 -123.5t-19.5 -191v-877h-189v877q0 90 12 166t31 131t49 99.5t60 73t70 49.5
t72.5 32t74.5 17t69.5 7.5t62.5 1.5q226 0 363 -105.5t137 -294.5q0 -113 -58 -188.5t-138 -107.5q119 -44 183.5 -129.5t64.5 -239.5q0 -198 -124 -303.5t-339 -105.5q-166 0 -287 67z" />
    <glyph glyph-name="agrave" unicode="&#xe0;" horiz-adv-x="1149" 
d="M598 879q-177 0 -340 -80l-73 132q85 49 196.5 76t216.5 27q81 0 146 -13.5t108.5 -34.5t75 -55t49 -67t27.5 -78.5t12.5 -81.5t2.5 -84v-620h-189v169q-37 -85 -118.5 -137t-209.5 -52q-191 0 -301.5 86t-110.5 242q0 69 24.5 125.5t66.5 95t101 66t124 42.5t140 21.5
t144 5.5t140 -7q-2 116 -48.5 169t-183.5 53zM286 308q0 -80 55.5 -126.5t170.5 -46.5q155 0 236.5 89.5t81.5 222.5v80q-64 8 -131 9t-143 -10t-134.5 -34.5t-97 -70.5t-38.5 -113zM423 1434l263 -299h-190l-305 299h232z" />
    <glyph glyph-name="aacute" unicode="&#xe1;" horiz-adv-x="1149" 
d="M598 879q-177 0 -340 -80l-73 132q85 49 196.5 76t216.5 27q81 0 146 -13.5t108.5 -34.5t75 -55t49 -67t27.5 -78.5t12.5 -81.5t2.5 -84v-620h-189v169q-37 -85 -118.5 -137t-209.5 -52q-191 0 -301.5 86t-110.5 242q0 69 24.5 125.5t66.5 95t101 66t124 42.5t140 21.5
t144 5.5t140 -7q-2 116 -48.5 169t-183.5 53zM286 308q0 -80 55.5 -126.5t170.5 -46.5q155 0 236.5 89.5t81.5 222.5v80q-64 8 -131 9t-143 -10t-134.5 -34.5t-97 -70.5t-38.5 -113zM490 1135l263 299h232l-305 -299h-190z" />
    <glyph glyph-name="acircumflex" unicode="&#xe2;" horiz-adv-x="1149" 
d="M598 879q-177 0 -340 -80l-73 132q85 49 196.5 76t216.5 27q81 0 146 -13.5t108.5 -34.5t75 -55t49 -67t27.5 -78.5t12.5 -81.5t2.5 -84v-620h-189v169q-37 -85 -118.5 -137t-209.5 -52q-191 0 -301.5 86t-110.5 242q0 69 24.5 125.5t66.5 95t101 66t124 42.5t140 21.5
t144 5.5t140 -7q-2 116 -48.5 169t-183.5 53zM286 308q0 -80 55.5 -126.5t170.5 -46.5q155 0 236.5 89.5t81.5 222.5v80q-64 8 -131 9t-143 -10t-134.5 -34.5t-97 -70.5t-38.5 -113zM609 1281l-162 -146h-166l270 299h116l270 -299h-166z" />
    <glyph glyph-name="atilde" unicode="&#xe3;" horiz-adv-x="1149" 
d="M598 879q-177 0 -340 -80l-73 132q85 49 196.5 76t216.5 27q81 0 146 -13.5t108.5 -34.5t75 -55t49 -67t27.5 -78.5t12.5 -81.5t2.5 -84v-620h-189v169q-37 -85 -118.5 -137t-209.5 -52q-191 0 -301.5 86t-110.5 242q0 69 24.5 125.5t66.5 95t101 66t124 42.5t140 21.5
t144 5.5t140 -7q-2 116 -48.5 169t-183.5 53zM286 308q0 -80 55.5 -126.5t170.5 -46.5q155 0 236.5 89.5t81.5 222.5v80q-64 8 -131 9t-143 -10t-134.5 -34.5t-97 -70.5t-38.5 -113zM562 1247q-2 2 -11.5 8.5t-15 10t-14 8.5t-16.5 7t-16 2q-35 0 -49 -39q-6 -18 -6 -39
h-175q2 67 26 114q54 115 209 115q41 0 72.5 -16t72.5 -48q2 -2 11.5 -8.5t15 -10t14 -8.5t16.5 -7t16 -2q35 0 49 39q6 17 6 39h175q-2 -68 -26 -115q-59 -114 -209 -114q-41 0 -72.5 16t-72.5 48z" />
    <glyph glyph-name="adieresis" unicode="&#xe4;" horiz-adv-x="1149" 
d="M598 879q-177 0 -340 -80l-73 132q85 49 196.5 76t216.5 27q81 0 146 -13.5t108.5 -34.5t75 -55t49 -67t27.5 -78.5t12.5 -81.5t2.5 -84v-620h-189v169q-37 -85 -118.5 -137t-209.5 -52q-191 0 -301.5 86t-110.5 242q0 69 24.5 125.5t66.5 95t101 66t124 42.5t140 21.5
t144 5.5t140 -7q-2 116 -48.5 169t-183.5 53zM286 308q0 -80 55.5 -126.5t170.5 -46.5q155 0 236.5 89.5t81.5 222.5v80q-64 8 -131 9t-143 -10t-134.5 -34.5t-97 -70.5t-38.5 -113zM286 1312q0 51 35.5 86.5t85.5 35.5q51 0 86.5 -35.5t35.5 -86.5q0 -50 -35.5 -85.5
t-86.5 -35.5q-50 0 -85.5 35.5t-35.5 85.5zM699 1312q0 51 35.5 86.5t85.5 35.5q51 0 86.5 -35.5t35.5 -86.5q0 -50 -35.5 -85.5t-86.5 -35.5q-50 0 -85.5 35.5t-35.5 85.5z" />
    <glyph glyph-name="aring" unicode="&#xe5;" horiz-adv-x="1149" 
d="M598 879q-177 0 -340 -80l-73 132q85 49 196.5 76t216.5 27q81 0 146 -13.5t108.5 -34.5t75 -55t49 -67t27.5 -78.5t12.5 -81.5t2.5 -84v-620h-189v169q-37 -85 -118.5 -137t-209.5 -52q-191 0 -301.5 86t-110.5 242q0 69 24.5 125.5t66.5 95t101 66t124 42.5t140 21.5
t144 5.5t140 -7q-2 116 -48.5 169t-183.5 53zM286 308q0 -80 55.5 -126.5t170.5 -46.5q155 0 236.5 89.5t81.5 222.5v80q-64 8 -131 9t-143 -10t-134.5 -34.5t-97 -70.5t-38.5 -113zM408 1314q0 83 59.5 142.5t142.5 59.5t142.5 -59.5t59.5 -142.5t-59.5 -142.5
t-142.5 -59.5t-142.5 59.5t-59.5 142.5zM525 1314q0 -35 25 -60t60 -25t60 25t25 60t-25 60t-60 25t-60 -25t-25 -60z" />
    <glyph glyph-name="ae" unicode="&#xe6;" horiz-adv-x="1939" 
d="M1340 135q180 0 325 114l114 -112q-67 -67 -176.5 -112t-262.5 -45q-270 0 -410 193q-156 -193 -428 -193q-191 0 -301.5 86t-110.5 242q0 69 24.5 125.5t66.5 95t101 66t124 42.5t140 21.5t144 5.5t140 -7q-2 116 -48.5 169t-183.5 53q-177 0 -340 -80l-73 132
q85 49 196.5 76t216.5 27q276 0 367 -151q140 151 375 151q242 0 379 -160t129 -460h-815q9 -116 91 -197.5t216 -81.5zM286 308q0 -80 55.5 -126.5t170.5 -46.5q155 0 236.5 89.5t81.5 222.5v80q-64 8 -131 9t-143 -10t-134.5 -34.5t-97 -70.5t-38.5 -113zM1034 579h612
q-5 57 -23.5 107t-52.5 95t-93.5 71.5t-136.5 26.5t-136 -26.5t-93.5 -71t-53.5 -95.5t-23 -107z" />
    <glyph glyph-name="ccedilla" unicode="&#xe7;" horiz-adv-x="1101" 
d="M402 -429l44 109q23 -12 62 -21.5t82.5 -11.5t76.5 17t37 60q4 31 -14.5 48.5t-56 20.5t-76 -0.5t-91.5 -12.5l69 208q-208 32 -326.5 173t-118.5 346q0 231 149 379t404 148q250 0 388 -131l-94 -121q-123 97 -294 97q-89 0 -159 -30.5t-112.5 -83t-64.5 -118.5
t-22 -140t22 -140t64.5 -118.5t112.5 -83t159 -30.5q171 0 294 97l94 -121q-129 -124 -354 -130l-25 -84q90 2 146.5 -44.5t48.5 -135.5q-7 -75 -56.5 -122.5t-117.5 -60.5t-141 -3.5t-130 40.5z" />
    <glyph glyph-name="egrave" unicode="&#xe8;" 
d="M600 135q180 0 325 114l114 -112q-67 -67 -176.5 -112t-262.5 -45q-234 0 -372 148t-138 379t138 379t372 148q242 0 379 -160t129 -460h-815q9 -116 91 -197.5t216 -81.5zM294 579h612q-5 57 -23.5 107t-52.5 95t-93.5 71.5t-136.5 26.5t-136 -26.5t-93.5 -71
t-53.5 -95.5t-23 -107zM427 1434l263 -299h-190l-305 299h232z" />
    <glyph glyph-name="eacute" unicode="&#xe9;" 
d="M600 135q180 0 325 114l114 -112q-67 -67 -176.5 -112t-262.5 -45q-234 0 -372 148t-138 379t138 379t372 148q242 0 379 -160t129 -460h-815q9 -116 91 -197.5t216 -81.5zM294 579h612q-5 57 -23.5 107t-52.5 95t-93.5 71.5t-136.5 26.5t-136 -26.5t-93.5 -71
t-53.5 -95.5t-23 -107zM515 1135l263 299h232l-305 -299h-190z" />
    <glyph glyph-name="ecircumflex" unicode="&#xea;" 
d="M600 135q180 0 325 114l114 -112q-67 -67 -176.5 -112t-262.5 -45q-234 0 -372 148t-138 379t138 379t372 148q242 0 379 -160t129 -460h-815q9 -116 91 -197.5t216 -81.5zM294 579h612q-5 57 -23.5 107t-52.5 95t-93.5 71.5t-136.5 26.5t-136 -26.5t-93.5 -71
t-53.5 -95.5t-23 -107zM599 1281l-162 -146h-166l270 299h116l270 -299h-166z" />
    <glyph glyph-name="edieresis" unicode="&#xeb;" 
d="M600 135q180 0 325 114l114 -112q-67 -67 -176.5 -112t-262.5 -45q-234 0 -372 148t-138 379t138 379t372 148q242 0 379 -160t129 -460h-815q9 -116 91 -197.5t216 -81.5zM294 579h612q-5 57 -23.5 107t-52.5 95t-93.5 71.5t-136.5 26.5t-136 -26.5t-93.5 -71
t-53.5 -95.5t-23 -107zM271 1312q0 51 35.5 86.5t85.5 35.5q51 0 86.5 -35.5t35.5 -86.5q0 -50 -35.5 -85.5t-86.5 -35.5q-50 0 -85.5 35.5t-35.5 85.5zM684 1312q0 51 35.5 86.5t85.5 35.5q51 0 86.5 -35.5t35.5 -86.5q0 -50 -35.5 -85.5t-86.5 -35.5q-50 0 -85.5 35.5
t-35.5 85.5z" />
    <glyph glyph-name="igrave" unicode="&#xec;" horiz-adv-x="580" 
d="M261 0v1014h189v-1014h-189zM182 1434l263 -299h-190l-305 299h232z" />
    <glyph glyph-name="iacute" unicode="&#xed;" horiz-adv-x="665" 
d="M134 0v1014h189v-1014h-189zM130 1135l263 299h232l-305 -299h-190z" />
    <glyph glyph-name="icircumflex" unicode="&#xee;" horiz-adv-x="616" 
d="M214 0v1014h189v-1014h-189zM308 1281l-162 -146h-166l270 299h116l270 -299h-166z" />
    <glyph glyph-name="idieresis" unicode="&#xef;" horiz-adv-x="676" 
d="M243 0v1014h189v-1014h-189zM10 1312q0 51 35.5 86.5t85.5 35.5q51 0 86.5 -35.5t35.5 -86.5q0 -50 -35.5 -85.5t-86.5 -35.5q-50 0 -85.5 35.5t-35.5 85.5zM423 1312q0 51 35.5 86.5t85.5 35.5q51 0 86.5 -35.5t35.5 -86.5q0 -50 -35.5 -85.5t-86.5 -35.5
q-50 0 -85.5 35.5t-35.5 85.5z" />
    <glyph glyph-name="eth" unicode="&#xf0;" horiz-adv-x="1262" 
d="M562 1092l-101 118l141 119q-95 44 -213 69l61 172q171 -43 297 -118l179 152l100 -118l-149 -127q275 -242 275 -668q0 -711 -559 -711q-154 0 -270 71.5t-174.5 190t-58.5 265.5t58.5 265.5t174.5 190t270 71.5q130 0 237.5 -60t162.5 -171q-29 274 -251 442zM623 879
q-85 0 -152 -32.5t-107 -86.5t-60.5 -119t-20.5 -134q0 -70 20.5 -134.5t60.5 -118.5t107 -86.5t152 -32.5t152 32.5t107 86.5t60.5 118.5t20.5 134.5q0 69 -20.5 134t-60.5 119t-107 86.5t-152 32.5z" />
    <glyph glyph-name="ntilde" unicode="&#xf1;" 
d="M319 545v-545h-189v1014h189v-153q25 74 104 123.5t187 49.5q230 0 344.5 -130.5t114.5 -358.5v-545h-189v545q0 334 -280 334q-281 0 -281 -334zM561 1247q-2 2 -11.5 8.5t-15 10t-14 8.5t-16.5 7t-16 2q-35 0 -49 -39q-6 -18 -6 -39h-175q2 67 26 114q54 115 209 115
q41 0 72.5 -16t72.5 -48q2 -2 11.5 -8.5t15 -10t14 -8.5t16.5 -7t16 -2q35 0 49 39q6 17 6 39h175q-2 -68 -26 -115q-59 -114 -209 -114q-41 0 -72.5 16t-72.5 48z" />
    <glyph glyph-name="ograve" unicode="&#xf2;" horiz-adv-x="1286" 
d="M643 -20q-255 0 -404 148t-149 379t149 379t404 148q254 0 403.5 -148t149.5 -379t-149.5 -379t-403.5 -148zM643 135q89 0 159 30.5t112.5 82.5t64.5 118t22 141q0 74 -22 140t-64.5 118.5t-112.5 83t-159 30.5t-159 -30.5t-112.5 -83t-64.5 -118.5t-22 -140
q0 -75 22 -141t64.5 -118t112.5 -82.5t159 -30.5zM472 1434l263 -299h-190l-305 299h232z" />
    <glyph glyph-name="oacute" unicode="&#xf3;" horiz-adv-x="1286" 
d="M643 -20q-255 0 -404 148t-149 379t149 379t404 148q254 0 403.5 -148t149.5 -379t-149.5 -379t-403.5 -148zM643 135q89 0 159 30.5t112.5 82.5t64.5 118t22 141q0 74 -22 140t-64.5 118.5t-112.5 83t-159 30.5t-159 -30.5t-112.5 -83t-64.5 -118.5t-22 -140
q0 -75 22 -141t64.5 -118t112.5 -82.5t159 -30.5zM547 1135l263 299h232l-305 -299h-190z" />
    <glyph glyph-name="ocircumflex" unicode="&#xf4;" horiz-adv-x="1286" 
d="M643 -20q-255 0 -404 148t-149 379t149 379t404 148q254 0 403.5 -148t149.5 -379t-149.5 -379t-403.5 -148zM643 135q89 0 159 30.5t112.5 82.5t64.5 118t22 141q0 74 -22 140t-64.5 118.5t-112.5 83t-159 30.5t-159 -30.5t-112.5 -83t-64.5 -118.5t-22 -140
q0 -75 22 -141t64.5 -118t112.5 -82.5t159 -30.5zM643 1281l-162 -146h-166l270 299h116l270 -299h-166z" />
    <glyph glyph-name="otilde" unicode="&#xf5;" horiz-adv-x="1286" 
d="M643 -20q-255 0 -404 148t-149 379t149 379t404 148q254 0 403.5 -148t149.5 -379t-149.5 -379t-403.5 -148zM643 135q89 0 159 30.5t112.5 82.5t64.5 118t22 141q0 74 -22 140t-64.5 118.5t-112.5 83t-159 30.5t-159 -30.5t-112.5 -83t-64.5 -118.5t-22 -140
q0 -75 22 -141t64.5 -118t112.5 -82.5t159 -30.5zM605 1247q-2 2 -11.5 8.5t-15 10t-14 8.5t-16.5 7t-16 2q-35 0 -49 -39q-6 -18 -6 -39h-175q2 67 26 114q54 115 209 115q41 0 72.5 -16t72.5 -48q2 -2 11.5 -8.5t15 -10t14 -8.5t16.5 -7t16 -2q35 0 49 39q6 17 6 39h175
q-2 -68 -26 -115q-59 -114 -209 -114q-41 0 -72.5 16t-72.5 48z" />
    <glyph glyph-name="odieresis" unicode="&#xf6;" horiz-adv-x="1286" 
d="M643 -20q-255 0 -404 148t-149 379t149 379t404 148q254 0 403.5 -148t149.5 -379t-149.5 -379t-403.5 -148zM643 135q89 0 159 30.5t112.5 82.5t64.5 118t22 141q0 74 -22 140t-64.5 118.5t-112.5 83t-159 30.5t-159 -30.5t-112.5 -83t-64.5 -118.5t-22 -140
q0 -75 22 -141t64.5 -118t112.5 -82.5t159 -30.5zM315 1312q0 51 35.5 86.5t85.5 35.5q51 0 86.5 -35.5t35.5 -86.5q0 -50 -35.5 -85.5t-86.5 -35.5q-50 0 -85.5 35.5t-35.5 85.5zM728 1312q0 51 35.5 86.5t85.5 35.5q51 0 86.5 -35.5t35.5 -86.5q0 -50 -35.5 -85.5
t-86.5 -35.5q-50 0 -85.5 35.5t-35.5 85.5z" />
    <glyph glyph-name="divide" unicode="&#xf7;" horiz-adv-x="1053" 
d="M110 608v166h833v-166h-833zM407 392q0 50 34.5 84.5t84.5 34.5t84.5 -34.5t34.5 -84.5t-34.5 -84.5t-84.5 -34.5t-84.5 34.5t-34.5 84.5zM407 990q0 50 34.5 84.5t84.5 34.5t84.5 -34.5t34.5 -84.5t-34.5 -84.5t-84.5 -34.5t-84.5 34.5t-34.5 84.5z" />
    <glyph glyph-name="oslash" unicode="&#xf8;" horiz-adv-x="1286" 
d="M643 -20q-77 0 -146 15l-26 -56h-202l58 121q-115 69 -176 184.5t-61 262.5q0 231 149 379t404 148q77 0 145 -15l27 56h202l-59 -122q115 -69 176.5 -184.5t61.5 -261.5q0 -231 -149.5 -379t-403.5 -148zM643 879q-89 0 -159 -30.5t-112.5 -83t-64.5 -118.5t-22 -140
q0 -186 118 -291l315 657q-36 6 -75 6zM643 135q89 0 159 30.5t112.5 82.5t64.5 118t22 141q0 184 -118 289l-315 -655q34 -6 75 -6z" />
    <glyph glyph-name="ugrave" unicode="&#xf9;" 
d="M880 469v545h189v-1014h-189v153q-25 -74 -104 -123.5t-187 -49.5q-231 0 -345 130.5t-114 358.5v545h189v-545q0 -334 280 -334q281 0 281 334zM445 1434l263 -299h-190l-305 299h232z" />
    <glyph glyph-name="uacute" unicode="&#xfa;" 
d="M880 469v545h189v-1014h-189v153q-25 -74 -104 -123.5t-187 -49.5q-231 0 -345 130.5t-114 358.5v545h189v-545q0 -334 280 -334q281 0 281 334zM490 1135l263 299h232l-305 -299h-190z" />
    <glyph glyph-name="ucircumflex" unicode="&#xfb;" 
d="M880 469v545h189v-1014h-189v153q-25 -74 -104 -123.5t-187 -49.5q-231 0 -345 130.5t-114 358.5v545h189v-545q0 -334 280 -334q281 0 281 334zM599 1281l-162 -146h-166l270 299h116l270 -299h-166z" />
    <glyph glyph-name="udieresis" unicode="&#xfc;" 
d="M880 469v545h189v-1014h-189v153q-25 -74 -104 -123.5t-187 -49.5q-231 0 -345 130.5t-114 358.5v545h189v-545q0 -334 280 -334q281 0 281 334zM271 1312q0 51 35.5 86.5t85.5 35.5q51 0 86.5 -35.5t35.5 -86.5q0 -50 -35.5 -85.5t-86.5 -35.5q-50 0 -85.5 35.5
t-35.5 85.5zM684 1312q0 51 35.5 86.5t85.5 35.5q51 0 86.5 -35.5t35.5 -86.5q0 -50 -35.5 -85.5t-86.5 -35.5q-50 0 -85.5 35.5t-35.5 85.5z" />
    <glyph glyph-name="yacute" unicode="&#xfd;" horiz-adv-x="1154" 
d="M244 1014l333 -814l333 814h204l-562 -1304q-51 -122 -117.5 -182t-182.5 -60t-190 47l61 135q59 -27 104 -27q33 0 57.5 10.5t44 36.5t31 48t30.5 66l87 216l-437 1014h204zM462 1135l263 299h232l-305 -299h-190z" />
    <glyph glyph-name="thorn" unicode="&#xfe;" horiz-adv-x="1282" 
d="M319 -532h-189v2048h189v-703q53 108 156.5 164.5t213.5 56.5q154 0 270 -71.5t174.5 -190t58.5 -265.5t-58.5 -265.5t-174.5 -190t-270 -71.5q-110 0 -213.5 56.5t-156.5 164.5v-733zM659 879q-85 0 -152 -32.5t-107 -86.5t-60.5 -119t-20.5 -134q0 -70 20.5 -134.5
t60.5 -118.5t107 -86.5t152 -32.5t152 32.5t107 86.5t60.5 118.5t20.5 134.5q0 69 -20.5 134t-60.5 119t-107 86.5t-152 32.5z" />
    <glyph glyph-name="ydieresis" unicode="&#xff;" horiz-adv-x="1154" 
d="M244 1014l333 -814l333 814h204l-562 -1304q-51 -122 -117.5 -182t-182.5 -60t-190 47l61 135q59 -27 104 -27q33 0 57.5 10.5t44 36.5t31 48t30.5 66l87 216l-437 1014h204zM249 1312q0 51 35.5 86.5t85.5 35.5q51 0 86.5 -35.5t35.5 -86.5q0 -50 -35.5 -85.5
t-86.5 -35.5q-50 0 -85.5 35.5t-35.5 85.5zM662 1312q0 51 35.5 86.5t85.5 35.5q51 0 86.5 -35.5t35.5 -86.5q0 -50 -35.5 -85.5t-86.5 -35.5q-50 0 -85.5 35.5t-35.5 85.5z" />
    <glyph glyph-name="Amacron" unicode="&#x100;" horiz-adv-x="1478" 
d="M385 1535v155h709v-155h-709zM251 0h-211l613 1434h172l613 -1434h-211l-171 409h-634zM987 575l-248 593l-248 -593h496z" />
    <glyph glyph-name="amacron" unicode="&#x101;" horiz-adv-x="1149" 
d="M246 1279v155h709v-155h-709zM598 879q-177 0 -340 -80l-73 132q85 49 196.5 76t216.5 27q81 0 146 -13.5t108.5 -34.5t75 -55t49 -67t27.5 -78.5t12.5 -81.5t2.5 -84v-620h-189v169q-37 -85 -118.5 -137t-209.5 -52q-191 0 -301.5 86t-110.5 242q0 69 24.5 125.5
t66.5 95t101 66t124 42.5t140 21.5t144 5.5t140 -7q-2 116 -48.5 169t-183.5 53zM286 308q0 -80 55.5 -126.5t170.5 -46.5q155 0 236.5 89.5t81.5 222.5v80q-64 8 -131 9t-143 -10t-134.5 -34.5t-97 -70.5t-38.5 -113z" />
    <glyph glyph-name="Abreve" unicode="&#x102;" horiz-adv-x="1478" 
d="M251 0h-211l613 1434h172l613 -1434h-211l-171 409h-634zM987 575l-248 593l-248 -593h496zM739 1556q-81 0 -145 23.5t-102.5 62t-60.5 78t-32 82.5h129q32 -66 81.5 -95t129.5 -29t129 29t82 95h129q-10 -43 -32 -82.5t-60.5 -78t-102.5 -62t-145 -23.5z" />
    <glyph glyph-name="abreve" unicode="&#x103;" horiz-adv-x="1149" 
d="M598 879q-177 0 -340 -80l-73 132q85 49 196.5 76t216.5 27q81 0 146 -13.5t108.5 -34.5t75 -55t49 -67t27.5 -78.5t12.5 -81.5t2.5 -84v-620h-189v169q-37 -85 -118.5 -137t-209.5 -52q-191 0 -301.5 86t-110.5 242q0 69 24.5 125.5t66.5 95t101 66t124 42.5t140 21.5
t144 5.5t140 -7q-2 116 -48.5 169t-183.5 53zM286 308q0 -80 55.5 -126.5t170.5 -46.5q155 0 236.5 89.5t81.5 222.5v80q-64 8 -131 9t-143 -10t-134.5 -34.5t-97 -70.5t-38.5 -113zM620 1188q-81 0 -145 23.5t-102.5 62t-60.5 78t-32 82.5h129q32 -66 81.5 -95t129.5 -29
t129 29t82 95h129q-10 -43 -32 -82.5t-60.5 -78t-102.5 -62t-145 -23.5z" />
    <glyph glyph-name="Aogonek" unicode="&#x104;" horiz-adv-x="1504" 
d="M825 1434l613 -1434q-35 -10 -58 -25q-58 -38 -58 -96q0 -65 71 -89q33 -11 71 -11v-192q-59 0 -112 12t-101 37.5t-74.5 73t-21.5 111.5q2 41 17.5 74.5t34.5 51.5t42 31t35 17t20 5h-77l-171 409h-634l-171 -409h-211l613 1434h172zM987 575l-248 593l-248 -593h496z
" />
    <glyph glyph-name="aogonek" unicode="&#x105;" horiz-adv-x="1175" 
d="M1019 620v-620q-35 -10 -58 -25q-58 -38 -58 -96q0 -65 71 -89q33 -11 71 -11v-192q-59 0 -112 12t-101 37.5t-74.5 73t-21.5 111.5q2 41 17.5 74.5t34.5 51.5t42 31t35 17t20 5h-55v169q-37 -85 -118.5 -137t-209.5 -52q-191 0 -301.5 86t-110.5 242q0 69 24.5 125.5
t66.5 95t101 66t124 42.5t140 21.5t144 5.5t140 -7q-2 116 -48.5 169t-183.5 53q-177 0 -340 -80l-73 132q85 49 196.5 76t216.5 27q81 0 146 -13.5t108.5 -34.5t75 -55t49 -67t27.5 -78.5t12.5 -81.5t2.5 -84zM286 308q0 -80 55.5 -126.5t170.5 -46.5q155 0 236.5 89.5
t81.5 222.5v80q-64 8 -131 9t-143 -10t-134.5 -34.5t-97 -70.5t-38.5 -113z" />
    <glyph glyph-name="Cacute" unicode="&#x106;" horiz-adv-x="1393" 
d="M90 717q0 158 49.5 292.5t142 233.5t233.5 155t314 56q316 0 494 -150l-98 -134q-163 118 -396 118q-128 0 -229 -44t-165.5 -121.5t-98 -181t-33.5 -224.5t33.5 -224.5t98 -181t165.5 -121.5t229 -44q233 0 396 118l98 -134q-178 -150 -494 -150q-173 0 -314 56
t-233.5 155t-142 233.5t-49.5 292.5zM746 1536l263 299h232l-305 -299h-190z" />
    <glyph glyph-name="cacute" unicode="&#x107;" horiz-adv-x="1105" 
d="M285 507q0 -74 22 -140t64.5 -118.5t112.5 -83t159 -30.5q171 0 294 97l94 -121q-138 -131 -388 -131q-255 0 -404 148t-149 379t149 379t404 148q250 0 388 -131l-94 -121q-123 97 -294 97q-89 0 -159 -30.5t-112.5 -83t-64.5 -118.5t-22 -140zM540 1135l263 299h232
l-305 -299h-190z" />
    <glyph glyph-name="Ccircumflex" unicode="&#x108;" horiz-adv-x="1393" 
d="M90 717q0 158 49.5 292.5t142 233.5t233.5 155t314 56q316 0 494 -150l-98 -134q-163 118 -396 118q-128 0 -229 -44t-165.5 -121.5t-98 -181t-33.5 -224.5t33.5 -224.5t98 -181t165.5 -121.5t229 -44q233 0 396 118l98 -134q-178 -150 -494 -150q-173 0 -314 56
t-233.5 155t-142 233.5t-49.5 292.5zM811 1682l-162 -146h-166l270 299h116l270 -299h-166z" />
    <glyph glyph-name="ccircumflex" unicode="&#x109;" horiz-adv-x="1101" 
d="M285 507q0 -74 22 -140t64.5 -118.5t112.5 -83t159 -30.5q171 0 294 97l94 -121q-138 -131 -388 -131q-255 0 -404 148t-149 379t149 379t404 148q250 0 388 -131l-94 -121q-123 97 -294 97q-89 0 -159 -30.5t-112.5 -83t-64.5 -118.5t-22 -140zM615 1282l-162 -146h-166
l270 299h116l270 -299h-166z" />
    <glyph glyph-name="Cdotaccent" unicode="&#x10a;" horiz-adv-x="1393" 
d="M90 717q0 158 49.5 292.5t142 233.5t233.5 155t314 56q316 0 494 -150l-98 -134q-163 118 -396 118q-128 0 -229 -44t-165.5 -121.5t-98 -181t-33.5 -224.5t33.5 -224.5t98 -181t165.5 -121.5t229 -44q233 0 396 118l98 -134q-178 -150 -494 -150q-173 0 -314 56
t-233.5 155t-142 233.5t-49.5 292.5zM708 1657q0 51 35.5 86.5t85.5 35.5q51 0 86.5 -35.5t35.5 -86.5q0 -50 -35.5 -85.5t-86.5 -35.5q-50 0 -85.5 35.5t-35.5 85.5z" />
    <glyph glyph-name="cdotaccent" unicode="&#x10b;" horiz-adv-x="1101" 
d="M285 507q0 -74 22 -140t64.5 -118.5t112.5 -83t159 -30.5q171 0 294 97l94 -121q-138 -131 -388 -131q-255 0 -404 148t-149 379t149 379t404 148q250 0 388 -131l-94 -121q-123 97 -294 97q-89 0 -159 -30.5t-112.5 -83t-64.5 -118.5t-22 -140zM510 1313q0 51 35.5 86.5
t85.5 35.5q51 0 86.5 -35.5t35.5 -86.5q0 -50 -35.5 -85.5t-86.5 -35.5q-50 0 -85.5 35.5t-35.5 85.5z" />
    <glyph glyph-name="Ccaron" unicode="&#x10c;" horiz-adv-x="1393" 
d="M90 717q0 158 49.5 292.5t142 233.5t233.5 155t314 56q316 0 494 -150l-98 -134q-163 118 -396 118q-128 0 -229 -44t-165.5 -121.5t-98 -181t-33.5 -224.5t33.5 -224.5t98 -181t165.5 -121.5t229 -44q233 0 396 118l98 -134q-178 -150 -494 -150q-173 0 -314 56
t-233.5 155t-142 233.5t-49.5 292.5zM661 1835l162 -146l162 146h166l-270 -299h-116l-270 299h166z" />
    <glyph glyph-name="ccaron" unicode="&#x10d;" horiz-adv-x="1101" 
d="M285 507q0 -74 22 -140t64.5 -118.5t112.5 -83t159 -30.5q171 0 294 97l94 -121q-138 -131 -388 -131q-255 0 -404 148t-149 379t149 379t404 148q250 0 388 -131l-94 -121q-123 97 -294 97q-89 0 -159 -30.5t-112.5 -83t-64.5 -118.5t-22 -140zM472 1434l162 -146
l162 146h166l-270 -299h-116l-270 299h166z" />
    <glyph glyph-name="Dcaron" unicode="&#x10e;" horiz-adv-x="1427" 
d="M1337 717q0 -335 -177 -526t-520 -191h-510v1434h510q343 0 520 -191.5t177 -525.5zM329 1268v-1102h311q127 0 223 41t154 116t86.5 173.5t28.5 220.5t-28.5 220.5t-86.5 173.5t-154 116t-223 41h-311zM402 1835l162 -146l162 146h166l-270 -299h-116l-270 299h166z" />
    <glyph glyph-name="dcaron" unicode="&#x10f;" horiz-adv-x="1327" 
d="M1152 0h-189v201q-53 -108 -156.5 -164.5t-213.5 -56.5q-154 0 -270 71.5t-174.5 190t-58.5 265.5t58.5 265.5t174.5 190t270 71.5q110 0 213.5 -56.5t156.5 -164.5v703h189v-1516zM623 879q-85 0 -152 -32.5t-107 -86.5t-60.5 -119t-20.5 -134q0 -70 20.5 -134.5
t60.5 -118.5t107 -86.5t152 -32.5t152 32.5t107 86.5t60.5 118.5t20.5 134.5q0 69 -20.5 134t-60.5 119t-107 86.5t-152 32.5zM1195 1080l154 436h218l-189 -436h-183z" />
    <glyph glyph-name="Dcroat" unicode="&#x110;" horiz-adv-x="1574" 
d="M40 634v166h237v634h510q343 0 520 -191.5t177 -525.5q0 -335 -177 -526t-520 -191h-510v634h-237zM476 634v-468h311q127 0 223 41t154 116t86.5 173.5t28.5 220.5t-28.5 220.5t-86.5 173.5t-154 116t-223 41h-311v-468h317v-166h-317z" />
    <glyph glyph-name="dslash" unicode="&#x111;" horiz-adv-x="1351" 
d="M1152 0h-189v201q-53 -108 -156.5 -164.5t-213.5 -56.5q-154 0 -270 71.5t-174.5 190t-58.5 265.5t58.5 265.5t174.5 190t270 71.5q110 0 213.5 -56.5t156.5 -164.5v360h-262v155h262v188h189v-188h189v-155h-189v-1173zM623 879q-85 0 -152 -32.5t-107 -86.5t-60.5 -119
t-20.5 -134q0 -70 20.5 -134.5t60.5 -118.5t107 -86.5t152 -32.5t152 32.5t107 86.5t60.5 118.5t20.5 134.5q0 69 -20.5 134t-60.5 119t-107 86.5t-152 32.5z" />
    <glyph glyph-name="Emacron" unicode="&#x112;" horiz-adv-x="1227" 
d="M269 1535v155h709v-155h-709zM329 815h742v-166h-742v-483h788v-166h-987v1434h977v-166h-778v-453z" />
    <glyph glyph-name="emacron" unicode="&#x113;" 
d="M245 1279v155h709v-155h-709zM600 135q180 0 325 114l114 -112q-67 -67 -176.5 -112t-262.5 -45q-234 0 -372 148t-138 379t138 379t372 148q242 0 379 -160t129 -460h-815q9 -116 91 -197.5t216 -81.5zM294 579h612q-5 57 -23.5 107t-52.5 95t-93.5 71.5t-136.5 26.5
t-136 -26.5t-93.5 -71t-53.5 -95.5t-23 -107z" />
    <glyph glyph-name="Ebreve" unicode="&#x114;" horiz-adv-x="1227" 
d="M329 815h742v-166h-742v-483h788v-166h-987v1434h977v-166h-778v-453zM623 1541q-81 0 -145 23.5t-102.5 62t-60.5 78t-32 82.5h129q32 -66 81.5 -95t129.5 -29t129 29t82 95h129q-10 -43 -32 -82.5t-60.5 -78t-102.5 -62t-145 -23.5z" />
    <glyph glyph-name="ebreve" unicode="&#x115;" 
d="M600 135q180 0 325 114l114 -112q-67 -67 -176.5 -112t-262.5 -45q-234 0 -372 148t-138 379t138 379t372 148q242 0 379 -160t129 -460h-815q9 -116 91 -197.5t216 -81.5zM294 579h612q-5 57 -23.5 107t-52.5 95t-93.5 71.5t-136.5 26.5t-136 -26.5t-93.5 -71
t-53.5 -95.5t-23 -107zM599 1188q-81 0 -145 23.5t-102.5 62t-60.5 78t-32 82.5h129q32 -66 81.5 -95t129.5 -29t129 29t82 95h129q-10 -43 -32 -82.5t-60.5 -78t-102.5 -62t-145 -23.5z" />
    <glyph glyph-name="Edotaccent" unicode="&#x116;" horiz-adv-x="1227" 
d="M501 1657q0 51 35.5 86.5t85.5 35.5q51 0 86.5 -35.5t35.5 -86.5q0 -50 -35.5 -85.5t-86.5 -35.5q-50 0 -85.5 35.5t-35.5 85.5zM329 815h742v-166h-742v-483h788v-166h-987v1434h977v-166h-778v-453z" />
    <glyph glyph-name="edotaccent" unicode="&#x117;" 
d="M600 135q180 0 325 114l114 -112q-67 -67 -176.5 -112t-262.5 -45q-234 0 -372 148t-138 379t138 379t372 148q242 0 379 -160t129 -460h-815q9 -116 91 -197.5t216 -81.5zM294 579h612q-5 57 -23.5 107t-52.5 95t-93.5 71.5t-136.5 26.5t-136 -26.5t-93.5 -71
t-53.5 -95.5t-23 -107zM478 1312q0 51 35.5 86.5t85.5 35.5q51 0 86.5 -35.5t35.5 -86.5q0 -50 -35.5 -85.5t-86.5 -35.5q-50 0 -85.5 35.5t-35.5 85.5z" />
    <glyph glyph-name="Eogonek" unicode="&#x118;" horiz-adv-x="1253" 
d="M1117 166v-166q-35 -10 -58 -25q-58 -38 -58 -96q0 -65 71 -89q33 -11 71 -11v-192q-59 0 -112 12t-101 37.5t-74.5 73t-21.5 111.5q2 41 17.5 74.5t34.5 51.5t42 31t35 17t20 5h-853v1434h977v-166h-778v-453h742v-166h-742v-483h788z" />
    <glyph glyph-name="eogonek" unicode="&#x119;" 
d="M600 135q180 0 325 114l114 -112q-103 -103 -267 -139q-108 -36 -108 -119q0 -65 71 -89q33 -11 71 -11v-192q-59 0 -112 12t-101 37.5t-74.5 73t-21.5 111.5q6 111 98 159q-155 1 -270.5 70.5t-175 187.5t-59.5 269q0 231 138 379t372 148q242 0 379 -160t129 -460h-815
q9 -116 91 -197.5t216 -81.5zM294 579h612q-5 57 -23.5 107t-52.5 95t-93.5 71.5t-136.5 26.5t-136 -26.5t-93.5 -71t-53.5 -95.5t-23 -107z" />
    <glyph glyph-name="Ecaron" unicode="&#x11a;" horiz-adv-x="1227" 
d="M329 815h742v-166h-742v-483h788v-166h-987v1434h977v-166h-778v-453zM461 1835l162 -146l162 146h166l-270 -299h-116l-270 299h166z" />
    <glyph glyph-name="ecaron" unicode="&#x11b;" 
d="M600 135q180 0 325 114l114 -112q-67 -67 -176.5 -112t-262.5 -45q-234 0 -372 148t-138 379t138 379t372 148q242 0 379 -160t129 -460h-815q9 -116 91 -197.5t216 -81.5zM294 579h612q-5 57 -23.5 107t-52.5 95t-93.5 71.5t-136.5 26.5t-136 -26.5t-93.5 -71
t-53.5 -95.5t-23 -107zM437 1434l162 -146l162 146h166l-270 -299h-116l-270 299h166z" />
    <glyph glyph-name="Gcircumflex" unicode="&#x11c;" horiz-adv-x="1503" 
d="M829 146q244 0 365 92v390h-345v187h544v-659q-188 -176 -564 -176q-173 0 -314 56t-233.5 155t-142 233.5t-49.5 292.5t49.5 292.5t142 233.5t233.5 155t314 56q165 0 311.5 -42t248.5 -124l-102 -134q-197 134 -458 134q-128 0 -229 -44t-165.5 -121.5t-98 -181
t-33.5 -224.5t33.5 -224.5t98 -181t165.5 -121.5t229 -44zM818 1682l-162 -146h-166l270 299h116l270 -299h-166z" />
    <glyph glyph-name="gcircumflex" unicode="&#x11d;" horiz-adv-x="1282" 
d="M963 20v181q-53 -108 -156.5 -164.5t-213.5 -56.5q-154 0 -270 71.5t-174.5 190t-58.5 265.5t58.5 265.5t174.5 190t270 71.5q110 0 213.5 -56.5t156.5 -164.5v201h189v-994q0 -155 -37.5 -264t-110.5 -171t-167.5 -89.5t-219.5 -27.5q-122 0 -242 32.5t-200 92.5
l104 127q158 -97 338 -97q191 0 268.5 100t77.5 297zM623 879q-85 0 -152 -32.5t-107 -86.5t-60.5 -119t-20.5 -134q0 -70 20.5 -134.5t60.5 -118.5t107 -86.5t152 -32.5t152 32.5t107 86.5t60.5 118.5t20.5 134.5q0 69 -20.5 134t-60.5 119t-107 86.5t-152 32.5zM621 1281
l-162 -146h-166l270 299h116l270 -299h-166z" />
    <glyph glyph-name="Gbreve" unicode="&#x11e;" horiz-adv-x="1503" 
d="M829 146q244 0 365 92v390h-345v187h544v-659q-188 -176 -564 -176q-173 0 -314 56t-233.5 155t-142 233.5t-49.5 292.5t49.5 292.5t142 233.5t233.5 155t314 56q165 0 311.5 -42t248.5 -124l-102 -134q-197 134 -458 134q-128 0 -229 -44t-165.5 -121.5t-98 -181
t-33.5 -224.5t33.5 -224.5t98 -181t165.5 -121.5t229 -44zM829 1553q-81 0 -145 23.5t-102.5 62t-60.5 78t-32 82.5h129q32 -66 81.5 -95t129.5 -29t129 29t82 95h129q-10 -43 -32 -82.5t-60.5 -78t-102.5 -62t-145 -23.5z" />
    <glyph glyph-name="gbreve" unicode="&#x11f;" horiz-adv-x="1282" 
d="M963 20v181q-53 -108 -156.5 -164.5t-213.5 -56.5q-154 0 -270 71.5t-174.5 190t-58.5 265.5t58.5 265.5t174.5 190t270 71.5q110 0 213.5 -56.5t156.5 -164.5v201h189v-994q0 -155 -37.5 -264t-110.5 -171t-167.5 -89.5t-219.5 -27.5q-122 0 -242 32.5t-200 92.5
l104 127q158 -97 338 -97q191 0 268.5 100t77.5 297zM623 879q-85 0 -152 -32.5t-107 -86.5t-60.5 -119t-20.5 -134q0 -70 20.5 -134.5t60.5 -118.5t107 -86.5t152 -32.5t152 32.5t107 86.5t60.5 118.5t20.5 134.5q0 69 -20.5 134t-60.5 119t-107 86.5t-152 32.5zM621 1188
q-81 0 -145 23.5t-102.5 62t-60.5 78t-32 82.5h129q32 -66 81.5 -95t129.5 -29t129 29t82 95h129q-10 -43 -32 -82.5t-60.5 -78t-102.5 -62t-145 -23.5z" />
    <glyph glyph-name="Gdotaccent" unicode="&#x120;" horiz-adv-x="1503" 
d="M829 146q244 0 365 92v390h-345v187h544v-659q-188 -176 -564 -176q-173 0 -314 56t-233.5 155t-142 233.5t-49.5 292.5t49.5 292.5t142 233.5t233.5 155t314 56q165 0 311.5 -42t248.5 -124l-102 -134q-197 134 -458 134q-128 0 -229 -44t-165.5 -121.5t-98 -181
t-33.5 -224.5t33.5 -224.5t98 -181t165.5 -121.5t229 -44zM708 1657q0 51 35.5 86.5t85.5 35.5q51 0 86.5 -35.5t35.5 -86.5q0 -50 -35.5 -85.5t-86.5 -35.5q-50 0 -85.5 35.5t-35.5 85.5z" />
    <glyph glyph-name="gdotaccent" unicode="&#x121;" horiz-adv-x="1282" 
d="M963 20v181q-53 -108 -156.5 -164.5t-213.5 -56.5q-154 0 -270 71.5t-174.5 190t-58.5 265.5t58.5 265.5t174.5 190t270 71.5q110 0 213.5 -56.5t156.5 -164.5v201h189v-994q0 -155 -37.5 -264t-110.5 -171t-167.5 -89.5t-219.5 -27.5q-122 0 -242 32.5t-200 92.5
l104 127q158 -97 338 -97q191 0 268.5 100t77.5 297zM623 879q-85 0 -152 -32.5t-107 -86.5t-60.5 -119t-20.5 -134q0 -70 20.5 -134.5t60.5 -118.5t107 -86.5t152 -32.5t152 32.5t107 86.5t60.5 118.5t20.5 134.5q0 69 -20.5 134t-60.5 119t-107 86.5t-152 32.5zM500 1313
q0 51 35.5 86.5t85.5 35.5q51 0 86.5 -35.5t35.5 -86.5q0 -50 -35.5 -85.5t-86.5 -35.5q-50 0 -85.5 35.5t-35.5 85.5z" />
    <glyph glyph-name="Gcommaaccent" unicode="&#x122;" horiz-adv-x="1503" 
d="M829 146q244 0 365 92v390h-345v187h544v-659q-188 -176 -564 -176q-173 0 -314 56t-233.5 155t-142 233.5t-49.5 292.5t49.5 292.5t142 233.5t233.5 155t314 56q165 0 311.5 -42t248.5 -124l-102 -134q-197 134 -458 134q-128 0 -229 -44t-165.5 -121.5t-98 -181
t-33.5 -224.5t33.5 -224.5t98 -181t165.5 -121.5t229 -44zM569 -532l154 436h218l-189 -436h-183z" />
    <glyph glyph-name="gcommaaccent" unicode="&#x123;" horiz-adv-x="1282" 
d="M963 20v181q-53 -108 -156.5 -164.5t-213.5 -56.5q-154 0 -270 71.5t-174.5 190t-58.5 265.5t58.5 265.5t174.5 190t270 71.5q110 0 213.5 -56.5t156.5 -164.5v201h189v-994q0 -155 -37.5 -264t-110.5 -171t-167.5 -89.5t-219.5 -27.5q-122 0 -242 32.5t-200 92.5
l104 127q158 -97 338 -97q191 0 268.5 100t77.5 297zM623 879q-85 0 -152 -32.5t-107 -86.5t-60.5 -119t-20.5 -134q0 -70 20.5 -134.5t60.5 -118.5t107 -86.5t152 -32.5t152 32.5t107 86.5t60.5 118.5t20.5 134.5q0 69 -20.5 134t-60.5 119t-107 86.5t-152 32.5zM884 1576
l-154 -436h-218l189 436h183z" />
    <glyph glyph-name="Hcircumflex" unicode="&#x124;" horiz-adv-x="1421" 
d="M1092 816v618h199v-1434h-199v650h-763v-650h-199v1434h199v-618h763zM710 1682l-162 -146h-166l270 299h116l270 -299h-166z" />
    <glyph glyph-name="hcircumflex" unicode="&#x125;" 
d="M319 545v-545h-189v1516h189v-655q25 74 104 123.5t187 49.5q230 0 344.5 -130.5t114.5 -358.5v-545h-189v545q0 334 -280 334q-281 0 -281 -334zM599 1682l-162 -146h-166l270 299h116l270 -299h-166z" />
    <glyph glyph-name="Hbar" unicode="&#x126;" horiz-adv-x="1643" 
d="M70 1014v156h171v264h199v-264h763v264h199v-264h171v-156h-171v-1014h-199v650h-763v-650h-199v1014h-171zM440 816h763v198h-763v-198z" />
    <glyph glyph-name="hbar" unicode="&#x127;" horiz-adv-x="1268" 
d="M388 545v-545h-189v1173h-189v155h189v188h189v-188h262v-155h-262v-312q25 74 104 123.5t187 49.5q230 0 344.5 -130.5t114.5 -358.5v-545h-189v545q0 334 -280 334q-281 0 -281 -334z" />
    <glyph glyph-name="Itilde" unicode="&#x128;" horiz-adv-x="585" 
d="M193 0v1434h199v-1434h-199zM254 1612q-2 2 -11.5 8.5t-15 10t-14 8.5t-16.5 7t-16 2q-35 0 -49 -39q-6 -18 -6 -39h-175q2 67 26 114q54 115 209 115q41 0 72.5 -16t72.5 -48q2 -2 11.5 -8.5t15 -10t14 -8.5t16.5 -7t16 -2q35 0 49 39q6 16 6 39h175q-2 -68 -26 -115
q-59 -114 -209 -114q-41 0 -72.5 16t-72.5 48z" />
    <glyph glyph-name="itilde" unicode="&#x129;" horiz-adv-x="605" 
d="M208 0v1014h189v-1014h-189zM264 1248q-2 2 -11.5 8.5t-15 10t-14 8.5t-16.5 7t-16 2q-35 0 -49 -39q-6 -18 -6 -39h-175q2 67 26 114q54 115 209 115q41 0 72.5 -16t72.5 -48q2 -2 11.5 -8.5t15 -10t14 -8.5t16.5 -7t16 -2q35 0 49 39q6 16 6 39h175q-2 -68 -26 -115
q-59 -114 -209 -114q-41 0 -72.5 16t-72.5 48z" />
    <glyph glyph-name="uni012A" unicode="&#x12a;" horiz-adv-x="669" 
d="M-20 1535v155h709v-155h-709zM235 0v1434h199v-1434h-199z" />
    <glyph glyph-name="imacron" unicode="&#x12b;" horiz-adv-x="569" 
d="M-70 1279v155h709v-155h-709zM190 0v1014h189v-1014h-189z" />
    <glyph glyph-name="Ibreve" unicode="&#x12c;" horiz-adv-x="580" 
d="M191 0v1434h199v-1434h-199zM290 1541q-81 0 -145 23.5t-102.5 62t-60.5 78t-32 82.5h129q32 -66 81.5 -95t129.5 -29t129 29t82 95h129q-10 -43 -32 -82.5t-60.5 -78t-102.5 -62t-145 -23.5z" />
    <glyph glyph-name="uni012D" unicode="&#x12d;" horiz-adv-x="640" 
d="M320 1188q-81 0 -145 23.5t-102.5 62t-60.5 78t-32 82.5h129q32 -66 81.5 -95t129.5 -29t129 29t82 95h129q-10 -43 -32 -82.5t-60.5 -78t-102.5 -62t-145 -23.5zM226 0v1014h189v-1014h-189z" />
    <glyph glyph-name="Iogonek" unicode="&#x12e;" horiz-adv-x="570" 
d="M414 1434v-1434q-35 -10 -58 -25q-58 -38 -58 -96q0 -65 71 -89q33 -11 71 -11v-192q-35 0 -74.5 7t-83.5 24.5t-78 43t-55 67t-18 92.5q2 41 17.5 74.5t34.5 51.5t42 31t35 17t20 5h-65v1434h199z" />
    <glyph glyph-name="iogonek" unicode="&#x12f;" horiz-adv-x="571" 
d="M225 0v1014h189v-1014q-8 -1 -23.5 -7.5t-38 -19.5t-38.5 -38t-16 -56q0 -65 71 -89q33 -11 71 -11v-192q-35 0 -74.5 7t-83.5 24.5t-78 43t-55 67t-18 92.5q2 41 17.5 74.5t34.5 51.5t42 31t35 17t20 5h-55zM198 1312q0 51 35.5 86.5t85.5 35.5q51 0 86.5 -35.5
t35.5 -86.5q0 -50 -35.5 -85.5t-86.5 -35.5q-50 0 -85.5 35.5t-35.5 85.5z" />
    <glyph glyph-name="Idot" unicode="&#x130;" horiz-adv-x="503" 
d="M152 0v1434h199v-1434h-199zM130 1657q0 51 35.5 86.5t85.5 35.5q51 0 86.5 -35.5t35.5 -86.5q0 -50 -35.5 -85.5t-86.5 -35.5q-50 0 -85.5 35.5t-35.5 85.5z" />
    <glyph glyph-name="dotlessi" unicode="&#x131;" horiz-adv-x="449" 
d="M130 0v1014h189v-1014h-189z" />
    <glyph glyph-name="IJ" unicode="&#x132;" horiz-adv-x="1497" 
d="M130 0v1434h199v-1434h-199zM470 267l181 51q33 -82 93.5 -127t164.5 -45q143 0 201 71.5t58 234.5v982h199v-982q0 -246 -112 -359t-346 -113q-349 0 -439 287z" />
    <glyph glyph-name="ij" unicode="&#x133;" horiz-adv-x="938" 
d="M266 -491l53 140q68 -26 138 -26q84 0 109.5 73t25.5 257v1061h189v-1061q0 -96 -7 -165.5t-28 -133t-56.5 -102t-93.5 -61.5t-139 -23q-103 0 -191 41zM565 1312q0 51 35.5 86.5t85.5 35.5q51 0 86.5 -35.5t35.5 -86.5q0 -50 -35.5 -85.5t-86.5 -35.5q-50 0 -85.5 35.5
t-35.5 85.5zM157 0v1014h189v-1014h-189zM130 1312q0 51 35.5 86.5t85.5 35.5q51 0 86.5 -35.5t35.5 -86.5q0 -50 -35.5 -85.5t-86.5 -35.5q-50 0 -85.5 35.5t-35.5 85.5z" />
    <glyph glyph-name="Jcircumflex" unicode="&#x134;" horiz-adv-x="1026" 
d="M70 267l181 51q33 -82 93.5 -127t164.5 -45q143 0 201 71.5t58 234.5v982h199v-982q0 -246 -112 -359t-346 -113q-349 0 -439 287zM808 1682l-162 -146h-166l270 299h116l270 -299h-166z" />
    <glyph glyph-name="jcircumflex" unicode="&#x135;" horiz-adv-x="619" 
d="M-110 -489l51 138q64 -26 139 -26q28 0 50 11t36 26t24 43.5t14.5 50.5t7 61.5t3 61.5t0.5 64v12v1061h189v-1061q0 -96 -7 -165.5t-28 -133t-56.5 -102t-93.5 -61.5t-139 -23q-120 0 -190 43zM311 1282l-162 -146h-166l270 299h116l270 -299h-166z" />
    <glyph glyph-name="Kcommaaccent" unicode="&#x136;" horiz-adv-x="1362" 
d="M329 735l726 699h257l-645 -621l655 -813h-243l-548 682l-202 -195v-487h-199v1434h199v-699zM405 -532l154 436h218l-189 -436h-183z" />
    <glyph glyph-name="kcommaaccent" unicode="&#x137;" horiz-adv-x="1120" 
d="M319 580l492 434h263l-472 -416l478 -598h-234l-381 477l-146 -128v-349h-189v1516h189v-936zM307 -532l154 436h218l-189 -436h-183z" />
    <glyph glyph-name="kgreenlandic" unicode="&#x138;" horiz-adv-x="1298" 
d="M1190 1434v-186q-59 -2 -121 -23.5t-113 -52.5t-109.5 -77.5t-100.5 -86t-97.5 -91t-90.5 -80.5q91 -47 186.5 -122t194 -178.5t183.5 -243.5t136 -293h-212q-54 137 -129 255.5t-159 206t-167 151t-170 107.5l-92 -77v-643h-199v1434h199v-575q63 53 140 127
t131.5 129.5t126 116t136.5 100.5t150 68.5t177 33.5z" />
    <glyph glyph-name="Lacute" unicode="&#x139;" horiz-adv-x="1141" 
d="M329 1434v-1268h722v-166h-921v1434h199zM140 1536l263 299h232l-305 -299h-190z" />
    <glyph glyph-name="lacute" unicode="&#x13a;" horiz-adv-x="485" 
d="M131 281v1235h189v-1235q0 -31 1.5 -48.5t8.5 -38t23 -30t42 -9.5h36v-155h-56q-65 0 -111 16t-71.5 40t-40 64t-18 75t-3.5 86zM130 1596l263 299h232l-305 -299h-190z" />
    <glyph glyph-name="Lcommaaccent" unicode="&#x13b;" horiz-adv-x="1141" 
d="M329 1434v-1268h722v-166h-921v1434h199zM334 -532l154 436h218l-189 -436h-183z" />
    <glyph glyph-name="lcommaaccent" unicode="&#x13c;" horiz-adv-x="601" 
d="M211 281v1235h189v-1235q0 -31 1.5 -48.5t8.5 -38t23 -30t42 -9.5h36v-155h-56q-65 0 -111 16t-71.5 40t-40 64t-18 75t-3.5 86zM130 -532l154 436h218l-189 -436h-183z" />
    <glyph glyph-name="Lcaron" unicode="&#x13d;" horiz-adv-x="1141" 
d="M329 1434v-1268h722v-166h-921v1434h199zM418 998l154 436h218l-189 -436h-183z" />
    <glyph glyph-name="lcaron" unicode="&#x13e;" horiz-adv-x="787" 
d="M130 281v1235h189v-1235q0 -31 1.5 -48.5t8.5 -38t23 -30t42 -9.5h36v-155h-56q-65 0 -111 16t-71.5 40t-40 64t-18 75t-3.5 86zM405 1080l154 436h218l-189 -436h-183z" />
    <glyph glyph-name="Ldot" unicode="&#x13f;" horiz-adv-x="1141" 
d="M329 1434v-1268h722v-166h-921v1434h199zM559 650q0 51 35.5 86.5t85.5 35.5q51 0 86.5 -35.5t35.5 -86.5q0 -50 -35.5 -85.5t-86.5 -35.5q-50 0 -85.5 35.5t-35.5 85.5z" />
    <glyph glyph-name="ldot" unicode="&#x140;" horiz-adv-x="709" 
d="M130 281v1235h189v-1235q0 -31 1.5 -48.5t8.5 -38t23 -30t42 -9.5h36v-155h-56q-65 0 -111 16t-71.5 40t-40 64t-18 75t-3.5 86zM396 798q0 51 35.5 86.5t85.5 35.5q51 0 86.5 -35.5t35.5 -86.5q0 -50 -35.5 -85.5t-86.5 -35.5q-50 0 -85.5 35.5t-35.5 85.5z" />
    <glyph glyph-name="Lslash" unicode="&#x141;" horiz-adv-x="1255" 
d="M443 703v-537h722v-166h-921v591l-204 -115v198l204 115v645h199v-533l204 115v-198z" />
    <glyph glyph-name="lslash" unicode="&#x142;" horiz-adv-x="622" 
d="M217 840v676h189v-539l176 127v-204l-176 -127v-492q0 -31 1.5 -48.5t8.5 -38t23 -30t42 -9.5h36v-155h-56q-65 0 -111 16t-71.5 40t-40 64t-18 75t-3.5 86v355l-177 -127v204z" />
    <glyph glyph-name="Nacute" unicode="&#x143;" horiz-adv-x="1508" 
d="M160 0v1434h227l762 -1132v1132h199v-1434h-227l-762 1132v-1132h-199zM606 1535l263 299h232l-305 -299h-190z" />
    <glyph glyph-name="nacute" unicode="&#x144;" 
d="M319 545v-545h-189v1014h189v-153q25 74 104 123.5t187 49.5q230 0 344.5 -130.5t114.5 -358.5v-545h-189v545q0 334 -280 334q-281 0 -281 -334zM529 1135l263 299h232l-305 -299h-190z" />
    <glyph glyph-name="Ncommaaccent" unicode="&#x145;" horiz-adv-x="1448" 
d="M130 0v1434h227l762 -1132v1132h199v-1434h-227l-762 1132v-1132h-199zM458 -532l154 436h218l-189 -436h-183z" />
    <glyph glyph-name="ncommaaccent" unicode="&#x146;" 
d="M319 545v-545h-189v1014h189v-153q25 74 104 123.5t187 49.5q230 0 344.5 -130.5t114.5 -358.5v-545h-189v545q0 334 -280 334q-281 0 -281 -334zM342 -532l154 436h218l-189 -436h-183z" />
    <glyph glyph-name="Ncaron" unicode="&#x147;" horiz-adv-x="1508" 
d="M160 0v1434h227l762 -1132v1132h199v-1434h-227l-762 1132v-1132h-199zM592 1835l162 -146l162 146h166l-270 -299h-116l-270 299h166z" />
    <glyph glyph-name="ncaron" unicode="&#x148;" 
d="M319 545v-545h-189v1014h189v-153q25 74 104 123.5t187 49.5q230 0 344.5 -130.5t114.5 -358.5v-545h-189v545q0 334 -280 334q-281 0 -281 -334zM437 1434l162 -146l162 146h166l-270 -299h-116l-270 299h166z" />
    <glyph glyph-name="napostrophe" unicode="&#x149;" horiz-adv-x="1423" 
d="M543 545v-545h-189v1014h189v-153q25 74 104 123.5t187 49.5q230 0 344.5 -130.5t114.5 -358.5v-545h-189v545q0 334 -280 334q-281 0 -281 -334zM130 998l154 436h218l-189 -436h-183z" />
    <glyph glyph-name="Eng" unicode="&#x14a;" horiz-adv-x="1448" 
d="M130 0v1434h227l762 -1132v1132h199v-1494q0 -237 -103.5 -354.5t-324.5 -117.5q-254 0 -372 174l139 101q44 -54 98.5 -81.5t134.5 -27.5q68 0 114.5 23t71 67t34 95.5t9.5 120.5v60h-28l-762 1132v-1132h-199z" />
    <glyph glyph-name="eng" unicode="&#x14b;" 
d="M319 545v-545h-189v1014h189v-153q25 74 104 123.5t187 49.5q230 0 344.5 -130.5t114.5 -358.5v-592q0 -96 -7 -165.5t-28 -133t-56.5 -102t-93.5 -61.5t-139 -23q-103 0 -191 41l53 140q68 -26 138 -26q84 0 109.5 73t25.5 257v592q0 334 -280 334q-281 0 -281 -334z
" />
    <glyph glyph-name="Omacron" unicode="&#x14c;" horiz-adv-x="1658" 
d="M475 1535v155h709v-155h-709zM829 -20q-173 0 -314 56t-233.5 155t-142 233.5t-49.5 292.5t49.5 292.5t142 233.5t233.5 155t314 56t314 -56t233.5 -155t142 -233.5t49.5 -292.5t-49.5 -292.5t-142 -233.5t-233.5 -155t-314 -56zM829 146q127 0 228 44t165.5 121.5
t98.5 181t34 224.5t-34 224.5t-98.5 181t-165.5 121.5t-228 44q-128 0 -229 -44t-165.5 -121.5t-98 -181t-33.5 -224.5t33.5 -224.5t98 -181t165.5 -121.5t229 -44z" />
    <glyph glyph-name="omacron" unicode="&#x14d;" horiz-adv-x="1286" 
d="M289 1279v155h709v-155h-709zM643 -20q-255 0 -404 148t-149 379t149 379t404 148q254 0 403.5 -148t149.5 -379t-149.5 -379t-403.5 -148zM643 135q89 0 159 30.5t112.5 82.5t64.5 118t22 141q0 74 -22 140t-64.5 118.5t-112.5 83t-159 30.5t-159 -30.5t-112.5 -83
t-64.5 -118.5t-22 -140q0 -75 22 -141t64.5 -118t112.5 -82.5t159 -30.5z" />
    <glyph glyph-name="Obreve" unicode="&#x14e;" horiz-adv-x="1658" 
d="M829 -20q-173 0 -314 56t-233.5 155t-142 233.5t-49.5 292.5t49.5 292.5t142 233.5t233.5 155t314 56t314 -56t233.5 -155t142 -233.5t49.5 -292.5t-49.5 -292.5t-142 -233.5t-233.5 -155t-314 -56zM829 146q127 0 228 44t165.5 121.5t98.5 181t34 224.5t-34 224.5
t-98.5 181t-165.5 121.5t-228 44q-128 0 -229 -44t-165.5 -121.5t-98 -181t-33.5 -224.5t33.5 -224.5t98 -181t165.5 -121.5t229 -44zM829 1541q-81 0 -145 23.5t-102.5 62t-60.5 78t-32 82.5h129q32 -66 81.5 -95t129.5 -29t129 29t82 95h129q-10 -43 -32 -82.5t-60.5 -78
t-102.5 -62t-145 -23.5z" />
    <glyph glyph-name="obreve" unicode="&#x14f;" horiz-adv-x="1286" 
d="M643 -20q-255 0 -404 148t-149 379t149 379t404 148q254 0 403.5 -148t149.5 -379t-149.5 -379t-403.5 -148zM643 135q89 0 159 30.5t112.5 82.5t64.5 118t22 141q0 74 -22 140t-64.5 118.5t-112.5 83t-159 30.5t-159 -30.5t-112.5 -83t-64.5 -118.5t-22 -140
q0 -75 22 -141t64.5 -118t112.5 -82.5t159 -30.5zM643 1189q-81 0 -145 23.5t-102.5 62t-60.5 78t-32 82.5h129q32 -66 81.5 -95t129.5 -29t129 29t82 95h129q-10 -43 -32 -82.5t-60.5 -78t-102.5 -62t-145 -23.5z" />
    <glyph glyph-name="Ohungarumlaut" unicode="&#x150;" horiz-adv-x="1658" 
d="M829 -20q-173 0 -314 56t-233.5 155t-142 233.5t-49.5 292.5t49.5 292.5t142 233.5t233.5 155t314 56t314 -56t233.5 -155t142 -233.5t49.5 -292.5t-49.5 -292.5t-142 -233.5t-233.5 -155t-314 -56zM829 146q127 0 228 44t165.5 121.5t98.5 181t34 224.5t-34 224.5
t-98.5 181t-165.5 121.5t-228 44q-128 0 -229 -44t-165.5 -121.5t-98 -181t-33.5 -224.5t33.5 -224.5t98 -181t165.5 -121.5t229 -44zM606 1536l94 366h208l-129 -366h-173zM887 1536l94 366h208l-129 -366h-173z" />
    <glyph glyph-name="ohungarumlaut" unicode="&#x151;" horiz-adv-x="1286" 
d="M643 -20q-255 0 -404 148t-149 379t149 379t404 148q254 0 403.5 -148t149.5 -379t-149.5 -379t-403.5 -148zM643 135q89 0 159 30.5t112.5 82.5t64.5 118t22 141q0 74 -22 140t-64.5 118.5t-112.5 83t-159 30.5t-159 -30.5t-112.5 -83t-64.5 -118.5t-22 -140
q0 -75 22 -141t64.5 -118t112.5 -82.5t159 -30.5zM414 1150l94 366h208l-129 -366h-173zM695 1150l94 366h208l-129 -366h-173z" />
    <glyph glyph-name="OE" unicode="&#x152;" horiz-adv-x="2237" 
d="M1140 1399v35h977v-166h-778v-453h742v-166h-742v-483h788v-166h-987v35q-145 -55 -311 -55q-173 0 -314 56t-233.5 155t-142 233.5t-49.5 292.5t49.5 292.5t142 233.5t233.5 155t314 56t311 -55zM829 1288q-128 0 -229 -44t-165.5 -121.5t-98 -181t-33.5 -224.5
t33.5 -224.5t98 -181t165.5 -121.5t229 -44q183 0 311 90v961q-125 91 -311 91z" />
    <glyph glyph-name="oe" unicode="&#x153;" horiz-adv-x="2110" 
d="M1511 135q180 0 325 114l114 -112q-67 -67 -176.5 -112t-262.5 -45q-138 0 -243.5 53t-173.5 149q-71 -96 -186 -149t-265 -53q-255 0 -404 148t-149 379t149 379t404 148q150 0 264.5 -53.5t186.5 -149.5q68 96 173.5 149.5t243.5 53.5q242 0 379 -160t129 -460h-815
q9 -116 91 -197.5t216 -81.5zM643 135q89 0 159 30.5t112.5 82.5t64.5 118t22 141q0 74 -22 140t-64.5 118.5t-112.5 83t-159 30.5t-159 -30.5t-112.5 -83t-64.5 -118.5t-22 -140q0 -75 22 -141t64.5 -118t112.5 -82.5t159 -30.5zM1205 579h612q-5 57 -23.5 107t-52.5 95
t-93.5 71.5t-136.5 26.5t-136 -26.5t-93.5 -71t-53.5 -95.5t-23 -107z" />
    <glyph glyph-name="Racute" unicode="&#x154;" horiz-adv-x="1323" 
d="M329 0h-199v1434h609q240 0 366 -115.5t126 -308.5q0 -171 -99 -275.5t-256 -132.5l357 -602h-222l-347 586h-335v-586zM739 1268h-410v-516h410q143 0 213 71t70 187q0 258 -283 258zM494 1536l263 299h232l-305 -299h-190z" />
    <glyph glyph-name="racute" unicode="&#x155;" horiz-adv-x="909" 
d="M835 990l-85 -145q-58 34 -150 34q-281 0 -281 -334v-545h-189v1014h189v-153q25 74 104 123.5t187 49.5q126 0 225 -44zM374 1135l263 299h232l-305 -299h-190z" />
    <glyph glyph-name="Rcommaaccent" unicode="&#x156;" horiz-adv-x="1323" 
d="M329 0h-199v1434h609q240 0 366 -115.5t126 -308.5q0 -171 -99 -275.5t-256 -132.5l357 -602h-222l-347 586h-335v-586zM739 1268h-410v-516h410q143 0 213 71t70 187q0 258 -283 258zM372 -532l154 436h218l-189 -436h-183z" />
    <glyph glyph-name="rcommaaccent" unicode="&#x157;" horiz-adv-x="929" 
d="M889 990l-85 -145q-58 34 -150 34q-281 0 -281 -334v-545h-189v1014h189v-153q25 74 104 123.5t187 49.5q126 0 225 -44zM10 -532l154 436h218l-189 -436h-183z" />
    <glyph glyph-name="Rcaron" unicode="&#x158;" horiz-adv-x="1323" 
d="M329 0h-199v1434h609q240 0 366 -115.5t126 -308.5q0 -171 -99 -275.5t-256 -132.5l357 -602h-222l-347 586h-335v-586zM739 1268h-410v-516h410q143 0 213 71t70 187q0 258 -283 258zM453 1835l162 -146l162 146h166l-270 -299h-116l-270 299h166z" />
    <glyph glyph-name="rcaron" unicode="&#x159;" horiz-adv-x="875" 
d="M835 990l-85 -145q-58 34 -150 34q-281 0 -281 -334v-545h-189v1014h189v-153q25 74 104 123.5t187 49.5q126 0 225 -44zM320 1434l162 -146l162 146h166l-270 -299h-116l-270 299h166z" />
    <glyph glyph-name="Sacute" unicode="&#x15a;" horiz-adv-x="1259" 
d="M1113 1337l-95 -140q-178 91 -397 91q-157 0 -233 -54.5t-76 -154.5q0 -97 79 -152t266 -94q275 -58 403.5 -159.5t128.5 -279.5q0 -200 -138 -307t-394 -107q-361 0 -587 153l95 140q227 -127 492 -127q98 0 165.5 19.5t103 55.5t50 77.5t14.5 95.5q0 102 -82 160.5
t-286 100.5q-272 56 -390.5 160t-118.5 264q0 58 15.5 109.5t53 101t94 85.5t145 57.5t200.5 21.5q157 0 272.5 -28t219.5 -89zM536 1536l263 299h232l-305 -299h-190z" />
    <glyph glyph-name="sacute" unicode="&#x15b;" horiz-adv-x="1020" 
d="M894 934l-88 -128q-136 73 -297 73q-95 0 -152 -32.5t-57 -94.5q0 -65 54.5 -97.5t182.5 -56.5q213 -40 313 -111.5t100 -206.5q0 -153 -117.5 -226.5t-329.5 -73.5q-272 0 -433 131l88 128q80 -55 172.5 -79.5t172.5 -24.5q140 0 196 36t56 109q0 68 -56.5 100.5
t-194.5 58.5q-211 39 -305 114t-94 199q0 127 104.5 204.5t299.5 77.5q223 0 385 -100zM404 1135l263 299h232l-305 -299h-190z" />
    <glyph glyph-name="Scircumflex" unicode="&#x15c;" horiz-adv-x="1259" 
d="M1113 1337l-95 -140q-178 91 -397 91q-157 0 -233 -54.5t-76 -154.5q0 -97 79 -152t266 -94q275 -58 403.5 -159.5t128.5 -279.5q0 -200 -138 -307t-394 -107q-361 0 -587 153l95 140q227 -127 492 -127q98 0 165.5 19.5t103 55.5t50 77.5t14.5 95.5q0 102 -82 160.5
t-286 100.5q-272 56 -390.5 160t-118.5 264q0 58 15.5 109.5t53 101t94 85.5t145 57.5t200.5 21.5q157 0 272.5 -28t219.5 -89zM636 1682l-162 -146h-166l270 299h116l270 -299h-166z" />
    <glyph glyph-name="scircumflex" unicode="&#x15d;" horiz-adv-x="1020" 
d="M894 934l-88 -128q-136 73 -297 73q-95 0 -152 -32.5t-57 -94.5q0 -65 54.5 -97.5t182.5 -56.5q213 -40 313 -111.5t100 -206.5q0 -153 -117.5 -226.5t-329.5 -73.5q-272 0 -433 131l88 128q80 -55 172.5 -79.5t172.5 -24.5q140 0 196 36t56 109q0 68 -56.5 100.5
t-194.5 58.5q-211 39 -305 114t-94 199q0 127 104.5 204.5t299.5 77.5q223 0 385 -100zM511 1281l-162 -146h-166l270 299h116l270 -299h-166z" />
    <glyph glyph-name="Scedilla" unicode="&#x15e;" horiz-adv-x="1259" 
d="M1113 1337l-95 -140q-178 91 -397 91q-157 0 -233 -54.5t-76 -154.5q0 -97 79 -152t266 -94q275 -58 403.5 -159.5t128.5 -279.5q0 -196 -132.5 -302.5t-376.5 -110.5l-25 -84q90 2 146.5 -44.5t48.5 -135.5q-7 -75 -56.5 -122.5t-117.5 -60.5t-141 -3.5t-130 40.5
l44 109q23 -12 62 -21.5t82.5 -11.5t76.5 17t37 60q4 31 -14.5 48.5t-56 20.5t-76 -0.5t-91.5 -12.5l68 205q-285 23 -467 148l95 140q227 -127 492 -127q98 0 165.5 19.5t103 55.5t50 77.5t14.5 95.5q0 102 -82 160.5t-286 100.5q-272 56 -390.5 160t-118.5 264
q0 58 15.5 109.5t53 101t94 85.5t145 57.5t200.5 21.5q157 0 272.5 -28t219.5 -89z" />
    <glyph glyph-name="scedilla" unicode="&#x15f;" horiz-adv-x="1020" 
d="M894 934l-88 -128q-136 73 -297 73q-95 0 -152 -32.5t-57 -94.5q0 -65 54.5 -97.5t182.5 -56.5q213 -40 313 -111.5t100 -206.5q0 -141 -100.5 -214.5t-283.5 -83.5l-26 -85q90 2 146.5 -44.5t48.5 -135.5q-7 -75 -56.5 -122.5t-117.5 -60.5t-141 -3.5t-130 40.5l44 109
q24 -12 62.5 -21t82 -11.5t76.5 16.5t37 60q4 31 -14.5 48.5t-56 20.5t-76 -0.5t-91.5 -12.5l67 204q-218 18 -351 127l88 128q80 -55 172.5 -79.5t172.5 -24.5q140 0 196 36t56 109q0 68 -56.5 100.5t-194.5 58.5q-211 39 -305 114t-94 199q0 127 104.5 204.5t299.5 77.5
q223 0 385 -100z" />
    <glyph glyph-name="Scaron" unicode="&#x160;" horiz-adv-x="1259" 
d="M1113 1337l-95 -140q-178 91 -397 91q-157 0 -233 -54.5t-76 -154.5q0 -97 79 -152t266 -94q275 -58 403.5 -159.5t128.5 -279.5q0 -200 -138 -307t-394 -107q-361 0 -587 153l95 140q227 -127 492 -127q98 0 165.5 19.5t103 55.5t50 77.5t14.5 95.5q0 102 -82 160.5
t-286 100.5q-272 56 -390.5 160t-118.5 264q0 58 15.5 109.5t53 101t94 85.5t145 57.5t200.5 21.5q157 0 272.5 -28t219.5 -89zM462 1835l162 -146l162 146h166l-270 -299h-116l-270 299h166z" />
    <glyph glyph-name="scaron" unicode="&#x161;" horiz-adv-x="1020" 
d="M894 934l-88 -128q-136 73 -297 73q-95 0 -152 -32.5t-57 -94.5q0 -65 54.5 -97.5t182.5 -56.5q213 -40 313 -111.5t100 -206.5q0 -153 -117.5 -226.5t-329.5 -73.5q-272 0 -433 131l88 128q80 -55 172.5 -79.5t172.5 -24.5q140 0 196 36t56 109q0 68 -56.5 100.5
t-194.5 58.5q-211 39 -305 114t-94 199q0 127 104.5 204.5t299.5 77.5q223 0 385 -100zM353 1434l162 -146l162 146h166l-270 -299h-116l-270 299h166z" />
    <glyph glyph-name="Tcommaaccent" unicode="&#x162;" horiz-adv-x="1347" 
d="M70 1434h1207v-166h-504v-1268h-199v1268h-504v166zM408 -532l154 436h218l-189 -436h-183z" />
    <glyph glyph-name="tcommaaccent" unicode="&#x163;" horiz-adv-x="853" 
d="M70 859v155h195v299h189v-299h293v-155h-293v-441q0 -68 2.5 -109t11 -78.5t24.5 -56.5t42.5 -29.5t65.5 -10.5q70 0 138 21l45 -146q-72 -29 -183 -29q-103 0 -168.5 24t-102.5 80.5t-50.5 134t-13.5 199.5v441h-195zM283 -532l154 436h218l-189 -436h-183z" />
    <glyph glyph-name="Tcaron" unicode="&#x164;" horiz-adv-x="1347" 
d="M70 1434h1207v-166h-504v-1268h-199v1268h-504v166zM511 1835l162 -146l162 146h166l-270 -299h-116l-270 299h166z" />
    <glyph glyph-name="tcaron" unicode="&#x165;" horiz-adv-x="1244" 
d="M70 859v155h195v299h189v-299h293v-155h-293v-441q0 -68 2.5 -109t11 -78.5t24.5 -56.5t42.5 -29.5t65.5 -10.5q70 0 138 21l45 -146q-72 -29 -183 -29q-103 0 -168.5 24t-102.5 80.5t-50.5 134t-13.5 199.5v441h-195zM802 998l154 436h218l-189 -436h-183z" />
    <glyph glyph-name="Tbar" unicode="&#x166;" horiz-adv-x="1347" 
d="M70 1434h1207v-166h-504v-254h284v-166h-284v-848h-199v848h-284v166h284v254h-504v166z" />
    <glyph glyph-name="tbar" unicode="&#x167;" horiz-adv-x="853" 
d="M74 517v155h191v187h-195v155h195v299h189v-299h293v-155h-293v-187h293v-155h-293v-99q0 -68 2.5 -109t11 -78.5t24.5 -56.5t42.5 -29.5t65.5 -10.5q70 0 138 21l45 -146q-72 -29 -183 -29q-103 0 -168.5 24t-102.5 80.5t-50.5 134t-13.5 199.5v99h-191z" />
    <glyph glyph-name="Utilde" unicode="&#x168;" horiz-adv-x="1454" 
d="M727 146q398 0 398 476v812h199v-812q0 -306 -148 -474t-449 -168t-449 168t-148 474v812h199v-812q0 -476 398 -476zM689 1600q-2 2 -11.5 8.5t-15 10t-14 8.5t-16.5 7t-16 2q-35 0 -49 -39q-6 -18 -6 -39h-175q2 67 26 114q54 115 209 115q41 0 72.5 -16t72.5 -48
q2 -2 11.5 -8.5t15 -10t14 -8.5t16.5 -7t16 -2q35 0 49 39q6 16 6 39h175q-2 -68 -26 -115q-59 -114 -209 -114q-41 0 -72.5 16t-72.5 48z" />
    <glyph glyph-name="utilde" unicode="&#x169;" 
d="M880 469v545h189v-1014h-189v153q-25 -74 -104 -123.5t-187 -49.5q-231 0 -345 130.5t-114 358.5v545h189v-545q0 -334 280 -334q281 0 281 334zM561 1247q-2 2 -11.5 8.5t-15 10t-14 8.5t-16.5 7t-16 2q-35 0 -49 -39q-6 -18 -6 -39h-175q2 67 26 114q54 115 209 115
q41 0 72.5 -16t72.5 -48q2 -2 11.5 -8.5t15 -10t14 -8.5t16.5 -7t16 -2q35 0 49 39q6 17 6 39h175q-2 -68 -26 -115q-59 -114 -209 -114q-41 0 -72.5 16t-72.5 48z" />
    <glyph glyph-name="Umacron" unicode="&#x16a;" horiz-adv-x="1454" 
d="M374 1535v155h709v-155h-709zM727 146q398 0 398 476v812h199v-812q0 -306 -148 -474t-449 -168t-449 168t-148 474v812h199v-812q0 -476 398 -476z" />
    <glyph glyph-name="umacron" unicode="&#x16b;" 
d="M245 1279v155h709v-155h-709zM880 469v545h189v-1014h-189v153q-25 -74 -104 -123.5t-187 -49.5q-231 0 -345 130.5t-114 358.5v545h189v-545q0 -334 280 -334q281 0 281 334z" />
    <glyph glyph-name="Ubreve" unicode="&#x16c;" horiz-adv-x="1454" 
d="M727 146q398 0 398 476v812h199v-812q0 -306 -148 -474t-449 -168t-449 168t-148 474v812h199v-812q0 -476 398 -476zM728 1541q-81 0 -145 23.5t-102.5 62t-60.5 78t-32 82.5h129q32 -66 81.5 -95t129.5 -29t129 29t82 95h129q-10 -43 -32 -82.5t-60.5 -78t-102.5 -62
t-145 -23.5z" />
    <glyph glyph-name="ubreve" unicode="&#x16d;" 
d="M880 469v545h189v-1014h-189v153q-25 -74 -104 -123.5t-187 -49.5q-231 0 -345 130.5t-114 358.5v545h189v-545q0 -334 280 -334q281 0 281 334zM599 1188q-81 0 -145 23.5t-102.5 62t-60.5 78t-32 82.5h129q32 -66 81.5 -95t129.5 -29t129 29t82 95h129
q-10 -43 -32 -82.5t-60.5 -78t-102.5 -62t-145 -23.5z" />
    <glyph glyph-name="Uring" unicode="&#x16e;" horiz-adv-x="1454" 
d="M727 146q398 0 398 476v812h199v-812q0 -306 -148 -474t-449 -168t-449 168t-148 474v812h199v-812q0 -476 398 -476zM526 1735q0 83 59.5 142.5t142.5 59.5t142.5 -59.5t59.5 -142.5t-59.5 -142.5t-142.5 -59.5t-142.5 59.5t-59.5 142.5zM643 1735q0 -35 25 -60t60 -25
t60 25t25 60t-25 60t-60 25t-60 -25t-25 -60z" />
    <glyph glyph-name="uring" unicode="&#x16f;" 
d="M880 469v545h189v-1014h-189v153q-25 -74 -104 -123.5t-187 -49.5q-231 0 -345 130.5t-114 358.5v545h189v-545q0 -334 280 -334q281 0 281 334zM398 1314q0 83 59.5 142.5t142.5 59.5t142.5 -59.5t59.5 -142.5t-59.5 -142.5t-142.5 -59.5t-142.5 59.5t-59.5 142.5z
M515 1314q0 -35 25 -60t60 -25t60 25t25 60t-25 60t-60 25t-60 -25t-25 -60z" />
    <glyph glyph-name="Uhungarumlaut" unicode="&#x170;" horiz-adv-x="1454" 
d="M727 146q398 0 398 476v812h199v-812q0 -306 -148 -474t-449 -168t-449 168t-148 474v812h199v-812q0 -476 398 -476zM496 1536l94 366h208l-129 -366h-173zM777 1536l94 366h208l-129 -366h-173z" />
    <glyph glyph-name="uhungarumlaut" unicode="&#x171;" 
d="M880 469v545h189v-1014h-189v153q-25 -74 -104 -123.5t-187 -49.5q-231 0 -345 130.5t-114 358.5v545h189v-545q0 -334 280 -334q281 0 281 334zM369 1150l94 366h208l-129 -366h-173zM650 1150l94 366h208l-129 -366h-173z" />
    <glyph glyph-name="Uogonek" unicode="&#x172;" horiz-adv-x="1454" 
d="M727 146q398 0 398 476v812h199v-812q0 -255 -103 -415.5t-312 -207.5q-12 -3 -26 -9.5t-36 -20t-36 -37.5t-14 -53q0 -65 71 -89q33 -11 71 -11v-192q-59 0 -112 12t-101 37.5t-74.5 73t-21.5 111.5q6 111 98 159h-1q-301 0 -449 168t-148 474v812h199v-812
q0 -476 398 -476z" />
    <glyph glyph-name="uogonek" unicode="&#x173;" horiz-adv-x="1225" 
d="M880 469v545h189v-1014q-8 -1 -23.5 -7.5t-38 -19.5t-38.5 -38t-16 -56q0 -65 71 -89q33 -11 71 -11v-192q-59 0 -112 12t-101 37.5t-74.5 73t-21.5 111.5q2 41 17.5 74.5t34.5 51.5t42 31t35 17t20 5h-55v153q-25 -74 -104 -123.5t-187 -49.5q-231 0 -345 130.5
t-114 358.5v545h189v-545q0 -334 280 -334q281 0 281 334z" />
    <glyph glyph-name="Wcircumflex" unicode="&#x174;" horiz-adv-x="1980" 
d="M510 0l-470 1434h208l339 -1053l276 1053h254l276 -1053l339 1053h208l-470 -1434h-167l-313 1190l-313 -1190h-167zM990 1682l-162 -146h-166l270 299h116l270 -299h-166z" />
    <glyph glyph-name="wcircumflex" unicode="&#x175;" horiz-adv-x="1570" 
d="M1005 0l-220 726l-220 -726h-182l-343 1014h203l226 -758l231 758h170l231 -758l226 758h203l-343 -1014h-182zM785 1281l-162 -146h-166l270 299h116l270 -299h-166z" />
    <glyph glyph-name="Ycircumflex" unicode="&#x176;" horiz-adv-x="1399" 
d="M1359 1434l-560 -840v-594h-199v594l-560 840h233l426 -654l427 654h233zM699 1682l-162 -146h-166l270 299h116l270 -299h-166z" />
    <glyph glyph-name="ycircumflex" unicode="&#x177;" horiz-adv-x="1154" 
d="M244 1014l333 -814l333 814h204l-562 -1304q-51 -122 -117.5 -182t-182.5 -60t-190 47l61 135q59 -27 104 -27q33 0 57.5 10.5t44 36.5t31 48t30.5 66l87 216l-437 1014h204zM577 1281l-162 -146h-166l270 299h116l270 -299h-166z" />
    <glyph glyph-name="Ydieresis" unicode="&#x178;" horiz-adv-x="1399" 
d="M1359 1434l-560 -840v-594h-199v594l-560 840h233l426 -654l427 654h233zM371 1657q0 51 35.5 86.5t85.5 35.5q51 0 86.5 -35.5t35.5 -86.5q0 -50 -35.5 -85.5t-86.5 -35.5q-50 0 -85.5 35.5t-35.5 85.5zM784 1657q0 51 35.5 86.5t85.5 35.5q51 0 86.5 -35.5t35.5 -86.5
q0 -50 -35.5 -85.5t-86.5 -35.5q-50 0 -85.5 35.5t-35.5 85.5z" />
    <glyph glyph-name="Zacute" unicode="&#x179;" horiz-adv-x="1344" 
d="M395 166h839v-166h-1124v97l840 1171h-815v166h1099v-97zM552 1536l263 299h232l-305 -299h-190z" />
    <glyph glyph-name="zacute" unicode="&#x17a;" horiz-adv-x="1103" 
d="M110 0v91l605 768h-584v155h862v-91l-605 -768h605v-155h-883zM432 1135l263 299h232l-305 -299h-190z" />
    <glyph glyph-name="Zdotaccent" unicode="&#x17b;" horiz-adv-x="1344" 
d="M395 166h839v-166h-1124v97l840 1171h-815v166h1099v-97zM551 1677q0 51 35.5 86.5t85.5 35.5q51 0 86.5 -35.5t35.5 -86.5q0 -50 -35.5 -85.5t-86.5 -35.5q-50 0 -85.5 35.5t-35.5 85.5z" />
    <glyph glyph-name="zdotaccent" unicode="&#x17c;" horiz-adv-x="1103" 
d="M110 0v91l605 768h-584v155h862v-91l-605 -768h605v-155h-883zM430 1312q0 51 35.5 86.5t85.5 35.5q51 0 86.5 -35.5t35.5 -86.5q0 -50 -35.5 -85.5t-86.5 -35.5q-50 0 -85.5 35.5t-35.5 85.5z" />
    <glyph glyph-name="Zcaron" unicode="&#x17d;" horiz-adv-x="1344" 
d="M395 166h839v-166h-1124v97l840 1171h-815v166h1099v-97zM510 1835l162 -146l162 146h166l-270 -299h-116l-270 299h166z" />
    <glyph glyph-name="zcaron" unicode="&#x17e;" horiz-adv-x="1103" 
d="M110 0v91l605 768h-584v155h862v-91l-605 -768h605v-155h-883zM389 1434l162 -146l162 146h166l-270 -299h-116l-270 299h166z" />
    <glyph glyph-name="longs" unicode="&#x17f;" horiz-adv-x="873" 
d="M470 1014v-1014h-189v859h-191v155h191q0 111 8.5 189.5t30 144.5t59 105.5t96 61t140.5 21.5q127 0 218 -43l-55 -138q-80 26 -153 26q-35 0 -59.5 -8.5t-42 -29.5t-28 -47.5t-16 -71.5t-7.5 -92t-2 -118z" />
    <glyph glyph-name="uni0180" unicode="&#x180;" horiz-adv-x="1381" 
d="M418 0h-189v1173h-189v155h189v188h189v-188h262v-155h-262v-360q53 108 156.5 164.5t213.5 56.5q154 0 270 -71.5t174.5 -190t58.5 -265.5t-58.5 -265.5t-174.5 -190t-270 -71.5q-110 0 -213.5 56.5t-156.5 164.5v-201zM758 879q-85 0 -152 -32.5t-107 -86.5t-60.5 -119
t-20.5 -134q0 -70 20.5 -134.5t60.5 -118.5t107 -86.5t152 -32.5t152 32.5t107 86.5t60.5 118.5t20.5 134.5q0 69 -20.5 134t-60.5 119t-107 86.5t-152 32.5z" />
    <glyph glyph-name="uni0181" unicode="&#x181;" horiz-adv-x="1704" 
d="M1091 0h-644v1268h-81q-18 0 -37 -7.5t-40.5 -26.5t-35.5 -62t-14 -103h-199q0 59 9 108.5t23 84.5t35.5 63t42 46t48.5 30.5t48.5 18.5t47.5 9.5t40 4t32 0.5h705q111 0 197.5 -24t140 -62t88 -91t48 -105.5t13.5 -110.5q0 -95 -46 -174t-149 -120q129 -38 190 -132
t61 -208q0 -62 -15 -118t-52.5 -110t-95.5 -92.5t-150 -62.5t-210 -24zM646 166h445q74 0 130 13.5t90 35.5t55.5 54t29 65t7.5 73q0 241 -312 241h-445v-482zM646 814h425q276 0 276 227t-276 227h-425v-454z" />
    <glyph glyph-name="uni0182" unicode="&#x182;" horiz-adv-x="1204" 
d="M130 1434h865v-166h-666v-438h376q190 0 299.5 -108t109.5 -307t-109.5 -307t-299.5 -108h-575v1434zM329 166h376q103 0 156.5 65t53.5 184t-53.5 184t-156.5 65h-376v-498z" />
    <glyph glyph-name="uni0183" unicode="&#x183;" horiz-adv-x="1282" 
d="M319 0h-189v1434h885v-155h-696v-466q53 108 156.5 164.5t213.5 56.5q154 0 270 -71.5t174.5 -190t58.5 -265.5t-58.5 -265.5t-174.5 -190t-270 -71.5q-110 0 -213.5 56.5t-156.5 164.5v-201zM659 879q-85 0 -152 -32.5t-107 -86.5t-60.5 -119t-20.5 -134
q0 -70 20.5 -134.5t60.5 -118.5t107 -86.5t152 -32.5t152 32.5t107 86.5t60.5 118.5t20.5 134.5q0 69 -20.5 134t-60.5 119t-107 86.5t-152 32.5z" />
    <glyph glyph-name="uni0184" unicode="&#x184;" horiz-adv-x="1244" 
d="M1154 491q0 -68 -12.5 -132.5t-48 -135.5t-90 -123t-147.5 -86t-213 -34q-87 0 -159.5 20t-124 54t-91.5 83.5t-64.5 102.5t-41 116.5t-23.5 121t-9 120.5v918h199v-668q43 67 130 110t184 43q120 0 213 -34t147.5 -86t90 -122.5t48 -135.5t12.5 -132zM955 491
q0 67 -18 127t-54.5 109.5t-98 78.5t-141.5 29q-64 0 -117 -19.5t-89 -52t-61 -77t-36 -93.5t-11 -102q0 -67 18.5 -127t55 -110t98.5 -79t142 -29t141.5 29t98 79t54.5 110t18 127z" />
    <glyph glyph-name="uni0185" unicode="&#x185;" horiz-adv-x="1282" 
d="M130 631v885h189v-703q53 108 156.5 164.5t213.5 56.5q154 0 270 -71.5t174.5 -190t58.5 -265.5t-58.5 -265.5t-174.5 -190t-270 -71.5q-117 0 -210 31.5t-158 88t-108 138t-63 179.5t-20 214zM659 879q-85 0 -152 -32.5t-107 -86.5t-60.5 -119t-20.5 -134
q0 -70 20.5 -134.5t60.5 -118.5t107 -86.5t152 -32.5t152 32.5t107 86.5t60.5 118.5t20.5 134.5q0 69 -20.5 134t-60.5 119t-107 86.5t-152 32.5z" />
    <glyph glyph-name="uni0186" unicode="&#x186;" horiz-adv-x="1393" 
d="M1303 717q0 -158 -49.5 -292.5t-142 -233.5t-233.5 -155t-314 -56q-316 0 -494 150l98 134q163 -118 396 -118q127 0 228 44t165.5 121.5t98.5 181t34 224.5t-34 224.5t-98.5 181t-165.5 121.5t-228 44q-233 0 -396 -118l-98 134q178 150 494 150q173 0 314 -56
t233.5 -155t142 -233.5t49.5 -292.5z" />
    <glyph glyph-name="uni0187" unicode="&#x187;" horiz-adv-x="1447" 
d="M90 717q0 158 49.5 292.5t142 233.5t233.5 155t314 56q169 0 268 -44q0 52 14.5 96.5t46 82.5t87.5 59.5t132 21.5v-166q-65 0 -86.5 -23t-21.5 -73v-266q-83 68 -207 107t-233 39q-128 0 -229 -44t-165.5 -121.5t-98 -181t-33.5 -224.5t33.5 -224.5t98 -181
t165.5 -121.5t229 -44q233 0 396 118l98 -134q-178 -150 -494 -150q-173 0 -314 56t-233.5 155t-142 233.5t-49.5 292.5z" />
    <glyph glyph-name="uni0188" unicode="&#x188;" horiz-adv-x="1157" 
d="M285 507q0 -74 22 -140t64.5 -118.5t112.5 -83t159 -30.5q156 0 292 107l100 -119q-151 -143 -392 -143q-255 0 -404 148t-149 379t149 379t404 148q106 0 185 -33q0 56 12.5 102t40.5 85t80.5 61t125.5 22v-165q-30 0 -48 -7t-25.5 -22.5t-9.5 -28t-2 -33.5v-255
q-163 119 -359 119q-89 0 -159 -30.5t-112.5 -83t-64.5 -118.5t-22 -140z" />
    <glyph glyph-name="uni0189" unicode="&#x189;" horiz-adv-x="1574" 
d="M40 634v166h237v634h510q343 0 520 -191.5t177 -525.5q0 -335 -177 -526t-520 -191h-510v634h-237zM476 634v-468h311q127 0 223 41t154 116t86.5 173.5t28.5 220.5t-28.5 220.5t-86.5 173.5t-154 116t-223 41h-311v-468h317v-166h-317z" />
    <glyph glyph-name="uni018A" unicode="&#x18a;" horiz-adv-x="1744" 
d="M1654 717q0 -335 -177 -526t-520 -191h-510v1268h-81q-18 0 -37 -7.5t-40.5 -26.5t-35.5 -62t-14 -103h-199q0 59 9 108.5t23 84.5t35.5 63t42 46t48.5 30.5t48.5 18.5t47.5 9.5t40 4t32 0.5h591q343 0 520 -191.5t177 -525.5zM646 1268v-1102h311q127 0 223 41t154 116
t86.5 173.5t28.5 220.5t-28.5 220.5t-86.5 173.5t-154 116t-223 41h-311z" />
    <glyph glyph-name="uni018B" unicode="&#x18b;" horiz-adv-x="1204" 
d="M209 1434h865v-1434h-575q-191 0 -300 108t-109 307t109 307t300 108h376v438h-666v166zM499 166h376v498h-376q-103 0 -156.5 -65t-53.5 -184t53.5 -184t156.5 -65z" />
    <glyph glyph-name="uni018C" unicode="&#x18c;" horiz-adv-x="1282" 
d="M1152 0h-189v201q-53 -108 -156.5 -164.5t-213.5 -56.5q-154 0 -270 71.5t-174.5 190t-58.5 265.5t58.5 265.5t174.5 190t270 71.5q110 0 213.5 -56.5t156.5 -164.5v466h-696v155h885v-1434zM623 879q-85 0 -152 -32.5t-107 -86.5t-60.5 -119t-20.5 -134
q0 -70 20.5 -134.5t60.5 -118.5t107 -86.5t152 -32.5t152 32.5t107 86.5t60.5 118.5t20.5 134.5q0 69 -20.5 134t-60.5 119t-107 86.5t-152 32.5z" />
    <glyph glyph-name="uni018D" unicode="&#x18d;" horiz-adv-x="1286" 
d="M634 -20l418 -392v-120h-811v155h544l-539 498q-156 148 -156 386q0 231 149 379t404 148q254 0 403.5 -148t149.5 -379q0 -232 -150.5 -379.5t-411.5 -147.5zM643 135q89 0 159 30.5t112.5 82.5t64.5 118t22 141q0 74 -22 140t-64.5 118.5t-112.5 83t-159 30.5
t-159 -30.5t-112.5 -83t-64.5 -118.5t-22 -140q0 -75 22 -141t64.5 -118t112.5 -82.5t159 -30.5z" />
    <glyph glyph-name="uni018E" unicode="&#x18e;" horiz-adv-x="1227" 
d="M156 815h742v453h-778v166h977v-1434h-987v166h788v483h-742v166z" />
    <glyph glyph-name="uni018F" unicode="&#x18f;" horiz-adv-x="1506" 
d="M754 1288q-262 0 -467 -155l-102 134q94 80 238 133.5t331 53.5q301 0 481.5 -202t180.5 -535t-180.5 -535t-481.5 -202q-115 0 -215.5 30t-186.5 95.5t-145.5 160.5t-90.5 232.5t-24 304.5h1125q-15 244 -139.5 364.5t-323.5 120.5zM1217 638h-926q0 -141 50 -250.5
t156.5 -175.5t256.5 -66q223 0 343 137.5t120 354.5z" />
    <glyph glyph-name="uni0190" unicode="&#x190;" horiz-adv-x="1221" 
d="M993 303l138 -108q-157 -215 -505 -215q-246 0 -391 108.5t-145 319.5q0 138 74.5 229.5t183.5 121.5q-100 32 -162 113t-62 203q0 123 66 209.5t178 128t258 41.5q308 0 463 -215l-138 -108q-128 157 -325 157q-148 0 -225.5 -58t-77.5 -155q0 -127 116 -182.5
t344 -55.5v-166q-255 0 -374.5 -58t-119.5 -205q0 -125 85.5 -193.5t251.5 -68.5q222 0 367 157z" />
    <glyph glyph-name="uni0191" unicode="&#x191;" horiz-adv-x="1263" 
d="M375 815h742v-166h-742v-854q0 -23 -0.5 -37.5t-4 -43t-9.5 -48t-18.5 -47.5t-30.5 -47.5t-46 -40.5t-63 -33.5t-84.5 -21t-108.5 -8.5v166q55 0 89.5 10.5t50.5 33.5t21 48t5 67v1641h977v-166h-778v-453z" />
    <glyph glyph-name="florin" unicode="&#x192;" horiz-adv-x="1119" 
d="M647 848l-189 -1071q-50 -309 -361 -309h-177l25 166h161q38 0 66.5 11t43.5 25t26.5 39.5t14.5 39.5t8 40q1 8 2 11l185 1048h-256l25 166h260l20 111q50 309 361 309h177l-25 -166h-161q-38 0 -66.5 -11t-43.5 -25t-26.5 -39.5t-14.5 -39.5t-8 -40q-1 -8 -2 -11
l-16 -88h264l-25 -166h-268z" />
    <glyph glyph-name="uni0193" unicode="&#x193;" horiz-adv-x="1562" 
d="M829 146q244 0 365 92v390h-345v187h544v-659q-188 -176 -564 -176q-173 0 -314 56t-233.5 155t-142 233.5t-49.5 292.5t49.5 292.5t142 233.5t233.5 155t314 56q217 0 389 -69q6 40 16.5 76.5t35 79.5t59 73.5t92.5 51t131 20.5v-189q-108 0 -146 -105q-17 -48 -17 -104
l-102 -134q-197 134 -458 134q-128 0 -229 -44t-165.5 -121.5t-98 -181t-33.5 -224.5t33.5 -224.5t98 -181t165.5 -121.5t229 -44z" />
    <glyph glyph-name="uni0194" unicode="&#x194;" horiz-adv-x="1398" 
d="M250 1434l449 -1238l449 1238h210l-555 -1434q117 -135 117 -265q0 -74 -21 -129t-55.5 -83.5t-70.5 -41.5t-74 -13t-74 13t-70.5 41.5t-55.5 83.5t-21 129q0 130 117 265l-555 1434h210zM699 -131q-24 -24 -39 -62t-15 -72q0 -48 14.5 -74.5t39.5 -26.5t39.5 26.5
t14.5 74.5q0 34 -15 72t-39 62z" />
    <glyph glyph-name="uni0195" unicode="&#x195;" horiz-adv-x="1938" 
d="M1344 -20q-231 0 -347.5 131t-116.5 358v76q0 334 -280 334q-281 0 -281 -334v-545h-189v1516h189v-655q25 74 104 123.5t187 49.5q230 0 344.5 -130.5t114.5 -358.5v-76q0 -57 7.5 -104t26.5 -90.5t49 -73.5t79 -48t113 -18t113 18t79 48t49 73.5t26.5 90.5t7.5 104v545
h189v-545q0 -227 -116.5 -358t-347.5 -131z" />
    <glyph glyph-name="uni0196" unicode="&#x196;" horiz-adv-x="514" 
d="M130 280v1154h199v-1154q0 -33 1 -48t4.5 -33.5t13.5 -25.5t26 -7h50v-166h-50q-64 0 -109.5 15.5t-71 39.5t-40.5 63t-19 75.5t-4 86.5z" />
    <glyph glyph-name="uni0197" unicode="&#x197;" horiz-adv-x="787" 
d="M90 709v166h204v559h199v-559h204v-166h-204v-709h-199v709h-204z" />
    <glyph glyph-name="uni0198" unicode="&#x198;" horiz-adv-x="1362" 
d="M329 735l726 699h257l-645 -621l655 -813h-243l-548 682l-202 -195v-487h-199v1106q0 58 8.5 104t31.5 89.5t60.5 72t99 45.5t144.5 17v-166q-38 0 -65 -9t-42.5 -23t-24 -36t-11 -43t-2.5 -49v-373z" />
    <glyph glyph-name="uni0199" unicode="&#x199;" horiz-adv-x="1120" 
d="M645 1495l-53 -140q-68 26 -138 26q-84 0 -109.5 -73t-25.5 -257v-471l492 434h263l-472 -416l478 -598h-234l-381 477l-146 -128v-349h-189v1051q0 96 7 165.5t28 133t56.5 102t93.5 61.5t139 23q103 0 191 -41z" />
    <glyph glyph-name="uni019A" unicode="&#x19a;" horiz-adv-x="627" 
d="M219 918v598h189v-598h179v-155h-179v-482q0 -31 1.5 -48.5t8.5 -38t23 -30t42 -9.5h36v-155h-56q-65 0 -111 16t-71.5 40t-40 64t-18 75t-3.5 86v482h-179v155h179z" />
    <glyph glyph-name="uni019B" unicode="&#x19b;" horiz-adv-x="1214" 
d="M607 814l-333 -814h-204l437 1014l-45 112l-237 -109l-65 141l243 112q-27 61 -59.5 91t-86.5 30q-45 0 -104 -27l-61 135q74 47 190 47q106 0 171.5 -51t110.5 -151l217 100l64 -141l-219 -101l518 -1202h-204z" />
    <glyph glyph-name="uni019C" unicode="&#x19c;" horiz-adv-x="1751" 
d="M1621 1434v-1434h-198v111q-60 -131 -222 -131q-115 0 -197 47.5t-129 129.5q-43 -80 -124.5 -128.5t-198.5 -48.5q-203 0 -312.5 138t-109.5 397v919h199v-919q0 -369 223 -369q224 0 224 369v919h199v-919q0 -369 226 -369q221 0 221 369v919h199z" />
    <glyph glyph-name="uni019D" unicode="&#x19d;" horiz-adv-x="1494" 
d="M176 -207v1641h227l762 -1132v1132h199v-1434h-227l-762 1132v-1337q0 -23 -0.5 -37.5t-4 -43t-9.5 -48t-18.5 -47.5t-30.5 -47.5t-46 -40.5t-63 -33.5t-84.5 -21t-108.5 -8.5v166q55 0 89.5 10.5t50.5 33.5t21 48t5 67z" />
    <glyph glyph-name="uni019E" unicode="&#x19e;" 
d="M319 545v-545h-189v1014h189v-153q25 74 104 123.5t187 49.5q230 0 344.5 -130.5t114.5 -358.5v-1077h-189v1077q0 334 -280 334q-281 0 -281 -334z" />
    <glyph glyph-name="uni019F" unicode="&#x19f;" horiz-adv-x="1658" 
d="M829 -20q-173 0 -314 56t-233.5 155t-142 233.5t-49.5 292.5t49.5 292.5t142 233.5t233.5 155t314 56t314 -56t233.5 -155t142 -233.5t49.5 -292.5t-49.5 -292.5t-142 -233.5t-233.5 -155t-314 -56zM829 1288q-230 0 -364.5 -134.5t-157.5 -353.5h1043
q-23 219 -157 353.5t-364 134.5zM829 146q230 0 364 134.5t157 353.5h-1043q23 -219 157.5 -353.5t364.5 -134.5z" />
    <glyph glyph-name="Ohorn" unicode="&#x1a0;" horiz-adv-x="1658" 
d="M829 -20q-173 0 -314 56t-233.5 155t-142 233.5t-49.5 292.5t49.5 292.5t142 233.5t233.5 155t314 56q207 0 371 -82q141 44 141 192h189q0 -212 -190 -287q228 -204 228 -560q0 -158 -49.5 -292.5t-142 -233.5t-233.5 -155t-314 -56zM829 146q127 0 228 44t165.5 121.5
t98.5 181t34 224.5t-34 224.5t-98.5 181t-165.5 121.5t-228 44q-128 0 -229 -44t-165.5 -121.5t-98 -181t-33.5 -224.5t33.5 -224.5t98 -181t165.5 -121.5t229 -44z" />
    <glyph glyph-name="ohorn" unicode="&#x1a1;" horiz-adv-x="1283" 
d="M643 -20q-255 0 -404 148t-149 379t149 379t404 148q154 0 281 -62q130 36 130 196h189q0 -227 -183 -297q136 -144 136 -364q0 -231 -149.5 -379t-403.5 -148zM643 135q89 0 159 30.5t112.5 82.5t64.5 118t22 141q0 74 -22 140t-64.5 118.5t-112.5 83t-159 30.5
t-159 -30.5t-112.5 -83t-64.5 -118.5t-22 -140q0 -75 22 -141t64.5 -118t112.5 -82.5t159 -30.5z" />
    <glyph glyph-name="uni01A2" unicode="&#x1a2;" horiz-adv-x="2200" 
d="M829 -20q-173 0 -314 56t-233.5 155t-142 233.5t-49.5 292.5t49.5 292.5t142 233.5t233.5 155t314 56q281 0 469 -143q135 143 354 143q205 0 311.5 -117t106.5 -355v-982h-199v982q0 158 -53.5 232t-165.5 74q-67 0 -126.5 -27.5t-99.5 -77.5q142 -191 142 -466
q0 -158 -49.5 -292.5t-142 -233.5t-233.5 -155t-314 -56zM829 146q127 0 228 44t165.5 121.5t98.5 181t34 224.5t-34 224.5t-98.5 181t-165.5 121.5t-228 44q-128 0 -229 -44t-165.5 -121.5t-98 -181t-33.5 -224.5t33.5 -224.5t98 -181t165.5 -121.5t229 -44z" />
    <glyph glyph-name="uni01A3" unicode="&#x1a3;" horiz-adv-x="1734" 
d="M643 -20q-255 0 -404 148t-149 379t149 379t404 148q181 0 318 -82q122 82 279 82q108 0 181 -33t112 -99.5t55 -150t16 -202.5v-1081h-189v1081q0 177 -37 253.5t-138 76.5q-74 0 -151 -41q107 -134 107 -331q0 -231 -149.5 -379t-403.5 -148zM643 135q89 0 159 30.5
t112.5 82.5t64.5 118t22 141q0 74 -22 140t-64.5 118.5t-112.5 83t-159 30.5t-159 -30.5t-112.5 -83t-64.5 -118.5t-22 -140q0 -75 22 -141t64.5 -118t112.5 -82.5t159 -30.5z" />
    <glyph glyph-name="uni01A4" unicode="&#x1a4;" horiz-adv-x="1671" 
d="M646 0h-199v1268h-81q-18 0 -37 -7.5t-40.5 -26.5t-35.5 -62t-14 -103h-199q0 59 9 108.5t23 84.5t35.5 63t42 46t48.5 30.5t48.5 18.5t47.5 9.5t40 4t32 0.5h690q249 0 377 -118.5t128 -335.5q0 -215 -128 -334.5t-377 -119.5h-410v-526zM1056 1268h-410v-576h410
q296 0 296 288t-296 288z" />
    <glyph glyph-name="uni01A5" unicode="&#x1a5;" horiz-adv-x="1327" 
d="M130 1014h189v-201q54 110 148 165.5t202 55.5q140 0 253 -55q12 47 35 88.5t60 78t93.5 57.5t126.5 21v-182q-86 0 -131 -49.5t-53 -109.5q139 -145 139 -376q0 -147 -59.5 -265.5t-180 -190t-283.5 -71.5q-108 0 -202 55.5t-148 165.5v-733h-189v1546zM659 135
q68 0 125 21.5t96 58t66.5 84.5t40 100.5t12.5 107.5q0 70 -20.5 134.5t-60.5 118.5t-107 86.5t-152 32.5t-152 -32.5t-107 -86.5t-60.5 -118.5t-20.5 -134.5q0 -69 20.5 -134t60.5 -119t107 -86.5t152 -32.5z" />
    <glyph glyph-name="uni01A6" unicode="&#x1a6;" horiz-adv-x="1323" 
d="M329 0h-199v1434h199v-214h410q240 0 366 -115.5t126 -308.5q0 -171 -99 -275.5t-256 -132.5l357 -602h-222l-347 586h-335v-372zM739 1054h-410v-516h410q143 0 213 71t70 187q0 258 -283 258z" />
    <glyph glyph-name="uni01A7" unicode="&#x1a7;" horiz-adv-x="1259" 
d="M241 1197l-95 140q104 61 219.5 89t272.5 28q112 0 200.5 -21.5t145 -57.5t94 -85.5t53 -101t15.5 -109.5q0 -160 -118.5 -264t-390.5 -160q-204 -42 -286 -100.5t-82 -160.5q0 -54 14.5 -95.5t50 -77.5t103 -55.5t165.5 -19.5q265 0 492 127l95 -140
q-226 -153 -587 -153q-256 0 -394 107t-138 307q0 178 128.5 279.5t403.5 159.5q187 39 266 94t79 152q0 100 -76 154.5t-233 54.5q-222 0 -397 -91z" />
    <glyph glyph-name="uni01A8" unicode="&#x1a8;" horiz-adv-x="1020" 
d="M214 806l-88 128q162 100 385 100q195 0 299.5 -77.5t104.5 -204.5q0 -124 -93.5 -198.5t-305.5 -114.5q-138 -26 -194.5 -58.5t-56.5 -100.5q0 -73 56 -109t196 -36q80 0 172.5 24.5t172.5 79.5l88 -128q-161 -131 -433 -131q-212 0 -329.5 73.5t-117.5 226.5
q0 135 100 206.5t313 111.5q128 24 182.5 56.5t54.5 97.5q0 62 -57 94.5t-152 32.5q-161 0 -297 -73z" />
    <glyph glyph-name="uni01A9" unicode="&#x1a9;" horiz-adv-x="1248" 
d="M119 1434h1019v-166h-744l391 -551l-392 -551h745v-166h-1028v97l451 621l-442 620v96z" />
    <glyph glyph-name="uni01AA" unicode="&#x1aa;" horiz-adv-x="669" 
d="M279 281v887q-76 0 -132.5 54.5t-56.5 129.5q0 76 56.5 130t132.5 54q77 0 133 -53.5t56 -130.5v-1071q0 -31 1.5 -48.5t8.5 -38t23 -30t42 -9.5h36v-155h-56q-65 0 -111.5 17t-71.5 42t-39.5 65t-18 74.5t-3.5 82.5zM224 1352q0 -23 16 -39t39 -16t39 16t16 39t-16 39
t-39 16t-39 -16t-16 -39z" />
    <glyph glyph-name="uni01AB" unicode="&#x1ab;" horiz-adv-x="876" 
d="M70 859v155h195v299h189v-299h293v-155h-293v-441q0 -68 2.5 -109t11 -78.5t24.5 -56.5t42.5 -29.5t65.5 -10.5q122 0 206 47v-190q0 -153 -87.5 -239t-262.5 -86v164q87 0 128.5 40.5t41.5 110.5q-7 -1 -26 -1q-103 0 -168.5 24t-102.5 80.5t-50.5 134t-13.5 199.5v441
h-195z" />
    <glyph glyph-name="uni01AC" unicode="&#x1ac;" horiz-adv-x="1347" 
d="M397 1434h880v-166h-504v-1268h-199v1268h-177q-26 0 -46 -7.5t-40 -27t-31 -61.5t-11 -103h-199q0 59 8.5 108.5t21 84.5t33.5 63t40.5 46t47.5 30.5t47.5 18.5t48 9.5t43 4t37.5 0.5z" />
    <glyph glyph-name="uni01AD" unicode="&#x1ad;" horiz-adv-x="853" 
d="M70 859v155h195v106q0 24 1 41t7.5 52.5t19 61t38.5 57.5t62.5 52.5t94 35t129.5 14.5v-155q-47 0 -80 -12.5t-48.5 -27.5t-24 -41.5t-9.5 -40.5t-1 -37v-106h293v-155h-293v-441q0 -68 2.5 -109t11 -78.5t24.5 -56.5t42.5 -29.5t65.5 -10.5q70 0 138 21l45 -146
q-72 -29 -183 -29q-103 0 -168.5 24t-102.5 80.5t-50.5 134t-13.5 199.5v441h-195z" />
    <glyph glyph-name="uni01AE" unicode="&#x1ae;" horiz-adv-x="1347" 
d="M70 1434h1207v-166h-504v-1268q0 -91 34 -126t139 -35v-166q-93 0 -160 16t-108 42.5t-64.5 69.5t-31.5 89t-8 110v1268h-504v166z" />
    <glyph glyph-name="Uhorn" unicode="&#x1af;" horiz-adv-x="1489" 
d="M727 146q398 0 398 476v812h132q32 0 53 5.5t40.5 22.5t29 53t9.5 92h190q0 -92 -20 -157.5t-58 -103t-79.5 -56.5t-97.5 -29v-639q0 -306 -148 -474t-449 -168t-449 168t-148 474v812h199v-812q0 -476 398 -476z" />
    <glyph glyph-name="uhorn" unicode="&#x1b0;" horiz-adv-x="1402" 
d="M880 469v545h189q61 0 97.5 35t36.5 128h189q0 -66 -16 -119t-38.5 -85.5t-57 -56.5t-61.5 -34.5t-62.5 -16t-50 -6t-33.5 -0.5h-4v-859h-189v153q-25 -74 -104 -123.5t-187 -49.5q-231 0 -345 130.5t-114 358.5v545h189v-545q0 -334 280 -334q281 0 281 334z" />
    <glyph glyph-name="uni01B1" unicode="&#x1b1;" horiz-adv-x="1694" 
d="M847 -20q-218 0 -381.5 84t-249.5 233t-86 342q0 207 131 380t318 249h-404v166h603v-169q-449 -221 -449 -626q0 -142 56 -251.5t175 -175.5t287 -66t287 66t175 175.5t56 251.5q0 405 -449 626v169h603v-166h-404q89 -36 169.5 -98.5t143 -143t99.5 -181.5t37 -206
q0 -193 -86 -342t-249.5 -233t-381.5 -84z" />
    <glyph glyph-name="uni01B2" unicode="&#x1b2;" horiz-adv-x="1216" 
d="M251 1434l468 -1168q130 298 197 533.5t67 352.5q0 63 -35 89.5t-107 26.5v166q170 0 252.5 -65.5t82.5 -217.5q0 -337 -371 -1151h-172l-593 1434h211z" />
    <glyph glyph-name="uni01B3" unicode="&#x1b3;" horiz-adv-x="1437" 
d="M638 594l-345 518q-52 78 -78 102q-60 54 -175 54v166q51 0 93 -4t77 -14.5t61.5 -20t52 -29.5t41 -33.5t36.5 -41.5t32 -44t33 -50l271 -417l427 654h233l-560 -840v-594h-199v594z" />
    <glyph glyph-name="uni01B4" unicode="&#x1b4;" horiz-adv-x="1206" 
d="M995 739l-443 -1029q-51 -122 -117.5 -182t-182.5 -60t-190 47l61 135q59 -27 104 -27q33 0 57.5 10.5t44 36.5t31 48t30.5 66l87 216l-437 1014h204l333 -814l242 592q37 89 72 132q95 116 275 110v-172q-40 0 -70 -10.5t-49.5 -31.5t-29.5 -37.5t-22 -43.5z" />
    <glyph glyph-name="uni01B5" unicode="&#x1b5;" horiz-adv-x="1344" 
d="M395 166h839v-166h-1124v97l401 560h-229v166h348l320 445h-815v166h1099v-97l-369 -514h210v-166h-329z" />
    <glyph glyph-name="uni01B6" unicode="&#x1b6;" horiz-adv-x="1103" 
d="M110 0v91l276 351h-181v155h303l207 262h-584v155h862v-91l-257 -326h159v-155h-281l-226 -287h605v-155h-883z" />
    <glyph glyph-name="uni01B7" unicode="&#x1b7;" horiz-adv-x="1190" 
d="M90 232l137 103q126 -189 354 -189q145 0 232.5 84t87.5 225q0 154 -119.5 226t-364.5 72v124l354 391h-622v166h899v-129l-366 -409q63 -12 117 -30.5t111.5 -54t97.5 -81.5t66 -117t26 -158q0 -120 -43.5 -213.5t-117.5 -149t-165 -84t-193 -28.5q-91 0 -168 17.5
t-128 43.5t-92.5 62t-63.5 66t-39 63z" />
    <glyph glyph-name="uni01B8" unicode="&#x1b8;" horiz-adv-x="1190" 
d="M963 335l137 -103q-17 -33 -39 -63t-63.5 -66t-92.5 -62t-128.5 -43.5t-167.5 -17.5q-102 0 -193 28.5t-165 84t-117.5 149t-43.5 213.5q0 87 26 158t66 117t97.5 81.5t111.5 54t117 30.5l-366 409v129h899v-166h-622l354 -391v-124q-245 0 -364.5 -72t-119.5 -226
q0 -141 87.5 -225t232.5 -84q228 0 354 189z" />
    <glyph glyph-name="uni01B9" unicode="&#x1b9;" horiz-adv-x="1139" 
d="M950 -250l99 -124q-142 -158 -428 -158q-112 0 -207.5 31.5t-168 91.5t-114 155t-41.5 214q0 93 27.5 168t71.5 124.5t106.5 86.5t124.5 56.5t134 31.5l-415 496v91h862v-155h-592l384 -455v-116q-268 0 -391 -80t-123 -248q0 -146 86 -241.5t256 -95.5q63 0 118 13
t99 38t64 39t48 37z" />
    <glyph glyph-name="uni01BA" unicode="&#x1ba;" horiz-adv-x="1091" 
d="M470 -262q-97 0 -136.5 -21t-39.5 -68q0 -51 44 -69t141 -18q94 0 185 20v-155q-73 -21 -191 -21q-188 0 -278.5 58.5t-90.5 187.5q0 117 90.5 179t275.5 62q179 0 260.5 57.5t81.5 179.5q0 67 -32 113.5t-97 73.5t-154 39t-213 12l2 116l354 375h-582v155h862v-91
l-383 -412q51 -10 82.5 -17t82 -23t83 -33.5t71 -47t60.5 -64.5t37.5 -85.5t15.5 -110.5q0 -90 -29.5 -159t-78 -112.5t-118.5 -71t-144 -38.5t-161 -11z" />
    <glyph glyph-name="uni01BB" unicode="&#x1bb;" horiz-adv-x="1190" 
d="M278 553v165h381l41 44q165 178 165 302q0 224 -261 224q-225 0 -307 -223l-173 64q8 29 23 62.5t52.5 83t87 87t133 65t184.5 27.5q211 0 335.5 -102t124.5 -288q0 -87 -40 -169.5t-116 -176.5h140v-165h-285l-358 -387h675v-166h-970v124l396 429h-228z" />
    <glyph glyph-name="uni01BC" unicode="&#x1bc;" horiz-adv-x="1303" 
d="M1122 1434v-166h-663l-23 -374q40 18 117.5 30t153.5 12q111 0 198.5 -26.5t144.5 -71t94.5 -106.5t53 -130t15.5 -145q0 -76 -15.5 -143.5t-53 -129.5t-94.5 -106.5t-144.5 -71t-198.5 -26.5q-105 0 -193.5 16.5t-148 44.5t-98 54.5t-64.5 56.5l112 123
q152 -129 392 -129q88 0 151.5 25t98.5 69.5t51 98t16 118.5q0 66 -16 120t-51 98.5t-98.5 69.5t-151.5 25q-184 0 -345 -68q-74 -31 -129 -67l39 633h-182v166h1032z" />
    <glyph glyph-name="uni01BD" unicode="&#x1bd;" horiz-adv-x="954" 
d="M830 1014v-155h-453l-11 -203q60 15 126 15q106 0 185 -28.5t122.5 -78t64 -108t20.5 -128.5q0 -55 -12 -103.5t-41 -94t-73 -78.5t-112 -52.5t-154 -19.5q-244 0 -375 131l100 120q117 -96 275 -96q96 0 149.5 51.5t53.5 141.5q0 188 -203 188q-118 0 -242 -35
q-58 -16 -94 -34l31 412h-117v155h760z" />
    <glyph glyph-name="uni01BE" unicode="&#x1be;" horiz-adv-x="1126" 
d="M90 196l152 86q19 -32 37.5 -55.5t56.5 -57.5t95 -53t127 -19q132 0 205.5 57.5t73.5 166.5q0 134 -107.5 201.5t-306.5 71.5v185h-210v156h210v79h199v-79h210v-156h-210v-59q96 -16 170.5 -49t119.5 -73t73.5 -89t39.5 -94.5t11 -93.5q0 -76 -26.5 -143.5t-81.5 -124
t-150 -89.5t-220 -33q-87 0 -162 20.5t-123.5 49t-88.5 68t-59.5 68.5t-34.5 59z" />
    <glyph glyph-name="uni01BF" unicode="&#x1bf;" horiz-adv-x="1088" 
d="M130 -532v1546h189v-128q24 54 72.5 94t98.5 57t96 17q194 0 303 -111.5t109 -307.5q0 -119 -41 -220.5t-108 -173t-156.5 -124t-183 -80.5t-190.5 -37v-532h-189zM586 899q-112 0 -189.5 -79t-77.5 -236v-440q64 6 127.5 25t130 57.5t117 92t83 135.5t32.5 181
q0 114 -56 189t-167 75z" />
    <glyph glyph-name="uni01C0" unicode="&#x1c0;" horiz-adv-x="459" 
d="M130 0v1434h199v-1434h-199z" />
    <glyph glyph-name="uni01C1" unicode="&#x1c1;" horiz-adv-x="822" 
d="M493 0v1434h199v-1434h-199zM130 0v1434h199v-1434h-199z" />
    <glyph glyph-name="uni01C2" unicode="&#x1c2;" horiz-adv-x="907" 
d="M354 940v494h199v-494h244v-166h-244v-145h244v-166h-244v-463h-199v463h-244v166h244v145h-244v166h244z" />
    <glyph glyph-name="uni01C3" unicode="&#x1c3;" horiz-adv-x="498" 
d="M165 371l-15 1063h199l-15 -1063h-169zM130 109q0 49 35 84t84 35t84 -35t35 -84t-35 -84t-84 -35t-84 35t-35 84z" />
    <glyph glyph-name="uni01C4" unicode="&#x1c4;" horiz-adv-x="2622" 
d="M1337 717q0 -335 -177 -526t-520 -191h-510v1434h510q343 0 520 -191.5t177 -525.5zM329 1268v-1102h311q127 0 223 41t154 116t86.5 173.5t28.5 220.5t-28.5 220.5t-86.5 173.5t-154 116t-223 41h-311zM1673 166h839v-166h-1124v97l840 1171h-815v166h1099v-97z" />
    <glyph glyph-name="uni01C5" unicode="&#x1c5;" horiz-adv-x="2441" 
d="M1337 717q0 -335 -177 -526t-520 -191h-510v1434h510q343 0 520 -191.5t177 -525.5zM329 1268v-1102h311q127 0 223 41t154 116t86.5 173.5t28.5 220.5t-28.5 220.5t-86.5 173.5t-154 116t-223 41h-311zM1448 0v91l605 768h-584v155h862v-91l-605 -768h605v-155h-883z
" />
    <glyph glyph-name="uni01C6" unicode="&#x1c6;" horiz-adv-x="2282" 
d="M1152 0h-189v201q-53 -108 -156.5 -164.5t-213.5 -56.5q-154 0 -270 71.5t-174.5 190t-58.5 265.5t58.5 265.5t174.5 190t270 71.5q110 0 213.5 -56.5t156.5 -164.5v703h189v-1516zM623 879q-85 0 -152 -32.5t-107 -86.5t-60.5 -119t-20.5 -134q0 -70 20.5 -134.5
t60.5 -118.5t107 -86.5t152 -32.5t152 32.5t107 86.5t60.5 118.5t20.5 134.5q0 69 -20.5 134t-60.5 119t-107 86.5t-152 32.5zM1289 0v91l605 768h-584v155h862v-91l-605 -768h605v-155h-883z" />
    <glyph glyph-name="uni01C7" unicode="&#x1c7;" horiz-adv-x="2131" 
d="M329 1434v-1268h722v-166h-921v1434h199zM1104 267l181 51q33 -82 93.5 -127t164.5 -45q143 0 201 71.5t58 234.5v982h199v-982q0 -246 -112 -359t-346 -113q-349 0 -439 287z" />
    <glyph glyph-name="uni01C8" unicode="&#x1c8;" horiz-adv-x="1584" 
d="M329 1434v-1268h722v-166h-921v1434h199zM912 -491l53 140q68 -26 138 -26q84 0 109.5 73t25.5 257v1061h189v-1061q0 -96 -7 -165.5t-28 -133t-56.5 -102t-93.5 -61.5t-139 -23q-103 0 -191 41zM1211 1312q0 51 35.5 86.5t85.5 35.5q51 0 86.5 -35.5t35.5 -86.5
q0 -50 -35.5 -85.5t-86.5 -35.5q-50 0 -85.5 35.5t-35.5 85.5z" />
    <glyph glyph-name="uni01C9" unicode="&#x1c9;" horiz-adv-x="991" 
d="M130 281v1235h189v-1235q0 -31 1.5 -48.5t8.5 -38t23 -30t42 -9.5h36v-155h-56q-65 0 -111 16t-71.5 40t-40 64t-18 75t-3.5 86zM319 -491l53 140q68 -26 138 -26q84 0 109.5 73t25.5 257v1061h189v-1061q0 -96 -7 -165.5t-28 -133t-56.5 -102t-93.5 -61.5t-139 -23
q-103 0 -191 41zM618 1312q0 51 35.5 86.5t85.5 35.5q51 0 86.5 -35.5t35.5 -86.5q0 -50 -35.5 -85.5t-86.5 -35.5q-50 0 -85.5 35.5t-35.5 85.5z" />
    <glyph glyph-name="uni01CA" unicode="&#x1ca;" horiz-adv-x="2463" 
d="M130 0v1434h227l762 -1132v1132h199v-1434h-227l-762 1132v-1132h-199zM1436 267l181 51q33 -82 93.5 -127t164.5 -45q143 0 201 71.5t58 234.5v982h199v-982q0 -246 -112 -359t-346 -113q-349 0 -439 287z" />
    <glyph glyph-name="uni01CB" unicode="&#x1cb;" horiz-adv-x="1970" 
d="M130 0v1434h227l762 -1132v1132h199v-1434h-227l-762 1132v-1132h-199zM1298 -491l53 140q68 -26 138 -26q84 0 109.5 73t25.5 257v1061h189v-1061q0 -96 -7 -165.5t-28 -133t-56.5 -102t-93.5 -61.5t-139 -23q-103 0 -191 41zM1597 1312q0 51 35.5 86.5t85.5 35.5
q51 0 86.5 -35.5t35.5 -86.5q0 -50 -35.5 -85.5t-86.5 -35.5q-50 0 -85.5 35.5t-35.5 85.5z" />
    <glyph glyph-name="uni01CC" unicode="&#x1cc;" horiz-adv-x="1678" 
d="M319 545v-545h-189v1014h189v-153q25 74 104 123.5t187 49.5q230 0 344.5 -130.5t114.5 -358.5v-545h-189v545q0 334 -280 334q-281 0 -281 -334zM1006 -491l53 140q68 -26 138 -26q84 0 109.5 73t25.5 257v1061h189v-1061q0 -96 -7 -165.5t-28 -133t-56.5 -102
t-93.5 -61.5t-139 -23q-103 0 -191 41zM1305 1312q0 51 35.5 86.5t85.5 35.5q51 0 86.5 -35.5t35.5 -86.5q0 -50 -35.5 -85.5t-86.5 -35.5q-50 0 -85.5 35.5t-35.5 85.5z" />
    <glyph glyph-name="uni01CD" unicode="&#x1cd;" horiz-adv-x="1478" 
d="M251 0h-211l613 1434h172l613 -1434h-211l-171 409h-634zM987 575l-248 593l-248 -593h496zM577 1835l162 -146l162 146h166l-270 -299h-116l-270 299h166z" />
    <glyph glyph-name="uni01CE" unicode="&#x1ce;" horiz-adv-x="1149" 
d="M598 879q-177 0 -340 -80l-73 132q85 49 196.5 76t216.5 27q81 0 146 -13.5t108.5 -34.5t75 -55t49 -67t27.5 -78.5t12.5 -81.5t2.5 -84v-620h-189v169q-37 -85 -118.5 -137t-209.5 -52q-191 0 -301.5 86t-110.5 242q0 69 24.5 125.5t66.5 95t101 66t124 42.5t140 21.5
t144 5.5t140 -7q-2 116 -48.5 169t-183.5 53zM286 308q0 -80 55.5 -126.5t170.5 -46.5q155 0 236.5 89.5t81.5 222.5v80q-64 8 -131 9t-143 -10t-134.5 -34.5t-97 -70.5t-38.5 -113zM440 1434l162 -146l162 146h166l-270 -299h-116l-270 299h166z" />
    <glyph glyph-name="uni01CF" unicode="&#x1cf;" horiz-adv-x="676" 
d="M239 0v1434h199v-1434h-199zM176 1835l162 -146l162 146h166l-270 -299h-116l-270 299h166z" />
    <glyph glyph-name="uni01D0" unicode="&#x1d0;" horiz-adv-x="616" 
d="M214 0v1014h189v-1014h-189zM146 1434l162 -146l162 146h166l-270 -299h-116l-270 299h166z" />
    <glyph glyph-name="uni01D1" unicode="&#x1d1;" horiz-adv-x="1658" 
d="M829 -20q-173 0 -314 56t-233.5 155t-142 233.5t-49.5 292.5t49.5 292.5t142 233.5t233.5 155t314 56t314 -56t233.5 -155t142 -233.5t49.5 -292.5t-49.5 -292.5t-142 -233.5t-233.5 -155t-314 -56zM829 146q127 0 228 44t165.5 121.5t98.5 181t34 224.5t-34 224.5
t-98.5 181t-165.5 121.5t-228 44q-128 0 -229 -44t-165.5 -121.5t-98 -181t-33.5 -224.5t33.5 -224.5t98 -181t165.5 -121.5t229 -44zM667 1835l162 -146l162 146h166l-270 -299h-116l-270 299h166z" />
    <glyph glyph-name="uni01D2" unicode="&#x1d2;" horiz-adv-x="1286" 
d="M643 -20q-255 0 -404 148t-149 379t149 379t404 148q254 0 403.5 -148t149.5 -379t-149.5 -379t-403.5 -148zM643 135q89 0 159 30.5t112.5 82.5t64.5 118t22 141q0 74 -22 140t-64.5 118.5t-112.5 83t-159 30.5t-159 -30.5t-112.5 -83t-64.5 -118.5t-22 -140
q0 -75 22 -141t64.5 -118t112.5 -82.5t159 -30.5zM481 1434l162 -146l162 146h166l-270 -299h-116l-270 299h166z" />
    <glyph glyph-name="uni01D3" unicode="&#x1d3;" horiz-adv-x="1454" 
d="M727 146q398 0 398 476v812h199v-812q0 -306 -148 -474t-449 -168t-449 168t-148 474v812h199v-812q0 -476 398 -476zM565 1835l162 -146l162 146h166l-270 -299h-116l-270 299h166z" />
    <glyph glyph-name="uni01D4" unicode="&#x1d4;" 
d="M880 469v545h189v-1014h-189v153q-25 -74 -104 -123.5t-187 -49.5q-231 0 -345 130.5t-114 358.5v545h189v-545q0 -334 280 -334q281 0 281 334zM437 1434l162 -146l162 146h166l-270 -299h-116l-270 299h166z" />
    <glyph glyph-name="uni01D5" unicode="&#x1d5;" horiz-adv-x="1454" 
d="M727 146q398 0 398 476v812h199v-812q0 -306 -148 -474t-449 -168t-449 168t-148 474v812h199v-812q0 -476 398 -476zM399 1657q0 51 35.5 86.5t85.5 35.5q51 0 86.5 -35.5t35.5 -86.5q0 -50 -35.5 -85.5t-86.5 -35.5q-50 0 -85.5 35.5t-35.5 85.5zM812 1657
q0 51 35.5 86.5t85.5 35.5q51 0 86.5 -35.5t35.5 -86.5q0 -50 -35.5 -85.5t-86.5 -35.5q-50 0 -85.5 35.5t-35.5 85.5zM372 1848v155h709v-155h-709z" />
    <glyph glyph-name="uni01D6" unicode="&#x1d6;" 
d="M880 469v545h189v-1014h-189v153q-25 -74 -104 -123.5t-187 -49.5q-231 0 -345 130.5t-114 358.5v545h189v-545q0 -334 280 -334q281 0 281 334zM271 1312q0 51 35.5 86.5t85.5 35.5q51 0 86.5 -35.5t35.5 -86.5q0 -50 -35.5 -85.5t-86.5 -35.5q-50 0 -85.5 35.5
t-35.5 85.5zM684 1312q0 51 35.5 86.5t85.5 35.5q51 0 86.5 -35.5t35.5 -86.5q0 -50 -35.5 -85.5t-86.5 -35.5q-50 0 -85.5 35.5t-35.5 85.5zM244 1503v155h709v-155h-709z" />
    <glyph glyph-name="uni01D7" unicode="&#x1d7;" horiz-adv-x="1454" 
d="M727 146q398 0 398 476v812h199v-812q0 -306 -148 -474t-449 -168t-449 168t-148 474v812h199v-812q0 -476 398 -476zM399 1657q0 51 35.5 86.5t85.5 35.5q51 0 86.5 -35.5t35.5 -86.5q0 -50 -35.5 -85.5t-86.5 -35.5q-50 0 -85.5 35.5t-35.5 85.5zM812 1657
q0 51 35.5 86.5t85.5 35.5q51 0 86.5 -35.5t35.5 -86.5q0 -50 -35.5 -85.5t-86.5 -35.5q-50 0 -85.5 35.5t-35.5 85.5zM630 1839l263 299h232l-305 -299h-190z" />
    <glyph glyph-name="uni01D8" unicode="&#x1d8;" 
d="M880 469v545h189v-1014h-189v153q-25 -74 -104 -123.5t-187 -49.5q-231 0 -345 130.5t-114 358.5v545h189v-545q0 -334 280 -334q281 0 281 334zM271 1312q0 51 35.5 86.5t85.5 35.5q51 0 86.5 -35.5t35.5 -86.5q0 -50 -35.5 -85.5t-86.5 -35.5q-50 0 -85.5 35.5
t-35.5 85.5zM684 1312q0 51 35.5 86.5t85.5 35.5q51 0 86.5 -35.5t35.5 -86.5q0 -50 -35.5 -85.5t-86.5 -35.5q-50 0 -85.5 35.5t-35.5 85.5zM502 1494l263 299h232l-305 -299h-190z" />
    <glyph glyph-name="uni01D9" unicode="&#x1d9;" horiz-adv-x="1454" 
d="M727 146q398 0 398 476v812h199v-812q0 -306 -148 -474t-449 -168t-449 168t-148 474v812h199v-812q0 -476 398 -476zM399 1657q0 51 35.5 86.5t85.5 35.5q51 0 86.5 -35.5t35.5 -86.5q0 -50 -35.5 -85.5t-86.5 -35.5q-50 0 -85.5 35.5t-35.5 85.5zM812 1657
q0 51 35.5 86.5t85.5 35.5q51 0 86.5 -35.5t35.5 -86.5q0 -50 -35.5 -85.5t-86.5 -35.5q-50 0 -85.5 35.5t-35.5 85.5z" />
    <glyph glyph-name="uni01DA" unicode="&#x1da;" 
d="M880 469v545h189v-1014h-189v153q-25 -74 -104 -123.5t-187 -49.5q-231 0 -345 130.5t-114 358.5v545h189v-545q0 -334 280 -334q281 0 281 334zM271 1312q0 51 35.5 86.5t85.5 35.5q51 0 86.5 -35.5t35.5 -86.5q0 -50 -35.5 -85.5t-86.5 -35.5q-50 0 -85.5 35.5
t-35.5 85.5zM684 1312q0 51 35.5 86.5t85.5 35.5q51 0 86.5 -35.5t35.5 -86.5q0 -50 -35.5 -85.5t-86.5 -35.5q-50 0 -85.5 35.5t-35.5 85.5z" />
    <glyph glyph-name="uni01DB" unicode="&#x1db;" horiz-adv-x="1454" 
d="M727 146q398 0 398 476v812h199v-812q0 -306 -148 -474t-449 -168t-449 168t-148 474v812h199v-812q0 -476 398 -476zM557 2138l263 -299h-190l-305 299h232zM399 1657q0 51 35.5 86.5t85.5 35.5q51 0 86.5 -35.5t35.5 -86.5q0 -50 -35.5 -85.5t-86.5 -35.5
q-50 0 -85.5 35.5t-35.5 85.5zM812 1657q0 51 35.5 86.5t85.5 35.5q51 0 86.5 -35.5t35.5 -86.5q0 -50 -35.5 -85.5t-86.5 -35.5q-50 0 -85.5 35.5t-35.5 85.5z" />
    <glyph glyph-name="uni01DC" unicode="&#x1dc;" 
d="M880 469v545h189v-1014h-189v153q-25 -74 -104 -123.5t-187 -49.5q-231 0 -345 130.5t-114 358.5v545h189v-545q0 -334 280 -334q281 0 281 334zM429 1793l263 -299h-190l-305 299h232zM271 1312q0 51 35.5 86.5t85.5 35.5q51 0 86.5 -35.5t35.5 -86.5q0 -50 -35.5 -85.5
t-86.5 -35.5q-50 0 -85.5 35.5t-35.5 85.5zM684 1312q0 51 35.5 86.5t85.5 35.5q51 0 86.5 -35.5t35.5 -86.5q0 -50 -35.5 -85.5t-86.5 -35.5q-50 0 -85.5 35.5t-35.5 85.5z" />
    <glyph glyph-name="uni01DD" unicode="&#x1dd;" 
d="M599 879q-180 0 -325 -114l-114 112q67 67 176.5 112t262.5 45q234 0 372 -148t138 -379t-138 -379t-372 -148q-242 0 -379 160t-129 460h815q-9 116 -91 197.5t-216 81.5zM905 435h-612q4 -56 23 -107t53.5 -95.5t93.5 -71t136 -26.5t136.5 26.5t93.5 71.5t52.5 95
t23.5 107z" />
    <glyph glyph-name="uni01DE" unicode="&#x1de;" horiz-adv-x="1478" 
d="M251 0h-211l613 1434h172l613 -1434h-211l-171 409h-634zM987 575l-248 593l-248 -593h496zM411 1657q0 51 35.5 86.5t85.5 35.5q51 0 86.5 -35.5t35.5 -86.5q0 -50 -35.5 -85.5t-86.5 -35.5q-50 0 -85.5 35.5t-35.5 85.5zM824 1657q0 51 35.5 86.5t85.5 35.5
q51 0 86.5 -35.5t35.5 -86.5q0 -50 -35.5 -85.5t-86.5 -35.5q-50 0 -85.5 35.5t-35.5 85.5zM384 1848v155h709v-155h-709z" />
    <glyph glyph-name="uni01DF" unicode="&#x1df;" horiz-adv-x="1149" 
d="M598 879q-177 0 -340 -80l-73 132q85 49 196.5 76t216.5 27q81 0 146 -13.5t108.5 -34.5t75 -55t49 -67t27.5 -78.5t12.5 -81.5t2.5 -84v-620h-189v169q-37 -85 -118.5 -137t-209.5 -52q-191 0 -301.5 86t-110.5 242q0 69 24.5 125.5t66.5 95t101 66t124 42.5t140 21.5
t144 5.5t140 -7q-2 116 -48.5 169t-183.5 53zM286 308q0 -80 55.5 -126.5t170.5 -46.5q155 0 236.5 89.5t81.5 222.5v80q-64 8 -131 9t-143 -10t-134.5 -34.5t-97 -70.5t-38.5 -113zM279 1312q0 51 35.5 86.5t85.5 35.5q51 0 86.5 -35.5t35.5 -86.5q0 -50 -35.5 -85.5
t-86.5 -35.5q-50 0 -85.5 35.5t-35.5 85.5zM692 1312q0 51 35.5 86.5t85.5 35.5q51 0 86.5 -35.5t35.5 -86.5q0 -50 -35.5 -85.5t-86.5 -35.5q-50 0 -85.5 35.5t-35.5 85.5zM253 1503v155h709v-155h-709z" />
    <glyph glyph-name="uni01E0" unicode="&#x1e0;" horiz-adv-x="1478" 
d="M251 0h-211l613 1434h172l613 -1434h-211l-171 409h-634zM987 575l-248 593l-248 -593h496zM618 1657q0 51 35.5 86.5t85.5 35.5q51 0 86.5 -35.5t35.5 -86.5q0 -50 -35.5 -85.5t-86.5 -35.5q-50 0 -85.5 35.5t-35.5 85.5zM385 1848v155h709v-155h-709z" />
    <glyph glyph-name="uni01E1" unicode="&#x1e1;" horiz-adv-x="1149" 
d="M598 879q-177 0 -340 -80l-73 132q85 49 196.5 76t216.5 27q81 0 146 -13.5t108.5 -34.5t75 -55t49 -67t27.5 -78.5t12.5 -81.5t2.5 -84v-620h-189v169q-37 -85 -118.5 -137t-209.5 -52q-191 0 -301.5 86t-110.5 242q0 69 24.5 125.5t66.5 95t101 66t124 42.5t140 21.5
t144 5.5t140 -7q-2 116 -48.5 169t-183.5 53zM286 308q0 -80 55.5 -126.5t170.5 -46.5q155 0 236.5 89.5t81.5 222.5v80q-64 8 -131 9t-143 -10t-134.5 -34.5t-97 -70.5t-38.5 -113zM492 1312q0 51 35.5 86.5t85.5 35.5q51 0 86.5 -35.5t35.5 -86.5q0 -50 -35.5 -85.5
t-86.5 -35.5q-50 0 -85.5 35.5t-35.5 85.5zM259 1503v155h709v-155h-709z" />
    <glyph glyph-name="uni01E2" unicode="&#x1e2;" horiz-adv-x="2100" 
d="M997 1535v155h709v-155h-709zM1202 815h742v-166h-742v-483h788v-166h-987v487h-400l-326 -487h-237l965 1434h975v-166h-778v-453zM1003 1085l-290 -432h290v432z" />
    <glyph glyph-name="uni01E3" unicode="&#x1e3;" horiz-adv-x="1939" 
d="M603 1279v155h709v-155h-709zM1340 135q180 0 325 114l114 -112q-67 -67 -176.5 -112t-262.5 -45q-270 0 -410 193q-156 -193 -428 -193q-191 0 -301.5 86t-110.5 242q0 69 24.5 125.5t66.5 95t101 66t124 42.5t140 21.5t144 5.5t140 -7q-2 116 -48.5 169t-183.5 53
q-177 0 -340 -80l-73 132q85 49 196.5 76t216.5 27q276 0 367 -151q140 151 375 151q242 0 379 -160t129 -460h-815q9 -116 91 -197.5t216 -81.5zM286 308q0 -80 55.5 -126.5t170.5 -46.5q155 0 236.5 89.5t81.5 222.5v80q-64 8 -131 9t-143 -10t-134.5 -34.5t-97 -70.5
t-38.5 -113zM1034 579h612q-5 57 -23.5 107t-52.5 95t-93.5 71.5t-136.5 26.5t-136 -26.5t-93.5 -71t-53.5 -95.5t-23 -107z" />
    <glyph glyph-name="uni01E4" unicode="&#x1e4;" horiz-adv-x="1631" 
d="M829 146q244 0 365 92v106h-345v166h345v118h-345v187h544v-305h168v-166h-168v-188q-188 -176 -564 -176q-173 0 -314 56t-233.5 155t-142 233.5t-49.5 292.5t49.5 292.5t142 233.5t233.5 155t314 56q165 0 311.5 -42t248.5 -124l-102 -134q-197 134 -458 134
q-128 0 -229 -44t-165.5 -121.5t-98 -181t-33.5 -224.5t33.5 -224.5t98 -181t165.5 -121.5t229 -44z" />
    <glyph glyph-name="uni01E5" unicode="&#x1e5;" horiz-adv-x="1304" 
d="M963 20v181q-53 -108 -156.5 -164.5t-213.5 -56.5q-154 0 -270 71.5t-174.5 190t-58.5 265.5t58.5 265.5t174.5 190t270 71.5q110 0 213.5 -56.5t156.5 -164.5v201h189v-994q0 -66 -8 -130h180v-155h-219q-57 -143 -180 -205t-308 -62q-122 0 -242 32.5t-200 92.5
l104 127q158 -97 338 -97q196 0 277 112h-190v155h249q10 57 10 130zM623 879q-85 0 -152 -32.5t-107 -86.5t-60.5 -119t-20.5 -134q0 -70 20.5 -134.5t60.5 -118.5t107 -86.5t152 -32.5t152 32.5t107 86.5t60.5 118.5t20.5 134.5q0 69 -20.5 134t-60.5 119t-107 86.5
t-152 32.5z" />
    <glyph glyph-name="Gcaron" unicode="&#x1e6;" horiz-adv-x="1503" 
d="M829 146q244 0 365 92v390h-345v187h544v-659q-188 -176 -564 -176q-173 0 -314 56t-233.5 155t-142 233.5t-49.5 292.5t49.5 292.5t142 233.5t233.5 155t314 56q165 0 311.5 -42t248.5 -124l-102 -134q-197 134 -458 134q-128 0 -229 -44t-165.5 -121.5t-98 -181
t-33.5 -224.5t33.5 -224.5t98 -181t165.5 -121.5t229 -44zM666 1835l162 -146l162 146h166l-270 -299h-116l-270 299h166z" />
    <glyph glyph-name="gcaron" unicode="&#x1e7;" horiz-adv-x="1282" 
d="M963 20v181q-53 -108 -156.5 -164.5t-213.5 -56.5q-154 0 -270 71.5t-174.5 190t-58.5 265.5t58.5 265.5t174.5 190t270 71.5q110 0 213.5 -56.5t156.5 -164.5v201h189v-994q0 -155 -37.5 -264t-110.5 -171t-167.5 -89.5t-219.5 -27.5q-122 0 -242 32.5t-200 92.5
l104 127q158 -97 338 -97q191 0 268.5 100t77.5 297zM623 879q-85 0 -152 -32.5t-107 -86.5t-60.5 -119t-20.5 -134q0 -70 20.5 -134.5t60.5 -118.5t107 -86.5t152 -32.5t152 32.5t107 86.5t60.5 118.5t20.5 134.5q0 69 -20.5 134t-60.5 119t-107 86.5t-152 32.5zM459 1434
l162 -146l162 146h166l-270 -299h-116l-270 299h166z" />
    <glyph glyph-name="uni01E8" unicode="&#x1e8;" horiz-adv-x="1362" 
d="M329 735l726 699h257l-645 -621l655 -813h-243l-548 682l-202 -195v-487h-199v1434h199v-699zM475 1835l162 -146l162 146h166l-270 -299h-116l-270 299h166z" />
    <glyph glyph-name="uni01E9" unicode="&#x1e9;" horiz-adv-x="1120" 
d="M319 580l492 434h263l-472 -416l478 -598h-234l-381 477l-146 -128v-349h-189v1516h189v-936zM370 1835l162 -146l162 146h166l-270 -299h-116l-270 299h166z" />
    <glyph glyph-name="uni01EA" unicode="&#x1ea;" horiz-adv-x="1658" 
d="M839 -20h-10q-173 0 -314 56t-233.5 155t-142 233.5t-49.5 292.5t49.5 292.5t142 233.5t233.5 155t314 56t314 -56t233.5 -155t142 -233.5t49.5 -292.5q0 -275 -144 -469t-404 -249q-75 -26 -99 -68q-13 -24 -13 -52q0 -65 71 -89q33 -11 71 -11v-192q-59 0 -112 12
t-101 37.5t-74.5 73t-21.5 111.5q6 111 98 159zM829 146q127 0 228 44t165.5 121.5t98.5 181t34 224.5t-34 224.5t-98.5 181t-165.5 121.5t-228 44q-128 0 -229 -44t-165.5 -121.5t-98 -181t-33.5 -224.5t33.5 -224.5t98 -181t165.5 -121.5t229 -44z" />
    <glyph glyph-name="uni01EB" unicode="&#x1eb;" horiz-adv-x="1286" 
d="M90 507q0 231 149 379t404 148q254 0 403.5 -148t149.5 -379q0 -190 -103 -326.5t-285 -180.5q-1 0 -3 -1q-109 -37 -109 -120q0 -65 71 -89q33 -11 71 -11v-192q-59 0 -112 12t-101 37.5t-74.5 73t-21.5 111.5q6 104 99 160q-248 4 -393 151t-145 375zM643 135
q89 0 159 30.5t112.5 82.5t64.5 118t22 141q0 74 -22 140t-64.5 118.5t-112.5 83t-159 30.5t-159 -30.5t-112.5 -83t-64.5 -118.5t-22 -140q0 -75 22 -141t64.5 -118t112.5 -82.5t159 -30.5z" />
    <glyph glyph-name="uni01EC" unicode="&#x1ec;" horiz-adv-x="1658" 
d="M839 -20h-10q-173 0 -314 56t-233.5 155t-142 233.5t-49.5 292.5t49.5 292.5t142 233.5t233.5 155t314 56t314 -56t233.5 -155t142 -233.5t49.5 -292.5q0 -275 -144 -469t-404 -249q-75 -26 -99 -68q-13 -24 -13 -52q0 -65 71 -89q33 -11 71 -11v-192q-59 0 -112 12
t-101 37.5t-74.5 73t-21.5 111.5q6 111 98 159zM829 146q127 0 228 44t165.5 121.5t98.5 181t34 224.5t-34 224.5t-98.5 181t-165.5 121.5t-228 44q-128 0 -229 -44t-165.5 -121.5t-98 -181t-33.5 -224.5t33.5 -224.5t98 -181t165.5 -121.5t229 -44zM475 1535v155h709v-155
h-709z" />
    <glyph glyph-name="uni01ED" unicode="&#x1ed;" horiz-adv-x="1286" 
d="M90 507q0 231 149 379t404 148q254 0 403.5 -148t149.5 -379q0 -190 -103 -326.5t-285 -180.5q-1 0 -3 -1q-109 -37 -109 -120q0 -65 71 -89q33 -11 71 -11v-192q-59 0 -112 12t-101 37.5t-74.5 73t-21.5 111.5q6 104 99 160q-248 4 -393 151t-145 375zM643 135
q89 0 159 30.5t112.5 82.5t64.5 118t22 141q0 74 -22 140t-64.5 118.5t-112.5 83t-159 30.5t-159 -30.5t-112.5 -83t-64.5 -118.5t-22 -140q0 -75 22 -141t64.5 -118t112.5 -82.5t159 -30.5zM289 1279v155h709v-155h-709z" />
    <glyph glyph-name="uni01EE" unicode="&#x1ee;" horiz-adv-x="1190" 
d="M90 232l137 103q126 -189 354 -189q145 0 232.5 84t87.5 225q0 154 -119.5 226t-364.5 72v124l354 391h-622v166h899v-129l-366 -409q63 -12 117 -30.5t111.5 -54t97.5 -81.5t66 -117t26 -158q0 -120 -43.5 -213.5t-117.5 -149t-165 -84t-193 -28.5q-91 0 -168 17.5
t-128 43.5t-92.5 62t-63.5 66t-39 63zM423 1835l162 -146l162 146h166l-270 -299h-116l-270 299h166z" />
    <glyph glyph-name="uni01EF" unicode="&#x1ef;" horiz-adv-x="1139" 
d="M90 -374l99 124q28 -23 48 -37t64 -39t99 -38t118 -13q170 0 256 95.5t86 241.5q0 168 -123 248t-391 80v116l384 455h-592v155h862v-91l-415 -496q72 -12 134 -31.5t124.5 -56.5t106.5 -86.5t71.5 -124.5t27.5 -168q0 -119 -41.5 -214t-114 -155t-168 -91.5
t-207.5 -31.5q-286 0 -428 158zM407 1434l162 -146l162 146h166l-270 -299h-116l-270 299h166z" />
    <glyph glyph-name="uni01F0" unicode="&#x1f0;" horiz-adv-x="497" 
d="M-170 -489l51 138q64 -26 139 -26q28 0 50 11t36 26t24 43.5t14.5 50.5t7 61.5t3 61.5t0.5 64v12v1061h189v-1061q0 -96 -7 -165.5t-28 -133t-56.5 -102t-93.5 -61.5t-139 -23q-120 0 -190 43zM87 1434l162 -146l162 146h166l-270 -299h-116l-270 299h166z" />
    <glyph glyph-name="uni01F1" unicode="&#x1f1;" horiz-adv-x="2607" 
d="M1337 717q0 -335 -177 -526t-520 -191h-510v1434h510q343 0 520 -191.5t177 -525.5zM329 1268v-1102h311q127 0 223 41t154 116t86.5 173.5t28.5 220.5t-28.5 220.5t-86.5 173.5t-154 116t-223 41h-311zM1658 166h839v-166h-1124v97l840 1171h-815v166h1099v-97z" />
    <glyph glyph-name="uni01F2" unicode="&#x1f2;" horiz-adv-x="2447" 
d="M1337 717q0 -335 -177 -526t-520 -191h-510v1434h510q343 0 520 -191.5t177 -525.5zM329 1268v-1102h311q127 0 223 41t154 116t86.5 173.5t28.5 220.5t-28.5 220.5t-86.5 173.5t-154 116t-223 41h-311zM1454 0v91l605 768h-584v155h862v-91l-605 -768h605v-155h-883z
" />
    <glyph glyph-name="uni01F3" unicode="&#x1f3;" horiz-adv-x="2271" 
d="M1152 0h-189v201q-53 -108 -156.5 -164.5t-213.5 -56.5q-154 0 -270 71.5t-174.5 190t-58.5 265.5t58.5 265.5t174.5 190t270 71.5q110 0 213.5 -56.5t156.5 -164.5v703h189v-1516zM623 879q-85 0 -152 -32.5t-107 -86.5t-60.5 -119t-20.5 -134q0 -70 20.5 -134.5
t60.5 -118.5t107 -86.5t152 -32.5t152 32.5t107 86.5t60.5 118.5t20.5 134.5q0 69 -20.5 134t-60.5 119t-107 86.5t-152 32.5zM1278 0v91l605 768h-584v155h862v-91l-605 -768h605v-155h-883z" />
    <glyph glyph-name="uni01F4" unicode="&#x1f4;" horiz-adv-x="1503" 
d="M829 146q244 0 365 92v390h-345v187h544v-659q-188 -176 -564 -176q-173 0 -314 56t-233.5 155t-142 233.5t-49.5 292.5t49.5 292.5t142 233.5t233.5 155t314 56q165 0 311.5 -42t248.5 -124l-102 -134q-197 134 -458 134q-128 0 -229 -44t-165.5 -121.5t-98 -181
t-33.5 -224.5t33.5 -224.5t98 -181t165.5 -121.5t229 -44zM756 1536l263 299h232l-305 -299h-190z" />
    <glyph glyph-name="uni01F5" unicode="&#x1f5;" horiz-adv-x="1282" 
d="M508 1135l263 299h232l-305 -299h-190zM963 20v181q-53 -108 -156.5 -164.5t-213.5 -56.5q-154 0 -270 71.5t-174.5 190t-58.5 265.5t58.5 265.5t174.5 190t270 71.5q110 0 213.5 -56.5t156.5 -164.5v201h189v-994q0 -155 -37.5 -264t-110.5 -171t-167.5 -89.5
t-219.5 -27.5q-122 0 -242 32.5t-200 92.5l104 127q158 -97 338 -97q191 0 268.5 100t77.5 297zM623 879q-85 0 -152 -32.5t-107 -86.5t-60.5 -119t-20.5 -134q0 -70 20.5 -134.5t60.5 -118.5t107 -86.5t152 -32.5t152 32.5t107 86.5t60.5 118.5t20.5 134.5q0 69 -20.5 134
t-60.5 119t-107 86.5t-152 32.5z" />
    <glyph glyph-name="uni01F6" unicode="&#x1f6;" horiz-adv-x="2160" 
d="M1092 816v618h199v-965q0 -57 7.5 -104t26.5 -90.5t49 -73.5t79 -48t113 -18t113 18t79 48t49 73.5t26.5 90.5t7.5 104v545h189v-545q0 -227 -116.5 -358t-347.5 -131q-238 0 -356 130.5t-118 358.5v181h-763v-650h-199v1434h199v-618h763z" />
    <glyph glyph-name="uni01F7" unicode="&#x1f7;" horiz-adv-x="1136" 
d="M130 0v1434h199v-129q43 87 120.5 128t156.5 41q202 0 321 -120t119 -323q0 -124 -44 -227t-114.5 -172t-166.5 -119.5t-192.5 -76.5t-199.5 -36v-400h-199zM606 1308q-136 0 -206.5 -86.5t-70.5 -254.5v-425q81 8 154 30.5t140.5 62.5t116.5 94.5t78 132t29 169.5
q0 119 -62 198t-179 79z" />
    <glyph glyph-name="uni01F8" unicode="&#x1f8;" horiz-adv-x="1448" 
d="M130 0v1434h227l762 -1132v1132h199v-1434h-227l-762 1132v-1132h-199zM568 1835l263 -299h-190l-305 299h232z" />
    <glyph glyph-name="uni01F9" unicode="&#x1f9;" 
d="M438 1434l263 -299h-190l-305 299h232zM319 545v-545h-189v1014h189v-153q25 74 104 123.5t187 49.5q230 0 344.5 -130.5t114.5 -358.5v-545h-189v545q0 334 -280 334q-281 0 -281 -334z" />
    <glyph glyph-name="Aringacute" unicode="&#x1fa;" horiz-adv-x="1478" 
d="M536 1738q0 76 48 130l224 253h232l-208 -204q49 -27 79 -74.5t30 -104.5q0 -83 -59.5 -142.5t-142.5 -59.5t-143 59.5t-60 142.5zM654 1738q0 -35 25 -60t60 -25t60 25t25 60t-25 60t-60 25t-60 -25t-25 -60zM251 0h-211l613 1434h172l613 -1434h-211l-171 409h-634z
M987 575l-248 593l-248 -593h496z" />
    <glyph glyph-name="aringacute" unicode="&#x1fb;" horiz-adv-x="1149" 
d="M411 1314q0 76 48 130l224 253h232l-208 -204q49 -27 79 -74.5t30 -104.5q0 -83 -59.5 -142.5t-142.5 -59.5t-143 59.5t-60 142.5zM529 1314q0 -35 25 -60t60 -25t60 25t25 60t-25 60t-60 25t-60 -25t-25 -60zM598 879q-177 0 -340 -80l-73 132q85 49 196.5 76t216.5 27
q81 0 146 -13.5t108.5 -34.5t75 -55t49 -67t27.5 -78.5t12.5 -81.5t2.5 -84v-620h-189v169q-37 -85 -118.5 -137t-209.5 -52q-191 0 -301.5 86t-110.5 242q0 69 24.5 125.5t66.5 95t101 66t124 42.5t140 21.5t144 5.5t140 -7q-2 116 -48.5 169t-183.5 53zM286 308
q0 -80 55.5 -126.5t170.5 -46.5q155 0 236.5 89.5t81.5 222.5v80q-64 8 -131 9t-143 -10t-134.5 -34.5t-97 -70.5t-38.5 -113z" />
    <glyph glyph-name="AEacute" unicode="&#x1fc;" horiz-adv-x="2100" 
d="M1202 815h742v-166h-742v-483h788v-166h-987v487h-400l-326 -487h-237l965 1434h975v-166h-778v-453zM1003 1085l-290 -432h290v432zM1062 1536l263 299h232l-305 -299h-190z" />
    <glyph glyph-name="aeacute" unicode="&#x1fd;" horiz-adv-x="1939" 
d="M1340 135q180 0 325 114l114 -112q-67 -67 -176.5 -112t-262.5 -45q-270 0 -410 193q-156 -193 -428 -193q-191 0 -301.5 86t-110.5 242q0 69 24.5 125.5t66.5 95t101 66t124 42.5t140 21.5t144 5.5t140 -7q-2 116 -48.5 169t-183.5 53q-177 0 -340 -80l-73 132
q85 49 196.5 76t216.5 27q276 0 367 -151q140 151 375 151q242 0 379 -160t129 -460h-815q9 -116 91 -197.5t216 -81.5zM286 308q0 -80 55.5 -126.5t170.5 -46.5q155 0 236.5 89.5t81.5 222.5v80q-64 8 -131 9t-143 -10t-134.5 -34.5t-97 -70.5t-38.5 -113zM1034 579h612
q-5 57 -23.5 107t-52.5 95t-93.5 71.5t-136.5 26.5t-136 -26.5t-93.5 -71t-53.5 -95.5t-23 -107zM861 1136l263 299h232l-305 -299h-190z" />
    <glyph glyph-name="Oslashacute" unicode="&#x1fe;" horiz-adv-x="1658" 
d="M829 -20q-123 0 -237 30l-34 -71h-208l69 143q-159 93 -244 259.5t-85 375.5q0 158 49.5 292.5t142 233.5t233.5 155t314 56q124 0 236 -31l35 72h208l-70 -144q159 -93 244.5 -259t85.5 -375q0 -158 -49.5 -292.5t-142 -233.5t-233.5 -155t-314 -56zM829 146
q127 0 228 44t165.5 121.5t98.5 181t34 224.5q0 149 -50 269.5t-147 197.5l-491 -1018q77 -20 162 -20zM829 1288q-128 0 -229 -44t-165.5 -121.5t-98 -181t-33.5 -224.5q0 -150 50 -270.5t147 -196.5l490 1017q-73 21 -161 21zM745 1536l263 299h232l-305 -299h-190z" />
    <glyph glyph-name="oslashacute" unicode="&#x1ff;" horiz-adv-x="1286" 
d="M643 -20q-77 0 -146 15l-26 -56h-202l58 121q-115 69 -176 184.5t-61 262.5q0 231 149 379t404 148q77 0 145 -15l27 56h202l-59 -122q115 -69 176.5 -184.5t61.5 -261.5q0 -231 -149.5 -379t-403.5 -148zM643 879q-89 0 -159 -30.5t-112.5 -83t-64.5 -118.5t-22 -140
q0 -186 118 -291l315 657q-36 6 -75 6zM643 135q89 0 159 30.5t112.5 82.5t64.5 118t22 141q0 184 -118 289l-315 -655q34 -6 75 -6zM474 1136l263 299h232l-305 -299h-190z" />
    <glyph glyph-name="uni0200" unicode="&#x200;" horiz-adv-x="1478" 
d="M251 0h-211l613 1434h172l613 -1434h-211l-171 409h-634zM987 575l-248 593l-248 -593h496zM520 1536l94 366h208l-129 -366h-173zM801 1536l94 366h208l-129 -366h-173z" />
    <glyph glyph-name="uni0201" unicode="&#x201;" horiz-adv-x="1149" 
d="M598 879q-177 0 -340 -80l-73 132q85 49 196.5 76t216.5 27q81 0 146 -13.5t108.5 -34.5t75 -55t49 -67t27.5 -78.5t12.5 -81.5t2.5 -84v-620h-189v169q-37 -85 -118.5 -137t-209.5 -52q-191 0 -301.5 86t-110.5 242q0 69 24.5 125.5t66.5 95t101 66t124 42.5t140 21.5
t144 5.5t140 -7q-2 116 -48.5 169t-183.5 53zM286 308q0 -80 55.5 -126.5t170.5 -46.5q155 0 236.5 89.5t81.5 222.5v80q-64 8 -131 9t-143 -10t-134.5 -34.5t-97 -70.5t-38.5 -113zM373 1150l94 366h208l-129 -366h-173zM654 1150l94 366h208l-129 -366h-173z" />
    <glyph glyph-name="uni0202" unicode="&#x202;" horiz-adv-x="1478" 
d="M251 0h-211l613 1434h172l613 -1434h-211l-171 409h-634zM987 575l-248 593l-248 -593h496zM739 1781q81 0 145 -23.5t102.5 -62t60.5 -78t32 -82.5h-129q-33 66 -82 95t-129 29t-129.5 -29t-81.5 -95h-129q10 43 32 82.5t60.5 78t102.5 62t145 23.5z" />
    <glyph glyph-name="uni0203" unicode="&#x203;" horiz-adv-x="1149" 
d="M598 879q-177 0 -340 -80l-73 132q85 49 196.5 76t216.5 27q81 0 146 -13.5t108.5 -34.5t75 -55t49 -67t27.5 -78.5t12.5 -81.5t2.5 -84v-620h-189v169q-37 -85 -118.5 -137t-209.5 -52q-191 0 -301.5 86t-110.5 242q0 69 24.5 125.5t66.5 95t101 66t124 42.5t140 21.5
t144 5.5t140 -7q-2 116 -48.5 169t-183.5 53zM286 308q0 -80 55.5 -126.5t170.5 -46.5q155 0 236.5 89.5t81.5 222.5v80q-64 8 -131 9t-143 -10t-134.5 -34.5t-97 -70.5t-38.5 -113zM601 1434q81 0 145 -23.5t102.5 -62t60.5 -78t32 -82.5h-129q-33 66 -82 95t-129 29
t-129.5 -29t-81.5 -95h-129q10 43 32 82.5t60.5 78t102.5 62t145 23.5z" />
    <glyph glyph-name="uni0204" unicode="&#x204;" horiz-adv-x="1227" 
d="M329 815h742v-166h-742v-483h788v-166h-987v1434h977v-166h-778v-453zM393 1536l94 366h208l-129 -366h-173zM674 1536l94 366h208l-129 -366h-173z" />
    <glyph glyph-name="uni0205" unicode="&#x205;" 
d="M600 135q180 0 325 114l114 -112q-67 -67 -176.5 -112t-262.5 -45q-234 0 -372 148t-138 379t138 379t372 148q242 0 379 -160t129 -460h-815q9 -116 91 -197.5t216 -81.5zM294 579h612q-5 57 -23.5 107t-52.5 95t-93.5 71.5t-136.5 26.5t-136 -26.5t-93.5 -71
t-53.5 -95.5t-23 -107zM379 1150l94 366h208l-129 -366h-173zM660 1150l94 366h208l-129 -366h-173z" />
    <glyph glyph-name="uni0206" unicode="&#x206;" horiz-adv-x="1227" 
d="M329 815h742v-166h-742v-483h788v-166h-987v1434h977v-166h-778v-453zM623 1781q81 0 145 -23.5t102.5 -62t60.5 -78t32 -82.5h-129q-33 66 -82 95t-129 29t-129.5 -29t-81.5 -95h-129q10 43 32 82.5t60.5 78t102.5 62t145 23.5z" />
    <glyph glyph-name="uni0207" unicode="&#x207;" 
d="M600 135q180 0 325 114l114 -112q-67 -67 -176.5 -112t-262.5 -45q-234 0 -372 148t-138 379t138 379t372 148q242 0 379 -160t129 -460h-815q9 -116 91 -197.5t216 -81.5zM294 579h612q-5 57 -23.5 107t-52.5 95t-93.5 71.5t-136.5 26.5t-136 -26.5t-93.5 -71
t-53.5 -95.5t-23 -107zM599 1434q81 0 145 -23.5t102.5 -62t60.5 -78t32 -82.5h-129q-33 66 -82 95t-129 29t-129.5 -29t-81.5 -95h-129q10 43 32 82.5t60.5 78t102.5 62t145 23.5z" />
    <glyph glyph-name="uni0208" unicode="&#x208;" horiz-adv-x="563" 
d="M204 0v1434h199v-1434h-199zM70 1536l94 366h208l-129 -366h-173zM351 1536l94 366h208l-129 -366h-173z" />
    <glyph glyph-name="uni0209" unicode="&#x209;" horiz-adv-x="563" 
d="M199 0v1014h189v-1014h-189zM70 1150l94 366h208l-129 -366h-173zM351 1150l94 366h208l-129 -366h-173z" />
    <glyph glyph-name="uni020A" unicode="&#x20a;" horiz-adv-x="640" 
d="M221 0v1434h199v-1434h-199zM320 1781q81 0 145 -23.5t102.5 -62t60.5 -78t32 -82.5h-129q-33 66 -82 95t-129 29t-129.5 -29t-81.5 -95h-129q10 43 32 82.5t60.5 78t102.5 62t145 23.5z" />
    <glyph glyph-name="uni020B" unicode="&#x20b;" horiz-adv-x="640" 
d="M226 0v1014h189v-1014h-189zM320 1434q81 0 145 -23.5t102.5 -62t60.5 -78t32 -82.5h-129q-33 66 -82 95t-129 29t-129.5 -29t-81.5 -95h-129q10 43 32 82.5t60.5 78t102.5 62t145 23.5z" />
    <glyph glyph-name="uni020C" unicode="&#x20c;" horiz-adv-x="1658" 
d="M829 -20q-173 0 -314 56t-233.5 155t-142 233.5t-49.5 292.5t49.5 292.5t142 233.5t233.5 155t314 56t314 -56t233.5 -155t142 -233.5t49.5 -292.5t-49.5 -292.5t-142 -233.5t-233.5 -155t-314 -56zM829 146q127 0 228 44t165.5 121.5t98.5 181t34 224.5t-34 224.5
t-98.5 181t-165.5 121.5t-228 44q-128 0 -229 -44t-165.5 -121.5t-98 -181t-33.5 -224.5t33.5 -224.5t98 -181t165.5 -121.5t229 -44zM592 1536l94 366h208l-129 -366h-173zM873 1536l94 366h208l-129 -366h-173z" />
    <glyph glyph-name="uni020D" unicode="&#x20d;" horiz-adv-x="1286" 
d="M643 -20q-255 0 -404 148t-149 379t149 379t404 148q254 0 403.5 -148t149.5 -379t-149.5 -379t-403.5 -148zM643 135q89 0 159 30.5t112.5 82.5t64.5 118t22 141q0 74 -22 140t-64.5 118.5t-112.5 83t-159 30.5t-159 -30.5t-112.5 -83t-64.5 -118.5t-22 -140
q0 -75 22 -141t64.5 -118t112.5 -82.5t159 -30.5zM405 1150l94 366h208l-129 -366h-173zM686 1150l94 366h208l-129 -366h-173z" />
    <glyph glyph-name="uni020E" unicode="&#x20e;" horiz-adv-x="1658" 
d="M829 -20q-173 0 -314 56t-233.5 155t-142 233.5t-49.5 292.5t49.5 292.5t142 233.5t233.5 155t314 56t314 -56t233.5 -155t142 -233.5t49.5 -292.5t-49.5 -292.5t-142 -233.5t-233.5 -155t-314 -56zM829 146q127 0 228 44t165.5 121.5t98.5 181t34 224.5t-34 224.5
t-98.5 181t-165.5 121.5t-228 44q-128 0 -229 -44t-165.5 -121.5t-98 -181t-33.5 -224.5t33.5 -224.5t98 -181t165.5 -121.5t229 -44zM829 1781q81 0 145 -23.5t102.5 -62t60.5 -78t32 -82.5h-129q-33 66 -82 95t-129 29t-129.5 -29t-81.5 -95h-129q10 43 32 82.5t60.5 78
t102.5 62t145 23.5z" />
    <glyph glyph-name="uni020F" unicode="&#x20f;" horiz-adv-x="1286" 
d="M643 -20q-255 0 -404 148t-149 379t149 379t404 148q254 0 403.5 -148t149.5 -379t-149.5 -379t-403.5 -148zM643 135q89 0 159 30.5t112.5 82.5t64.5 118t22 141q0 74 -22 140t-64.5 118.5t-112.5 83t-159 30.5t-159 -30.5t-112.5 -83t-64.5 -118.5t-22 -140
q0 -75 22 -141t64.5 -118t112.5 -82.5t159 -30.5zM643 1434q81 0 145 -23.5t102.5 -62t60.5 -78t32 -82.5h-129q-33 66 -82 95t-129 29t-129.5 -29t-81.5 -95h-129q10 43 32 82.5t60.5 78t102.5 62t145 23.5z" />
    <glyph glyph-name="uni0210" unicode="&#x210;" horiz-adv-x="1323" 
d="M329 0h-199v1434h609q240 0 366 -115.5t126 -308.5q0 -171 -99 -275.5t-256 -132.5l357 -602h-222l-347 586h-335v-586zM739 1268h-410v-516h410q143 0 213 71t70 187q0 258 -283 258zM378 1536l94 366h208l-129 -366h-173zM659 1536l94 366h208l-129 -366h-173z" />
    <glyph glyph-name="uni0211" unicode="&#x211;" horiz-adv-x="875" 
d="M835 990l-85 -145q-58 34 -150 34q-281 0 -281 -334v-545h-189v1014h189v-153q25 74 104 123.5t187 49.5q126 0 225 -44zM235 1150l94 366h208l-129 -366h-173zM516 1150l94 366h208l-129 -366h-173z" />
    <glyph glyph-name="uni0212" unicode="&#x212;" horiz-adv-x="1323" 
d="M329 0h-199v1434h609q240 0 366 -115.5t126 -308.5q0 -171 -99 -275.5t-256 -132.5l357 -602h-222l-347 586h-335v-586zM739 1268h-410v-516h410q143 0 213 71t70 187q0 258 -283 258zM615 1781q81 0 145 -23.5t102.5 -62t60.5 -78t32 -82.5h-129q-33 66 -82 95t-129 29
t-129.5 -29t-81.5 -95h-129q10 43 32 82.5t60.5 78t102.5 62t145 23.5z" />
    <glyph glyph-name="uni0213" unicode="&#x213;" horiz-adv-x="875" 
d="M835 990l-85 -145q-58 34 -150 34q-281 0 -281 -334v-545h-189v1014h189v-153q25 74 104 123.5t187 49.5q126 0 225 -44zM487 1434q81 0 145 -23.5t102.5 -62t60.5 -78t32 -82.5h-129q-33 66 -82 95t-129 29t-129.5 -29t-81.5 -95h-129q10 43 32 82.5t60.5 78t102.5 62
t145 23.5z" />
    <glyph glyph-name="uni0214" unicode="&#x214;" horiz-adv-x="1454" 
d="M727 146q398 0 398 476v812h199v-812q0 -306 -148 -474t-449 -168t-449 168t-148 474v812h199v-812q0 -476 398 -476zM498 1536l94 366h208l-129 -366h-173zM779 1536l94 366h208l-129 -366h-173z" />
    <glyph glyph-name="uni0215" unicode="&#x215;" 
d="M880 469v545h189v-1014h-189v153q-25 -74 -104 -123.5t-187 -49.5q-231 0 -345 130.5t-114 358.5v545h189v-545q0 -334 280 -334q281 0 281 334zM365 1150l94 366h208l-129 -366h-173zM646 1150l94 366h208l-129 -366h-173z" />
    <glyph glyph-name="uni0216" unicode="&#x216;" horiz-adv-x="1454" 
d="M727 146q398 0 398 476v812h199v-812q0 -306 -148 -474t-449 -168t-449 168t-148 474v812h199v-812q0 -476 398 -476zM727 1781q81 0 145 -23.5t102.5 -62t60.5 -78t32 -82.5h-129q-33 66 -82 95t-129 29t-129.5 -29t-81.5 -95h-129q10 43 32 82.5t60.5 78t102.5 62
t145 23.5z" />
    <glyph glyph-name="uni0217" unicode="&#x217;" 
d="M880 469v545h189v-1014h-189v153q-25 -74 -104 -123.5t-187 -49.5q-231 0 -345 130.5t-114 358.5v545h189v-545q0 -334 280 -334q281 0 281 334zM599 1434q81 0 145 -23.5t102.5 -62t60.5 -78t32 -82.5h-129q-33 66 -82 95t-129 29t-129.5 -29t-81.5 -95h-129
q10 43 32 82.5t60.5 78t102.5 62t145 23.5z" />
    <glyph glyph-name="Scommaaccent" unicode="&#x218;" horiz-adv-x="1259" 
d="M1113 1337l-95 -140q-178 91 -397 91q-157 0 -233 -54.5t-76 -154.5q0 -97 79 -152t266 -94q275 -58 403.5 -159.5t128.5 -279.5q0 -200 -138 -307t-394 -107q-361 0 -587 153l95 140q227 -127 492 -127q98 0 165.5 19.5t103 55.5t50 77.5t14.5 95.5q0 102 -82 160.5
t-286 100.5q-272 56 -390.5 160t-118.5 264q0 58 15.5 109.5t53 101t94 85.5t145 57.5t200.5 21.5q157 0 272.5 -28t219.5 -89zM370 -532l154 436h218l-189 -436h-183z" />
    <glyph glyph-name="scommaaccent" unicode="&#x219;" horiz-adv-x="1020" 
d="M894 934l-88 -128q-136 73 -297 73q-95 0 -152 -32.5t-57 -94.5q0 -65 54.5 -97.5t182.5 -56.5q213 -40 313 -111.5t100 -206.5q0 -153 -117.5 -226.5t-329.5 -73.5q-272 0 -433 131l88 128q80 -55 172.5 -79.5t172.5 -24.5q140 0 196 36t56 109q0 68 -56.5 100.5
t-194.5 58.5q-211 39 -305 114t-94 199q0 127 104.5 204.5t299.5 77.5q223 0 385 -100zM248 -532l154 436h218l-189 -436h-183z" />
    <glyph glyph-name="uni021A" unicode="&#x21a;" horiz-adv-x="1347" 
d="M70 1434h1207v-166h-504v-1268h-199v1268h-504v166zM408 -532l154 436h218l-189 -436h-183z" />
    <glyph glyph-name="uni021B" unicode="&#x21b;" horiz-adv-x="853" 
d="M70 859v155h195v299h189v-299h293v-155h-293v-441q0 -68 2.5 -109t11 -78.5t24.5 -56.5t42.5 -29.5t65.5 -10.5q70 0 138 21l45 -146q-72 -29 -183 -29q-103 0 -168.5 24t-102.5 80.5t-50.5 134t-13.5 199.5v441h-195zM283 -532l154 436h218l-189 -436h-183z" />
    <glyph glyph-name="uni021C" unicode="&#x21c;" horiz-adv-x="1041" 
d="M119 -120l-29 167q138 3 254.5 27t209 69.5t145 119.5t52.5 171q0 68 -29.5 113t-82.5 65t-125.5 26t-159.5 -3l-21 166q190 26 286.5 93.5t96.5 206.5q0 187 -176 187q-106 0 -175 -47.5t-96 -134.5l-170 35q38 150 155 231.5t285 81.5q161 0 269 -89t108 -244
q0 -253 -212 -370q101 -26 172.5 -109t73.5 -201q4 -356 -412 -495q-185 -62 -419 -66z" />
    <glyph glyph-name="uni021D" unicode="&#x21d;" horiz-adv-x="896" 
d="M126 -214l-24 155q245 12 379.5 81.5t134.5 200.5q0 58 -27.5 93t-78 45.5t-98.5 9.5t-111 -10l-11 155q31 5 49 8.5t55 13t60 19.5t53.5 29t48 41t29.5 55t11 72q0 54 -31.5 89.5t-94.5 35.5q-156 0 -225 -147l-155 65q103 237 379 237q148 0 232 -73.5t84 -193.5
q0 -97 -46.5 -169.5t-108.5 -110.5q72 -27 122.5 -97.5t52.5 -162.5q1 -78 -27 -143t-73 -109.5t-107 -79t-125 -54.5t-131 -33t-119.5 -17.5t-96.5 -4.5z" />
    <glyph glyph-name="uni021E" unicode="&#x21e;" horiz-adv-x="1421" 
d="M1092 816v618h199v-1434h-199v650h-763v-650h-199v1434h199v-618h763zM548 1835l162 -146l162 146h166l-270 -299h-116l-270 299h166z" />
    <glyph glyph-name="uni021F" unicode="&#x21f;" 
d="M319 545v-545h-189v1516h189v-655q25 74 104 123.5t187 49.5q230 0 344.5 -130.5t114.5 -358.5v-545h-189v545q0 334 -280 334q-281 0 -281 -334zM437 1835l162 -146l162 146h166l-270 -299h-116l-270 299h166z" />
    <glyph glyph-name="uni0220" unicode="&#x220;" 
d="M319 965v-965h-189v1434h189v-153q25 74 104 123.5t187 49.5q230 0 344.5 -130.5t114.5 -358.5v-1497h-189v1497q0 334 -280 334q-281 0 -281 -334z" />
    <glyph glyph-name="uni0221" unicode="&#x221;" horiz-adv-x="1297" 
d="M963 1516h189v-1427q38 29 112 29q106 0 164.5 -56t58.5 -135q0 -100 -66 -162t-188 -62q-96 0 -158 56q-7 -10 -28 -53q-5 -9 -13 -29l-151 88q11 25 24 54q34 68 67 109q-11 36 -11 112v161q-53 -108 -156.5 -164.5t-213.5 -56.5q-154 0 -270 71.5t-174.5 190
t-58.5 265.5t58.5 265.5t174.5 190t270 71.5q110 0 213.5 -56.5t156.5 -164.5v703zM623 879q-85 0 -152 -32.5t-107 -86.5t-60.5 -119t-20.5 -134q0 -70 20.5 -134.5t60.5 -118.5t107 -86.5t152 -32.5t152 32.5t107 86.5t60.5 118.5t20.5 134.5q0 69 -20.5 134t-60.5 119
t-107 86.5t-152 32.5zM1233 -142q38 0 58.5 17.5t20.5 47.5q0 21 -15.5 30.5t-34.5 9.5q-66 0 -98 -59q2 -20 21.5 -33t47.5 -13z" />
    <glyph glyph-name="uni0222" unicode="&#x222;" horiz-adv-x="1158" 
d="M579 -20q-228 0 -358.5 126.5t-130.5 336.5q0 119 60.5 218t161.5 154q-175 144 -175 349q0 94 41 191.5t114 165.5l159 -114q-115 -115 -115 -243q0 -264 243 -270q243 6 243 270q0 128 -115 243l159 114q73 -68 114 -165.5t41 -191.5q0 -205 -175 -349
q101 -55 161.5 -154t60.5 -218q0 -210 -130.5 -336.5t-358.5 -126.5zM579 146q141 0 215.5 81.5t74.5 215.5q0 127 -74.5 206t-215.5 79t-215.5 -79t-74.5 -206q0 -134 74.5 -215.5t215.5 -81.5z" />
    <glyph glyph-name="uni0223" unicode="&#x223;" horiz-adv-x="998" 
d="M499 -20q-191 0 -300 103t-109 274q0 102 48.5 179.5t132.5 119.5q-61 35 -103 109t-42 156q0 172 104 291l155 -94q-70 -95 -70 -197q0 -188 184 -188t184 188q0 102 -70 197l155 94q104 -119 104 -291q0 -82 -42 -156t-103 -109q84 -42 132.5 -119.5t48.5 -179.5
q0 -171 -109 -274t-300 -103zM499 135q112 0 166 64t54 158q0 93 -52.5 157t-167.5 64q-61 0 -105.5 -19t-68.5 -51.5t-35 -70t-11 -80.5q0 -94 54 -158t166 -64z" />
    <glyph glyph-name="uni0224" unicode="&#x224;" horiz-adv-x="1370" 
d="M1234 166v-166q-35 -10 -58 -25q-58 -38 -58 -96q0 -65 71 -89q33 -11 71 -11v-192q-59 0 -112 12t-101 37.5t-74.5 73t-21.5 111.5q2 41 17.5 74.5t34.5 51.5t42 31t35 17t20 5h-990v97l840 1171h-815v166h1099v-97l-839 -1171h839z" />
    <glyph glyph-name="uni0225" unicode="&#x225;" horiz-adv-x="1129" 
d="M110 0v91l605 768h-584v155h862v-91l-605 -768h605v-155q-8 -1 -23.5 -7.5t-38 -19.5t-38.5 -38t-16 -56q0 -65 71 -89q33 -11 71 -11v-192q-59 0 -112 12t-101 37.5t-74.5 73t-21.5 111.5q2 41 17.5 74.5t34.5 51.5t42 31t35 17t20 5h-749z" />
    <glyph glyph-name="uni0226" unicode="&#x226;" horiz-adv-x="1478" 
d="M617 1657q0 51 35.5 86.5t85.5 35.5q51 0 86.5 -35.5t35.5 -86.5q0 -50 -35.5 -85.5t-86.5 -35.5q-50 0 -85.5 35.5t-35.5 85.5zM251 0h-211l613 1434h172l613 -1434h-211l-171 409h-634zM987 575l-248 593l-248 -593h496z" />
    <glyph glyph-name="uni0227" unicode="&#x227;" horiz-adv-x="1149" 
d="M598 879q-177 0 -340 -80l-73 132q85 49 196.5 76t216.5 27q81 0 146 -13.5t108.5 -34.5t75 -55t49 -67t27.5 -78.5t12.5 -81.5t2.5 -84v-620h-189v169q-37 -85 -118.5 -137t-209.5 -52q-191 0 -301.5 86t-110.5 242q0 69 24.5 125.5t66.5 95t101 66t124 42.5t140 21.5
t144 5.5t140 -7q-2 116 -48.5 169t-183.5 53zM286 308q0 -80 55.5 -126.5t170.5 -46.5q155 0 236.5 89.5t81.5 222.5v80q-64 8 -131 9t-143 -10t-134.5 -34.5t-97 -70.5t-38.5 -113zM492 1312q0 51 35.5 86.5t85.5 35.5q51 0 86.5 -35.5t35.5 -86.5q0 -50 -35.5 -85.5
t-86.5 -35.5q-50 0 -85.5 35.5t-35.5 85.5z" />
    <glyph glyph-name="uni0228" unicode="&#x228;" horiz-adv-x="1227" 
d="M417 -429l44 109q23 -12 62 -21.5t82.5 -11.5t76.5 17t37 60q4 31 -14.5 48.5t-56 20.5t-76 -0.5t-91.5 -12.5l73 220h-424v1434h977v-166h-778v-453h742v-166h-742v-483h788v-166h-419l-31 -103q90 2 146.5 -44.5t48.5 -135.5q-7 -75 -56.5 -122.5t-117.5 -60.5
t-141 -3.5t-130 40.5z" />
    <glyph glyph-name="uni0229" unicode="&#x229;" 
d="M395 -429l44 109q23 -12 62 -21.5t82.5 -11.5t76.5 17t37 60q4 31 -14.5 48.5t-56 20.5t-76 -0.5t-91.5 -12.5l67 204q-203 24 -319.5 167.5t-116.5 355.5q0 231 138 379t372 148q242 0 379 -160t129 -460h-815q9 -116 91 -197.5t216 -81.5q180 0 325 114l114 -112
q-134 -134 -368 -154l-26 -86q90 2 146.5 -44.5t48.5 -135.5q-7 -75 -56.5 -122.5t-117.5 -60.5t-141 -3.5t-130 40.5zM294 579h612q-5 57 -23.5 107t-52.5 95t-93.5 71.5t-136.5 26.5t-136 -26.5t-93.5 -71t-53.5 -95.5t-23 -107z" />
    <glyph glyph-name="uni022A" unicode="&#x22a;" horiz-adv-x="1658" 
d="M829 -20q-173 0 -314 56t-233.5 155t-142 233.5t-49.5 292.5t49.5 292.5t142 233.5t233.5 155t314 56t314 -56t233.5 -155t142 -233.5t49.5 -292.5t-49.5 -292.5t-142 -233.5t-233.5 -155t-314 -56zM829 146q127 0 228 44t165.5 121.5t98.5 181t34 224.5t-34 224.5
t-98.5 181t-165.5 121.5t-228 44q-128 0 -229 -44t-165.5 -121.5t-98 -181t-33.5 -224.5t33.5 -224.5t98 -181t165.5 -121.5t229 -44zM501 1657q0 51 35.5 86.5t85.5 35.5q51 0 86.5 -35.5t35.5 -86.5q0 -50 -35.5 -85.5t-86.5 -35.5q-50 0 -85.5 35.5t-35.5 85.5zM914 1657
q0 51 35.5 86.5t85.5 35.5q51 0 86.5 -35.5t35.5 -86.5q0 -50 -35.5 -85.5t-86.5 -35.5q-50 0 -85.5 35.5t-35.5 85.5zM474 1848v155h709v-155h-709z" />
    <glyph glyph-name="uni022B" unicode="&#x22b;" horiz-adv-x="1286" 
d="M643 -20q-255 0 -404 148t-149 379t149 379t404 148q254 0 403.5 -148t149.5 -379t-149.5 -379t-403.5 -148zM643 135q89 0 159 30.5t112.5 82.5t64.5 118t22 141q0 74 -22 140t-64.5 118.5t-112.5 83t-159 30.5t-159 -30.5t-112.5 -83t-64.5 -118.5t-22 -140
q0 -75 22 -141t64.5 -118t112.5 -82.5t159 -30.5zM314 1312q0 51 35.5 86.5t85.5 35.5q51 0 86.5 -35.5t35.5 -86.5q0 -50 -35.5 -85.5t-86.5 -35.5q-50 0 -85.5 35.5t-35.5 85.5zM727 1312q0 51 35.5 86.5t85.5 35.5q51 0 86.5 -35.5t35.5 -86.5q0 -50 -35.5 -85.5
t-86.5 -35.5q-50 0 -85.5 35.5t-35.5 85.5zM287 1503v155h709v-155h-709z" />
    <glyph glyph-name="uni022C" unicode="&#x22c;" horiz-adv-x="1658" 
d="M829 -20q-173 0 -314 56t-233.5 155t-142 233.5t-49.5 292.5t49.5 292.5t142 233.5t233.5 155t314 56t314 -56t233.5 -155t142 -233.5t49.5 -292.5t-49.5 -292.5t-142 -233.5t-233.5 -155t-314 -56zM829 146q127 0 228 44t165.5 121.5t98.5 181t34 224.5t-34 224.5
t-98.5 181t-165.5 121.5t-228 44q-128 0 -229 -44t-165.5 -121.5t-98 -181t-33.5 -224.5t33.5 -224.5t98 -181t165.5 -121.5t229 -44zM790 1612q-2 2 -11.5 8.5t-15 10t-14 8.5t-16.5 7t-16 2q-35 0 -49 -39q-6 -18 -6 -39h-175q2 67 26 114q54 115 209 115q41 0 72.5 -16
t72.5 -48q2 -2 11.5 -8.5t15 -10t14 -8.5t16.5 -7t16 -2q35 0 49 39q6 16 6 39h175q-2 -68 -26 -115q-59 -114 -209 -114q-41 0 -72.5 16t-72.5 48zM474 1868v155h709v-155h-709z" />
    <glyph glyph-name="uni022D" unicode="&#x22d;" horiz-adv-x="1286" 
d="M643 -20q-255 0 -404 148t-149 379t149 379t404 148q254 0 403.5 -148t149.5 -379t-149.5 -379t-403.5 -148zM643 135q89 0 159 30.5t112.5 82.5t64.5 118t22 141q0 74 -22 140t-64.5 118.5t-112.5 83t-159 30.5t-159 -30.5t-112.5 -83t-64.5 -118.5t-22 -140
q0 -75 22 -141t64.5 -118t112.5 -82.5t159 -30.5zM605 1247q-2 2 -11.5 8.5t-15 10t-14 8.5t-16.5 7t-16 2q-35 0 -49 -39q-6 -18 -6 -39h-175q2 67 26 114q54 115 209 115q41 0 72.5 -16t72.5 -48q2 -2 11.5 -8.5t15 -10t14 -8.5t16.5 -7t16 -2q35 0 49 39q6 17 6 39h175
q-2 -68 -26 -115q-59 -114 -209 -114q-41 0 -72.5 16t-72.5 48zM289 1503v155h709v-155h-709z" />
    <glyph glyph-name="uni022E" unicode="&#x22e;" horiz-adv-x="1658" 
d="M829 -20q-173 0 -314 56t-233.5 155t-142 233.5t-49.5 292.5t49.5 292.5t142 233.5t233.5 155t314 56t314 -56t233.5 -155t142 -233.5t49.5 -292.5t-49.5 -292.5t-142 -233.5t-233.5 -155t-314 -56zM829 146q127 0 228 44t165.5 121.5t98.5 181t34 224.5t-34 224.5
t-98.5 181t-165.5 121.5t-228 44q-128 0 -229 -44t-165.5 -121.5t-98 -181t-33.5 -224.5t33.5 -224.5t98 -181t165.5 -121.5t229 -44zM708 1657q0 51 35.5 86.5t85.5 35.5q51 0 86.5 -35.5t35.5 -86.5q0 -50 -35.5 -85.5t-86.5 -35.5q-50 0 -85.5 35.5t-35.5 85.5z" />
    <glyph glyph-name="uni022F" unicode="&#x22f;" horiz-adv-x="1286" 
d="M643 -20q-255 0 -404 148t-149 379t149 379t404 148q254 0 403.5 -148t149.5 -379t-149.5 -379t-403.5 -148zM643 135q89 0 159 30.5t112.5 82.5t64.5 118t22 141q0 74 -22 140t-64.5 118.5t-112.5 83t-159 30.5t-159 -30.5t-112.5 -83t-64.5 -118.5t-22 -140
q0 -75 22 -141t64.5 -118t112.5 -82.5t159 -30.5zM522 1312q0 51 35.5 86.5t85.5 35.5q51 0 86.5 -35.5t35.5 -86.5q0 -50 -35.5 -85.5t-86.5 -35.5q-50 0 -85.5 35.5t-35.5 85.5z" />
    <glyph glyph-name="uni0230" unicode="&#x230;" horiz-adv-x="1658" 
d="M829 -20q-173 0 -314 56t-233.5 155t-142 233.5t-49.5 292.5t49.5 292.5t142 233.5t233.5 155t314 56t314 -56t233.5 -155t142 -233.5t49.5 -292.5t-49.5 -292.5t-142 -233.5t-233.5 -155t-314 -56zM829 146q127 0 228 44t165.5 121.5t98.5 181t34 224.5t-34 224.5
t-98.5 181t-165.5 121.5t-228 44q-128 0 -229 -44t-165.5 -121.5t-98 -181t-33.5 -224.5t33.5 -224.5t98 -181t165.5 -121.5t229 -44zM709 1657q0 51 35.5 86.5t85.5 35.5q51 0 86.5 -35.5t35.5 -86.5q0 -50 -35.5 -85.5t-86.5 -35.5q-50 0 -85.5 35.5t-35.5 85.5zM474 1848
v155h709v-155h-709z" />
    <glyph glyph-name="uni0231" unicode="&#x231;" horiz-adv-x="1286" 
d="M643 -20q-255 0 -404 148t-149 379t149 379t404 148q254 0 403.5 -148t149.5 -379t-149.5 -379t-403.5 -148zM643 135q89 0 159 30.5t112.5 82.5t64.5 118t22 141q0 74 -22 140t-64.5 118.5t-112.5 83t-159 30.5t-159 -30.5t-112.5 -83t-64.5 -118.5t-22 -140
q0 -75 22 -141t64.5 -118t112.5 -82.5t159 -30.5zM522 1312q0 51 35.5 86.5t85.5 35.5q51 0 86.5 -35.5t35.5 -86.5q0 -50 -35.5 -85.5t-86.5 -35.5q-50 0 -85.5 35.5t-35.5 85.5zM287 1503v155h709v-155h-709z" />
    <glyph glyph-name="uni0232" unicode="&#x232;" horiz-adv-x="1399" 
d="M1359 1434l-560 -840v-594h-199v594l-560 840h233l426 -654l427 654h233zM345 1535v155h709v-155h-709z" />
    <glyph glyph-name="uni0233" unicode="&#x233;" horiz-adv-x="1154" 
d="M244 1014l333 -814l333 814h204l-562 -1304q-51 -122 -117.5 -182t-182.5 -60t-190 47l61 135q59 -27 104 -27q33 0 57.5 10.5t44 36.5t31 48t30.5 66l87 216l-437 1014h204zM223 1279v155h709v-155h-709z" />
    <glyph glyph-name="uni0234" unicode="&#x234;" horiz-adv-x="774" 
d="M210 277v1239h189v-1190q38 29 112 29q106 0 164.5 -56t58.5 -135q0 -100 -66 -162t-188 -62q-96 0 -158 56q-7 -10 -28 -53q-5 -9 -13 -29l-151 88q10 26 24 54q34 68 67 109q-11 36 -11 112zM480 95q38 0 58.5 17.5t20.5 47.5q0 21 -15.5 30.5t-34.5 9.5q-66 0 -98 -59
q2 -20 21.5 -33t47.5 -13z" />
    <glyph glyph-name="uni0235" unicode="&#x235;" horiz-adv-x="1194" 
d="M319 545v-545h-189v1014h189v-153q25 74 104 123.5t187 49.5q230 0 344.5 -130.5t114.5 -358.5v-456q38 29 112 29q106 0 164.5 -56t58.5 -135q0 -100 -66 -162t-188 -62q-96 0 -158 56q-7 -10 -28 -53q-5 -9 -13 -29l-151 88q10 25 24 54q34 68 67 109q-11 36 -11 112
v505q0 334 -280 334q-281 0 -281 -334zM1150 -142q38 0 58.5 17.5t20.5 47.5q0 21 -15.5 30.5t-34.5 9.5q-66 0 -98 -59q2 -20 21.5 -33t47.5 -13z" />
    <glyph glyph-name="uni0236" unicode="&#x236;" horiz-adv-x="855" 
d="M562 355q106 0 164.5 -56t58.5 -135q0 -100 -66 -162t-188 -62q-96 0 -158 56q-7 -10 -28 -53q-5 -9 -13 -29l-151 88q11 26 24 54q34 68 67 109q-11 36 -11 112v582h-191v155h191v299h189v-299h293v-155h-293v-533q38 29 112 29zM531 95q38 0 58.5 17.5t20.5 47.5
q0 21 -15.5 30.5t-34.5 9.5q-66 0 -98 -59q2 -20 21.5 -33t47.5 -13z" />
    <glyph glyph-name="uni0237" unicode="&#x237;" horiz-adv-x="474" 
d="M-170 -489l51 138q64 -26 139 -26q28 0 50 11t36 26t24 43.5t14.5 50.5t7 61.5t3 61.5t0.5 64v12v1061h189v-1061q0 -96 -7 -165.5t-28 -133t-56.5 -102t-93.5 -61.5t-139 -23q-120 0 -190 43z" />
    <glyph glyph-name="uni0238" unicode="&#x238;" horiz-adv-x="2115" 
d="M1152 0h-189v201q-53 -108 -156.5 -164.5t-213.5 -56.5q-154 0 -270 71.5t-174.5 190t-58.5 265.5t58.5 265.5t174.5 190t270 71.5q110 0 213.5 -56.5t156.5 -164.5v703h189v-703q53 108 156.5 164.5t213.5 56.5q154 0 270 -71.5t174.5 -190t58.5 -265.5t-58.5 -265.5
t-174.5 -190t-270 -71.5q-110 0 -213.5 56.5t-156.5 164.5v-201zM1492 879q-85 0 -152 -32.5t-107 -86.5t-60.5 -119t-20.5 -134q0 -70 20.5 -134.5t60.5 -118.5t107 -86.5t152 -32.5t152 32.5t107 86.5t60.5 118.5t20.5 134.5q0 69 -20.5 134t-60.5 119t-107 86.5
t-152 32.5zM623 879q-85 0 -152 -32.5t-107 -86.5t-60.5 -119t-20.5 -134q0 -70 20.5 -134.5t60.5 -118.5t107 -86.5t152 -32.5t152 32.5t107 86.5t60.5 118.5t20.5 134.5q0 69 -20.5 134t-60.5 119t-107 86.5t-152 32.5z" />
    <glyph glyph-name="uni0239" unicode="&#x239;" horiz-adv-x="2115" 
d="M963 1014h189v-201q53 108 156.5 164.5t213.5 56.5q154 0 270 -71.5t174.5 -190t58.5 -265.5t-58.5 -265.5t-174.5 -190t-270 -71.5q-110 0 -213.5 56.5t-156.5 164.5v-733h-189v733q-53 -108 -156.5 -164.5t-213.5 -56.5q-154 0 -270 71.5t-174.5 190t-58.5 265.5
t58.5 265.5t174.5 190t270 71.5q110 0 213.5 -56.5t156.5 -164.5v201zM1492 135q85 0 152 32.5t107 86.5t60.5 119t20.5 134q0 70 -20.5 134.5t-60.5 118.5t-107 86.5t-152 32.5t-152 -32.5t-107 -86.5t-60.5 -118.5t-20.5 -134.5q0 -69 20.5 -134t60.5 -119t107 -86.5
t152 -32.5zM623 135q85 0 152 32.5t107 86.5t60.5 119t20.5 134q0 70 -20.5 134.5t-60.5 118.5t-107 86.5t-152 32.5t-152 -32.5t-107 -86.5t-60.5 -118.5t-20.5 -134.5q0 -69 20.5 -134t60.5 -119t107 -86.5t152 -32.5z" />
    <glyph glyph-name="uni023A" unicode="&#x23a;" horiz-adv-x="1478" 
d="M251 0h-211l613 1434h172l81 -190l180 449h174l-264 -659l442 -1034h-211l-171 409h-311l-268 -669h-174l268 669h-149zM808 1001l-69 167l-248 -593h146zM812 575h175l-90 213z" />
    <glyph glyph-name="uni023B" unicode="&#x23b;" horiz-adv-x="1393" 
d="M90 717q0 158 49.5 292.5t142 233.5t233.5 155t314 56q82 0 149 -10l100 249h174l-115 -286q111 -40 186 -103l-98 -134q-71 50 -151 79l-431 -1076q83 -27 186 -27q233 0 396 118l98 -134q-178 -150 -494 -150q-138 0 -250 34l-110 -274h-174l135 336q-164 93 -252 261
t-88 380zM829 1288q-128 0 -229 -44t-165.5 -121.5t-98 -181t-33.5 -224.5q0 -149 49.5 -270t146.5 -197l415 1034q-36 4 -85 4z" />
    <glyph glyph-name="uni023C" unicode="&#x23c;" horiz-adv-x="1101" 
d="M722 1031l65 160h181l-80 -197q83 -33 143 -91l-94 -121q-52 39 -110 62l-283 -698q49 -11 99 -11q171 0 294 97l94 -121q-138 -131 -388 -131q-85 0 -159 18l-67 -167h-182l93 229q-115 69 -176.5 185t-61.5 262q0 231 149 379t404 148q40 0 79 -3zM285 507
q0 -179 110 -283l265 655h-17q-89 0 -159 -30.5t-112.5 -83t-64.5 -118.5t-22 -140z" />
    <glyph glyph-name="uni023D" unicode="&#x23d;" horiz-adv-x="1311" 
d="M499 684v-518h722v-166h-921v684h-290v166h290v584h199v-584h290v-166h-290z" />
    <glyph glyph-name="uni023E" unicode="&#x23e;" horiz-adv-x="1317" 
d="M1081 1434h196v-166h-263l-241 -603v-665h-199v169l-172 -429h-174l346 863v665h-504v166h837l104 259h174zM773 1268v-169l67 169h-67z" />
    <glyph glyph-name="uni023F" unicode="&#x23f;" horiz-adv-x="1025" 
d="M899 934l-88 -128q-136 73 -297 73q-95 0 -152 -32.5t-57 -94.5q0 -65 54.5 -97.5t182.5 -56.5q213 -40 313 -111.5t100 -206.5q0 -153 -117.5 -226.5t-329.5 -73.5q-160 0 -284 45q0 -130 79 -200t206 -70q184 0 294 132l110 -106q-52 -77 -152.5 -129t-251.5 -52
q-120 0 -211.5 42t-142.5 113.5t-71.5 162.5t-8.5 193l88 128q80 -55 172.5 -79.5t172.5 -24.5q140 0 196 36t56 109q0 68 -56.5 100.5t-194.5 58.5q-211 39 -305 114t-94 199q0 127 104.5 204.5t299.5 77.5q222 0 385 -100z" />
    <glyph glyph-name="uni0240" unicode="&#x240;" horiz-adv-x="1103" 
d="M110 0v91l605 768h-584v155h862v-91l-605 -768h605v-155h-722q8 -108 79.5 -162.5t193.5 -54.5q168 0 278 114l129 -92q-53 -72 -156 -124.5t-251 -52.5q-108 0 -191 28.5t-134 79.5t-78 117t-31 147z" />
    <glyph glyph-name="uni0241" unicode="&#x241;" horiz-adv-x="1126" 
d="M242 1103l-152 86q15 30 34.5 59t59.5 68.5t88.5 68t123.5 49t162 20.5q125 0 220 -33t150 -89.5t81.5 -124t26.5 -143.5q0 -48 -11 -93.5t-39.5 -94.5t-73.5 -89t-119.5 -73t-170.5 -49v-665h-199v791q198 2 306 70.5t108 202.5q0 108 -74 166t-205 58q-208 0 -316 -185
z" />
    <glyph glyph-name="uni0242" unicode="&#x242;" horiz-adv-x="1126" 
d="M242 683l-152 86q15 30 34.5 59t59.5 68.5t88.5 68t123.5 49t162 20.5q125 0 220 -33t150 -89.5t81.5 -124t26.5 -143.5q0 -48 -11 -93.5t-39.5 -94.5t-73.5 -89t-119.5 -73t-170.5 -49v-777h-199v903q198 2 306 70.5t108 202.5q0 108 -74 166t-205 58q-208 0 -316 -185z
" />
    <glyph glyph-name="uni0243" unicode="&#x243;" horiz-adv-x="1487" 
d="M874 0h-644v330h-220v166h220v938h624q111 0 197.5 -24t140 -62t88 -91t48 -105.5t13.5 -110.5q0 -95 -46 -174t-149 -120q129 -38 190 -132t61 -208q0 -62 -15 -118t-52.5 -110t-95.5 -92.5t-150 -62.5t-210 -24zM429 166h445q74 0 130 13.5t90 35.5t55.5 54t29 65
t7.5 73q0 241 -312 241h-445v-152h220v-166h-220v-164zM429 814h425q276 0 276 227t-276 227h-425v-454z" />
    <glyph glyph-name="uni0244" unicode="&#x244;" horiz-adv-x="1697" 
d="M251 692h-181v166h181v576h199v-576h796v576h199v-576h182v-166h-182v-70q0 -306 -148 -474t-449 -168t-449 168t-148 474v70zM848 146q398 0 398 476v70h-796v-70q0 -476 398 -476z" />
    <glyph glyph-name="uni0245" unicode="&#x245;" horiz-adv-x="1478" 
d="M1227 0l-488 1168l-488 -1168h-211l613 1434h172l613 -1434h-211z" />
    <glyph glyph-name="uni0246" unicode="&#x246;" horiz-adv-x="1227" 
d="M735 815h336v-166h-403l-194 -483h643v-166h-709l-104 -260h-174l104 260h-104v1434h679l104 259h174l-104 -259h124v-166h-191zM329 1268v-453h231l182 453h-413zM329 649v-412l165 412h-165z" />
    <glyph glyph-name="uni0247" unicode="&#x247;" 
d="M600 135q180 0 325 114l114 -112q-67 -67 -176.5 -112t-262.5 -45q-60 0 -110 10l-64 -159h-182l87 215q-116 66 -178.5 186.5t-62.5 274.5q0 231 138 379t372 148q62 0 127 -13l69 170h181l-94 -233q112 -72 170.5 -210t54.5 -334h-446l-112 -276q24 -3 50 -3zM600 879
q-77 0 -136 -26.5t-93.5 -71t-53.5 -95.5t-23 -107h254l119 294q-31 6 -67 6zM396 205l85 209h-188q8 -131 103 -209zM729 579h177q-12 134 -89 216z" />
    <glyph glyph-name="uni0248" unicode="&#x248;" horiz-adv-x="1414" 
d="M70 154l139 101q44 -54 98.5 -81.5t134.5 -27.5q68 0 114.5 23t71 67t34 95.5t9.5 120.5v375h-284v167h284v274h-504v166h1207v-166h-504v-274h307v-167h-307v-375q0 -237 -103.5 -354.5t-324.5 -117.5q-254 0 -372 174z" />
    <glyph glyph-name="uni0249" unicode="&#x249;" horiz-adv-x="681" 
d="M-70 -491l53 140q68 -26 138 -26q84 0 109.5 73t25.5 257v597h-226v155h226v309h189v-309h226v-155h-226v-597q0 -96 -7 -165.5t-28 -133t-56.5 -102t-93.5 -61.5t-139 -23q-103 0 -191 41zM229 1312q0 51 35.5 86.5t85.5 35.5q51 0 86.5 -35.5t35.5 -86.5
q0 -50 -35.5 -85.5t-86.5 -35.5q-50 0 -85.5 35.5t-35.5 85.5z" />
    <glyph glyph-name="uni024A" unicode="&#x24a;" horiz-adv-x="1724" 
d="M829 -20q-173 0 -314 56t-233.5 155t-142 233.5t-49.5 292.5t49.5 292.5t142 233.5t233.5 155t314 56t314 -56t233.5 -155t142 -233.5t49.5 -292.5v-605q0 -184 25.5 -257t109.5 -73q70 0 138 26l53 -140q-88 -41 -191 -41q-81 0 -139 23t-93.5 61.5t-56.5 102t-28 133
t-7 165.5v83q-202 -215 -550 -215zM829 146q127 0 228 44t165.5 121.5t98.5 181t34 224.5t-34 224.5t-98.5 181t-165.5 121.5t-228 44q-128 0 -229 -44t-165.5 -121.5t-98 -181t-33.5 -224.5t33.5 -224.5t98 -181t165.5 -121.5t229 -44z" />
    <glyph glyph-name="uni024B" unicode="&#x24b;" horiz-adv-x="1308" 
d="M1287 -377q70 0 138 26l53 -140q-88 -41 -191 -41q-81 0 -139 23t-93.5 61.5t-56.5 102t-28 133t-7 165.5v248q-54 -110 -148 -165.5t-202 -55.5q-163 0 -283.5 71.5t-180 190t-59.5 265.5t59.5 265.5t180 190t283.5 71.5q108 0 202 -55.5t148 -165.5v201h189v-1061
q0 -184 25.5 -257t109.5 -73zM623 135q85 0 152 32.5t107 86.5t60.5 119t20.5 134q0 70 -20.5 134.5t-60.5 118.5t-107 86.5t-152 32.5t-152 -32.5t-107 -86.5t-60.5 -118.5t-20.5 -134.5q0 -55 12.5 -107.5t40 -100.5t66.5 -84.5t96 -58t125 -21.5z" />
    <glyph glyph-name="uni024C" unicode="&#x24c;" horiz-adv-x="1465" 
d="M471 0h-199v586h-262v166h262v682h609q240 0 366 -115.5t126 -308.5q0 -171 -99 -275.5t-256 -132.5l357 -602h-222l-347 586h-335v-586zM881 1268h-410v-516h410q143 0 213 71t70 187q0 258 -283 258z" />
    <glyph glyph-name="uni024D" unicode="&#x24d;" horiz-adv-x="982" 
d="M10 369v155h227v490h189v-153q25 74 104 123.5t187 49.5q126 0 225 -44l-85 -145q-58 34 -150 34q-281 0 -281 -334v-21h227v-155h-227v-369h-189v369h-227z" />
    <glyph glyph-name="uni024E" unicode="&#x24e;" horiz-adv-x="1399" 
d="M1049 969l-250 -375v-594h-199v594l-250 375h-240v166h129l-199 299h233l195 -299h463l195 299h233l-200 -299h130v-166h-240zM576 969l123 -189l123 189h-246z" />
    <glyph glyph-name="uni024F" unicode="&#x24f;" horiz-adv-x="1189" 
d="M40 432v155h201l-184 427h204l174 -427h317l175 427h204l-184 -427h202v-155h-269l-311 -722q-51 -122 -117.5 -182t-182.5 -60t-190 47l61 135q59 -27 104 -27q33 0 57.5 10.5t44 36.5t31 48t30.5 66l87 216l-186 432h-268zM499 432l95 -232l95 232h-190z" />
    <glyph glyph-name="uni0250" unicode="&#x250;" horiz-adv-x="1149" 
d="M551 135q177 0 340 80l73 -132q-82 -50 -194.5 -76.5t-218.5 -26.5q-81 0 -146 13.5t-108.5 34.5t-75 55t-49 67t-27.5 78.5t-12.5 81.5t-2.5 84v620h189v-169q35 84 117.5 136.5t210.5 52.5q191 0 301.5 -86t110.5 -242q0 -69 -24.5 -125t-67 -94.5t-101 -66.5t-124 -43
t-139.5 -22t-144 -6t-140 8q2 -116 48.5 -169t183.5 -53zM863 706q0 80 -55.5 126.5t-170.5 46.5q-155 0 -236.5 -89.5t-81.5 -222.5v-80q62 -9 130.5 -10t143.5 10t134 35t97.5 71.5t38.5 112.5z" />
    <glyph glyph-name="uni0251" unicode="&#x251;" horiz-adv-x="1282" 
d="M1152 0h-189v201q-53 -108 -156.5 -164.5t-213.5 -56.5q-154 0 -270 71.5t-174.5 190t-58.5 265.5t58.5 265.5t174.5 190t270 71.5q110 0 213.5 -56.5t156.5 -164.5v201h189v-1014zM623 879q-85 0 -152 -32.5t-107 -86.5t-60.5 -119t-20.5 -134q0 -70 20.5 -134.5
t60.5 -118.5t107 -86.5t152 -32.5t152 32.5t107 86.5t60.5 118.5t20.5 134.5q0 69 -20.5 134t-60.5 119t-107 86.5t-152 32.5z" />
    <glyph glyph-name="uni0252" unicode="&#x252;" horiz-adv-x="1282" 
d="M319 0h-189v1014h189v-201q53 108 156.5 164.5t213.5 56.5q154 0 270 -71.5t174.5 -190t58.5 -265.5t-58.5 -265.5t-174.5 -190t-270 -71.5q-110 0 -213.5 56.5t-156.5 164.5v-201zM659 879q-85 0 -152 -32.5t-107 -86.5t-60.5 -119t-20.5 -134q0 -70 20.5 -134.5
t60.5 -118.5t107 -86.5t152 -32.5t152 32.5t107 86.5t60.5 118.5t20.5 134.5q0 69 -20.5 134t-60.5 119t-107 86.5t-152 32.5z" />
    <glyph glyph-name="uni0253" unicode="&#x253;" horiz-adv-x="1282" 
d="M689 1034q154 0 270 -71.5t174.5 -190t58.5 -265.5t-58.5 -265.5t-174.5 -190t-270 -71.5q-110 0 -213.5 56.5t-156.5 164.5v-201h-189v1051q0 96 7 165.5t28 133t56.5 102t93.5 61.5t139 23q103 0 191 -41l-53 -140q-68 26 -138 26q-84 0 -109.5 -73t-25.5 -257v-238
q53 108 156.5 164.5t213.5 56.5zM659 879q-85 0 -152 -32.5t-107 -86.5t-60.5 -119t-20.5 -134q0 -70 20.5 -134.5t60.5 -118.5t107 -86.5t152 -32.5t152 32.5t107 86.5t60.5 118.5t20.5 134.5q0 69 -20.5 134t-60.5 119t-107 86.5t-152 32.5z" />
    <glyph glyph-name="uni0254" unicode="&#x254;" horiz-adv-x="1101" 
d="M816 507q0 74 -22 140t-64.5 118.5t-112.5 83t-159 30.5q-171 0 -294 -97l-94 121q138 131 388 131q254 0 403.5 -148t149.5 -379t-149.5 -379t-403.5 -148q-250 0 -388 131l94 121q123 -97 294 -97q89 0 159 30.5t112.5 83t64.5 118.5t22 140z" />
    <glyph glyph-name="uni0255" unicode="&#x255;" horiz-adv-x="1165" 
d="M285 507q0 -143 77.5 -247.5t225.5 -121.5q-41 49 -62.5 116t-21.5 127q0 152 78.5 240t223.5 88q55 0 106 -19t92.5 -55.5t66 -96.5t24.5 -134q0 -123 -57 -213t-144 -138q47 -37 124 -76q50 -25 64 -31l-79 -128q-49 19 -103 45q-111 54 -190 122q-33 -5 -67 -5
q-255 0 -404 148t-149 379t149 379t404 148q250 0 388 -131l-94 -121q-123 97 -294 97q-89 0 -159 -30.5t-112.5 -83t-64.5 -118.5t-22 -140zM909 404q0 137 -105 137q-55 0 -82.5 -44.5t-27.5 -121.5q0 -128 77 -208q69 32 103.5 96t34.5 141z" />
    <glyph glyph-name="uni0256" unicode="&#x256;" horiz-adv-x="1288" 
d="M963 1516h189v-1563q0 -184 25.5 -257t109.5 -73q70 0 138 26l53 -140q-88 -41 -191 -41q-81 0 -139 23t-93.5 61.5t-56.5 102t-28 133t-7 165.5v248q-53 -108 -156.5 -164.5t-213.5 -56.5q-154 0 -270 71.5t-174.5 190t-58.5 265.5t58.5 265.5t174.5 190t270 71.5
q110 0 213.5 -56.5t156.5 -164.5v703zM623 879q-85 0 -152 -32.5t-107 -86.5t-60.5 -119t-20.5 -134q0 -70 20.5 -134.5t60.5 -118.5t107 -86.5t152 -32.5t152 32.5t107 86.5t60.5 118.5t20.5 134.5q0 69 -20.5 134t-60.5 119t-107 86.5t-152 32.5z" />
    <glyph glyph-name="uni0257" unicode="&#x257;" horiz-adv-x="1338" 
d="M1152 1051v-1051h-189v201q-53 -108 -156.5 -164.5t-213.5 -56.5q-154 0 -270 71.5t-174.5 190t-58.5 265.5t58.5 265.5t174.5 190t270 71.5q110 0 213.5 -56.5t156.5 -164.5v238q0 96 7 165.5t28 133t56.5 102t93.5 61.5t139 23q103 0 191 -41l-53 -140q-68 26 -138 26
q-84 0 -109.5 -73t-25.5 -257zM623 879q-85 0 -152 -32.5t-107 -86.5t-60.5 -119t-20.5 -134q0 -70 20.5 -134.5t60.5 -118.5t107 -86.5t152 -32.5t152 32.5t107 86.5t60.5 118.5t20.5 134.5q0 69 -20.5 134t-60.5 119t-107 86.5t-152 32.5z" />
    <glyph glyph-name="uni0258" unicode="&#x258;" 
d="M599 135q134 0 216 81.5t91 197.5h-815q-8 300 129 460t379 160q234 0 372 -148t138 -379t-138 -379t-372 -148q-153 0 -262.5 45t-176.5 112l114 112q145 -114 325 -114zM293 579h612q-5 57 -23.5 107t-52.5 95t-93.5 71.5t-136.5 26.5t-136 -26.5t-93.5 -71
t-53.5 -95.5t-23 -107z" />
    <glyph glyph-name="uni0259" unicode="&#x259;" 
d="M599 879q-180 0 -325 -114l-114 112q67 67 176.5 112t262.5 45q234 0 372 -148t138 -379t-138 -379t-372 -148q-242 0 -379 160t-129 460h815q-9 116 -91 197.5t-216 81.5zM905 435h-612q4 -56 23 -107t53.5 -95.5t93.5 -71t136 -26.5t136.5 26.5t93.5 71.5t52.5 95
t23.5 107z" />
    <glyph glyph-name="uni025A" unicode="&#x25a;" horiz-adv-x="1491" 
d="M588 879q-185 0 -323 -118l-117 115q158 158 440 158q183 0 306 -93.5t169 -251.5l334 55q-22 -35 -33.5 -71t-10.5 -68.5t26 -54t72 -22.5v-182q-67 -1 -122 19q-120 48 -114 182l-128 -21q6 -244 -129.5 -395t-369.5 -151q-237 0 -367.5 145t-130.5 405l795 130
q-17 95 -91 157t-206 62zM894 495l-618 -102q17 -114 95.5 -186t216.5 -72q157 0 234.5 98t71.5 262z" />
    <glyph glyph-name="uni025B" unicode="&#x25b;" horiz-adv-x="1021" 
d="M820 227l111 -113q-134 -134 -417 -134q-197 0 -310.5 78t-113.5 246q0 88 48 146t128 86q-64 31 -103 86.5t-39 130.5q0 136 106.5 208.5t283.5 72.5q79 0 146.5 -13t116 -37t77.5 -43.5t59 -45.5l-110 -114q-127 98 -289 98q-91 0 -146 -37.5t-55 -88.5
q0 -45 26.5 -75.5t76.5 -45.5t106 -21t132 -6v-155q-52 0 -87.5 -1t-78.5 -4t-71 -9t-56.5 -17t-44.5 -26t-26.5 -37.5t-10.5 -51.5q0 -76 63 -122.5t172 -46.5q79 0 145 17t95 33t66 42z" />
    <glyph glyph-name="uni025C" unicode="&#x25c;" horiz-adv-x="1021" 
d="M90 114l111 113q123 -92 306 -92q109 0 172 46.5t63 122.5q0 29 -10.5 51.5t-26.5 37.5t-44.5 26t-56.5 17t-71 9t-78.5 4t-87.5 1v155q76 0 132 6t106 21t76.5 45.5t26.5 75.5q0 51 -55 88.5t-146 37.5q-162 0 -289 -98l-110 114q154 139 399 139q177 0 283.5 -72.5
t106.5 -208.5q0 -75 -39 -130.5t-103 -86.5q80 -28 128 -86t48 -146q0 -168 -113.5 -246t-310.5 -78q-283 0 -417 134z" />
    <glyph glyph-name="uni025D" unicode="&#x25d;" horiz-adv-x="1205" 
d="M90 114l111 113q123 -92 306 -92q109 0 172 46.5t63 122.5q0 29 -10.5 51.5t-26.5 37.5t-44.5 26t-56.5 17t-71 9t-78.5 4t-87.5 1v155q76 0 132 6t106 21t76.5 45.5t26.5 75.5q0 51 -55 88.5t-146 37.5q-162 0 -289 -98l-110 114q154 139 399 139q177 0 283.5 -72.5
t106.5 -208.5q0 -21 -5 -46l295 44q-12 -15 -25.5 -37t-25 -52t-11 -53.5t24.5 -36.5t75 -5v-181q-75 -11 -131 6q-129 38 -115 184l-223 -41q79 -28 127 -86t48 -145q0 -168 -113.5 -246t-310.5 -78q-283 0 -417 134z" />
    <glyph glyph-name="uni025E" unicode="&#x25e;" horiz-adv-x="1083" 
d="M90 507q0 108 32 202t93.5 167t159 115.5t219.5 42.5q165 0 265 -82.5t100 -215.5q0 -69 -46 -127.5t-121 -78.5q94 -22 147.5 -80.5t53.5 -150.5q0 -157 -112 -238t-287 -81q-110 0 -196.5 28t-143.5 76t-94.5 115.5t-53.5 143.5t-16 164zM279 507q0 -176 76.5 -274
t238.5 -98q109 0 159.5 45.5t50.5 118.5q0 32 -10 55.5t-32 39t-49 25.5t-69.5 15t-85.5 7t-104 2v155q165 0 240.5 33.5t75.5 104.5q0 62 -45 102.5t-131 40.5q-150 0 -232.5 -100.5t-82.5 -271.5z" />
    <glyph glyph-name="uni025F" unicode="&#x25f;" horiz-adv-x="606" 
d="M-180 -489l51 138q64 -26 139 -26q28 0 50 11t36 26t24 43.5t14.5 50.5t7 61.5t3 61.5t0.5 64v12v47h-234v155h234v859h189v-859h232v-155h-232v-47q0 -96 -7 -165.5t-28 -133t-56.5 -102t-93.5 -61.5t-139 -23q-120 0 -190 43z" />
    <glyph glyph-name="uni0260" unicode="&#x260;" horiz-adv-x="1307" 
d="M963 20v181q-53 -108 -156.5 -164.5t-213.5 -56.5q-154 0 -270 71.5t-174.5 190t-58.5 265.5t58.5 265.5t174.5 190t270 71.5q110 0 213.5 -56.5t156.5 -164.5v238q0 96 7 165.5t28 133t56.5 102t93.5 61.5t139 23q121 0 190 -43l-51 -138q-64 26 -139 26q-28 0 -50 -11
t-36 -26t-24 -43.5t-14.5 -50.5t-7 -61.5t-3 -61.5t-0.5 -64v-12v-1031q0 -155 -37.5 -264t-110.5 -171t-167.5 -89.5t-219.5 -27.5q-121 0 -237.5 32t-204.5 93l104 127q158 -97 338 -97q191 0 268.5 100t77.5 297zM623 879q-85 0 -152 -32.5t-107 -86.5t-60.5 -119
t-20.5 -134q0 -70 20.5 -134.5t60.5 -118.5t107 -86.5t152 -32.5t152 32.5t107 86.5t60.5 118.5t20.5 134.5q0 69 -20.5 134t-60.5 119t-107 86.5t-152 32.5z" />
    <glyph glyph-name="uni0261" unicode="&#x261;" horiz-adv-x="1282" 
d="M963 20v181q-53 -108 -156.5 -164.5t-213.5 -56.5q-154 0 -270 71.5t-174.5 190t-58.5 265.5t58.5 265.5t174.5 190t270 71.5q110 0 213.5 -56.5t156.5 -164.5v201h189v-994q0 -155 -37.5 -264t-110.5 -171t-167.5 -89.5t-219.5 -27.5q-122 0 -242 32.5t-200 92.5
l104 127q158 -97 338 -97q191 0 268.5 100t77.5 297zM623 879q-85 0 -152 -32.5t-107 -86.5t-60.5 -119t-20.5 -134q0 -70 20.5 -134.5t60.5 -118.5t107 -86.5t152 -32.5t152 32.5t107 86.5t60.5 118.5t20.5 134.5q0 69 -20.5 134t-60.5 119t-107 86.5t-152 32.5z" />
    <glyph glyph-name="uni0262" unicode="&#x262;" horiz-adv-x="1144" 
d="M636 421v155h394v-478q-157 -118 -423 -118q-221 0 -369 148t-148 379t148 379t369 148q128 0 231.5 -28.5t195.5 -97.5l-100 -122q-140 93 -327 93q-139 0 -233.5 -98.5t-94.5 -273.5t94.5 -273.5t233.5 -98.5q147 0 244 52v234h-215z" />
    <glyph glyph-name="uni0263" unicode="&#x263;" horiz-adv-x="1266" 
d="M633 -532q-42 0 -78.5 11t-71 36.5t-54.5 74t-20 116.5q0 46 22 104t42.5 94t58.5 96l-492 1014h205l388 -851l388 851h205l-492 -1014q38 -60 58.5 -96t42.5 -94t22 -104q0 -68 -20 -116.5t-54.5 -74t-71 -36.5t-78.5 -11zM633 -388q62 0 62 94q0 41 -19.5 85t-42.5 69
q-23 -25 -42.5 -69t-19.5 -85q0 -94 62 -94z" />
    <glyph glyph-name="uni0264" unicode="&#x264;" horiz-adv-x="1152" 
d="M576 -96q-90 0 -148 55t-58 146q0 112 95 211l-425 698h217l319 -557l319 557h217l-425 -698q95 -99 95 -211q0 -91 -58 -146t-148 -55zM576 50q26 0 36.5 17.5t10.5 37.5q0 27 -14.5 57t-32.5 48q-18 -18 -32.5 -47.5t-14.5 -57.5q0 -20 10.5 -37.5t36.5 -17.5z" />
    <glyph glyph-name="uni0265" unicode="&#x265;" 
d="M880 469v545h189v-1546h-189v685q-25 -74 -104 -123.5t-187 -49.5q-231 0 -345 130.5t-114 358.5v545h189v-545q0 -334 280 -334q281 0 281 334z" />
    <glyph glyph-name="uni0266" unicode="&#x266;" 
d="M1069 0h-189v545q0 334 -280 334q-281 0 -281 -334v-545h-189v1051q0 96 7 165.5t28 133t56.5 102t93.5 61.5t139 23q103 0 191 -41l-53 -140q-68 26 -138 26q-84 0 -109.5 -73t-25.5 -257v-190q25 74 104 123.5t187 49.5q230 0 344.5 -130.5t114.5 -358.5v-545z" />
    <glyph glyph-name="uni0267" unicode="&#x267;" 
d="M319 545v-545h-189v1051q0 96 7 165.5t28 133t56.5 102t93.5 61.5t139 23q103 0 191 -41l-53 -140q-68 26 -138 26q-84 0 -109.5 -73t-25.5 -257v-190q25 74 104 123.5t187 49.5q230 0 344.5 -130.5t114.5 -358.5v-592q0 -96 -7 -165.5t-28 -133t-56.5 -102t-93.5 -61.5
t-139 -23q-103 0 -191 41l53 140q68 -26 138 -26q84 0 109.5 73t25.5 257v592q0 334 -280 334q-281 0 -281 -334z" />
    <glyph glyph-name="uni0268" unicode="&#x268;" horiz-adv-x="637" 
d="M40 500v155h184v359h189v-359h184v-155h-184v-500h-189v500h-184zM197 1312q0 51 35.5 86.5t85.5 35.5q51 0 86.5 -35.5t35.5 -86.5q0 -50 -35.5 -85.5t-86.5 -35.5q-50 0 -85.5 35.5t-35.5 85.5z" />
    <glyph glyph-name="uni0269" unicode="&#x269;" horiz-adv-x="514" 
d="M130 280v734h199v-734q0 -33 1 -48t4.5 -33.5t13.5 -25.5t26 -7h50v-166h-50q-64 0 -109.5 15.5t-71 39.5t-40.5 63t-19 75.5t-4 86.5z" />
    <glyph glyph-name="uni026A" unicode="&#x26a;" horiz-adv-x="459" 
d="M130 0v1014h199v-1014h-199z" />
    <glyph glyph-name="uni026B" unicode="&#x26b;" horiz-adv-x="765" 
d="M288 1014v502h189v-599q14 -2 17 -2q35 0 49 39q6 16 6 39h175q-2 -68 -26 -115q-59 -114 -209 -114h-12v-483q0 -31 1.5 -48.5t8.5 -38t23 -30t42 -9.5h36v-155h-56q-65 0 -111 16t-71.5 40t-40 64t-18 75t-3.5 86v580q-9 3 -17 3q-35 0 -49 -39q-6 -18 -6 -39h-175
q2 67 26 114q54 115 209 115q9 0 12 -1z" />
    <glyph glyph-name="uni026C" unicode="&#x26c;" horiz-adv-x="716" 
d="M337 1014v502h189v-759h150v-155h-150v-321q0 -31 1.5 -48.5t8.5 -38t23 -30t42 -9.5h36v-155h-56q-65 0 -111 16t-71.5 40t-40 64t-18 75t-3.5 86v321h-51q-35 0 -71 12.5t-69.5 37t-54.5 67.5t-21 97q0 53 22 92.5t60.5 62t84.5 33t100 10.5zM337 757v121
q-59 0 -86.5 -14t-27.5 -48q0 -25 16 -42t47 -17h51z" />
    <glyph glyph-name="uni026D" unicode="&#x26d;" horiz-adv-x="475" 
d="M130 1516h189v-1563q0 -184 25.5 -257t109.5 -73q70 0 138 26l53 -140q-88 -41 -191 -41q-81 0 -139 23t-93.5 61.5t-56.5 102t-28 133t-7 165.5v1563z" />
    <glyph glyph-name="uni026E" unicode="&#x26e;" horiz-adv-x="1320" 
d="M271 -374l99 124q28 -23 48 -37t64 -39t99 -38t118 -13q170 0 256 95.5t86 241.5q0 168 -123 248t-391 80v116l384 455h-592v-578q0 -31 1.5 -48.5t8.5 -38t23 -30t42 -9.5h36v-155h-56q-65 0 -111 16t-71.5 40t-40 64t-18 75t-3.5 86v1235h189v-502h862v-91l-415 -496
q72 -12 134 -31.5t124.5 -56.5t106.5 -86.5t71.5 -124.5t27.5 -168q0 -119 -41.5 -214t-114 -155t-168 -91.5t-207.5 -31.5q-286 0 -428 158z" />
    <glyph glyph-name="uni026F" unicode="&#x26f;" horiz-adv-x="1775" 
d="M1645 1014v-1014h-189v142q-26 -69 -93 -115.5t-164 -46.5q-256 0 -354 195q-19 -35 -44.5 -66t-63 -61.5t-89.5 -49t-112 -18.5q-201 0 -303.5 117.5t-102.5 346.5v570h189v-570q0 -149 59.5 -229t177.5 -80t177.5 80t59.5 229v570h189v-570q0 -149 59.5 -229t177.5 -80
t177.5 80t59.5 229v570h189z" />
    <glyph glyph-name="uni0270" unicode="&#x270;" horiz-adv-x="1775" 
d="M1645 1014v-1546h-189v674q-33 -71 -97.5 -116.5t-159.5 -45.5q-256 0 -354 195q-19 -35 -44.5 -66t-63 -61.5t-89.5 -49t-112 -18.5q-201 0 -303.5 117.5t-102.5 346.5v570h189v-570q0 -136 61 -222.5t176 -86.5t176 86.5t61 222.5v570h189v-570q0 -136 61 -222.5
t176 -86.5t176 86.5t61 222.5v570h189z" />
    <glyph glyph-name="uni0271" unicode="&#x271;" horiz-adv-x="1775" 
d="M130 0v1014h189v-142q33 71 97.5 116.5t159.5 45.5q256 0 354 -195q19 35 44.5 66t63 61.5t89.5 49t112 18.5q201 0 303.5 -117.5t102.5 -346.5v-1102h-189v1102q0 136 -61 222.5t-176 86.5t-176 -86.5t-61 -222.5v-570h-189v570q0 136 -61 222.5t-176 86.5t-176 -86.5
t-61 -222.5v-570h-189z" />
    <glyph glyph-name="uni0272" unicode="&#x272;" horiz-adv-x="1225" 
d="M345 545v-592q0 -96 -7 -165.5t-28 -133t-56.5 -102t-93.5 -61.5t-139 -23q-103 0 -191 41l53 140q68 -26 138 -26q84 0 109.5 73t25.5 257v1061h189v-153q25 74 104 123.5t187 49.5q230 0 344.5 -130.5t114.5 -358.5v-545h-189v545q0 334 -280 334q-281 0 -281 -334z
" />
    <glyph glyph-name="uni0273" unicode="&#x273;" horiz-adv-x="1225" 
d="M319 545v-545h-189v1014h189v-153q25 74 104 123.5t187 49.5q230 0 344.5 -130.5t114.5 -358.5v-592q0 -184 25.5 -257t109.5 -73q70 0 138 26l53 -140q-88 -41 -191 -41q-81 0 -139 23t-93.5 61.5t-56.5 102t-28 133t-7 165.5v592q0 334 -280 334q-281 0 -281 -334z" />
    <glyph glyph-name="uni0274" unicode="&#x274;" horiz-adv-x="1162" 
d="M130 0v1014h186l527 -714v714h189v-1014h-186l-527 714v-714h-189z" />
    <glyph glyph-name="uni0275" unicode="&#x275;" horiz-adv-x="1286" 
d="M643 -20q-255 0 -404 148t-149 379t149 379t404 148q254 0 403.5 -148t149.5 -379t-149.5 -379t-403.5 -148zM643 135q152 0 241 82t111 213h-704q22 -131 111 -213t241 -82zM643 879q-151 0 -240.5 -82.5t-111.5 -211.5h703q-22 129 -111.5 211.5t-239.5 82.5z" />
    <glyph glyph-name="uni0276" unicode="&#x276;" horiz-adv-x="1597" 
d="M812 1014h695v-155h-506v-259h481v-155h-481v-291h506v-154h-695q-82 -20 -169 -20q-255 0 -404 148t-149 379t149 379t404 148q87 0 169 -20zM812 170v673q-74 36 -169 36q-89 0 -159 -30.5t-112.5 -83t-64.5 -118.5t-22 -140q0 -75 22 -141t64.5 -118t112.5 -82.5
t159 -30.5q97 0 169 35z" />
    <glyph glyph-name="uni0277" unicode="&#x277;" horiz-adv-x="1436" 
d="M1346 435q0 -213 -90 -334t-274 -121q-195 0 -264 225q-69 -225 -264 -225q-184 0 -274 121t-90 334q0 136 39 242.5t101 172t146.5 108.5t168 59.5t173.5 16.5t173.5 -16.5t168 -59.5t146.5 -108.5t101 -172t39 -242.5zM1157 435q0 110 -32 192t-78 126.5t-110 71
t-114 34t-105 7.5t-105 -7.5t-114 -34t-110 -71t-78 -126.5t-32 -192q0 -136 42.5 -218t132.5 -82q91 0 130 115.5t39 362.5h190q0 -247 39 -362.5t130 -115.5q90 0 132.5 82t42.5 218z" />
    <glyph glyph-name="uni0278" unicode="&#x278;" horiz-adv-x="1409" 
d="M610 1516h189v-482q71 -4 142 -24.5t140 -62.5t121 -100.5t84.5 -145.5t32.5 -190t-32.5 -190t-84.5 -145.5t-121 -100.5t-140 -62.5t-142 -24.5v-520h-189v520q-72 4 -142.5 24t-139.5 62t-121 100.5t-84.5 145.5t-32.5 191q0 103 32.5 190t84.5 145.5t121 100.5
t140 62.5t142 24.5v482zM799 879v-736q144 6 237.5 105.5t93.5 262.5t-93.5 262.5t-237.5 105.5zM610 143v736q-144 -6 -237.5 -105.5t-93.5 -262.5t93.5 -262.5t237.5 -105.5z" />
    <glyph glyph-name="uni0279" unicode="&#x279;" horiz-adv-x="905" 
d="M70 24l85 145q58 -34 150 -34q281 0 281 334v545h189v-1014h-189v153q-25 -74 -104 -123.5t-187 -49.5q-126 0 -225 44z" />
    <glyph glyph-name="uni027A" unicode="&#x27a;" horiz-adv-x="905" 
d="M70 24l85 145q58 -34 150 -34q281 0 281 334v1047h189v-1516h-189v153q-25 -74 -104 -123.5t-187 -49.5q-126 0 -225 44z" />
    <glyph glyph-name="uni027B" unicode="&#x27b;" horiz-adv-x="931" 
d="M70 24l85 145q58 -34 150 -34q281 0 281 334v545h189v-1061q0 -184 25.5 -257t109.5 -73q70 0 138 26l53 -140q-88 -41 -191 -41q-81 0 -139 23t-93.5 61.5t-56.5 102t-28 133t-7 165.5v200q-25 -74 -104 -123.5t-187 -49.5q-126 0 -225 44z" />
    <glyph glyph-name="uni027C" unicode="&#x27c;" horiz-adv-x="875" 
d="M835 990l-85 -145q-58 34 -150 34q-281 0 -281 -334v-1077h-189v1546h189v-153q25 74 104 123.5t187 49.5q126 0 225 -44z" />
    <glyph glyph-name="uni027D" unicode="&#x27d;" horiz-adv-x="875" 
d="M835 990l-85 -145q-58 34 -150 34q-281 0 -281 -334v-545q0 -122 21 -175t68 -53q71 0 144 76l90 -152q-48 -54 -111.5 -81t-125.5 -27q-151 0 -213 96.5t-62 315.5v1014h189v-153q25 74 104 123.5t187 49.5q126 0 225 -44z" />
    <glyph glyph-name="uni027E" unicode="&#x27e;" horiz-adv-x="872" 
d="M832 1003l-76 -143q-57 19 -122 19q-154 0 -234.5 -93.5t-80.5 -255.5v-530h-189v530q0 235 136 369.5t368 134.5q108 0 198 -31z" />
    <glyph glyph-name="uni027F" unicode="&#x27f;" horiz-adv-x="902" 
d="M146 860l-76 143q90 31 198 31q232 0 368 -134.5t136 -369.5v-1062h-189v1062q0 162 -80.5 255.5t-234.5 93.5q-65 0 -122 -19z" />
    </font>
</defs>
</svg>
