<?xml version="1.0" standalone="no"?>
<!DOCTYPE svg PUBLIC "-//W3C//DTD SVG 1.1//EN" "http://www.w3.org/Graphics/SVG/1.1/DTD/svg11.dtd" >
<svg xmlns="http://www.w3.org/2000/svg" xmlns:xlink="http://www.w3.org/1999/xlink" version="1.1">
<metadata>
Created by FontForge 20190801 at Fri Apr  7 07:27:42 2017
 By root
Copyright (c) 2017 by Artegra. All rights reserved.
</metadata>
<defs>
<font id="ArtegraSans-Regular" horiz-adv-x="1254" >
  <font-face 
    font-family="ArtegraSans-Regular"
    font-weight="400"
    font-stretch="normal"
    units-per-em="2048"
    panose-1="2 0 5 3 4 0 0 2 0 4"
    ascent="1521"
    descent="-527"
    x-height="1006"
    cap-height="1434"
    bbox="-180 -625 2831 2140"
    underline-thickness="102"
    underline-position="-409"
    unicode-range="U+000D-FE65"
  />
<missing-glyph horiz-adv-x="922" 
 />
    <glyph glyph-name="ff" unicode="ff" horiz-adv-x="1455" 
d="M1025 1006h304v-118h-304v-888h-141v888h-455v-888h-141v888h-208v118h208v64q0 194 75.5 300t218.5 106q102 0 185 -31l-43 -107q-64 20 -122 20q-85 0 -129 -65t-44 -223v-64h455v64q0 240 73 353t251 113q121 0 197 -36l-43 -107q-75 25 -144 25q-113 0 -153 -74.5
t-40 -273.5v-64z" />
    <glyph glyph-name="fi" unicode="fi" horiz-adv-x="1165" 
d="M429 1006h596v-1006h-141v888h-455v-888h-141v888h-208v118h208v64q0 231 93.5 348.5t305.5 117.5q122 0 197.5 -35.5t136.5 -100.5l-89 -72q-90 90 -225 90q-159 0 -218.5 -75.5t-59.5 -272.5v-64z" />
    <glyph glyph-name="fl" unicode="fl" horiz-adv-x="1232" 
d="M687 1536q223 0 338 -79v-1232q0 -27 1.5 -42.5t6 -32.5t16.5 -24.5t31 -7.5h52v-118h-52q-63 0 -104.5 20t-60 56t-25 70t-6.5 79v663h-455v-888h-141v888h-208v118h208v64q0 231 93.5 348.5t305.5 117.5zM707 1418q-159 0 -218.5 -75.5t-59.5 -272.5v-64h455v382
q-58 30 -177 30z" />
    <glyph glyph-name="ffi" unicode="ffi" horiz-adv-x="1761" 
d="M1025 1006h596v-1006h-141v888h-455v-888h-141v888h-455v-888h-141v888h-208v118h208v64q0 194 75.5 300t218.5 106q102 0 185 -31l-43 -107q-64 20 -122 20q-85 0 -129 -65t-44 -223v-64h455v64q0 231 93.5 348.5t305.5 117.5q122 0 197.5 -35.5t136.5 -100.5l-89 -72
q-90 90 -225 90q-159 0 -218.5 -75.5t-59.5 -272.5v-64z" />
    <glyph glyph-name="ffl" unicode="ffl" horiz-adv-x="1828" 
d="M1283 1536q223 0 338 -79v-1232q0 -27 1.5 -42.5t6 -32.5t16.5 -24.5t31 -7.5h52v-118h-52q-63 0 -104.5 20t-60 56t-25 70t-6.5 79v663h-455v-888h-141v888h-455v-888h-141v888h-208v118h208v64q0 194 75.5 300t218.5 106q102 0 185 -31l-43 -107q-64 20 -122 20
q-85 0 -129 -65t-44 -223v-64h455v64q0 231 93.5 348.5t305.5 117.5zM1303 1418q-159 0 -218.5 -75.5t-59.5 -272.5v-64h455v382q-58 30 -177 30z" />
    <glyph glyph-name=".notdef" horiz-adv-x="922" 
 />
    <glyph glyph-name=".null" horiz-adv-x="0" 
 />
    <glyph glyph-name="nonmarkingreturn" unicode="&#xd;" horiz-adv-x="922" 
 />
    <glyph glyph-name="null" horiz-adv-x="0" 
 />
    <glyph glyph-name="null" horiz-adv-x="0" 
 />
    <glyph glyph-name="space" unicode=" " horiz-adv-x="573" 
 />
    <glyph glyph-name="exclam" unicode="!" horiz-adv-x="552" 
d="M212 314l-10 1120h148l-10 -1120h-128zM180 86q0 40 28 68t68 28t68 -28t28 -68t-28 -68t-68 -28t-68 28t-28 68z" />
    <glyph glyph-name="quotedbl" unicode="&#x22;" horiz-adv-x="652" 
d="M138 1008l-18 426h157l-16 -426h-123zM392 1008l-16 426h156l-15 -426h-125z" />
    <glyph glyph-name="numbersign" unicode="#" horiz-adv-x="1356" 
d="M714 0l62 392h-301l-62 -392h-139l62 392h-216v130h237l62 390h-216v130h237l63 392h139l-63 -392h301l63 392h138l-63 -392h218v-130h-238l-62 -390h217v-130h-238l-62 -392h-139zM558 912l-62 -390h301l62 390h-301z" />
    <glyph glyph-name="dollar" unicode="$" horiz-adv-x="1292" 
d="M1108 1334l-76 -111q-75 48 -179 74.5t-215 26.5q-157 0 -248 -59t-91 -178q0 -109 82 -167t289 -105q267 -60 389.5 -160.5t122.5 -283.5q0 -184 -122.5 -284t-348.5 -106v-190h-129v192q-304 18 -472 151l76 111q202 -135 490 -135q356 0 356 261q0 119 -83.5 186
t-303.5 116q-263 58 -379.5 155t-116.5 259q0 156 112.5 254.5t320.5 110.5v191h129v-191q236 -15 397 -118z" />
    <glyph glyph-name="uni0025" unicode="%" horiz-adv-x="1483" 
d="M698 1166q0 -122 -81.5 -205t-207.5 -83t-207.5 83t-81.5 205t81.5 205t207.5 83t207.5 -83t81.5 -205zM263 0l803 1434h153l-803 -1434h-153zM572 1166q0 68 -45.5 115t-117.5 47t-117.5 -47t-45.5 -115t45.5 -115t117.5 -47t117.5 47t45.5 115zM1363 268
q0 -122 -81.5 -205t-207.5 -83t-207.5 83t-81.5 205t81.5 205t207.5 83t207.5 -83t81.5 -205zM1237 268q0 68 -45.5 115t-117.5 47t-117.5 -47t-45.5 -115t45.5 -115t117.5 -47t117.5 47t45.5 115z" />
    <glyph glyph-name="ampersand" unicode="&#x26;" horiz-adv-x="1464" 
d="M603 1454q144 0 228.5 -81.5t84.5 -235.5q0 -42 -10.5 -81t-32.5 -72.5t-43 -59t-57 -54t-57 -44t-61 -41.5t-53 -35q158 -210 355 -401q51 101 89 280l137 -30q-43 -210 -117 -347q96 -84 222 -168q62 -44 126 -84h-243q-28 17 -55 34q-76 50 -134 97
q-85 -88 -186 -119.5t-226 -31.5q-85 0 -159.5 19t-137.5 57.5t-103 105.5t-48 156q-7 79 11.5 148t61.5 126t91.5 100.5t117.5 90.5q-64 98 -93.5 171.5t-29.5 162.5q0 146 84.5 241.5t237.5 95.5zM272 318q17 -109 98 -158.5t197 -49.5q95 0 177 29.5t132 83.5
q-212 212 -399 447q-19 -13 -33.5 -23t-33.5 -24.5t-32.5 -27t-29.5 -28.5t-27 -32t-21.5 -35t-17 -39t-11 -42.5t-4 -48t4.5 -52.5zM525 859q116 77 154 111q88 81 89 167q0 86 -41.5 136.5t-123.5 50.5q-71 0 -122.5 -55t-51.5 -152q0 -18 1 -34t5.5 -33t6.5 -28t10 -29
t10.5 -25.5t14 -27.5t14.5 -25t17 -28.5t17 -27.5z" />
    <glyph glyph-name="quotesingle" unicode="'" horiz-adv-x="397" 
d="M138 1008l-18 426h157l-16 -426h-123z" />
    <glyph glyph-name="parenleft" unicode="(" horiz-adv-x="818" 
d="M288 588q0 -430 215 -649q94 -99 215 -139l-46 -130q-150 48 -266 163q-266 260 -266 755t266 755q116 115 266 163l46 -130q-121 -40 -215 -139q-215 -219 -215 -649z" />
    <glyph glyph-name="parenright" unicode=")" horiz-adv-x="818" 
d="M530 588q0 424 -215 649q-94 98 -215 139l46 130q150 -48 266 -163q266 -260 266 -755t-266 -755q-116 -115 -266 -163l-46 130q121 41 215 139q215 227 215 649z" />
    <glyph glyph-name="asterisk" unicode="*" horiz-adv-x="932" 
d="M397 1434h138l-10 -279l268 94l39 -132l-275 -83l180 -216l-112 -82l-159 227l-159 -227l-112 82l180 216l-275 83l39 132l268 -94z" />
    <glyph glyph-name="plus" unicode="+" horiz-adv-x="1176" 
d="M1056 769v-135h-400v-400h-136v400h-400v135h400v400h136v-400h400z" />
    <glyph glyph-name="comma" unicode="," horiz-adv-x="546" 
d="M100 -202l163 425h163l-194 -425h-132z" />
    <glyph glyph-name="hyphen" unicode="-" horiz-adv-x="875" 
d="M120 487v118h635v-118h-635z" />
    <glyph glyph-name="period" unicode="." horiz-adv-x="432" 
d="M120 86q0 40 28 68t68 28t68 -28t28 -68t-28 -68t-68 -28t-68 28t-28 68z" />
    <glyph glyph-name="slash" unicode="/" horiz-adv-x="1042" 
d="M120 0l659 1434h143l-659 -1434h-143z" />
    <glyph glyph-name="zero" unicode="0" horiz-adv-x="1332" 
d="M666 -20q-111 0 -204.5 38t-159.5 105.5t-112 160t-68 202t-22 231.5t22 231.5t68 202t112 160t159.5 105.5t204.5 38t204.5 -38t159.5 -105.5t112 -160t68 -202t22 -231.5t-22 -231.5t-68 -202t-112 -160t-159.5 -105.5t-204.5 -38zM666 1324q-106 0 -187.5 -48
t-131 -132t-74.5 -192t-25 -235t25 -235t74.5 -192t131 -132t187.5 -48t187.5 48t131 132t74.5 192t25 235t-25 235t-74.5 192t-131 132t-187.5 48z" />
    <glyph glyph-name="one" unicode="1" horiz-adv-x="659" 
d="M150 1005l-100 106l354 323h115v-1434h-148v1207z" />
    <glyph glyph-name="two" unicode="2" horiz-adv-x="1187" 
d="M275 1093l-137 50q11 30 26 60.5t52.5 78.5t85 83.5t126.5 62t172 26.5q205 0 325.5 -97.5t120.5 -277.5q0 -56 -17.5 -110.5t-55.5 -112t-72 -100t-90 -106.5q-10 -10 -46.5 -50t-101.5 -112t-106 -117q-101 -112 -220 -241h730v-130h-947v103q220 240 276 301
q168 183 319 350q93 104 138 178t45 147q0 245 -298 245q-60 0 -112 -18.5t-85.5 -44t-62 -60.5t-41.5 -59t-24 -49z" />
    <glyph glyph-name="three" unicode="3" horiz-adv-x="1181" 
d="M100 218l137 50q25 -45 70 -79q101 -79 266 -79q161 0 260.5 72t99.5 215q0 65 -21.5 113t-60 79t-98 49.5t-128 26t-158.5 7.5v130q429 0 429 273q0 118 -87 183.5t-236 65.5q-147 0 -240 -79q-41 -34 -66 -79l-137 50q32 67 90 119q135 119 353 119q136 0 241 -41.5
t167.5 -128.5t62.5 -209q0 -164 -128 -266q-57 -45 -127 -67q38 -10 72 -23t76.5 -40.5t72.5 -63t50.5 -92.5t20.5 -126q0 -135 -69 -231t-181.5 -141t-257.5 -45q-251 0 -384 119q-61 52 -89 119z" />
    <glyph glyph-name="four" unicode="4" horiz-adv-x="1295" 
d="M993 0h-148v379h-725v108l728 947h145v-925h202v-130h-202v-379zM305 509h540v699z" />
    <glyph glyph-name="five" unicode="5" horiz-adv-x="1230" 
d="M1023 1434v-130h-669l-26 -433q126 57 295 57q104 0 187.5 -26t138.5 -70t92 -105.5t53 -129t16 -144.5q0 -96 -26.5 -177.5t-82 -149.5t-152.5 -107t-226 -39q-215 0 -371 86q-68 37 -112 87l87 102q44 -42 101 -73q136 -72 295 -72q94 0 162 27.5t105.5 77t54.5 108
t17 130.5q0 73 -17 132.5t-54.5 108.5t-105.5 76.5t-162 27.5q-142 0 -312 -62q-76 -27 -143 -61l44 759h811z" />
    <glyph glyph-name="six" unicode="6" horiz-adv-x="1248" 
d="M1003 1413l-65 -118q-302 82 -475 -58.5t-195 -482.5q50 97 147.5 153.5t213.5 56.5q104 0 189.5 -30.5t141.5 -80t95 -114.5t56 -132t17 -135q0 -71 -17 -139t-55.5 -133t-95 -113t-142 -77.5t-189.5 -29.5q-109 0 -196 33.5t-139.5 84t-89 119.5t-52 128t-22.5 123
q-21 195 -0.5 352.5t73 277t134.5 199.5t185.5 120.5t226 39.5t254.5 -44zM980 472q0 70 -22.5 134t-65 115.5t-110.5 82t-153 30.5t-153.5 -30.5t-110.5 -82t-64.5 -115.5t-22.5 -134t22.5 -134t64.5 -115.5t110.5 -82t153.5 -30.5t153 30.5t110.5 82t65 115.5t22.5 134z
" />
    <glyph glyph-name="seven" unicode="7" horiz-adv-x="1150" 
d="M120 1304v130h910v-94l-634 -1340h-154l617 1304h-739z" />
    <glyph glyph-name="eight" unicode="8" horiz-adv-x="1230" 
d="M615 1454q208 0 342.5 -103.5t134.5 -281.5q0 -109 -62.5 -193t-155.5 -123q50 -20 92.5 -49t81 -71.5t60.5 -103t22 -132.5q0 -103 -41 -184.5t-113 -131t-163.5 -75.5t-197.5 -26t-197.5 26t-163.5 75.5t-113 131t-41 184.5q0 72 22 132.5t60.5 103t81 71.5t92.5 49
q-93 38 -155.5 122.5t-62.5 193.5q0 178 134.5 281.5t342.5 103.5zM982 397q0 135 -98.5 211t-268.5 76t-268.5 -76t-98.5 -211t98.5 -211t268.5 -76t268.5 76t98.5 211zM615 1324q-150 0 -239.5 -67t-89.5 -188q0 -123 89.5 -189t239.5 -66t239.5 66t89.5 189
q0 121 -89.5 188t-239.5 67z" />
    <glyph glyph-name="nine" unicode="9" horiz-adv-x="1248" 
d="M245 21l65 118q302 -82 475 58.5t195 482.5q-50 -97 -147.5 -153.5t-213.5 -56.5q-104 0 -189.5 30.5t-141.5 80t-95 114.5t-56 132t-17 135q0 71 17 139t55.5 133t95 113t142 77.5t189.5 29.5q109 0 196 -33.5t139.5 -84t89 -119.5t52 -128t22.5 -123
q21 -195 0.5 -352.5t-73 -277t-134.5 -199.5t-185.5 -120.5t-226 -39.5t-254.5 44zM268 962q0 -70 22.5 -134t65 -115.5t110.5 -82t153 -30.5t153.5 30.5t110.5 82t64.5 115.5t22.5 134t-22.5 134t-64.5 115.5t-110.5 82t-153.5 30.5t-153 -30.5t-110.5 -82t-65 -115.5
t-22.5 -134z" />
    <glyph glyph-name="colon" unicode=":" horiz-adv-x="432" 
d="M120 86q0 40 28 68t68 28t68 -28t28 -68t-28 -68t-68 -28t-68 28t-28 68zM120 920q0 40 28 68t68 28t68 -28t28 -68t-28 -68t-68 -28t-68 28t-28 68z" />
    <glyph glyph-name="semicolon" unicode=";" horiz-adv-x="480" 
d="M168 920q0 40 28 68t68 28t68 -28t28 -68t-28 -68t-68 -28t-68 28t-28 68zM20 -202l163 425h163l-194 -425h-132z" />
    <glyph glyph-name="less" unicode="&#x3c;" horiz-adv-x="1173" 
d="M1033 983l-744 -377l744 -377v-146l-913 469v108l913 469v-146z" />
    <glyph glyph-name="equal" unicode="=" horiz-adv-x="1026" 
d="M120 499v135h786v-135h-786zM120 769v135h786v-135h-786z" />
    <glyph glyph-name="greater" unicode="&#x3e;" horiz-adv-x="1173" 
d="M884 606l-744 377v146l913 -469v-108l-913 -469v146z" />
    <glyph glyph-name="question" unicode="?" horiz-adv-x="1134" 
d="M425 86q0 40 28 68t68 28t68 -28t28 -68t-28 -68t-68 -28t-68 28t-28 68zM218 1131l-118 68q15 30 34.5 58.5t58.5 66t86 64.5t119 46.5t156 19.5q124 0 219.5 -32t150.5 -87t82.5 -121t27.5 -141q0 -338 -439 -406v-353h-148v456q90 2 167 20t139 53t97.5 93.5
t35.5 136.5q0 117 -85 184t-247 67q-59 0 -111 -15t-85 -34t-64 -49.5t-45.5 -49.5t-30.5 -45z" />
    <glyph glyph-name="at" unicode="@" horiz-adv-x="1666" 
d="M1291 270l97 -101q-203 -189 -555 -189q-154 0 -288.5 51.5t-233 145.5t-155 233t-56.5 306t56.5 307t155 233.5t233 145.5t288.5 52t288.5 -52t233 -145.5t155 -233.5t56.5 -307q0 -160 -80 -249.5t-214 -89.5q-111 0 -172 93q-27 40 -39 93q-5 -37 -23.5 -79t-52 -84.5
t-90 -70.5t-125.5 -28q-166 0 -260 115.5t-73 305.5q9 80 35.5 145.5t64.5 108.5t82 75t92 48.5t88.5 24t77.5 7.5q168 0 281 -87q-12 -201 -12 -322q0 -102 28 -158.5t98 -56.5q146 0 146 209q0 277 -161.5 442.5t-423.5 165.5t-423.5 -165t-161.5 -443
q0 -277 161.5 -441.5t423.5 -164.5q280 0 458 160zM877 1001q-36 0 -69 -6.5t-70 -25t-66.5 -48.5t-53 -81t-33.5 -118q-19 -122 30 -206.5t157 -84.5q101 0 158.5 74.5t67.5 216.5l19 255q-50 24 -140 24z" />
    <glyph glyph-name="A" unicode="A" horiz-adv-x="1430" 
d="M390 439l-182 -439h-158l604 1434h122l604 -1434h-158l-182 439h-650zM715 1223l-271 -652h541z" />
    <glyph glyph-name="B" unicode="B" horiz-adv-x="1354" 
d="M734 0h-594v1434h574q111 0 196.5 -22t138.5 -57.5t87 -85.5t47 -102t13 -111q0 -106 -54 -185.5t-141 -114.5q253 -89 253 -346q0 -64 -16 -121t-54.5 -111t-96.5 -92.5t-148.5 -62t-204.5 -23.5zM288 130h446q102 0 176 23.5t114 64.5t58 88.5t18 103.5
q0 116 -72.5 194.5t-209.5 78.5h-530v-553zM288 813h530q106 0 165 67.5t59 175.5q0 43 -7.5 77t-29 67.5t-57 55t-95 35t-139.5 13.5h-426v-491z" />
    <glyph glyph-name="C" unicode="C" horiz-adv-x="1363" 
d="M252 717q0 -127 35 -235.5t102 -192.5t174.5 -131.5t243.5 -47.5q221 0 397 116l79 -108q-181 -138 -476 -138q-168 0 -304 58.5t-223 159.5t-133.5 234t-46.5 285t46.5 285t133.5 234t223 159.5t304 58.5q295 0 476 -138l-79 -108q-176 116 -397 116
q-136 0 -243.5 -47.5t-174.5 -131.5t-102 -192.5t-35 -235.5z" />
    <glyph glyph-name="D" unicode="D" horiz-adv-x="1398" 
d="M1298 717q0 -158 -41 -286.5t-124 -226t-219 -151t-316 -53.5h-458v1434h458q180 0 316 -53.5t219 -151t124 -226t41 -286.5zM288 1304v-1174h310q147 0 255.5 45t171 126.5t92 184.5t29.5 231t-29.5 231t-92 184.5t-171 126.5t-255.5 45h-310z" />
    <glyph glyph-name="E" unicode="E" horiz-adv-x="1219" 
d="M288 798h753v-130h-753v-538h811v-130h-959v1434h949v-130h-801v-506z" />
    <glyph glyph-name="F" unicode="F" horiz-adv-x="1209" 
d="M288 798h753v-130h-753v-668h-148v1434h949v-130h-801v-506z" />
    <glyph glyph-name="G" unicode="G" horiz-adv-x="1482" 
d="M807 1324q-136 0 -243.5 -47.5t-174.5 -131.5t-102 -192.5t-35 -235.5t35 -235.5t102 -192.5t174.5 -131.5t243.5 -47.5q272 0 417 112v436h-379v130h517v-641q-111 -89 -244 -128t-311 -39q-168 0 -304 58.5t-223 159.5t-133.5 234t-46.5 285t46.5 285t133.5 234
t223 159.5t304 58.5q333 0 543 -168l-79 -102q-176 140 -464 140z" />
    <glyph glyph-name="H" unicode="H" horiz-adv-x="1396" 
d="M1108 798v636h148v-1434h-148v668h-820v-668h-148v1434h148v-636h820z" />
    <glyph glyph-name="I" unicode="I" horiz-adv-x="428" 
d="M140 0v1434h148v-1434h-148z" />
    <glyph glyph-name="J" unicode="J" horiz-adv-x="1058" 
d="M80 239l136 42q44 -85 106.5 -128t169.5 -43q148 0 213 81.5t65 249.5v993h148v-993q0 -234 -114 -347.5t-312 -113.5q-162 0 -265 68.5t-147 190.5z" />
    <glyph glyph-name="K" unicode="K" horiz-adv-x="1323" 
d="M288 704l768 730h194l-639 -607l662 -827h-177l-585 732l-223 -212v-520h-148v1434h148v-730z" />
    <glyph glyph-name="L" unicode="L" horiz-adv-x="1129" 
d="M288 1434v-1304h741v-130h-889v1434h148z" />
    <glyph glyph-name="M" unicode="M" horiz-adv-x="1718" 
d="M355 1434l504 -1223l504 1223h215v-1434h-148v1223l-504 -1223h-134l-504 1223v-1223h-148v1434h215z" />
    <glyph glyph-name="N" unicode="N" horiz-adv-x="1410" 
d="M140 0v1434h181l801 -1227v1227h148v-1434h-181l-801 1227v-1227h-148z" />
    <glyph glyph-name="O" unicode="O" horiz-adv-x="1614" 
d="M807 -20q-168 0 -304 58.5t-223 159.5t-133.5 234t-46.5 285t46.5 285t133.5 234t223 159.5t304 58.5t304 -58.5t223 -159.5t133.5 -234t46.5 -285t-46.5 -285t-133.5 -234t-223 -159.5t-304 -58.5zM807 110q136 0 243.5 47.5t174.5 131.5t102 192.5t35 235.5t-35 235.5
t-102 192.5t-174.5 131.5t-243.5 47.5t-243.5 -47.5t-174.5 -131.5t-102 -192.5t-35 -235.5t35 -235.5t102 -192.5t174.5 -131.5t243.5 -47.5z" />
    <glyph glyph-name="P" unicode="P" horiz-adv-x="1330" 
d="M735 1304h-447v-622h447q161 0 243 82.5t82 228.5q0 145 -82 228t-243 83zM288 0h-148v1434h595q225 0 350 -117.5t125 -323.5q0 -208 -125 -324.5t-350 -116.5h-447v-552z" />
    <glyph glyph-name="Q" unicode="Q" horiz-adv-x="1614" 
d="M807 -20q-168 0 -304 58.5t-223 159.5t-133.5 234t-46.5 285t46.5 285t133.5 234t223 159.5t304 58.5t304 -58.5t223 -159.5t133.5 -234t46.5 -285q0 -190 -71 -349t-206 -258l164 -179h-188l-95 110q-142 -61 -311 -61zM807 110q120 0 219 37l-165 192h167l116 -127
q108 80 163 211.5t55 293.5q0 127 -35 235.5t-102 192.5t-174.5 131.5t-243.5 47.5t-243.5 -47.5t-174.5 -131.5t-102 -192.5t-35 -235.5t35 -235.5t102 -192.5t174.5 -131.5t243.5 -47.5z" />
    <glyph glyph-name="R" unicode="R" horiz-adv-x="1307" 
d="M288 0h-148v1434h625q203 0 321.5 -112.5t118.5 -300.5q0 -165 -102.5 -274.5t-259.5 -130.5l364 -616h-163l-359 608h-397v-608zM765 1304h-477v-566h477q145 0 217.5 76.5t72.5 206.5t-72.5 206.5t-217.5 76.5z" />
    <glyph glyph-name="S" unicode="S" horiz-adv-x="1232" 
d="M1078 1334l-76 -111q-75 48 -179 74.5t-215 26.5q-157 0 -248 -59t-91 -178q0 -109 82 -167t289 -105q267 -60 389.5 -160.5t122.5 -283.5q0 -192 -131.5 -291.5t-374.5 -99.5q-375 0 -566 154l76 111q202 -135 490 -135q356 0 356 261q0 119 -83.5 186t-303.5 116
q-263 58 -379.5 155t-116.5 259q0 166 128 266.5t361 100.5q283 0 470 -120z" />
    <glyph glyph-name="T" unicode="T" horiz-adv-x="1318" 
d="M80 1434h1158v-130h-505v-1304h-148v1304h-505v130z" />
    <glyph glyph-name="U" unicode="U" horiz-adv-x="1429" 
d="M715 110q218 0 322 125.5t104 377.5v821h148v-821q0 -308 -146 -470.5t-428 -162.5q-283 0 -429 162.5t-146 470.5v821h148v-821q0 -253 104 -378t323 -125z" />
    <glyph glyph-name="V" unicode="V" horiz-adv-x="1398" 
d="M212 1434l487 -1223l487 1223h162l-584 -1434h-130l-584 1434h162z" />
    <glyph glyph-name="W" unicode="W" horiz-adv-x="1956" 
d="M570 265l326 1169h164l326 -1169l369 1169h151l-460 -1434h-125l-343 1238l-343 -1238h-125l-460 1434h151z" />
    <glyph glyph-name="X" unicode="X" horiz-adv-x="1386" 
d="M602 749l-503 685h172l422 -573l422 573h172l-503 -685l552 -749h-172l-471 638l-471 -638h-172z" />
    <glyph glyph-name="Y" unicode="Y" horiz-adv-x="1362" 
d="M223 1434l458 -687l458 687h173l-557 -836v-598h-148v598l-557 836h173z" />
    <glyph glyph-name="Z" unicode="Z" horiz-adv-x="1320" 
d="M327 130h873v-130h-1080v80l869 1224h-866v130h1073v-80z" />
    <glyph glyph-name="bracketleft" unicode="[" horiz-adv-x="744" 
d="M318 1304v-1497h296v-130h-444v1757h444v-130h-296z" />
    <glyph glyph-name="backslash" unicode="\" horiz-adv-x="1062" 
d="M273 1434l659 -1434h-143l-659 1434h143z" />
    <glyph glyph-name="bracketright" unicode="]" horiz-adv-x="744" 
d="M426 -193v1497h-296v130h444v-1757h-444v130h296z" />
    <glyph glyph-name="asciicircum" unicode="^" horiz-adv-x="1036" 
d="M760 858l-242 383l-242 -383h-156l346 576h104l346 -576h-156z" />
    <glyph glyph-name="underscore" unicode="_" horiz-adv-x="1479" 
d="M120 -532v118h1239v-118h-1239z" />
    <glyph glyph-name="grave" unicode="`" horiz-adv-x="649" 
d="M288 1434l261 -292h-152l-297 292h188z" />
    <glyph glyph-name="a" unicode="a" horiz-adv-x="1119" 
d="M580 908q-76 0 -168 -23.5t-159 -61.5l-57 106q72 46 173.5 71.5t210.5 25.5q104 0 178 -22t116.5 -57.5t66.5 -94.5t31 -117.5t7 -142.5v-592h-141v193q-89 -213 -347 -213q-180 0 -285.5 82.5t-105.5 242.5q0 83 34 147t93 102t132 62t158.5 31.5t163.5 6t157 -11.5
q-1 46 -4 76.5t-12.5 64t-27 54t-45 38t-70 25.5t-99.5 8zM247 305q0 -93 60.5 -150t183.5 -57q87 0 154.5 27.5t109 74.5t62.5 105.5t21 124.5v107q-64 7 -128.5 8t-132.5 -4.5t-126 -22.5t-104.5 -43.5t-73 -70t-26.5 -99.5z" />
    <glyph glyph-name="b" unicode="b" 
d="M281 0h-141v1516h141v-717q57 111 157 169t205 58q124 0 223 -42t161 -114.5t94.5 -166t32.5 -200.5t-32.5 -200.5t-94.5 -166t-161 -114.5t-223 -42q-105 0 -205 58t-157 169v-207zM643 908q-115 0 -198.5 -57t-123.5 -147.5t-40 -200.5t40 -200.5t123.5 -147.5
t198.5 -57t198.5 57.5t123.5 147.5t40 200t-40 200t-123.5 147.5t-198.5 57.5z" />
    <glyph glyph-name="c" unicode="c" horiz-adv-x="1078" 
d="M249 503q0 -178 98.5 -291.5t279.5 -113.5q171 0 297 105l74 -95q-140 -128 -371 -128q-240 0 -383.5 146t-143.5 377t143.5 377t383.5 146q230 0 371 -129l-74 -94q-126 105 -297 105q-181 0 -279.5 -113.5t-98.5 -291.5z" />
    <glyph glyph-name="d" unicode="d" 
d="M1114 0h-141v207q-57 -111 -157 -169t-205 -58q-124 0 -223 42t-161 114.5t-94.5 166t-32.5 200.5t32.5 200.5t94.5 166t161 114.5t223 42q105 0 205 -58t157 -169v717h141v-1516zM611 908q-115 0 -198.5 -57.5t-123.5 -147.5t-40 -200t40 -200t123.5 -147.5t198.5 -57.5
t198.5 57t123.5 147.5t40 200.5t-40 200.5t-123.5 147.5t-198.5 57z" />
    <glyph glyph-name="e" unicode="e" horiz-adv-x="1168" 
d="M584 98q183 0 330 124l88 -87q-150 -155 -418 -155q-149 0 -259.5 68t-167.5 186t-57 269t57 269t167.5 186t259.5 68q221 0 352.5 -148.5t131.5 -433.5h-819q4 -151 94.5 -248.5t240.5 -97.5zM249 562h670q-13 154 -99.5 250t-235.5 96t-235.5 -96t-99.5 -250z" />
    <glyph glyph-name="f" unicode="f" horiz-adv-x="859" 
d="M429 1006h304v-118h-304v-888h-141v888h-208v118h208v64q0 240 73 353t251 113q121 0 197 -36l-43 -107q-75 25 -144 25q-113 0 -153 -74.5t-40 -273.5v-64z" />
    <glyph glyph-name="g" unicode="g" 
d="M973 0v207q-57 -111 -157 -169t-205 -58q-124 0 -223 42t-161 114.5t-94.5 166t-32.5 200.5t32.5 200.5t94.5 166t161 114.5t223 42q105 0 205 -58t157 -169v207h141v-1006q0 -122 -30.5 -217.5t-79.5 -153.5t-116.5 -95.5t-134.5 -51.5t-142 -14q-128 0 -239.5 30.5
t-182.5 87.5l83 99q142 -95 339 -95q171 0 266.5 102.5t95.5 307.5zM611 908q-115 0 -198.5 -57.5t-123.5 -147.5t-40 -200t40 -200t123.5 -147.5t198.5 -57.5t198.5 57t123.5 147.5t40 200.5t-40 200.5t-123.5 147.5t-198.5 57z" />
    <glyph glyph-name="h" unicode="h" horiz-adv-x="1170" 
d="M281 560v-560h-141v1516h141v-675q31 75 107 130t197 55q215 0 330 -122.5t115 -343.5v-560h-141v560q0 162 -74.5 255t-229.5 93t-229.5 -93t-74.5 -255z" />
    <glyph glyph-name="i" unicode="i" horiz-adv-x="472" 
d="M166 0v1006h141v-1006h-141zM140 1297q0 40 28 68t68 28t68 -28t28 -68t-28 -68t-68 -28t-68 28t-28 68z" />
    <glyph glyph-name="j" unicode="j" horiz-adv-x="476" 
d="M-160 -495l42 110q70 -27 141 -27q34 0 59 11.5t41 36.5t25.5 52t14 71t6 80t1.5 92v1075h141v-1075q0 -95 -7 -163t-25.5 -127.5t-50.5 -95.5t-83 -56.5t-122 -20.5q-102 0 -183 37zM144 1297q0 40 28 68t68 28t68 -28t28 -68t-28 -68t-68 -28t-68 28t-28 68z" />
    <glyph glyph-name="k" unicode="k" horiz-adv-x="1061" 
d="M281 553l527 453h198l-469 -403l474 -603h-167l-406 518l-157 -135v-383h-141v1516h141v-963z" />
    <glyph glyph-name="l" unicode="l" horiz-adv-x="488" 
d="M140 225v1291h141v-1291q0 -27 1.5 -42.5t6 -32.5t16.5 -24.5t31 -7.5h52v-118h-52q-63 0 -104.5 20t-60 56t-25 70t-6.5 79z" />
    <glyph glyph-name="m" unicode="m" horiz-adv-x="1763" 
d="M140 0v1006h141v-143q30 79 101 121t164 42q251 0 349 -200q4 -7 5 -9q89 209 317 209q199 0 302.5 -124t103.5 -362v-540h-141v540q0 167 -65 267.5t-200 100.5t-200 -100.5t-65 -267.5v-540h-141v540q0 167 -65 267.5t-200 100.5t-200 -100.5t-65 -267.5v-540h-141z
" />
    <glyph glyph-name="n" unicode="n" horiz-adv-x="1170" 
d="M140 1006h141v-165q31 75 107 130t197 55q215 0 330 -122.5t115 -343.5v-560h-141v560q0 162 -74.5 255t-229.5 93t-229.5 -93t-74.5 -255v-560h-141v1006z" />
    <glyph glyph-name="o" unicode="o" 
d="M627 1026q240 0 383.5 -146t143.5 -377t-143.5 -377t-383.5 -146t-383.5 146t-143.5 377t143.5 377t383.5 146zM627 908q-181 0 -279.5 -113.5t-98.5 -291.5t98.5 -291.5t279.5 -113.5t279.5 113.5t98.5 291.5t-98.5 291.5t-279.5 113.5z" />
    <glyph glyph-name="p" unicode="p" 
d="M140 1006h141v-207q57 111 157 169t205 58q124 0 223 -42t161 -114.5t94.5 -166t32.5 -200.5t-32.5 -200.5t-94.5 -166t-161 -114.5t-223 -42q-105 0 -205 58t-157 169v-739h-141v1538zM643 98q115 0 198.5 57.5t123.5 147.5t40 200t-40 200t-123.5 147.5t-198.5 57.5
t-198.5 -57t-123.5 -147.5t-40 -200.5t40 -200.5t123.5 -147.5t198.5 -57z" />
    <glyph glyph-name="q" unicode="q" 
d="M973 1006h141v-1538h-141v739q-57 -111 -157 -169t-205 -58q-124 0 -223 42t-161 114.5t-94.5 166t-32.5 200.5t32.5 200.5t94.5 166t161 114.5t223 42q105 0 205 -58t157 -169v207zM611 98q115 0 198.5 57t123.5 147.5t40 200.5t-40 200.5t-123.5 147.5t-198.5 57
t-198.5 -57.5t-123.5 -147.5t-40 -200t40 -200t123.5 -147.5t198.5 -57.5z" />
    <glyph glyph-name="r" unicode="r" horiz-adv-x="858" 
d="M140 1006h141v-165q31 75 107 130t197 55q125 0 223 -45l-67 -107q-64 34 -156 34q-155 0 -229.5 -93t-74.5 -255v-560h-141v1006z" />
    <glyph glyph-name="s" unicode="s" horiz-adv-x="994" 
d="M854 936l-70 -100q-119 72 -297 72q-110 0 -174.5 -43t-64.5 -111q0 -64 61 -105t203 -67q212 -41 307 -108.5t95 -204.5q0 -139 -112 -214t-289 -75q-276 0 -433 125l70 100q164 -105 363 -105q111 0 183.5 43.5t72.5 125.5t-62 122.5t-219 69.5q-206 40 -295.5 110.5
t-89.5 182.5q0 118 98 195t286 77q235 0 367 -90z" />
    <glyph glyph-name="t" unicode="t" horiz-adv-x="842" 
d="M80 888v118h208v299h141v-299h304v-118h-304v-448q0 -66 1.5 -105.5t7 -83t16.5 -67t30.5 -45t48.5 -29.5t70 -8q63 0 123 20l36 -117q-63 -25 -159 -25q-60 0 -106 10t-79 27t-56.5 47.5t-38 64.5t-22 85.5t-10.5 102.5t-3 123v448h-208z" />
    <glyph glyph-name="u" unicode="u" horiz-adv-x="1170" 
d="M1030 0h-141v165q-15 -35 -38.5 -65t-59.5 -58.5t-89 -45t-117 -16.5q-215 0 -330 122.5t-115 343.5v560h141v-560q0 -162 74.5 -255t229.5 -93t229.5 93t74.5 255v560h141v-1006z" />
    <glyph glyph-name="v" unicode="v" horiz-adv-x="1090" 
d="M545 155l338 851h157l-420 -1006h-150l-420 1006h157z" />
    <glyph glyph-name="w" unicode="w" horiz-adv-x="1528" 
d="M449 206l248 800h134l248 -800l246 800h153l-335 -1006h-130l-249 802l-249 -802h-130l-335 1006h153z" />
    <glyph glyph-name="x" unicode="x" horiz-adv-x="1113" 
d="M556 435l-334 -435h-172l417 532l-375 474h172l292 -378l293 378h172l-375 -474l417 -532h-172z" />
    <glyph glyph-name="y" unicode="y" horiz-adv-x="1096" 
d="M548 155l338 851h160l-550 -1299q-42 -96 -60 -125q-72 -114 -204 -114q-106 0 -173 41l54 108q56 -27 102 -27q19 0 35 4t27.5 7.5t23 16t18 18.5t17 26t14 28t15.5 34.5t16 35.5l95 240l-426 1006h160z" />
    <glyph glyph-name="z" unicode="z" horiz-adv-x="1091" 
d="M120 0v70l641 818h-617v118h827v-69l-640 -819h640v-118h-851z" />
    <glyph glyph-name="braceleft" unicode="{" horiz-adv-x="860" 
d="M348 593q34 -14 64.5 -43t58.5 -76.5t44 -123t16 -168.5q0 -154 52 -237t157 -83v-130q-169 0 -263 117t-94 327q0 94 -17.5 159t-54.5 103.5t-81.5 58t-109.5 31.5v130q65 11 109.5 31t81 58.5t54.5 103.5t18 159q0 210 94 327t263 117v-130q-105 0 -157 -83t-52 -237
q0 -93 -16 -168.5t-44 -123t-58.5 -76.5t-64.5 -43z" />
    <glyph glyph-name="bar" unicode="|" horiz-adv-x="428" 
d="M140 -532v1966h148v-1966h-148z" />
    <glyph glyph-name="braceright" unicode="}" horiz-adv-x="860" 
d="M512 593q-76 31 -129.5 131t-53.5 280q0 154 -52.5 237t-156.5 83v130q169 0 263 -117t94 -327q0 -94 18 -159t54.5 -103.5t81 -58.5t109.5 -31v-130q-65 -12 -109.5 -31.5t-81.5 -58t-54.5 -103.5t-17.5 -159q0 -210 -94 -327t-263 -117v130q104 0 156.5 83t52.5 237
q0 180 53.5 280t129.5 131z" />
    <glyph glyph-name="asciitilde" unicode="~" horiz-adv-x="1062" 
d="M564 803q8 -8 28.5 -29.5t28.5 -28t24 -18.5t31.5 -16t34.5 -4q57 0 81 64q12 32 13 64h137q-7 -70 -35 -127q-63 -127 -196 -127q-21 0 -41 3t-35 7t-31.5 13t-25.5 14.5t-23.5 18t-20 17.5t-19.5 19.5t-17 17.5q-8 8 -24.5 25t-23.5 24t-21 18.5t-24 16t-24 8.5t-30 4
q-57 0 -81 -64q-12 -32 -13 -64h-137q7 70 35 127q65 127 196 127q21 0 41 -3.5t34.5 -7t31.5 -12.5t25.5 -14t24 -18.5t20 -17.5t19.5 -19.5t17 -17.5z" />
    <glyph glyph-name="uni00A0" unicode="&#xa0;" horiz-adv-x="573" 
 />
    <glyph glyph-name="exclamdown" unicode="&#xa1;" horiz-adv-x="472" 
d="M162 -532l10 1120h128l10 -1120h-148zM140 816q0 40 28 68t68 28t68 -28t28 -68t-28 -68t-68 -28t-68 28t-28 68z" />
    <glyph glyph-name="cent" unicode="&#xa2;" horiz-adv-x="1078" 
d="M249 503q0 -178 98.5 -291.5t279.5 -113.5q171 0 297 105l74 -95q-121 -114 -321 -126v-202h-132v205q-206 26 -325.5 167t-119.5 351t119.5 351t325.5 167v205h132v-202q197 -12 321 -127l-74 -94q-126 105 -297 105q-181 0 -279.5 -113.5t-98.5 -291.5z" />
    <glyph glyph-name="sterling" unicode="&#xa3;" horiz-adv-x="1320" 
d="M120 648v130h146q-13 67 -13 190q0 63 12 124.5t45.5 128.5t85 117.5t138.5 83t198 32.5q98 0 179 -22.5t137 -61t92.5 -82t59.5 -93.5l-114 -61q-17 30 -33 52t-46.5 50t-65.5 45.5t-89 30t-120 12.5q-73 0 -131 -20.5t-94.5 -55t-61 -81.5t-34.5 -96t-10 -103
q0 -73 13 -190h515v-130h-492q4 -28 15.5 -87.5t16.5 -98t5 -76.5q0 -105 -42 -191q-19 -39 -42 -65h799v-130h-984v104q35 39 60 84q61 100 61 198t-37 262h-169z" />
    <glyph glyph-name="currency" unicode="&#xa4;" horiz-adv-x="1128" 
d="M882 829l125 -125l-88 -87l-125 124q-104 -75 -231 -75t-231 75l-124 -124l-88 87l124 124q-75 104 -75 232q0 127 75 231l-124 125l88 87l124 -124q104 75 231 75q128 0 231 -76l126 126l88 -88l-126 -125q75 -104 75 -231t-75 -231zM287 1060q0 -114 81.5 -195.5
t195.5 -81.5t195.5 81.5t81.5 195.5t-81.5 195.5t-195.5 81.5t-195.5 -81.5t-81.5 -195.5z" />
    <glyph glyph-name="yen" unicode="&#xa5;" horiz-adv-x="1362" 
d="M279 238v124h328v112h-328v124h328l-557 836h173l458 -687l458 687h173l-557 -836h328v-124h-328v-112h328v-124h-328v-238h-148v238h-328z" />
    <glyph glyph-name="brokenbar" unicode="&#xa6;" horiz-adv-x="428" 
d="M140 619v815h148v-815h-148zM140 -532v782h148v-782h-148z" />
    <glyph glyph-name="section" unicode="&#xa7;" horiz-adv-x="1312" 
d="M159 1087q0 166 128 266.5t361 100.5q283 0 470 -120l-76 -111q-75 48 -179 74.5t-215 26.5q-157 0 -248 -59t-91 -178q0 -109 82 -167t289 -105q267 -60 389.5 -160.5t122.5 -283.5q0 -193 -136 -295q97 -93 97 -241q0 -166 -128 -266.5t-361 -100.5q-283 0 -470 120
l76 111q75 -48 179 -74.5t215 -26.5q157 0 248 59t91 178q0 108 -82 166t-289 106q-267 60 -389.5 160.5t-122.5 283.5q0 195 136 294q-97 91 -97 242zM1042 371q0 119 -83.5 186t-303.5 116q-171 37 -275 88q-110 -64 -110 -210q0 -119 83.5 -186t303.5 -116
q168 -38 274 -89q111 64 111 211z" />
    <glyph glyph-name="dieresis" unicode="&#xa8;" horiz-adv-x="805" 
d="M120 1297q0 40 28 68t68 28t68 -28t28 -68t-28 -68t-68 -28t-68 28t-28 68zM493 1297q0 40 28 68t68 28t68 -28t28 -68t-28 -68t-68 -28t-68 28t-28 68z" />
    <glyph glyph-name="copyright" unicode="&#xa9;" horiz-adv-x="1674" 
d="M554 717q0 -67 16.5 -124t50 -101.5t88.5 -70t126 -25.5q147 0 232 74l70 -87q-117 -105 -302 -105q-131 0 -228 59.5t-145.5 158t-48.5 221.5t48.5 221.5t145.5 158t228 59.5q185 0 302 -105l-70 -87q-85 74 -232 74q-71 0 -126 -25.5t-88.5 -70t-50 -101.5t-16.5 -124z
M100 717q0 150 58.5 286.5t157 235t235 157t286.5 58.5t286.5 -58.5t235 -157t157 -235t58.5 -286.5t-58.5 -286.5t-157 -235t-235 -157t-286.5 -58.5t-286.5 58.5t-235 157t-157 235t-58.5 286.5zM230 717q0 -124 48 -236.5t129 -193.5t193.5 -129t236.5 -48t236.5 48
t193.5 129t129 193.5t48 236.5t-48 236.5t-129 193.5t-193.5 129t-236.5 48t-236.5 -48t-193.5 -129t-129 -193.5t-48 -236.5z" />
    <glyph glyph-name="ordfeminine" unicode="&#xaa;" horiz-adv-x="654" 
d="M355 1334q-101 0 -186 -50l-47 96q100 64 233 64q61 0 105 -18t67.5 -43.5t37 -65.5t16.5 -72t3 -76v-353h-114v86q-23 -48 -68 -72.5t-97 -24.5q-106 0 -170.5 51t-64.5 152q0 56 24.5 97.5t64.5 63t92.5 35t108 13t110.5 -3.5q0 66 -26 93.5t-89 27.5zM187 1008
q0 -40 29.5 -66.5t88.5 -26.5q74 0 119.5 53t45.5 111v39q-283 17 -283 -110z" />
    <glyph glyph-name="guillemotleft" unicode="&#xab;" horiz-adv-x="1424" 
d="M752 978l-481 -372l481 -372v-169l-632 492v98l632 492v-169zM1284 978l-481 -372l481 -372v-169l-632 492v98l632 492v-169z" />
    <glyph glyph-name="logicalnot" unicode="&#xac;" horiz-adv-x="1195" 
d="M120 668v131h955v-521h-147v390h-808z" />
    <glyph glyph-name="uni00AD" unicode="&#xad;" horiz-adv-x="1008" 
d="M120 566v130h768v-130h-768z" />
    <glyph glyph-name="registered" unicode="&#xae;" horiz-adv-x="1084" 
d="M178 1012q0 -151 106.5 -257.5t257.5 -106.5t257.5 106.5t106.5 257.5t-106.5 257.5t-257.5 106.5t-257.5 -106.5t-106.5 -257.5zM100 1012q0 183 129.5 312.5t312.5 129.5q182 0 312 -130t130 -312q0 -183 -129.5 -312.5t-312.5 -129.5q-184 0 -313 129t-129 313z
M470 780h-76v473h186q72 0 106 -42t34 -104q0 -50 -22.5 -88.5t-73.5 -47.5l101 -191h-83l-97 183h-75v-183zM580 1186h-110v-156h110q33 0 48.5 22t15.5 55q0 79 -64 79z" />
    <glyph glyph-name="overscore" unicode="&#xaf;" horiz-adv-x="895" 
d="M100 1316v118h695v-118h-695z" />
    <glyph glyph-name="degree" unicode="&#xb0;" horiz-adv-x="565" 
d="M50 1221q0 96 68 164.5t164 68.5q98 0 165.5 -68t67.5 -165q0 -98 -67.5 -165t-165.5 -67q-97 0 -164.5 67.5t-67.5 164.5zM161 1221q0 -50 35.5 -85.5t85.5 -35.5t85.5 35.5t35.5 85.5t-35.5 85.5t-85.5 35.5t-85.5 -35.5t-35.5 -85.5z" />
    <glyph glyph-name="plusminus" unicode="&#xb1;" horiz-adv-x="1176" 
d="M1056 282v-135h-936v135h936zM1056 898v-135h-400v-400h-136v400h-400v135h400v400h136v-400h400z" />
    <glyph glyph-name="twosuperior" unicode="&#xb2;" horiz-adv-x="564" 
d="M162 1249l-87 47q7 20 18.5 40.5t35 47.5t64 43.5t91.5 16.5q90 0 143 -49t53 -133q0 -39 -17 -78t-34.5 -61.5t-49.5 -57.5q-35 -38 -79 -87q-27 -30 -57 -63h251v-99h-424v64q49 52 110 121q23 25 53 58.5t48 53t23 24.5q66 72 66 125q0 39 -22.5 61t-63.5 22
q-27 0 -48.5 -9.5t-37 -29t-21.5 -29t-15 -28.5z" />
    <glyph glyph-name="threesuperior" unicode="&#xb3;" horiz-adv-x="567" 
d="M70 912l85 56q43 -63 127 -63q47 0 74 25t27 62q0 51 -45 70t-132 19v99q81 0 120.5 20.5t39.5 71.5q0 73 -78 73q-43 0 -72 -17.5t-40 -41.5l-85 56q59 102 197 102q89 0 140.5 -46.5t51.5 -125.5q0 -54 -27 -88t-64 -48q108 -35 108 -144q0 -88 -60.5 -137t-154.5 -49
q-150 0 -212 106z" />
    <glyph glyph-name="acute" unicode="&#xb4;" horiz-adv-x="649" 
d="M100 1142l261 292h188l-297 -292h-152z" />
    <glyph glyph-name="mu" unicode="&#xb5;" horiz-adv-x="1170" 
d="M585 -20q-115 0 -195 56t-109 129v-697h-141v1538h141v-560q0 -157 80.5 -252.5t223.5 -95.5t223.5 95.5t80.5 252.5v560h141v-1006h-141v165q-33 -74 -110.5 -129.5t-193.5 -55.5z" />
    <glyph glyph-name="paragraph" unicode="&#xb6;" horiz-adv-x="1258" 
d="M499 1434h639v-130h-116v-1304h-145v1304h-105v-1304h-145v644h-128q-94 0 -167.5 32.5t-119 88t-69 125.5t-23.5 149t23.5 148.5t68.5 125.5t119 88.5t168 32.5zM627 1304h-128q-80 0 -134 -40t-75.5 -97.5t-21.5 -127.5q0 -111 57 -188t174 -77h128v530z" />
    <glyph glyph-name="middot" unicode="&#xb7;" horiz-adv-x="433" 
d="M120 659q0 39 29 68t68 29q38 0 67 -29.5t29 -67.5q0 -39 -29 -68t-67 -29q-40 0 -68.5 29t-28.5 68z" />
    <glyph glyph-name="cedilla" unicode="&#xb8;" horiz-adv-x="616" 
d="M100 -421l48 85q32 -15 71 -24t80 -9.5t71 19.5t36 62q2 19 -2.5 34t-16.5 24t-24.5 15.5t-34.5 8t-37.5 2.5t-41 -1t-38 -3.5t-36.5 -4.5l92 259h114l-58 -166q90 0 145 -43t47 -125q-7 -74 -53.5 -119t-110 -55.5t-131.5 0t-120 41.5z" />
    <glyph glyph-name="onesuperior" unicode="&#xb9;" horiz-adv-x="388" 
d="M150 1190l-80 82l173 162h75v-618h-114v424z" />
    <glyph glyph-name="ordmasculine" unicode="&#xba;" horiz-adv-x="742" 
d="M672 1125q0 -141 -83 -230t-218 -89t-218 89t-83 230t83 230t218 89t218 -89t83 -230zM558 1125q0 95 -46.5 157.5t-140.5 62.5t-140.5 -62.5t-46.5 -157.5t46.5 -157.5t140.5 -62.5t140.5 62.5t46.5 157.5z" />
    <glyph glyph-name="guillemotright" unicode="&#xbb;" horiz-adv-x="1424" 
d="M1153 606l-481 372v169l632 -492v-98l-632 -492v169zM621 606l-481 372v169l632 -492v-98l-632 -492v169z" />
    <glyph glyph-name="onequarter" unicode="&#xbc;" horiz-adv-x="1385" 
d="M1164 0h-127v159h-341v92l354 470h114v-439h101v-123h-101v-159zM867 282h170v226zM209 1151l-89 93l203 190h89v-721h-127v509zM206 0l825 1434h147l-824 -1434h-148z" />
    <glyph glyph-name="onehalf" unicode="&#xbd;" horiz-adv-x="1487" 
d="M206 0l825 1434h147l-824 -1434h-148zM977 493l-114 45q7 24 16 46t29.5 52t46.5 52t68.5 37.5t93.5 15.5q97 0 165.5 -57t68.5 -159q0 -63 -30 -116t-85 -111l-169 -175h300v-123h-506v88l277 288q86 90 86 149q0 93 -107 93q-28 0 -51.5 -10.5t-37 -23.5t-26 -34
t-16 -31t-9.5 -26zM209 1151l-89 93l203 190h89v-721h-127v509z" />
    <glyph glyph-name="threequarters" unicode="&#xbe;" horiz-adv-x="1479" 
d="M300 0l825 1434h147l-824 -1434h-148zM1258 0h-127v159h-341v92l354 470h114v-439h101v-123h-101v-159zM961 282h170v226zM120 823l111 59q49 -66 149 -66q57 0 86.5 26t29.5 74q0 20 -6.5 35t-14.5 24.5t-25.5 16.5t-29.5 10t-37.5 5t-38.5 2h-42h-14v123q80 0 136.5 25
t56.5 83q0 42 -27 66.5t-74 24.5q-94 0 -133 -74l-111 59q78 138 244 138q101 0 164.5 -58t63.5 -156q0 -112 -101 -159q46 -14 81 -56.5t35 -108.5q0 -113 -69.5 -168t-173.5 -55q-108 0 -171.5 39.5t-88.5 90.5z" />
    <glyph glyph-name="questiondown" unicode="&#xbf;" horiz-adv-x="974" 
d="M629 816q0 -40 -28 -68t-68 -28t-68 28t-28 68t28 68t68 28t68 -28t28 -68zM836 -229l118 -68q-15 -30 -34.5 -58.5t-58.5 -66t-86 -64.5t-119 -46.5t-156 -19.5q-124 0 -219.5 32t-150.5 87t-82.5 121t-27.5 141q0 338 439 406v353h148v-456q-90 -2 -167 -20t-139 -53
t-97.5 -93.5t-35.5 -136.5q0 -117 85 -184t247 -67q59 0 111 15t85 34t64 49.5t45.5 49.5t30.5 45z" />
    <glyph glyph-name="Agrave" unicode="&#xc0;" horiz-adv-x="1430" 
d="M390 439l-182 -439h-158l604 1434h122l604 -1434h-158l-182 439h-650zM715 1223l-271 -652h541zM529 1828l261 -292h-152l-297 292h188z" />
    <glyph glyph-name="Aacute" unicode="&#xc1;" horiz-adv-x="1430" 
d="M390 439l-182 -439h-158l604 1434h122l604 -1434h-158l-182 439h-650zM715 1223l-271 -652h541zM643 1536l261 292h188l-297 -292h-152z" />
    <glyph glyph-name="Acircumflex" unicode="&#xc2;" horiz-adv-x="1430" 
d="M390 439l-182 -439h-158l604 1434h122l604 -1434h-158l-182 439h-650zM715 1223l-271 -652h541zM399 1536l270 312h94l270 -312h-139l-178 187l-179 -187h-138z" />
    <glyph glyph-name="Atilde" unicode="&#xc3;" horiz-adv-x="1430" 
d="M390 439l-182 -439h-158l604 1434h122l604 -1434h-158l-182 439h-650zM715 1223l-271 -652h541zM676 1619q-2 2 -11.5 12.5t-14.5 14.5t-14 10.5t-18 9.5t-19 3q-26 0 -36 -42q-4 -18 -6 -41h-130q3 56 21 103q42 103 151 103q80 0 156 -83q2 -2 11.5 -12.5t14.5 -14.5
t14 -10.5t18 -9.5t19 -3q22 0 36 41q4 18 6 42h130q-3 -58 -21 -103q-41 -103 -151 -103q-80 0 -156 83z" />
    <glyph glyph-name="Adieresis" unicode="&#xc4;" horiz-adv-x="1430" 
d="M390 439l-182 -439h-158l604 1434h122l604 -1434h-158l-182 439h-650zM715 1223l-271 -652h541zM433 1652q0 40 28 68t68 28t68 -28t28 -68t-28 -68t-68 -28t-68 28t-28 68zM806 1652q0 40 28 68t68 28t68 -28t28 -68t-28 -68t-68 -28t-68 28t-28 68z" />
    <glyph glyph-name="Aring" unicode="&#xc5;" horiz-adv-x="1430" 
d="M390 439l-182 -439h-158l604 1434h122l604 -1434h-158l-182 439h-650zM715 1223l-271 -652h541zM530 1721q0 76 55 130.5t130 54.5q76 0 130.5 -54.5t54.5 -130.5q0 -75 -54.5 -130t-130.5 -55q-75 0 -130 55t-55 130zM626 1721q0 -37 26 -63t63 -26t63 26t26 63t-26 63
t-63 26t-63 -26t-26 -63z" />
    <glyph glyph-name="AE" unicode="&#xc6;" horiz-adv-x="2092" 
d="M1162 798h753v-130h-753v-539h810v-129h-958v483h-466l-325 -483h-173l963 1434h949v-130h-800v-506zM1014 1178l-379 -565h379v565z" />
    <glyph glyph-name="Ccedilla" unicode="&#xc7;" horiz-adv-x="1363" 
d="M577 -421l48 85q32 -15 71 -24t80 -9.5t71 19.5t36 62q2 19 -2.5 34t-16.5 24t-24.5 15.5t-34.5 8t-37.5 2.5t-41 -1t-38 -3.5t-36.5 -4.5l70 197q-149 15 -268 78t-196 162t-117.5 224.5t-40.5 268.5q0 152 46.5 285t133.5 234t223 159.5t304 58.5q295 0 476 -138
l-79 -108q-176 116 -397 116q-136 0 -243.5 -47.5t-174.5 -131.5t-102 -192.5t-35 -235.5t35 -235.5t102 -192.5t174.5 -131.5t243.5 -47.5q221 0 397 116l79 -108q-173 -132 -448 -137l-35 -101q90 0 145 -43t47 -125q-7 -74 -53.5 -119t-110 -55.5t-131.5 0t-120 41.5z
" />
    <glyph glyph-name="Egrave" unicode="&#xc8;" horiz-adv-x="1219" 
d="M288 798h753v-130h-753v-538h811v-130h-959v1434h949v-130h-801v-506zM433 1828l261 -292h-152l-297 292h188z" />
    <glyph glyph-name="Eacute" unicode="&#xc9;" horiz-adv-x="1219" 
d="M288 798h753v-130h-753v-538h811v-130h-959v1434h949v-130h-801v-506zM521 1536l261 292h188l-297 -292h-152z" />
    <glyph glyph-name="Ecircumflex" unicode="&#xca;" horiz-adv-x="1219" 
d="M288 798h753v-130h-753v-538h811v-130h-959v1434h949v-130h-801v-506zM292 1536l270 312h94l270 -312h-139l-178 187l-179 -187h-138z" />
    <glyph glyph-name="Edieresis" unicode="&#xcb;" horiz-adv-x="1219" 
d="M288 798h753v-130h-753v-538h811v-130h-959v1434h949v-130h-801v-506zM337 1652q0 40 28 68t68 28t68 -28t28 -68t-28 -68t-68 -28t-68 28t-28 68zM710 1652q0 40 28 68t68 28t68 -28t28 -68t-28 -68t-68 -28t-68 28t-28 68z" />
    <glyph glyph-name="Igrave" unicode="&#xcc;" horiz-adv-x="429" 
d="M137 0v1434h148v-1434h-148zM28 1828l261 -292h-152l-297 292h188z" />
    <glyph glyph-name="Iacute" unicode="&#xcd;" horiz-adv-x="461" 
d="M140 0v1434h148v-1434h-148zM142 1536l261 292h188l-297 -292h-152z" />
    <glyph glyph-name="Icircumflex" unicode="&#xce;" horiz-adv-x="614" 
d="M232 0v1434h148v-1434h-148zM-10 1536l270 312h94l270 -312h-139l-178 187l-179 -187h-138z" />
    <glyph glyph-name="Idieresis" unicode="&#xcf;" horiz-adv-x="665" 
d="M258 0v1434h148v-1434h-148zM50 1652q0 40 28 68t68 28t68 -28t28 -68t-28 -68t-68 -28t-68 28t-28 68zM423 1652q0 40 28 68t68 28t68 -28t28 -68t-28 -68t-68 -28t-68 28t-28 68z" />
    <glyph glyph-name="Eth" unicode="&#xd0;" horiz-adv-x="1539" 
d="M70 652v126h211v656h458q180 0 316 -53.5t219 -151t124 -226t41 -286.5t-41 -286.5t-124 -226t-219 -151t-316 -53.5h-458v652h-211zM429 652v-522h310q147 0 255.5 45t171 126.5t92 184.5t29.5 231t-29.5 231t-92 184.5t-171 126.5t-255.5 45h-310v-526h330v-126h-330z
" />
    <glyph glyph-name="Ntilde" unicode="&#xd1;" horiz-adv-x="1410" 
d="M140 0v1434h181l801 -1227v1227h148v-1434h-181l-801 1227v-1227h-148zM666 1619q-2 2 -11.5 12.5t-14.5 14.5t-14 10.5t-18 9.5t-19 3q-26 0 -36 -42q-4 -18 -6 -41h-130q3 56 21 103q42 103 151 103q80 0 156 -83q2 -2 11.5 -12.5t14.5 -14.5t14 -10.5t18 -9.5t19 -3
q22 0 36 41q4 18 6 42h130q-3 -58 -21 -103q-41 -103 -151 -103q-80 0 -156 83z" />
    <glyph glyph-name="Ograve" unicode="&#xd2;" horiz-adv-x="1614" 
d="M807 -20q-168 0 -304 58.5t-223 159.5t-133.5 234t-46.5 285t46.5 285t133.5 234t223 159.5t304 58.5t304 -58.5t223 -159.5t133.5 -234t46.5 -285t-46.5 -285t-133.5 -234t-223 -159.5t-304 -58.5zM807 110q136 0 243.5 47.5t174.5 131.5t102 192.5t35 235.5t-35 235.5
t-102 192.5t-174.5 131.5t-243.5 47.5t-243.5 -47.5t-174.5 -131.5t-102 -192.5t-35 -235.5t35 -235.5t102 -192.5t174.5 -131.5t243.5 -47.5zM630 1828l261 -292h-152l-297 292h188z" />
    <glyph glyph-name="Oacute" unicode="&#xd3;" horiz-adv-x="1614" 
d="M807 -20q-168 0 -304 58.5t-223 159.5t-133.5 234t-46.5 285t46.5 285t133.5 234t223 159.5t304 58.5t304 -58.5t223 -159.5t133.5 -234t46.5 -285t-46.5 -285t-133.5 -234t-223 -159.5t-304 -58.5zM807 110q136 0 243.5 47.5t174.5 131.5t102 192.5t35 235.5t-35 235.5
t-102 192.5t-174.5 131.5t-243.5 47.5t-243.5 -47.5t-174.5 -131.5t-102 -192.5t-35 -235.5t35 -235.5t102 -192.5t174.5 -131.5t243.5 -47.5zM728 1536l261 292h188l-297 -292h-152z" />
    <glyph glyph-name="Ocircumflex" unicode="&#xd4;" horiz-adv-x="1614" 
d="M807 -20q-168 0 -304 58.5t-223 159.5t-133.5 234t-46.5 285t46.5 285t133.5 234t223 159.5t304 58.5t304 -58.5t223 -159.5t133.5 -234t46.5 -285t-46.5 -285t-133.5 -234t-223 -159.5t-304 -58.5zM807 110q136 0 243.5 47.5t174.5 131.5t102 192.5t35 235.5t-35 235.5
t-102 192.5t-174.5 131.5t-243.5 47.5t-243.5 -47.5t-174.5 -131.5t-102 -192.5t-35 -235.5t35 -235.5t102 -192.5t174.5 -131.5t243.5 -47.5zM490 1536l270 312h94l270 -312h-139l-178 187l-179 -187h-138z" />
    <glyph glyph-name="Otilde" unicode="&#xd5;" horiz-adv-x="1614" 
d="M807 -20q-168 0 -304 58.5t-223 159.5t-133.5 234t-46.5 285t46.5 285t133.5 234t223 159.5t304 58.5t304 -58.5t223 -159.5t133.5 -234t46.5 -285t-46.5 -285t-133.5 -234t-223 -159.5t-304 -58.5zM807 110q136 0 243.5 47.5t174.5 131.5t102 192.5t35 235.5t-35 235.5
t-102 192.5t-174.5 131.5t-243.5 47.5t-243.5 -47.5t-174.5 -131.5t-102 -192.5t-35 -235.5t35 -235.5t102 -192.5t174.5 -131.5t243.5 -47.5zM767 1619q-2 2 -11.5 12.5t-14.5 14.5t-14 10.5t-18 9.5t-19 3q-26 0 -36 -42q-4 -18 -6 -41h-130q3 56 21 103q42 103 151 103
q80 0 156 -83q2 -2 11.5 -12.5t14.5 -14.5t14 -10.5t18 -9.5t19 -3q22 0 36 41q5 18 6 42h130q-3 -58 -21 -103q-41 -103 -151 -103q-80 0 -156 83z" />
    <glyph glyph-name="Odieresis" unicode="&#xd6;" horiz-adv-x="1614" 
d="M807 -20q-168 0 -304 58.5t-223 159.5t-133.5 234t-46.5 285t46.5 285t133.5 234t223 159.5t304 58.5t304 -58.5t223 -159.5t133.5 -234t46.5 -285t-46.5 -285t-133.5 -234t-223 -159.5t-304 -58.5zM807 110q136 0 243.5 47.5t174.5 131.5t102 192.5t35 235.5t-35 235.5
t-102 192.5t-174.5 131.5t-243.5 47.5t-243.5 -47.5t-174.5 -131.5t-102 -192.5t-35 -235.5t35 -235.5t102 -192.5t174.5 -131.5t243.5 -47.5zM524 1652q0 40 28 68t68 28t68 -28t28 -68t-28 -68t-68 -28t-68 28t-28 68zM897 1652q0 40 28 68t68 28t68 -28t28 -68t-28 -68
t-68 -28t-68 28t-28 68z" />
    <glyph glyph-name="multiply" unicode="&#xd7;" horiz-adv-x="997" 
d="M120 946l95 96l283 -283l283 283l96 -97l-283 -282l283 -283l-95 -96l-283 283l-283 -283l-96 97l283 282z" />
    <glyph glyph-name="Oslash" unicode="&#xd8;" horiz-adv-x="1614" 
d="M807 -20q-143 0 -260 41l-39 -82h-152l67 140q-156 94 -239.5 262.5t-83.5 375.5q0 152 46.5 285t133.5 234t223 159.5t304 58.5q139 0 259 -42l40 83h151l-67 -140q157 -95 240.5 -263.5t83.5 -374.5q0 -152 -46.5 -285t-133.5 -234t-223 -159.5t-304 -58.5zM807 110
q136 0 243.5 47.5t174.5 131.5t102 192.5t35 235.5q0 166 -58.5 300t-173.5 215l-525 -1091q93 -31 202 -31zM807 1324q-136 0 -243.5 -47.5t-174.5 -131.5t-102 -192.5t-35 -235.5q0 -167 58.5 -301.5t172.5 -213.5l525 1091q-90 31 -201 31z" />
    <glyph glyph-name="Ugrave" unicode="&#xd9;" horiz-adv-x="1429" 
d="M715 110q218 0 322 125.5t104 377.5v821h148v-821q0 -308 -146 -470.5t-428 -162.5q-283 0 -429 162.5t-146 470.5v821h148v-821q0 -253 104 -378t323 -125zM568 1828l261 -292h-152l-297 292h188z" />
    <glyph glyph-name="Uacute" unicode="&#xda;" horiz-adv-x="1429" 
d="M715 110q218 0 322 125.5t104 377.5v821h148v-821q0 -308 -146 -470.5t-428 -162.5q-283 0 -429 162.5t-146 470.5v821h148v-821q0 -253 104 -378t323 -125zM616 1536l261 292h188l-297 -292h-152z" />
    <glyph glyph-name="Ucircumflex" unicode="&#xdb;" horiz-adv-x="1429" 
d="M715 110q218 0 322 125.5t104 377.5v821h148v-821q0 -308 -146 -470.5t-428 -162.5q-283 0 -429 162.5t-146 470.5v821h148v-821q0 -253 104 -378t323 -125zM397 1536l270 312h94l270 -312h-139l-178 187l-179 -187h-138z" />
    <glyph glyph-name="Udieresis" unicode="&#xdc;" horiz-adv-x="1429" 
d="M715 110q218 0 322 125.5t104 377.5v821h148v-821q0 -308 -146 -470.5t-428 -162.5q-283 0 -429 162.5t-146 470.5v821h148v-821q0 -253 104 -378t323 -125zM432 1652q0 40 28 68t68 28t68 -28t28 -68t-28 -68t-68 -28t-68 28t-28 68zM805 1652q0 40 28 68t68 28t68 -28
t28 -68t-28 -68t-68 -28t-68 28t-28 68z" />
    <glyph glyph-name="Yacute" unicode="&#xdd;" horiz-adv-x="1362" 
d="M223 1434l458 -687l458 687h173l-557 -836v-598h-148v598l-557 836h173zM583 1536l261 292h188l-297 -292h-152z" />
    <glyph glyph-name="Thorn" unicode="&#xde;" horiz-adv-x="1022" 
d="M140 0v1434h148v-316h247q190 0 288.5 -110t98.5 -291q0 -180 -99 -290.5t-288 -110.5h-247v-316h-148zM535 988h-247v-542h247q118 0 178.5 72.5t60.5 198.5q0 127 -60.5 199t-178.5 72z" />
    <glyph glyph-name="germandbls" unicode="&#xdf;" 
d="M397 58v139q135 -87 314 -87q295 0 295 283q0 146 -82.5 219.5t-230.5 73.5h-210v130h208q123 0 191 69.5t68 168.5q0 127 -85 198.5t-250 71.5q-30 0 -54.5 -2.5t-60 -12.5t-63 -27t-56.5 -50t-48.5 -77.5t-32 -112.5t-12.5 -153v-889h-148v889q0 111 19 200t48.5 146.5
t73.5 100.5t84 65t91 34.5t85 15.5t74 3q232 0 357.5 -113t125.5 -287q0 -111 -52.5 -186t-136.5 -110q245 -96 245 -365q0 -189 -114.5 -301t-328.5 -112q-204 0 -314 78z" />
    <glyph glyph-name="agrave" unicode="&#xe0;" horiz-adv-x="1119" 
d="M394 1434l261 -292h-152l-297 292h188zM580 908q-76 0 -168 -23.5t-159 -61.5l-57 106q72 46 173.5 71.5t210.5 25.5q104 0 178 -22t116.5 -57.5t66.5 -94.5t31 -117.5t7 -142.5v-592h-141v193q-89 -213 -347 -213q-180 0 -285.5 82.5t-105.5 242.5q0 83 34 147t93 102
t132 62t158.5 31.5t163.5 6t157 -11.5q-1 46 -4 76.5t-12.5 64t-27 54t-45 38t-70 25.5t-99.5 8zM247 305q0 -93 60.5 -150t183.5 -57q87 0 154.5 27.5t109 74.5t62.5 105.5t21 124.5v107q-64 7 -128.5 8t-132.5 -4.5t-126 -22.5t-104.5 -43.5t-73 -70t-26.5 -99.5z" />
    <glyph glyph-name="aacute" unicode="&#xe1;" horiz-adv-x="1119" 
d="M479 1142l261 292h188l-297 -292h-152zM580 908q-76 0 -168 -23.5t-159 -61.5l-57 106q72 46 173.5 71.5t210.5 25.5q104 0 178 -22t116.5 -57.5t66.5 -94.5t31 -117.5t7 -142.5v-592h-141v193q-89 -213 -347 -213q-180 0 -285.5 82.5t-105.5 242.5q0 83 34 147t93 102
t132 62t158.5 31.5t163.5 6t157 -11.5q-1 46 -4 76.5t-12.5 64t-27 54t-45 38t-70 25.5t-99.5 8zM247 305q0 -93 60.5 -150t183.5 -57q87 0 154.5 27.5t109 74.5t62.5 105.5t21 124.5v107q-64 7 -128.5 8t-132.5 -4.5t-126 -22.5t-104.5 -43.5t-73 -70t-26.5 -99.5z" />
    <glyph glyph-name="acircumflex" unicode="&#xe2;" horiz-adv-x="1119" 
d="M262 1122l270 312h94l270 -312h-139l-178 187l-179 -187h-138zM580 908q-76 0 -168 -23.5t-159 -61.5l-57 106q72 46 173.5 71.5t210.5 25.5q104 0 178 -22t116.5 -57.5t66.5 -94.5t31 -117.5t7 -142.5v-592h-141v193q-89 -213 -347 -213q-180 0 -285.5 82.5
t-105.5 242.5q0 83 34 147t93 102t132 62t158.5 31.5t163.5 6t157 -11.5q-1 46 -4 76.5t-12.5 64t-27 54t-45 38t-70 25.5t-99.5 8zM247 305q0 -93 60.5 -150t183.5 -57q87 0 154.5 27.5t109 74.5t62.5 105.5t21 124.5v107q-64 7 -128.5 8t-132.5 -4.5t-126 -22.5
t-104.5 -43.5t-73 -70t-26.5 -99.5z" />
    <glyph glyph-name="atilde" unicode="&#xe3;" horiz-adv-x="1119" 
d="M533 1261q-2 2 -11.5 12.5t-14.5 14.5t-14 10.5t-18 9.5t-19 3q-26 0 -36 -42q-4 -18 -6 -41h-130q3 56 21 103q42 103 151 103q80 0 156 -83q2 -2 11.5 -12.5t14.5 -14.5t14 -10.5t18 -9.5t19 -3q22 0 36 41q5 18 6 42h130q-3 -58 -21 -103q-41 -103 -151 -103
q-80 0 -156 83zM580 908q-76 0 -168 -23.5t-159 -61.5l-57 106q72 46 173.5 71.5t210.5 25.5q104 0 178 -22t116.5 -57.5t66.5 -94.5t31 -117.5t7 -142.5v-592h-141v193q-89 -213 -347 -213q-180 0 -285.5 82.5t-105.5 242.5q0 83 34 147t93 102t132 62t158.5 31.5t163.5 6
t157 -11.5q-1 46 -4 76.5t-12.5 64t-27 54t-45 38t-70 25.5t-99.5 8zM247 305q0 -93 60.5 -150t183.5 -57q87 0 154.5 27.5t109 74.5t62.5 105.5t21 124.5v107q-64 7 -128.5 8t-132.5 -4.5t-126 -22.5t-104.5 -43.5t-73 -70t-26.5 -99.5z" />
    <glyph glyph-name="adieresis" unicode="&#xe4;" horiz-adv-x="1119" 
d="M307 1297q0 40 28 68t68 28t68 -28t28 -68t-28 -68t-68 -28t-68 28t-28 68zM680 1297q0 40 28 68t68 28t68 -28t28 -68t-28 -68t-68 -28t-68 28t-28 68zM580 908q-76 0 -168 -23.5t-159 -61.5l-57 106q72 46 173.5 71.5t210.5 25.5q104 0 178 -22t116.5 -57.5t66.5 -94.5
t31 -117.5t7 -142.5v-592h-141v193q-89 -213 -347 -213q-180 0 -285.5 82.5t-105.5 242.5q0 83 34 147t93 102t132 62t158.5 31.5t163.5 6t157 -11.5q-1 46 -4 76.5t-12.5 64t-27 54t-45 38t-70 25.5t-99.5 8zM247 305q0 -93 60.5 -150t183.5 -57q87 0 154.5 27.5t109 74.5
t62.5 105.5t21 124.5v107q-64 7 -128.5 8t-132.5 -4.5t-126 -22.5t-104.5 -43.5t-73 -70t-26.5 -99.5z" />
    <glyph glyph-name="aring" unicode="&#xe5;" horiz-adv-x="1119" 
d="M412 1309q0 76 55 130.5t130 54.5q76 0 130.5 -54.5t54.5 -130.5q0 -75 -54.5 -130t-130.5 -55q-75 0 -130 55t-55 130zM508 1309q0 -37 26 -63t63 -26t63 26t26 63t-26 63t-63 26t-63 -26t-26 -63zM580 908q-76 0 -168 -23.5t-159 -61.5l-57 106q72 46 173.5 71.5
t210.5 25.5q104 0 178 -22t116.5 -57.5t66.5 -94.5t31 -117.5t7 -142.5v-592h-141v193q-89 -213 -347 -213q-180 0 -285.5 82.5t-105.5 242.5q0 83 34 147t93 102t132 62t158.5 31.5t163.5 6t157 -11.5q-1 46 -4 76.5t-12.5 64t-27 54t-45 38t-70 25.5t-99.5 8zM247 305
q0 -93 60.5 -150t183.5 -57q87 0 154.5 27.5t109 74.5t62.5 105.5t21 124.5v107q-64 7 -128.5 8t-132.5 -4.5t-126 -22.5t-104.5 -43.5t-73 -70t-26.5 -99.5z" />
    <glyph glyph-name="ae" unicode="&#xe6;" horiz-adv-x="1906" 
d="M1322 98q187 0 331 122l87 -85q-150 -155 -418 -155q-137 0 -240 56t-165 158q-155 -214 -426 -214q-180 0 -285.5 82.5t-105.5 242.5q0 83 34 147t93 102t132 62t158.5 31.5t163.5 6t157 -11.5q-1 46 -4 76.5t-12.5 64t-27 54t-45 38t-70 25.5t-99.5 8q-76 0 -168 -23.5
t-159 -61.5l-57 106q72 46 173.5 71.5t210.5 25.5q154 0 240 -45.5t122 -131.5q134 177 380 177q221 0 352.5 -148.5t131.5 -433.5h-819q4 -151 94.5 -248.5t240.5 -97.5zM247 305q0 -93 60.5 -150t183.5 -57q87 0 154.5 27.5t109 74.5t62.5 105.5t21 124.5v107
q-64 7 -128.5 8t-132.5 -4.5t-126 -22.5t-104.5 -43.5t-73 -70t-26.5 -99.5zM987 562h670q-13 154 -99.5 250t-235.5 96t-235.5 -96t-99.5 -250z" />
    <glyph glyph-name="ccedilla" unicode="&#xe7;" horiz-adv-x="1078" 
d="M391 -421l48 85q32 -15 71 -24t80 -9.5t71 19.5t36 62q2 19 -2.5 34t-16.5 24t-24.5 15.5t-34.5 8t-37.5 2.5t-41 -1t-38 -3.5t-36.5 -4.5l70 199q-202 28 -319 168.5t-117 348.5q0 231 143.5 377t383.5 146q230 0 371 -129l-74 -94q-126 105 -297 105
q-181 0 -279.5 -113.5t-98.5 -291.5t98.5 -291.5t279.5 -113.5q171 0 297 105l74 -95q-134 -122 -349 -128l-35 -100q90 0 145 -43t47 -125q-7 -74 -53.5 -119t-110 -55.5t-131.5 0t-120 41.5z" />
    <glyph glyph-name="egrave" unicode="&#xe8;" horiz-adv-x="1168" 
d="M584 98q183 0 330 124l88 -87q-150 -155 -418 -155q-149 0 -259.5 68t-167.5 186t-57 269t57 269t167.5 186t259.5 68q221 0 352.5 -148.5t131.5 -433.5h-819q4 -151 94.5 -248.5t240.5 -97.5zM249 562h670q-13 154 -99.5 250t-235.5 96t-235.5 -96t-99.5 -250zM418 1434
l261 -292h-152l-297 292h188z" />
    <glyph glyph-name="eacute" unicode="&#xe9;" horiz-adv-x="1168" 
d="M584 98q183 0 330 124l88 -87q-150 -155 -418 -155q-149 0 -259.5 68t-167.5 186t-57 269t57 269t167.5 186t259.5 68q221 0 352.5 -148.5t131.5 -433.5h-819q4 -151 94.5 -248.5t240.5 -97.5zM249 562h670q-13 154 -99.5 250t-235.5 96t-235.5 -96t-99.5 -250zM498 1142
l261 292h188l-297 -292h-152z" />
    <glyph glyph-name="ecircumflex" unicode="&#xea;" horiz-adv-x="1168" 
d="M584 99q183 0 330 124l88 -87q-150 -155 -418 -155q-149 0 -259.5 68t-167.5 186t-57 269t57 269t167.5 186t259.5 68q221 0 352.5 -148.5t131.5 -433.5h-819q4 -151 94.5 -248.5t240.5 -97.5zM249 563h670q-13 154 -99.5 250t-235.5 96t-235.5 -96t-99.5 -250zM271 1122
l270 312h94l270 -312h-139l-178 187l-179 -187h-138z" />
    <glyph glyph-name="edieresis" unicode="&#xeb;" horiz-adv-x="1168" 
d="M584 98q183 0 330 124l88 -87q-150 -155 -418 -155q-149 0 -259.5 68t-167.5 186t-57 269t57 269t167.5 186t259.5 68q221 0 352.5 -148.5t131.5 -433.5h-819q4 -151 94.5 -248.5t240.5 -97.5zM249 562h670q-13 154 -99.5 250t-235.5 96t-235.5 -96t-99.5 -250zM306 1297
q0 40 28 68t68 28t68 -28t28 -68t-28 -68t-68 -28t-68 28t-28 68zM679 1297q0 40 28 68t68 28t68 -28t28 -68t-28 -68t-68 -28t-68 28t-28 68z" />
    <glyph glyph-name="igrave" unicode="&#xec;" horiz-adv-x="549" 
d="M262 0v1006h141v-1006h-141zM148 1434l261 -292h-152l-297 292h188z" />
    <glyph glyph-name="iacute" unicode="&#xed;" horiz-adv-x="640" 
d="M140 0v1006h141v-1006h-141zM141 1142l261 292h188l-297 -292h-152z" />
    <glyph glyph-name="icircumflex" unicode="&#xee;" horiz-adv-x="614" 
d="M237 0v1006h141v-1006h-141zM-10 1122l270 312h94l270 -312h-139l-178 187l-179 -187h-138z" />
    <glyph glyph-name="idieresis" unicode="&#xef;" horiz-adv-x="605" 
d="M232 0v1006h141v-1006h-141zM20 1297q0 40 28 68t68 28t68 -28t28 -68t-28 -68t-68 -28t-68 28t-28 68zM393 1297q0 40 28 68t68 28t68 -28t28 -68t-28 -68t-68 -28t-68 28t-28 68z" />
    <glyph glyph-name="eth" unicode="&#xf0;" horiz-adv-x="1241" 
d="M632 1116l-72 94l144 107q-120 61 -289 80l32 139q227 -29 376 -130l169 126l70 -95l-145 -108q127 -131 173 -346.5t24 -479.5q-25 -266 -156 -394.5t-347 -128.5q-124 0 -223 42t-161 114.5t-94.5 166t-32.5 200.5t32.5 200.5t94.5 166t161 114.5t223 42
q117 0 222.5 -62t163.5 -175q-15 153 -62.5 273t-125.5 186zM611 908q-115 0 -198.5 -57.5t-123.5 -147.5t-40 -200t40 -200t123.5 -147.5t198.5 -57.5t198.5 57t123.5 147.5t40 200.5t-40 200.5t-123.5 147.5t-198.5 57z" />
    <glyph glyph-name="ntilde" unicode="&#xf1;" horiz-adv-x="1170" 
d="M140 1006h141v-165q31 75 107 130t197 55q215 0 330 -122.5t115 -343.5v-560h-141v560q0 162 -74.5 255t-229.5 93t-229.5 -93t-74.5 -255v-560h-141v1006zM547 1261q-2 2 -11.5 12.5t-14.5 14.5t-14 10.5t-18 9.5t-19 3q-26 0 -36 -42q-4 -18 -6 -41h-130q3 56 21 103
q42 103 151 103q80 0 156 -83q2 -2 11.5 -12.5t14.5 -14.5t14 -10.5t18 -9.5t19 -3q22 0 36 41q5 18 6 42h130q-3 -58 -21 -103q-41 -103 -151 -103q-80 0 -156 83z" />
    <glyph glyph-name="ograve" unicode="&#xf2;" 
d="M627 1026q240 0 383.5 -146t143.5 -377t-143.5 -377t-383.5 -146t-383.5 146t-143.5 377t143.5 377t383.5 146zM627 908q-181 0 -279.5 -113.5t-98.5 -291.5t98.5 -291.5t279.5 -113.5t279.5 113.5t98.5 291.5t-98.5 291.5t-279.5 113.5zM445 1434l261 -292h-152
l-297 292h188z" />
    <glyph glyph-name="oacute" unicode="&#xf3;" 
d="M627 1026q240 0 383.5 -146t143.5 -377t-143.5 -377t-383.5 -146t-383.5 146t-143.5 377t143.5 377t383.5 146zM627 908q-181 0 -279.5 -113.5t-98.5 -291.5t98.5 -291.5t279.5 -113.5t279.5 113.5t98.5 291.5t-98.5 291.5t-279.5 113.5zM542 1142l261 292h188l-297 -292
h-152z" />
    <glyph glyph-name="ocircumflex" unicode="&#xf4;" 
d="M627 1026q240 0 383.5 -146t143.5 -377t-143.5 -377t-383.5 -146t-383.5 146t-143.5 377t143.5 377t383.5 146zM627 908q-181 0 -279.5 -113.5t-98.5 -291.5t98.5 -291.5t279.5 -113.5t279.5 113.5t98.5 291.5t-98.5 291.5t-279.5 113.5zM310 1122l270 312h94l270 -312
h-139l-178 187l-179 -187h-138z" />
    <glyph glyph-name="otilde" unicode="&#xf5;" 
d="M627 1026q240 0 383.5 -146t143.5 -377t-143.5 -377t-383.5 -146t-383.5 146t-143.5 377t143.5 377t383.5 146zM627 908q-181 0 -279.5 -113.5t-98.5 -291.5t98.5 -291.5t279.5 -113.5t279.5 113.5t98.5 291.5t-98.5 291.5t-279.5 113.5zM588 1261q-2 2 -11.5 12.5
t-14.5 14.5t-14 10.5t-18 9.5t-19 3q-26 0 -36 -42q-4 -18 -6 -41h-130q3 56 21 103q42 103 151 103q80 0 156 -83q2 -2 11.5 -12.5t14.5 -14.5t14 -10.5t18 -9.5t19 -3q22 0 36 41q4 18 6 42h130q-3 -58 -21 -103q-41 -103 -151 -103q-80 0 -156 83z" />
    <glyph glyph-name="odieresis" unicode="&#xf6;" 
d="M627 1026q240 0 383.5 -146t143.5 -377t-143.5 -377t-383.5 -146t-383.5 146t-143.5 377t143.5 377t383.5 146zM627 908q-181 0 -279.5 -113.5t-98.5 -291.5t98.5 -291.5t279.5 -113.5t279.5 113.5t98.5 291.5t-98.5 291.5t-279.5 113.5zM345 1277q0 40 28 68t68 28
t68 -28t28 -68t-28 -68t-68 -28t-68 28t-28 68zM718 1277q0 40 28 68t68 28t68 -28t28 -68t-28 -68t-68 -28t-68 28t-28 68z" />
    <glyph glyph-name="divide" unicode="&#xf7;" horiz-adv-x="998" 
d="M120 634v135h758v-135h-758zM399 434q0 42 29 71t71 29t71 -29t29 -71t-29 -71t-71 -29q-43 0 -71.5 28.5t-28.5 71.5zM399 969q0 42 29 71t71 29t71 -29t29 -71t-29 -71t-71 -29q-43 0 -71.5 28.5t-28.5 71.5z" />
    <glyph glyph-name="oslash" unicode="&#xf8;" 
d="M627 1026q90 0 165 -22l30 63h149l-55 -115q114 -67 176 -183.5t62 -265.5q0 -231 -143.5 -377t-383.5 -146q-83 0 -165 21l-30 -62h-149l54 114q-114 67 -175.5 183.5t-61.5 266.5q0 231 143.5 377t383.5 146zM627 98q181 0 279.5 113.5t98.5 291.5q0 225 -144 333
l-347 -725q49 -13 113 -13zM627 908q-181 0 -279.5 -113.5t-98.5 -291.5q0 -107 36.5 -193.5t107.5 -140.5l346 725q-54 14 -112 14z" />
    <glyph glyph-name="ugrave" unicode="&#xf9;" horiz-adv-x="1170" 
d="M1030 0h-141v165q-15 -35 -38.5 -65t-59.5 -58.5t-89 -45t-117 -16.5q-215 0 -330 122.5t-115 343.5v560h141v-560q0 -162 74.5 -255t229.5 -93t229.5 93t74.5 255v560h141v-1006zM416 1434l261 -292h-152l-297 292h188z" />
    <glyph glyph-name="uacute" unicode="&#xfa;" horiz-adv-x="1170" 
d="M1030 0h-141v165q-15 -35 -38.5 -65t-59.5 -58.5t-89 -45t-117 -16.5q-215 0 -330 122.5t-115 343.5v560h141v-560q0 -162 74.5 -255t229.5 -93t229.5 93t74.5 255v560h141v-1006zM491 1142l261 292h188l-297 -292h-152z" />
    <glyph glyph-name="ucircumflex" unicode="&#xfb;" horiz-adv-x="1170" 
d="M1030 0h-141v165q-15 -35 -38.5 -65t-59.5 -58.5t-89 -45t-117 -16.5q-215 0 -330 122.5t-115 343.5v560h141v-560q0 -162 74.5 -255t229.5 -93t229.5 93t74.5 255v560h141v-1006zM268 1122l270 312h94l270 -312h-139l-178 187l-179 -187h-138z" />
    <glyph glyph-name="udieresis" unicode="&#xfc;" horiz-adv-x="1170" 
d="M1030 0h-141v165q-15 -35 -38.5 -65t-59.5 -58.5t-89 -45t-117 -16.5q-215 0 -330 122.5t-115 343.5v560h141v-560q0 -162 74.5 -255t229.5 -93t229.5 93t74.5 255v560h141v-1006zM303 1297q0 40 28 68t68 28t68 -28t28 -68t-28 -68t-68 -28t-68 28t-28 68zM676 1297
q0 40 28 68t68 28t68 -28t28 -68t-28 -68t-68 -28t-68 28t-28 68z" />
    <glyph glyph-name="yacute" unicode="&#xfd;" horiz-adv-x="1096" 
d="M548 155l338 851h160l-550 -1299q-42 -96 -60 -125q-72 -114 -204 -114q-106 0 -173 41l54 108q56 -27 102 -27q19 0 35 4t27.5 7.5t23 16t18 18.5t17 26t14 28t15.5 34.5t16 35.5l95 240l-426 1006h160zM459 1142l261 292h188l-297 -292h-152z" />
    <glyph glyph-name="thorn" unicode="&#xfe;" 
d="M281 -532h-141v2048h141v-717q57 111 157 169t205 58q124 0 223 -42t161 -114.5t94.5 -166t32.5 -200.5t-32.5 -200.5t-94.5 -166t-161 -114.5t-223 -42q-105 0 -205 58t-157 169v-739zM643 908q-115 0 -198.5 -57t-123.5 -147.5t-40 -200.5t40 -200.5t123.5 -147.5
t198.5 -57t198.5 57.5t123.5 147.5t40 200t-40 200t-123.5 147.5t-198.5 57.5z" />
    <glyph glyph-name="ydieresis" unicode="&#xff;" horiz-adv-x="1096" 
d="M548 155l338 851h160l-550 -1299q-42 -96 -60 -125q-72 -114 -204 -114q-106 0 -173 41l54 108q56 -27 102 -27q19 0 35 4t27.5 7.5t23 16t18 18.5t17 26t14 28t15.5 34.5t16 35.5l95 240l-426 1006h160zM266 1297q0 40 28 68t68 28t68 -28t28 -68t-28 -68t-68 -28
t-68 28t-28 68zM639 1297q0 40 28 68t68 28t68 -28t28 -68t-28 -68t-68 -28t-68 28t-28 68z" />
    <glyph glyph-name="Amacron" unicode="&#x100;" horiz-adv-x="1430" 
d="M390 439l-182 -439h-158l604 1434h122l604 -1434h-158l-182 439h-650zM715 1223l-271 -652h541zM368 1536v118h695v-118h-695z" />
    <glyph glyph-name="amacron" unicode="&#x101;" horiz-adv-x="1119" 
d="M230 1316v118h695v-118h-695zM580 908q-76 0 -168 -23.5t-159 -61.5l-57 106q72 46 173.5 71.5t210.5 25.5q104 0 178 -22t116.5 -57.5t66.5 -94.5t31 -117.5t7 -142.5v-592h-141v193q-89 -213 -347 -213q-180 0 -285.5 82.5t-105.5 242.5q0 83 34 147t93 102t132 62
t158.5 31.5t163.5 6t157 -11.5q-1 46 -4 76.5t-12.5 64t-27 54t-45 38t-70 25.5t-99.5 8zM247 305q0 -93 60.5 -150t183.5 -57q87 0 154.5 27.5t109 74.5t62.5 105.5t21 124.5v107q-64 7 -128.5 8t-132.5 -4.5t-126 -22.5t-104.5 -43.5t-73 -70t-26.5 -99.5z" />
    <glyph glyph-name="Abreve" unicode="&#x102;" horiz-adv-x="1430" 
d="M390 439l-182 -439h-158l604 1434h122l604 -1434h-158l-182 439h-650zM715 1223l-271 -652h541zM715 1556q-179 0 -276 117q-42 53 -58 117h108q62 -127 226 -127q48 0 86 9t76 38.5t64 79.5h108q-16 -64 -58 -117q-95 -117 -276 -117z" />
    <glyph glyph-name="abreve" unicode="&#x103;" horiz-adv-x="1119" 
d="M575 1200q-179 0 -276 117q-42 53 -58 117h108q62 -127 226 -127q48 0 86 9t76 38.5t64 79.5h108q-16 -64 -58 -117q-95 -117 -276 -117zM580 908q-76 0 -168 -23.5t-159 -61.5l-57 106q72 46 173.5 71.5t210.5 25.5q104 0 178 -22t116.5 -57.5t66.5 -94.5t31 -117.5
t7 -142.5v-592h-141v193q-89 -213 -347 -213q-180 0 -285.5 82.5t-105.5 242.5q0 83 34 147t93 102t132 62t158.5 31.5t163.5 6t157 -11.5q-1 46 -4 76.5t-12.5 64t-27 54t-45 38t-70 25.5t-99.5 8zM247 305q0 -93 60.5 -150t183.5 -57q87 0 154.5 27.5t109 74.5t62.5 105.5
t21 124.5v107q-64 7 -128.5 8t-132.5 -4.5t-126 -22.5t-104.5 -43.5t-73 -70t-26.5 -99.5z" />
    <glyph glyph-name="Aogonek" unicode="&#x104;" horiz-adv-x="1430" 
d="M390 439l-182 -439h-158l604 1434h122l604 -1434q-13 -3 -32.5 -10t-51.5 -23.5t-53.5 -48.5t-21.5 -73q0 -28 12 -48.5t27.5 -30.5t40 -15.5t40.5 -6.5t39 -1v-124q-72 -4 -133 11.5t-104.5 61t-44.5 116.5q-4 146 168 192h-44l-182 439h-650zM715 1223l-271 -652h541z
" />
    <glyph glyph-name="aogonek" unicode="&#x105;" horiz-adv-x="1119" 
d="M580 908q-76 0 -168 -23.5t-159 -61.5l-57 106q72 46 173.5 71.5t210.5 25.5q104 0 178 -22t116.5 -57.5t66.5 -94.5t31 -117.5t7 -142.5v-592q-13 -3 -32.5 -10t-51.5 -23.5t-53.5 -48.5t-21.5 -73q0 -28 12 -48.5t27.5 -30.5t40 -15.5t40.5 -6.5t39 -1v-124
q-72 -4 -133 11.5t-104.5 61t-44.5 116.5q-4 146 168 192h-27v193q-89 -213 -347 -213q-180 0 -285.5 82.5t-105.5 242.5q0 83 34 147t93 102t132 62t158.5 31.5t163.5 6t157 -11.5q-1 46 -4 76.5t-12.5 64t-27 54t-45 38t-70 25.5t-99.5 8zM247 305q0 -93 60.5 -150
t183.5 -57q87 0 154.5 27.5t109 74.5t62.5 105.5t21 124.5v107q-64 7 -128.5 8t-132.5 -4.5t-126 -22.5t-104.5 -43.5t-73 -70t-26.5 -99.5z" />
    <glyph glyph-name="Cacute" unicode="&#x106;" horiz-adv-x="1363" 
d="M252 717q0 -127 35 -235.5t102 -192.5t174.5 -131.5t243.5 -47.5q221 0 397 116l79 -108q-181 -138 -476 -138q-168 0 -304 58.5t-223 159.5t-133.5 234t-46.5 285t46.5 285t133.5 234t223 159.5t304 58.5q295 0 476 -138l-79 -108q-176 116 -397 116
q-136 0 -243.5 -47.5t-174.5 -131.5t-102 -192.5t-35 -235.5zM739 1536l261 292h188l-297 -292h-152z" />
    <glyph glyph-name="cacute" unicode="&#x107;" horiz-adv-x="1078" 
d="M249 503q0 -178 98.5 -291.5t279.5 -113.5q171 0 297 105l74 -95q-140 -128 -371 -128q-240 0 -383.5 146t-143.5 377t143.5 377t383.5 146q230 0 371 -129l-74 -94q-126 105 -297 105q-181 0 -279.5 -113.5t-98.5 -291.5zM535 1142l261 292h188l-297 -292h-152z" />
    <glyph glyph-name="Ccircumflex" unicode="&#x108;" horiz-adv-x="1363" 
d="M494 1536l270 312h94l270 -312h-139l-178 187l-179 -187h-138zM252 717q0 -127 35 -235.5t102 -192.5t174.5 -131.5t243.5 -47.5q221 0 397 116l79 -108q-181 -138 -476 -138q-168 0 -304 58.5t-223 159.5t-133.5 234t-46.5 285t46.5 285t133.5 234t223 159.5t304 58.5
q295 0 476 -138l-79 -108q-176 116 -397 116q-136 0 -243.5 -47.5t-174.5 -131.5t-102 -192.5t-35 -235.5z" />
    <glyph glyph-name="ccircumflex" unicode="&#x109;" horiz-adv-x="1078" 
d="M249 503q0 -178 98.5 -291.5t279.5 -113.5q171 0 297 105l74 -95q-140 -128 -371 -128q-240 0 -383.5 146t-143.5 377t143.5 377t383.5 146q230 0 371 -129l-74 -94q-126 105 -297 105q-181 0 -279.5 -113.5t-98.5 -291.5zM310 1122l270 312h94l270 -312h-139l-178 187
l-179 -187h-138z" />
    <glyph glyph-name="Cdotaccent" unicode="&#x10a;" horiz-adv-x="1363" 
d="M252 717q0 -127 35 -235.5t102 -192.5t174.5 -131.5t243.5 -47.5q221 0 397 116l79 -108q-181 -138 -476 -138q-168 0 -304 58.5t-223 159.5t-133.5 234t-46.5 285t46.5 285t133.5 234t223 159.5t304 58.5q295 0 476 -138l-79 -108q-176 116 -397 116
q-136 0 -243.5 -47.5t-174.5 -131.5t-102 -192.5t-35 -235.5zM721 1652q0 40 28 68t68 28t68 -28t28 -68t-28 -68t-68 -28t-68 28t-28 68z" />
    <glyph glyph-name="cdotaccent" unicode="&#x10b;" horiz-adv-x="1078" 
d="M249 503q0 -178 98.5 -291.5t279.5 -113.5q171 0 297 105l74 -95q-140 -128 -371 -128q-240 0 -383.5 146t-143.5 377t143.5 377t383.5 146q230 0 371 -129l-74 -94q-126 105 -297 105q-181 0 -279.5 -113.5t-98.5 -291.5zM527 1297q0 40 28 68t68 28t68 -28t28 -68
t-28 -68t-68 -28t-68 28t-28 68z" />
    <glyph glyph-name="Ccaron" unicode="&#x10c;" horiz-adv-x="1363" 
d="M252 717q0 -127 35 -235.5t102 -192.5t174.5 -131.5t243.5 -47.5q221 0 397 116l79 -108q-181 -138 -476 -138q-168 0 -304 58.5t-223 159.5t-133.5 234t-46.5 285t46.5 285t133.5 234t223 159.5t304 58.5q295 0 476 -138l-79 -108q-176 116 -397 116
q-136 0 -243.5 -47.5t-174.5 -131.5t-102 -192.5t-35 -235.5zM1134 1848l-270 -312h-94l-270 312h139l178 -187l179 187h138z" />
    <glyph glyph-name="ccaron" unicode="&#x10d;" horiz-adv-x="1078" 
d="M249 503q0 -178 98.5 -291.5t279.5 -113.5q171 0 297 105l74 -95q-140 -128 -371 -128q-240 0 -383.5 146t-143.5 377t143.5 377t383.5 146q230 0 371 -129l-74 -94q-126 105 -297 105q-181 0 -279.5 -113.5t-98.5 -291.5zM933 1434l-270 -312h-94l-270 312h139l178 -187
l179 187h138z" />
    <glyph glyph-name="Dcaron" unicode="&#x10e;" horiz-adv-x="1398" 
d="M1298 717q0 -158 -41 -286.5t-124 -226t-219 -151t-316 -53.5h-458v1434h458q180 0 316 -53.5t219 -151t124 -226t41 -286.5zM288 1304v-1174h310q147 0 255.5 45t171 126.5t92 184.5t29.5 231t-29.5 231t-92 184.5t-171 126.5t-255.5 45h-310zM900 1848l-270 -312h-94
l-270 312h139l178 -187l179 187h138z" />
    <glyph glyph-name="dcaron" unicode="&#x10f;" horiz-adv-x="1260" 
d="M1114 0h-141v207q-57 -111 -157 -169t-205 -58q-124 0 -223 42t-161 114.5t-94.5 166t-32.5 200.5t32.5 200.5t94.5 166t161 114.5t223 42q105 0 205 -58t157 -169v717h141v-1516zM611 908q-115 0 -198.5 -57.5t-123.5 -147.5t-40 -200t40 -200t123.5 -147.5t198.5 -57.5
t198.5 57t123.5 147.5t40 200.5t-40 200.5t-123.5 147.5t-198.5 57zM1164 1091l163 425h163l-194 -425h-132z" />
    <glyph glyph-name="Dcroat" unicode="&#x110;" horiz-adv-x="1519" 
d="M50 652v126h211v656h458q180 0 316 -53.5t219 -151t124 -226t41 -286.5t-41 -286.5t-124 -226t-219 -151t-316 -53.5h-458v652h-211zM409 652v-522h310q147 0 255.5 45t171 126.5t92 184.5t29.5 231t-29.5 231t-92 184.5t-171 126.5t-255.5 45h-310v-526h330v-126h-330z
" />
    <glyph glyph-name="dslash" unicode="&#x111;" horiz-adv-x="1331" 
d="M1114 0h-141v207q-57 -111 -157 -169t-205 -58q-124 0 -223 42t-161 114.5t-94.5 166t-32.5 200.5t32.5 200.5t94.5 166t161 114.5t223 42q105 0 205 -58t157 -169v373h-298v118h298v226h141v-226h197v-118h-197v-1172zM611 908q-115 0 -198.5 -57.5t-123.5 -147.5
t-40 -200t40 -200t123.5 -147.5t198.5 -57.5t198.5 57t123.5 147.5t40 200.5t-40 200.5t-123.5 147.5t-198.5 57z" />
    <glyph glyph-name="Emacron" unicode="&#x112;" horiz-adv-x="1219" 
d="M288 798h753v-130h-753v-538h811v-130h-959v1434h949v-130h-801v-506zM272 1556v118h695v-118h-695z" />
    <glyph glyph-name="emacron" unicode="&#x113;" horiz-adv-x="1168" 
d="M584 98q183 0 330 124l88 -87q-150 -155 -418 -155q-149 0 -259.5 68t-167.5 186t-57 269t57 269t167.5 186t259.5 68q221 0 352.5 -148.5t131.5 -433.5h-819q4 -151 94.5 -248.5t240.5 -97.5zM249 562h670q-13 154 -99.5 250t-235.5 96t-235.5 -96t-99.5 -250zM241 1316
v118h695v-118h-695z" />
    <glyph glyph-name="Ebreve" unicode="&#x114;" horiz-adv-x="1219" 
d="M288 798h753v-130h-753v-538h811v-130h-959v1434h949v-130h-801v-506zM619 1556q-179 0 -276 117q-42 53 -58 117h108q62 -127 226 -127q48 0 86 9t76 38.5t64 79.5h108q-16 -64 -58 -117q-95 -117 -276 -117z" />
    <glyph glyph-name="ebreve" unicode="&#x115;" horiz-adv-x="1168" 
d="M584 98q183 0 330 124l88 -87q-150 -155 -418 -155q-149 0 -259.5 68t-167.5 186t-57 269t57 269t167.5 186t259.5 68q221 0 352.5 -148.5t131.5 -433.5h-819q4 -151 94.5 -248.5t240.5 -97.5zM249 562h670q-13 154 -99.5 250t-235.5 96t-235.5 -96t-99.5 -250zM588 1200
q-179 0 -276 117q-42 53 -58 117h108q62 -127 226 -127q48 0 86 9t76 38.5t64 79.5h108q-16 -64 -58 -117q-95 -117 -276 -117z" />
    <glyph glyph-name="Edotaccent" unicode="&#x116;" horiz-adv-x="1219" 
d="M288 798h753v-130h-753v-538h811v-130h-959v1434h949v-130h-801v-506zM523 1652q0 40 28 68t68 28t68 -28t28 -68t-28 -68t-68 -28t-68 28t-28 68z" />
    <glyph glyph-name="edotaccent" unicode="&#x117;" horiz-adv-x="1168" 
d="M584 98q183 0 330 124l88 -87q-150 -155 -418 -155q-149 0 -259.5 68t-167.5 186t-57 269t57 269t167.5 186t259.5 68q221 0 352.5 -148.5t131.5 -433.5h-819q4 -151 94.5 -248.5t240.5 -97.5zM249 562h670q-13 154 -99.5 250t-235.5 96t-235.5 -96t-99.5 -250zM493 1297
q0 40 28 68t68 28t68 -28t28 -68t-28 -68t-68 -28t-68 28t-28 68z" />
    <glyph glyph-name="Eogonek" unicode="&#x118;" horiz-adv-x="1219" 
d="M288 798h753v-130h-753v-538h811v-130q-13 -3 -32.5 -10t-51.5 -23.5t-53.5 -48.5t-21.5 -73q0 -28 12 -48.5t27.5 -30.5t40 -15.5t40.5 -6.5t39 -1v-124q-72 -4 -133 11.5t-104.5 61t-44.5 116.5q-4 146 168 192h-845v1434h949v-130h-801v-506z" />
    <glyph glyph-name="eogonek" unicode="&#x119;" horiz-adv-x="1168" 
d="M584 98q183 0 330 124l88 -87q-103 -105 -257 -138q-145 -43 -145 -152q0 -28 12 -48.5t27.5 -30.5t40 -15.5t40.5 -6.5t39 -1v-124q-72 -4 -133 11.5t-104.5 61t-44.5 116.5q-4 118 111 172h-4q-149 0 -259.5 68t-167.5 186t-57 269t57 269t167.5 186t259.5 68
q221 0 352.5 -148.5t131.5 -433.5h-819q4 -151 94.5 -248.5t240.5 -97.5zM249 562h670q-13 154 -99.5 250t-235.5 96t-235.5 -96t-99.5 -250z" />
    <glyph glyph-name="Ecaron" unicode="&#x11a;" horiz-adv-x="1219" 
d="M288 798h753v-130h-753v-538h811v-130h-959v1434h949v-130h-801v-506zM936 1848l-270 -312h-94l-270 312h139l178 -187l179 187h138z" />
    <glyph glyph-name="ecaron" unicode="&#x11b;" horiz-adv-x="1168" 
d="M584 98q183 0 330 124l88 -87q-150 -155 -418 -155q-149 0 -259.5 68t-167.5 186t-57 269t57 269t167.5 186t259.5 68q221 0 352.5 -148.5t131.5 -433.5h-819q4 -151 94.5 -248.5t240.5 -97.5zM249 562h670q-13 154 -99.5 250t-235.5 96t-235.5 -96t-99.5 -250zM906 1434
l-270 -312h-94l-270 312h139l178 -187l179 187h138z" />
    <glyph glyph-name="Gcircumflex" unicode="&#x11c;" horiz-adv-x="1482" 
d="M807 1324q-136 0 -243.5 -47.5t-174.5 -131.5t-102 -192.5t-35 -235.5t35 -235.5t102 -192.5t174.5 -131.5t243.5 -47.5q272 0 417 112v436h-379v130h517v-641q-111 -89 -244 -128t-311 -39q-168 0 -304 58.5t-223 159.5t-133.5 234t-46.5 285t46.5 285t133.5 234
t223 159.5t304 58.5q333 0 543 -168l-79 -102q-176 140 -464 140zM509 1536l270 312h94l270 -312h-139l-178 187l-179 -187h-138z" />
    <glyph glyph-name="gcircumflex" unicode="&#x11d;" 
d="M973 0v207q-57 -111 -157 -169t-205 -58q-124 0 -223 42t-161 114.5t-94.5 166t-32.5 200.5t32.5 200.5t94.5 166t161 114.5t223 42q105 0 205 -58t157 -169v207h141v-1006q0 -122 -30.5 -217.5t-79.5 -153.5t-116.5 -95.5t-134.5 -51.5t-142 -14q-128 0 -239.5 30.5
t-182.5 87.5l83 99q142 -95 339 -95q171 0 266.5 102.5t95.5 307.5zM611 908q-115 0 -198.5 -57.5t-123.5 -147.5t-40 -200t40 -200t123.5 -147.5t198.5 -57.5t198.5 57t123.5 147.5t40 200.5t-40 200.5t-123.5 147.5t-198.5 57zM290 1122l270 312h94l270 -312h-139
l-178 187l-179 -187h-138z" />
    <glyph glyph-name="Gbreve" unicode="&#x11e;" horiz-adv-x="1482" 
d="M807 1324q-136 0 -243.5 -47.5t-174.5 -131.5t-102 -192.5t-35 -235.5t35 -235.5t102 -192.5t174.5 -131.5t243.5 -47.5q272 0 417 112v436h-379v130h517v-641q-111 -89 -244 -128t-311 -39q-168 0 -304 58.5t-223 159.5t-133.5 234t-46.5 285t46.5 285t133.5 234
t223 159.5t304 58.5q333 0 543 -168l-79 -102q-176 140 -464 140zM799 1556q-179 0 -276 117q-42 53 -58 117h108q62 -127 226 -127q48 0 86 9t76 38.5t64 79.5h108q-16 -64 -58 -117q-95 -117 -276 -117z" />
    <glyph glyph-name="gbreve" unicode="&#x11f;" 
d="M973 0v207q-57 -111 -157 -169t-205 -58q-124 0 -223 42t-161 114.5t-94.5 166t-32.5 200.5t32.5 200.5t94.5 166t161 114.5t223 42q105 0 205 -58t157 -169v207h141v-1006q0 -122 -30.5 -217.5t-79.5 -153.5t-116.5 -95.5t-134.5 -51.5t-142 -14q-128 0 -239.5 30.5
t-182.5 87.5l83 99q142 -95 339 -95q171 0 266.5 102.5t95.5 307.5zM611 908q-115 0 -198.5 -57.5t-123.5 -147.5t-40 -200t40 -200t123.5 -147.5t198.5 -57.5t198.5 57t123.5 147.5t40 200.5t-40 200.5t-123.5 147.5t-198.5 57zM607 1200q-179 0 -276 117q-42 53 -58 117
h108q62 -127 226 -127q48 0 86 9t76 38.5t64 79.5h108q-16 -64 -58 -117q-95 -117 -276 -117z" />
    <glyph glyph-name="Gdotaccent" unicode="&#x120;" horiz-adv-x="1482" 
d="M807 1324q-136 0 -243.5 -47.5t-174.5 -131.5t-102 -192.5t-35 -235.5t35 -235.5t102 -192.5t174.5 -131.5t243.5 -47.5q272 0 417 112v436h-379v130h517v-641q-111 -89 -244 -128t-311 -39q-168 0 -304 58.5t-223 159.5t-133.5 234t-46.5 285t46.5 285t133.5 234
t223 159.5t304 58.5q333 0 543 -168l-79 -102q-176 140 -464 140zM720 1652q0 40 28 68t68 28t68 -28t28 -68t-28 -68t-68 -28t-68 28t-28 68z" />
    <glyph glyph-name="gdotaccent" unicode="&#x121;" 
d="M973 0v207q-57 -111 -157 -169t-205 -58q-124 0 -223 42t-161 114.5t-94.5 166t-32.5 200.5t32.5 200.5t94.5 166t161 114.5t223 42q105 0 205 -58t157 -169v207h141v-1006q0 -122 -30.5 -217.5t-79.5 -153.5t-116.5 -95.5t-134.5 -51.5t-142 -14q-128 0 -239.5 30.5
t-182.5 87.5l83 99q142 -95 339 -95q171 0 266.5 102.5t95.5 307.5zM611 908q-115 0 -198.5 -57.5t-123.5 -147.5t-40 -200t40 -200t123.5 -147.5t198.5 -57.5t198.5 57t123.5 147.5t40 200.5t-40 200.5t-123.5 147.5t-198.5 57zM511 1297q0 40 28 68t68 28t68 -28t28 -68
t-28 -68t-68 -28t-68 28t-28 68z" />
    <glyph glyph-name="Gcommaaccent" unicode="&#x122;" horiz-adv-x="1482" 
d="M807 1324q-136 0 -243.5 -47.5t-174.5 -131.5t-102 -192.5t-35 -235.5t35 -235.5t102 -192.5t174.5 -131.5t243.5 -47.5q272 0 417 112v436h-379v130h517v-641q-111 -89 -244 -128t-311 -39q-168 0 -304 58.5t-223 159.5t-133.5 234t-46.5 285t46.5 285t133.5 234
t223 159.5t304 58.5q333 0 543 -168l-79 -102q-176 140 -464 140zM562 -532l163 425h163l-194 -425h-132z" />
    <glyph glyph-name="gcommaaccent" unicode="&#x123;" 
d="M973 0v207q-57 -111 -157 -169t-205 -58q-124 0 -223 42t-161 114.5t-94.5 166t-32.5 200.5t32.5 200.5t94.5 166t161 114.5t223 42q105 0 205 -58t157 -169v207h141v-1006q0 -122 -30.5 -217.5t-79.5 -153.5t-116.5 -95.5t-134.5 -51.5t-142 -14q-128 0 -239.5 30.5
t-182.5 87.5l83 99q142 -95 339 -95q171 0 266.5 102.5t95.5 307.5zM611 908q-115 0 -198.5 -57.5t-123.5 -147.5t-40 -200t40 -200t123.5 -147.5t198.5 -57.5t198.5 57t123.5 147.5t40 200.5t-40 200.5t-123.5 147.5t-198.5 57zM850 1516l-163 -425h-163l194 425h132z" />
    <glyph glyph-name="Hcircumflex" unicode="&#x124;" horiz-adv-x="1396" 
d="M1108 798v636h148v-1434h-148v668h-820v-668h-148v1434h148v-636h820zM381 1536l270 312h94l270 -312h-139l-178 187l-179 -187h-138z" />
    <glyph glyph-name="hcircumflex" unicode="&#x125;" horiz-adv-x="1170" 
d="M281 560v-560h-141v1516h141v-675q31 75 107 130t197 55q215 0 330 -122.5t115 -343.5v-560h-141v560q0 162 -74.5 255t-229.5 93t-229.5 -93t-74.5 -255zM269 1536l270 312h94l270 -312h-139l-178 187l-179 -187h-138z" />
    <glyph glyph-name="Hbar" unicode="&#x126;" horiz-adv-x="1652" 
d="M80 1016v120h188v298h148v-298h820v298h148v-298h188v-120h-188v-1016h-148v668h-820v-668h-148v1016h-188zM416 798h820v218h-820v-218z" />
    <glyph glyph-name="hbar" unicode="&#x127;" horiz-adv-x="1247" 
d="M358 560v-560h-141v1172h-197v118h197v226h141v-226h298v-118h-298v-331q31 75 107 130t197 55q215 0 330 -122.5t115 -343.5v-560h-141v560q0 162 -74.5 255t-229.5 93t-229.5 -93t-74.5 -255z" />
    <glyph glyph-name="Itilde" unicode="&#x128;" horiz-adv-x="499" 
d="M175 0v1434h148v-1434h-148zM210 1619q-2 2 -11.5 12.5t-14.5 14.5t-14 10.5t-18 9.5t-19 3q-26 0 -36 -42q-4 -18 -6 -41h-130q3 56 21 103q42 103 151 103q80 0 156 -83q2 -2 11.5 -12.5t14.5 -14.5t14 -10.5t18 -9.5t19 -3q22 0 36 41q4 18 6 42h130q-3 -58 -21 -103
q-41 -103 -151 -103q-80 0 -156 83z" />
    <glyph glyph-name="itilde" unicode="&#x129;" horiz-adv-x="519" 
d="M220 1261q-2 2 -11.5 12.5t-14.5 14.5t-14 10.5t-18 9.5t-19 3q-26 0 -36 -42q-4 -18 -6 -41h-130q3 56 21 103q42 103 151 103q80 0 156 -83q2 -2 11.5 -12.5t14.5 -14.5t14 -10.5t18 -9.5t19 -3q22 0 36 41q4 18 6 42h130q-3 -58 -21 -103q-41 -103 -151 -103
q-80 0 -156 83zM189 0v1006h141v-1006h-141z" />
    <glyph glyph-name="uni012A" unicode="&#x12a;" horiz-adv-x="675" 
d="M263 0v1434h148v-1434h-148zM-10 1536v118h695v-118h-695z" />
    <glyph glyph-name="imacron" unicode="&#x12b;" horiz-adv-x="575" 
d="M217 0v1006h141v-1006h-141zM-60 1316v118h695v-118h-695z" />
    <glyph glyph-name="Ibreve" unicode="&#x12c;" horiz-adv-x="588" 
d="M220 0v1434h148v-1434h-148zM294 1556q-179 0 -276 117q-42 53 -58 117h108q62 -127 226 -127q48 0 86 9t76 38.5t64 79.5h108q-16 -64 -58 -117q-95 -117 -276 -117z" />
    <glyph glyph-name="uni012D" unicode="&#x12d;" horiz-adv-x="648" 
d="M254 0v1006h141v-1006h-141zM324 1200q-179 0 -276 117q-42 53 -58 117h108q62 -127 226 -127q48 0 86 9t76 38.5t64 79.5h108q-16 -64 -58 -117q-95 -117 -276 -117z" />
    <glyph glyph-name="Iogonek" unicode="&#x12e;" horiz-adv-x="563" 
d="M275 0v1434h148v-1434q-13 -3 -32.5 -10t-51.5 -23.5t-53.5 -48.5t-21.5 -73q0 -28 12 -48.5t27.5 -30.5t40 -15.5t40.5 -6.5t39 -1v-124q-72 -4 -133 11.5t-104.5 61t-44.5 116.5q-4 146 168 192h-34z" />
    <glyph glyph-name="iogonek" unicode="&#x12f;" horiz-adv-x="588" 
d="M423 1006v-1006q-43 -10 -80 -31q-79 -45 -79 -124q0 -28 12 -48.5t27.5 -30.5t40 -15.5t40.5 -6.5t39 -1v-124q-72 -4 -133 11.5t-104.5 61t-44.5 116.5q-4 146 168 192h-27v1006h141zM256 1297q0 40 28 68t68 28t68 -28t28 -68t-28 -68t-68 -28t-68 28t-28 68z" />
    <glyph glyph-name="Idot" unicode="&#x130;" horiz-adv-x="472" 
d="M162 0v1434h148v-1434h-148zM140 1652q0 40 28 68t68 28t68 -28t28 -68t-28 -68t-68 -28t-68 28t-28 68z" />
    <glyph glyph-name="dotlessi" unicode="&#x131;" horiz-adv-x="421" 
d="M140 0v1006h141v-1006h-141z" />
    <glyph glyph-name="IJ" unicode="&#x132;" horiz-adv-x="1362" 
d="M140 0v1434h148v-1434h-148zM384 239l136 42q44 -85 106.5 -128t169.5 -43q148 0 213 81.5t65 249.5v993h148v-993q0 -234 -114 -347.5t-312 -113.5q-162 0 -265 68.5t-147 190.5z" />
    <glyph glyph-name="ij" unicode="&#x133;" horiz-adv-x="904" 
d="M166 0v1006h141v-1006h-141zM140 1297q0 40 28 68t68 28t68 -28t28 -68t-28 -68t-68 -28t-68 28t-28 68zM268 -495l42 110q70 -27 141 -27q34 0 59 11.5t41 36.5t25.5 52t14 71t6 80t1.5 92v1075h141v-1075q0 -95 -7 -163t-25.5 -127.5t-50.5 -95.5t-83 -56.5t-122 -20.5
q-102 0 -183 37zM572 1297q0 40 28 68t68 28t68 -28t28 -68t-28 -68t-68 -28t-68 28t-28 68z" />
    <glyph glyph-name="Jcircumflex" unicode="&#x134;" horiz-adv-x="1064" 
d="M80 239l136 42q44 -85 106.5 -128t169.5 -43q148 0 213 81.5t65 249.5v993h148v-993q0 -234 -114 -347.5t-312 -113.5q-162 0 -265 68.5t-147 190.5zM530 1536l270 312h94l270 -312h-139l-178 187l-179 -187h-138z" />
    <glyph glyph-name="jcircumflex" unicode="&#x135;" horiz-adv-x="612" 
d="M-12 1122l270 312h94l270 -312h-139l-178 187l-179 -187h-138zM-100 -495l42 110q70 -27 141 -27q34 0 59 11.5t41 36.5t25.5 52t14 71t6 80t1.5 92v1075h141v-1075q0 -95 -7 -163t-25.5 -127.5t-50.5 -95.5t-83 -56.5t-122 -20.5q-102 0 -183 37z" />
    <glyph glyph-name="Kcommaaccent" unicode="&#x136;" horiz-adv-x="1323" 
d="M288 704l768 730h194l-639 -607l662 -827h-177l-585 732l-223 -212v-520h-148v1434h148v-730zM408 -532l163 425h163l-194 -425h-132z" />
    <glyph glyph-name="kcommaaccent" unicode="&#x137;" horiz-adv-x="1061" 
d="M281 553l527 453h198l-469 -403l474 -603h-167l-406 518l-157 -135v-383h-141v1516h141v-963zM307 -532l163 425h163l-194 -425h-132z" />
    <glyph glyph-name="kgreenlandic" unicode="&#x138;" horiz-adv-x="1277" 
d="M1156 1434v-149q-73 -6 -145.5 -39.5t-138.5 -88.5t-122 -109.5t-123 -121.5t-115 -106q63 -37 128.5 -84.5t151 -124.5t160 -163t149.5 -204t126 -244h-169q-53 120 -125 228t-140.5 183t-146.5 141t-134 103.5t-112 67.5l-112 -100v-623h-148v1434h148v-630
q81 63 175 156t165.5 166.5t153.5 144.5t176 113.5t198 49.5z" />
    <glyph glyph-name="Lacute" unicode="&#x139;" horiz-adv-x="1133" 
d="M292 1434v-1304h741v-130h-889v1434h148zM140 1536l261 292h188l-297 -292h-152z" />
    <glyph glyph-name="lacute" unicode="&#x13a;" horiz-adv-x="459" 
d="M146 225v1291h141v-1291q0 -27 1.5 -42.5t6 -32.5t16.5 -24.5t31 -7.5h52v-118h-52q-63 0 -104.5 20t-60 56t-25 70t-6.5 79zM140 1596l261 292h188l-297 -292h-152z" />
    <glyph glyph-name="Lcommaaccent" unicode="&#x13b;" horiz-adv-x="1129" 
d="M288 1434v-1304h741v-130h-889v1434h148zM368 -532l163 425h163l-194 -425h-132z" />
    <glyph glyph-name="lcommaaccent" unicode="&#x13c;" horiz-adv-x="575" 
d="M227 225v1291h141v-1291q0 -27 1.5 -42.5t6 -32.5t16.5 -24.5t31 -7.5h52v-118h-52q-63 0 -104.5 20t-60 56t-25 70t-6.5 79zM140 -532l163 425h163l-194 -425h-132z" />
    <glyph glyph-name="Lcaron" unicode="&#x13d;" horiz-adv-x="1129" 
d="M288 1434v-1304h741v-130h-889v1434h148zM388 1009l163 425h163l-194 -425h-132z" />
    <glyph glyph-name="lcaron" unicode="&#x13e;" horiz-adv-x="695" 
d="M140 225v1291h141v-1291q0 -27 1.5 -42.5t6 -32.5t16.5 -24.5t31 -7.5h52v-118h-52q-63 0 -104.5 20t-60 56t-25 70t-6.5 79zM349 1091l163 425h163l-194 -425h-132z" />
    <glyph glyph-name="Ldot" unicode="&#x13f;" horiz-adv-x="1129" 
d="M288 1434v-1304h741v-130h-889v1434h148zM565 659q0 39 29 68t68 29q38 0 67 -29.5t29 -67.5q0 -39 -29 -68t-67 -29q-40 0 -68.5 29t-28.5 68z" />
    <glyph glyph-name="ldot" unicode="&#x140;" horiz-adv-x="640" 
d="M140 225v1291h141v-1291q0 -27 1.5 -42.5t6 -32.5t16.5 -24.5t31 -7.5h52v-118h-52q-63 0 -104.5 20t-60 56t-25 70t-6.5 79zM367 793q0 39 29 68t68 29q38 0 67 -29.5t29 -67.5q0 -39 -29 -68t-67 -29q-40 0 -68.5 29t-28.5 68z" />
    <glyph glyph-name="Lslash" unicode="&#x141;" horiz-adv-x="1256" 
d="M415 714v-584h741v-130h-889v631l-217 -122v149l217 122v654h148v-570l217 122v-150z" />
    <glyph glyph-name="lslash" unicode="&#x142;" horiz-adv-x="603" 
d="M50 530v158l181 138v690h141v-582l181 139v-158l-181 -139v-551q0 -27 1.5 -42.5t6 -32.5t16.5 -24.5t31 -7.5h52v-118h-52q-63 0 -104.5 20t-60 56t-25 70t-6.5 79v443z" />
    <glyph glyph-name="Nacute" unicode="&#x143;" horiz-adv-x="1470" 
d="M170 0v1434h181l801 -1227v1227h148v-1434h-181l-801 1227v-1227h-148zM617 1536l261 292h188l-297 -292h-152z" />
    <glyph glyph-name="nacute" unicode="&#x144;" horiz-adv-x="1170" 
d="M140 1006h141v-165q31 75 107 130t197 55q215 0 330 -122.5t115 -343.5v-560h-141v560q0 162 -74.5 255t-229.5 93t-229.5 -93t-74.5 -255v-560h-141v1006zM503 1142l261 292h188l-297 -292h-152z" />
    <glyph glyph-name="Ncommaaccent" unicode="&#x145;" horiz-adv-x="1410" 
d="M140 0v1434h181l801 -1227v1227h148v-1434h-181l-801 1227v-1227h-148zM465 -532l163 425h163l-194 -425h-132z" />
    <glyph glyph-name="ncommaaccent" unicode="&#x146;" horiz-adv-x="1170" 
d="M140 1006h141v-165q31 75 107 130t197 55q215 0 330 -122.5t115 -343.5v-560h-141v560q0 162 -74.5 255t-229.5 93t-229.5 -93t-74.5 -255v-560h-141v1006zM345 -532l163 425h163l-194 -425h-132z" />
    <glyph glyph-name="Ncaron" unicode="&#x147;" horiz-adv-x="1470" 
d="M170 0v1434h181l801 -1227v1227h148v-1434h-181l-801 1227v-1227h-148zM1052 1848l-270 -312h-94l-270 312h139l178 -187l179 187h138z" />
    <glyph glyph-name="ncaron" unicode="&#x148;" horiz-adv-x="1170" 
d="M140 1006h141v-165q31 75 107 130t197 55q215 0 330 -122.5t115 -343.5v-560h-141v560q0 162 -74.5 255t-229.5 93t-229.5 -93t-74.5 -255v-560h-141v1006zM902 1434l-270 -312h-94l-270 312h139l178 -187l179 187h138z" />
    <glyph glyph-name="napostrophe" unicode="&#x149;" horiz-adv-x="1386" 
d="M356 1006h141v-165q31 75 107 130t197 55q215 0 330 -122.5t115 -343.5v-560h-141v560q0 162 -74.5 255t-229.5 93t-229.5 -93t-74.5 -255v-560h-141v1006zM140 1009l163 425h163l-194 -425h-132z" />
    <glyph glyph-name="Eng" unicode="&#x14a;" horiz-adv-x="1410" 
d="M140 0v1434h181l801 -1227v1227h148v-1505q0 -236 -105.5 -348.5t-300.5 -112.5q-244 0 -352 173l106 78q90 -121 246 -121q145 0 201.5 80t56.5 251v71h-33l-801 1227v-1227h-148z" />
    <glyph glyph-name="eng" unicode="&#x14b;" horiz-adv-x="1170" 
d="M559 -495l42 110q70 -27 141 -27q34 0 59 11.5t41 36.5t25.5 52t14 71t6 80t1.5 92v629q0 162 -74.5 255t-229.5 93t-229.5 -93t-74.5 -255v-560h-141v1006h141v-165q31 75 107 130t197 55q215 0 330 -122.5t115 -343.5v-629q0 -95 -7 -163t-25.5 -127.5t-50.5 -95.5
t-83 -56.5t-122 -20.5q-102 0 -183 37z" />
    <glyph glyph-name="Omacron" unicode="&#x14c;" horiz-adv-x="1614" 
d="M807 -20q-168 0 -304 58.5t-223 159.5t-133.5 234t-46.5 285t46.5 285t133.5 234t223 159.5t304 58.5t304 -58.5t223 -159.5t133.5 -234t46.5 -285t-46.5 -285t-133.5 -234t-223 -159.5t-304 -58.5zM807 110q136 0 243.5 47.5t174.5 131.5t102 192.5t35 235.5t-35 235.5
t-102 192.5t-174.5 131.5t-243.5 47.5t-243.5 -47.5t-174.5 -131.5t-102 -192.5t-35 -235.5t35 -235.5t102 -192.5t174.5 -131.5t243.5 -47.5zM458 1536v118h695v-118h-695z" />
    <glyph glyph-name="omacron" unicode="&#x14d;" 
d="M627 1026q240 0 383.5 -146t143.5 -377t-143.5 -377t-383.5 -146t-383.5 146t-143.5 377t143.5 377t383.5 146zM627 908q-181 0 -279.5 -113.5t-98.5 -291.5t98.5 -291.5t279.5 -113.5t279.5 113.5t98.5 291.5t-98.5 291.5t-279.5 113.5zM279 1316v118h695v-118h-695z
" />
    <glyph glyph-name="Obreve" unicode="&#x14e;" horiz-adv-x="1614" 
d="M807 -20q-168 0 -304 58.5t-223 159.5t-133.5 234t-46.5 285t46.5 285t133.5 234t223 159.5t304 58.5t304 -58.5t223 -159.5t133.5 -234t46.5 -285t-46.5 -285t-133.5 -234t-223 -159.5t-304 -58.5zM807 110q136 0 243.5 47.5t174.5 131.5t102 192.5t35 235.5t-35 235.5
t-102 192.5t-174.5 131.5t-243.5 47.5t-243.5 -47.5t-174.5 -131.5t-102 -192.5t-35 -235.5t35 -235.5t102 -192.5t174.5 -131.5t243.5 -47.5zM806 1556q-179 0 -276 117q-42 53 -58 117h108q62 -127 226 -127q48 0 86 9t76 38.5t64 79.5h108q-16 -64 -58 -117
q-95 -117 -276 -117z" />
    <glyph glyph-name="obreve" unicode="&#x14f;" 
d="M627 1026q240 0 383.5 -146t143.5 -377t-143.5 -377t-383.5 -146t-383.5 146t-143.5 377t143.5 377t383.5 146zM627 908q-181 0 -279.5 -113.5t-98.5 -291.5t98.5 -291.5t279.5 -113.5t279.5 113.5t98.5 291.5t-98.5 291.5t-279.5 113.5zM627 1200q-179 0 -276 117
q-42 53 -58 117h108q62 -127 226 -127q48 0 86 9t76 38.5t64 79.5h108q-16 -64 -58 -117q-95 -117 -276 -117z" />
    <glyph glyph-name="Ohungarumlaut" unicode="&#x150;" horiz-adv-x="1614" 
d="M807 -20q-168 0 -304 58.5t-223 159.5t-133.5 234t-46.5 285t46.5 285t133.5 234t223 159.5t304 58.5t304 -58.5t223 -159.5t133.5 -234t46.5 -285t-46.5 -285t-133.5 -234t-223 -159.5t-304 -58.5zM807 110q136 0 243.5 47.5t174.5 131.5t102 192.5t35 235.5t-35 235.5
t-102 192.5t-174.5 131.5t-243.5 47.5t-243.5 -47.5t-174.5 -131.5t-102 -192.5t-35 -235.5t35 -235.5t102 -192.5t174.5 -131.5t243.5 -47.5zM857 1536l121 336h159l-154 -336h-126zM607 1536l121 336h159l-154 -336h-126z" />
    <glyph glyph-name="ohungarumlaut" unicode="&#x151;" 
d="M627 1026q240 0 383.5 -146t143.5 -377t-143.5 -377t-383.5 -146t-383.5 146t-143.5 377t143.5 377t383.5 146zM627 908q-181 0 -279.5 -113.5t-98.5 -291.5t98.5 -291.5t279.5 -113.5t279.5 113.5t98.5 291.5t-98.5 291.5t-279.5 113.5zM688 1180l121 336h159l-154 -336
h-126zM438 1180l121 336h159l-154 -336h-126z" />
    <glyph glyph-name="OE" unicode="&#x152;" horiz-adv-x="2199" 
d="M1120 1391v43h949v-130h-801v-506h753v-130h-753v-538h811v-130h-959v41q-135 -61 -313 -61q-168 0 -304 58.5t-223 159.5t-133.5 234t-46.5 285t46.5 285t133.5 234t223 159.5t304 58.5q170 0 313 -63zM807 1324q-136 0 -243.5 -47.5t-174.5 -131.5t-102 -192.5
t-35 -235.5t35 -235.5t102 -192.5t174.5 -131.5t243.5 -47.5q185 0 313 84v1044q-131 86 -313 86z" />
    <glyph glyph-name="oe" unicode="&#x153;" horiz-adv-x="2073" 
d="M1489 98q183 0 330 124l88 -87q-150 -155 -418 -155q-141 0 -246.5 60t-167.5 169q-68 -108 -182 -168.5t-266 -60.5q-240 0 -383.5 146t-143.5 377t143.5 377t383.5 146q152 0 266 -60.5t182 -168.5q62 109 167.5 169t246.5 60q221 0 352.5 -148.5t131.5 -433.5h-819
q4 -151 94.5 -248.5t240.5 -97.5zM627 908q-181 0 -279.5 -113.5t-98.5 -291.5t98.5 -291.5t279.5 -113.5t279.5 113.5t98.5 291.5t-98.5 291.5t-279.5 113.5zM1154 562h670q-13 154 -99.5 250t-235.5 96t-235.5 -96t-99.5 -250z" />
    <glyph glyph-name="Racute" unicode="&#x154;" horiz-adv-x="1307" 
d="M288 0h-148v1434h625q203 0 321.5 -112.5t118.5 -300.5q0 -165 -102.5 -274.5t-259.5 -130.5l364 -616h-163l-359 608h-397v-608zM765 1304h-477v-566h477q145 0 217.5 76.5t72.5 206.5t-72.5 206.5t-217.5 76.5zM474 1536l261 292h188l-297 -292h-152z" />
    <glyph glyph-name="racute" unicode="&#x155;" horiz-adv-x="881" 
d="M140 1006h141v-165q31 75 107 130t197 55q125 0 223 -45l-67 -107q-64 34 -156 34q-155 0 -229.5 -93t-74.5 -255v-560h-141v1006zM382 1142l261 292h188l-297 -292h-152z" />
    <glyph glyph-name="Rcommaaccent" unicode="&#x156;" horiz-adv-x="1307" 
d="M288 0h-148v1434h625q203 0 321.5 -112.5t118.5 -300.5q0 -165 -102.5 -274.5t-259.5 -130.5l364 -616h-163l-359 608h-397v-608zM765 1304h-477v-566h477q145 0 217.5 76.5t72.5 206.5t-72.5 206.5t-217.5 76.5zM388 -532l163 425h163l-194 -425h-132z" />
    <glyph glyph-name="rcommaaccent" unicode="&#x157;" horiz-adv-x="913" 
d="M195 1006h141v-165q31 75 107 130t197 55q125 0 223 -45l-67 -107q-64 34 -156 34q-155 0 -229.5 -93t-74.5 -255v-560h-141v1006zM20 -532l163 425h163l-194 -425h-132z" />
    <glyph glyph-name="Rcaron" unicode="&#x158;" horiz-adv-x="1307" 
d="M288 0h-148v1434h625q203 0 321.5 -112.5t118.5 -300.5q0 -165 -102.5 -274.5t-259.5 -130.5l364 -616h-163l-359 608h-397v-608zM765 1304h-477v-566h477q145 0 217.5 76.5t72.5 206.5t-72.5 206.5t-217.5 76.5zM928 1848l-270 -312h-94l-270 312h139l178 -187l179 187
h138z" />
    <glyph glyph-name="rcaron" unicode="&#x159;" horiz-adv-x="858" 
d="M140 1006h141v-165q31 75 107 130t197 55q125 0 223 -45l-67 -107q-64 34 -156 34q-155 0 -229.5 -93t-74.5 -255v-560h-141v1006zM788 1434l-270 -312h-94l-270 312h139l178 -187l179 187h138z" />
    <glyph glyph-name="Sacute" unicode="&#x15a;" horiz-adv-x="1232" 
d="M1078 1334l-76 -111q-75 48 -179 74.5t-215 26.5q-157 0 -248 -59t-91 -178q0 -109 82 -167t289 -105q267 -60 389.5 -160.5t122.5 -283.5q0 -192 -131.5 -291.5t-374.5 -99.5q-375 0 -566 154l76 111q202 -135 490 -135q356 0 356 261q0 119 -83.5 186t-303.5 116
q-263 58 -379.5 155t-116.5 259q0 166 128 266.5t361 100.5q283 0 470 -120zM528 1536l261 292h188l-297 -292h-152z" />
    <glyph glyph-name="sacute" unicode="&#x15b;" horiz-adv-x="994" 
d="M854 936l-70 -100q-119 72 -297 72q-110 0 -174.5 -43t-64.5 -111q0 -64 61 -105t203 -67q212 -41 307 -108.5t95 -204.5q0 -139 -112 -214t-289 -75q-276 0 -433 125l70 100q164 -105 363 -105q111 0 183.5 43.5t72.5 125.5t-62 122.5t-219 69.5q-206 40 -295.5 110.5
t-89.5 182.5q0 118 98 195t286 77q235 0 367 -90zM410 1142l261 292h188l-297 -292h-152z" />
    <glyph glyph-name="Scircumflex" unicode="&#x15c;" horiz-adv-x="1232" 
d="M1078 1334l-76 -111q-75 48 -179 74.5t-215 26.5q-157 0 -248 -59t-91 -178q0 -109 82 -167t289 -105q267 -60 389.5 -160.5t122.5 -283.5q0 -192 -131.5 -291.5t-374.5 -99.5q-375 0 -566 154l76 111q202 -135 490 -135q356 0 356 261q0 119 -83.5 186t-303.5 116
q-263 58 -379.5 155t-116.5 259q0 166 128 266.5t361 100.5q283 0 470 -120zM298 1536l270 312h94l270 -312h-139l-178 187l-179 -187h-138z" />
    <glyph glyph-name="scircumflex" unicode="&#x15d;" horiz-adv-x="994" 
d="M854 936l-70 -100q-119 72 -297 72q-110 0 -174.5 -43t-64.5 -111q0 -64 61 -105t203 -67q212 -41 307 -108.5t95 -204.5q0 -139 -112 -214t-289 -75q-276 0 -433 125l70 100q164 -105 363 -105q111 0 183.5 43.5t72.5 125.5t-62 122.5t-219 69.5q-206 40 -295.5 110.5
t-89.5 182.5q0 118 98 195t286 77q235 0 367 -90zM181 1122l270 312h94l270 -312h-139l-178 187l-179 -187h-138z" />
    <glyph glyph-name="Scedilla" unicode="&#x15e;" horiz-adv-x="1232" 
d="M399 -421l48 85q32 -15 71 -24t80 -9.5t71 19.5t36 62q2 19 -2.5 34t-16.5 24t-24.5 15.5t-34.5 8t-37.5 2.5t-41 -1t-38 -3.5t-36.5 -4.5l69 196q-298 21 -463 151l76 111q202 -135 490 -135q356 0 356 261q0 119 -83.5 186t-303.5 116q-263 58 -379.5 155t-116.5 259
q0 166 128 266.5t361 100.5q283 0 470 -120l-76 -111q-75 48 -179 74.5t-215 26.5q-157 0 -248 -59t-91 -178q0 -109 82 -167t289 -105q267 -60 389.5 -160.5t122.5 -283.5q0 -189 -129 -289t-366 -102l-35 -100q90 0 145 -43t47 -125q-7 -74 -53.5 -119t-110 -55.5
t-131.5 0t-120 41.5z" />
    <glyph glyph-name="scedilla" unicode="&#x15f;" horiz-adv-x="994" 
d="M282 -421l48 85q32 -15 71 -24t80 -9.5t71 19.5t36 62q2 19 -2.5 34t-16.5 24t-24.5 15.5t-34.5 8t-37.5 2.5t-41 -1t-38 -3.5t-36.5 -4.5l70 197q-216 18 -347 121l70 100q164 -105 363 -105q111 0 183.5 43.5t72.5 125.5t-62 122.5t-219 69.5q-206 40 -295.5 110.5
t-89.5 182.5q0 118 98 195t286 77q235 0 367 -90l-70 -100q-119 72 -297 72q-110 0 -174.5 -43t-64.5 -111q0 -64 61 -105t203 -67q212 -41 307 -108.5t95 -204.5q0 -134 -103.5 -208t-270.5 -80l-35 -101q90 0 145 -43t47 -125q-7 -74 -53.5 -119t-110 -55.5t-131.5 0
t-120 41.5z" />
    <glyph glyph-name="Scaron" unicode="&#x160;" horiz-adv-x="1232" 
d="M1078 1334l-76 -111q-75 48 -179 74.5t-215 26.5q-157 0 -248 -59t-91 -178q0 -109 82 -167t289 -105q267 -60 389.5 -160.5t122.5 -283.5q0 -192 -131.5 -291.5t-374.5 -99.5q-375 0 -566 154l76 111q202 -135 490 -135q356 0 356 261q0 119 -83.5 186t-303.5 116
q-263 58 -379.5 155t-116.5 259q0 166 128 266.5t361 100.5q283 0 470 -120zM933 1848l-270 -312h-94l-270 312h139l178 -187l179 187h138z" />
    <glyph glyph-name="scaron" unicode="&#x161;" horiz-adv-x="994" 
d="M854 936l-70 -100q-119 72 -297 72q-110 0 -174.5 -43t-64.5 -111q0 -64 61 -105t203 -67q212 -41 307 -108.5t95 -204.5q0 -139 -112 -214t-289 -75q-276 0 -433 125l70 100q164 -105 363 -105q111 0 183.5 43.5t72.5 125.5t-62 122.5t-219 69.5q-206 40 -295.5 110.5
t-89.5 182.5q0 118 98 195t286 77q235 0 367 -90zM814 1434l-270 -312h-94l-270 312h139l178 -187l179 187h138z" />
    <glyph glyph-name="Tcommaaccent" unicode="&#x162;" horiz-adv-x="1318" 
d="M80 1434h1158v-130h-505v-1304h-148v1304h-505v130zM416 -532l163 425h163l-194 -425h-132z" />
    <glyph glyph-name="tcommaaccent" unicode="&#x163;" horiz-adv-x="842" 
d="M80 888v118h208v299h141v-299h304v-118h-304v-448q0 -66 1.5 -105.5t7 -83t16.5 -67t30.5 -45t48.5 -29.5t70 -8q63 0 123 20l36 -117q-63 -25 -159 -25q-60 0 -106 10t-79 27t-56.5 47.5t-38 64.5t-22 85.5t-10.5 102.5t-3 123v448h-208zM306 -532l163 425h163
l-194 -425h-132z" />
    <glyph glyph-name="Tcaron" unicode="&#x164;" horiz-adv-x="1318" 
d="M80 1434h1158v-130h-505v-1304h-148v1304h-505v130zM976 1848l-270 -312h-94l-270 312h139l178 -187l179 187h138z" />
    <glyph glyph-name="tcaron" unicode="&#x165;" horiz-adv-x="1159" 
d="M80 888v118h208v299h141v-299h304v-118h-304v-448q0 -66 1.5 -105.5t7 -83t16.5 -67t30.5 -45t48.5 -29.5t70 -8q63 0 123 20l36 -117q-63 -25 -159 -25q-60 0 -106 10t-79 27t-56.5 47.5t-38 64.5t-22 85.5t-10.5 102.5t-3 123v448h-208zM753 1009l163 425h163
l-194 -425h-132z" />
    <glyph glyph-name="Tbar" unicode="&#x166;" horiz-adv-x="1318" 
d="M237 875v131h348v298h-505v130h1158v-130h-505v-298h348v-131h-348v-875h-148v875h-348z" />
    <glyph glyph-name="tbar" unicode="&#x167;" horiz-adv-x="842" 
d="M80 552v118h208v218h-208v118h208v299h141v-299h304v-118h-304v-218h304v-118h-304v-112q0 -66 1.5 -105.5t7 -83t16.5 -67t30.5 -45t48.5 -29.5t70 -8q63 0 123 20l36 -117q-63 -25 -159 -25q-60 0 -106 10t-79 27t-56.5 47.5t-38 64.5t-22 85.5t-10.5 102.5t-3 123v112
h-208z" />
    <glyph glyph-name="Utilde" unicode="&#x168;" horiz-adv-x="1429" 
d="M715 110q218 0 322 125.5t104 377.5v821h148v-821q0 -308 -146 -470.5t-428 -162.5q-283 0 -429 162.5t-146 470.5v821h148v-821q0 -253 104 -378t323 -125zM675 1619q-2 2 -11.5 12.5t-14.5 14.5t-14 10.5t-18 9.5t-19 3q-26 0 -36 -42q-4 -18 -6 -41h-130q3 56 21 103
q42 103 151 103q80 0 156 -83q2 -2 11.5 -12.5t14.5 -14.5t14 -10.5t18 -9.5t19 -3q22 0 36 41q5 18 6 42h130q-3 -58 -21 -103q-41 -103 -151 -103q-80 0 -156 83z" />
    <glyph glyph-name="utilde" unicode="&#x169;" horiz-adv-x="1170" 
d="M1030 0h-141v165q-15 -35 -38.5 -65t-59.5 -58.5t-89 -45t-117 -16.5q-215 0 -330 122.5t-115 343.5v560h141v-560q0 -162 74.5 -255t229.5 -93t229.5 93t74.5 255v560h141v-1006zM546 1261q-2 2 -11.5 12.5t-14.5 14.5t-14 10.5t-18 9.5t-19 3q-26 0 -36 -42
q-4 -18 -6 -41h-130q3 56 21 103q42 103 151 103q80 0 156 -83q2 -2 11.5 -12.5t14.5 -14.5t14 -10.5t18 -9.5t19 -3q22 0 36 41q4 18 6 42h130q-3 -58 -21 -103q-41 -103 -151 -103q-80 0 -156 83z" />
    <glyph glyph-name="Umacron" unicode="&#x16a;" horiz-adv-x="1429" 
d="M715 110q218 0 322 125.5t104 377.5v821h148v-821q0 -308 -146 -470.5t-428 -162.5q-283 0 -429 162.5t-146 470.5v821h148v-821q0 -253 104 -378t323 -125zM367 1536v118h695v-118h-695z" />
    <glyph glyph-name="umacron" unicode="&#x16b;" horiz-adv-x="1170" 
d="M1030 0h-141v165q-15 -35 -38.5 -65t-59.5 -58.5t-89 -45t-117 -16.5q-215 0 -330 122.5t-115 343.5v560h141v-560q0 -162 74.5 -255t229.5 -93t229.5 93t74.5 255v560h141v-1006zM237 1316v118h695v-118h-695z" />
    <glyph glyph-name="Ubreve" unicode="&#x16c;" horiz-adv-x="1429" 
d="M715 110q218 0 322 125.5t104 377.5v821h148v-821q0 -308 -146 -470.5t-428 -162.5q-283 0 -429 162.5t-146 470.5v821h148v-821q0 -253 104 -378t323 -125zM714 1556q-179 0 -276 117q-42 53 -58 117h108q62 -127 226 -127q48 0 86 9t76 38.5t64 79.5h108
q-16 -64 -58 -117q-95 -117 -276 -117z" />
    <glyph glyph-name="ubreve" unicode="&#x16d;" horiz-adv-x="1170" 
d="M1030 0h-141v165q-15 -35 -38.5 -65t-59.5 -58.5t-89 -45t-117 -16.5q-215 0 -330 122.5t-115 343.5v560h141v-560q0 -162 74.5 -255t229.5 -93t229.5 93t74.5 255v560h141v-1006zM585 1200q-179 0 -276 117q-42 53 -58 117h108q62 -127 226 -127q48 0 86 9t76 38.5
t64 79.5h108q-16 -64 -58 -117q-95 -117 -276 -117z" />
    <glyph glyph-name="Uring" unicode="&#x16e;" horiz-adv-x="1429" 
d="M715 110q218 0 322 125.5t104 377.5v821h148v-821q0 -308 -146 -470.5t-428 -162.5q-283 0 -429 162.5t-146 470.5v821h148v-821q0 -253 104 -378t323 -125zM529 1721q0 76 55 130.5t130 54.5q76 0 130.5 -54.5t54.5 -130.5q0 -75 -54.5 -130t-130.5 -55q-75 0 -130 55
t-55 130zM625 1721q0 -37 26 -63t63 -26t63 26t26 63t-26 63t-63 26t-63 -26t-26 -63z" />
    <glyph glyph-name="uring" unicode="&#x16f;" horiz-adv-x="1170" 
d="M1030 0h-141v165q-15 -35 -38.5 -65t-59.5 -58.5t-89 -45t-117 -16.5q-215 0 -330 122.5t-115 343.5v560h141v-560q0 -162 74.5 -255t229.5 -93t229.5 93t74.5 255v560h141v-1006zM400 1309q0 76 55 130.5t130 54.5q76 0 130.5 -54.5t54.5 -130.5q0 -75 -54.5 -130
t-130.5 -55q-75 0 -130 55t-55 130zM496 1309q0 -37 26 -63t63 -26t63 26t26 63t-26 63t-63 26t-63 -26t-26 -63z" />
    <glyph glyph-name="Uhungarumlaut" unicode="&#x170;" horiz-adv-x="1429" 
d="M715 110q218 0 322 125.5t104 377.5v821h148v-821q0 -308 -146 -470.5t-428 -162.5q-283 0 -429 162.5t-146 470.5v821h148v-821q0 -253 104 -378t323 -125zM766 1536l121 336h159l-154 -336h-126zM516 1536l121 336h159l-154 -336h-126z" />
    <glyph glyph-name="uhungarumlaut" unicode="&#x171;" horiz-adv-x="1170" 
d="M1030 0h-141v165q-15 -35 -38.5 -65t-59.5 -58.5t-89 -45t-117 -16.5q-215 0 -330 122.5t-115 343.5v560h141v-560q0 -162 74.5 -255t229.5 -93t229.5 93t74.5 255v560h141v-1006zM645 1180l121 336h159l-154 -336h-126zM395 1180l121 336h159l-154 -336h-126z" />
    <glyph glyph-name="Uogonek" unicode="&#x172;" horiz-adv-x="1429" 
d="M715 110q218 0 322 125.5t104 377.5v821h148v-821q0 -261 -106 -418.5t-310 -199.5q-21 -6 -40.5 -16t-43.5 -27t-39 -45t-15 -62q0 -28 12 -48.5t27.5 -30.5t40 -15.5t40.5 -6.5t39 -1v-124q-72 -4 -133 11.5t-104.5 61t-44.5 116.5q-4 118 111 172h-8
q-283 0 -429 162.5t-146 470.5v821h148v-821q0 -253 104 -378t323 -125z" />
    <glyph glyph-name="uogonek" unicode="&#x173;" horiz-adv-x="1170" 
d="M916 0h-27v165q-15 -35 -38.5 -65t-59.5 -58.5t-89 -45t-117 -16.5q-215 0 -330 122.5t-115 343.5v560h141v-560q0 -162 74.5 -255t229.5 -93t229.5 93t74.5 255v560h141v-1006q-13 -3 -32.5 -10t-51.5 -23.5t-53.5 -48.5t-21.5 -73q0 -28 12 -48.5t27.5 -30.5t40 -15.5
t40.5 -6.5t39 -1v-124q-72 -4 -133 11.5t-104.5 61t-44.5 116.5q-4 146 168 192z" />
    <glyph glyph-name="Wcircumflex" unicode="&#x174;" horiz-adv-x="1956" 
d="M570 265l326 1169h164l326 -1169l369 1169h151l-460 -1434h-125l-343 1238l-343 -1238h-125l-460 1434h151zM662 1536l270 312h94l270 -312h-139l-178 187l-179 -187h-138z" />
    <glyph glyph-name="wcircumflex" unicode="&#x175;" horiz-adv-x="1528" 
d="M449 206l248 800h134l248 -800l246 800h153l-335 -1006h-130l-249 802l-249 -802h-130l-335 1006h153zM447 1122l270 312h94l270 -312h-139l-178 187l-179 -187h-138z" />
    <glyph glyph-name="Ycircumflex" unicode="&#x176;" horiz-adv-x="1362" 
d="M223 1434l458 -687l458 687h173l-557 -836v-598h-148v598l-557 836h173zM365 1536l270 312h94l270 -312h-139l-178 187l-179 -187h-138z" />
    <glyph glyph-name="ycircumflex" unicode="&#x177;" horiz-adv-x="1096" 
d="M548 155l338 851h160l-550 -1299q-42 -96 -60 -125q-72 -114 -204 -114q-106 0 -173 41l54 108q56 -27 102 -27q19 0 35 4t27.5 7.5t23 16t18 18.5t17 26t14 28t15.5 34.5t16 35.5l95 240l-426 1006h160zM232 1122l270 312h94l270 -312h-139l-178 187l-179 -187h-138z
" />
    <glyph glyph-name="Ydieresis" unicode="&#x178;" horiz-adv-x="1362" 
d="M223 1434l458 -687l458 687h173l-557 -836v-598h-148v598l-557 836h173zM399 1652q0 40 28 68t68 28t68 -28t28 -68t-28 -68t-68 -28t-68 28t-28 68zM772 1652q0 40 28 68t68 28t68 -28t28 -68t-28 -68t-68 -28t-68 28t-28 68z" />
    <glyph glyph-name="Zacute" unicode="&#x179;" horiz-adv-x="1320" 
d="M327 130h873v-130h-1080v80l869 1224h-866v130h1073v-80zM572 1536l261 292h188l-297 -292h-152z" />
    <glyph glyph-name="zacute" unicode="&#x17a;" horiz-adv-x="1091" 
d="M120 0v70l641 818h-617v118h827v-69l-640 -819h640v-118h-851zM434 1142l261 292h188l-297 -292h-152z" />
    <glyph glyph-name="Zdotaccent" unicode="&#x17b;" horiz-adv-x="1320" 
d="M327 130h873v-130h-1080v80l869 1224h-866v130h1073v-80zM564 1652q0 40 28 68t68 28t68 -28t28 -68t-28 -68t-68 -28t-68 28t-28 68z" />
    <glyph glyph-name="zdotaccent" unicode="&#x17c;" horiz-adv-x="1091" 
d="M120 0v70l641 818h-617v118h827v-69l-640 -819h640v-118h-851zM449 1297q0 40 28 68t68 28t68 -28t28 -68t-28 -68t-68 -28t-68 28t-28 68z" />
    <glyph glyph-name="Zcaron" unicode="&#x17d;" horiz-adv-x="1320" 
d="M327 130h873v-130h-1080v80l869 1224h-866v130h1073v-80zM977 1848l-270 -312h-94l-270 312h139l178 -187l179 187h138z" />
    <glyph glyph-name="zcaron" unicode="&#x17e;" horiz-adv-x="1091" 
d="M120 0v70l641 818h-617v118h827v-69l-640 -819h640v-118h-851zM862 1434l-270 -312h-94l-270 312h139l178 -187l179 187h138z" />
    <glyph glyph-name="longs" unicode="&#x17f;" horiz-adv-x="879" 
d="M449 1070v-1070h-141v888h-208v118h208v64q0 240 73 353t251 113q121 0 197 -36l-43 -107q-75 25 -144 25q-113 0 -153 -74.5t-40 -273.5z" />
    <glyph glyph-name="uni0180" unicode="&#x180;" horiz-adv-x="1361" 
d="M388 0h-141v1172h-197v118h197v226h141v-226h298v-118h-298v-373q57 111 157 169t205 58q124 0 223 -42t161 -114.5t94.5 -166t32.5 -200.5t-32.5 -200.5t-94.5 -166t-161 -114.5t-223 -42q-105 0 -205 58t-157 169v-207zM750 908q-115 0 -198.5 -57t-123.5 -147.5
t-40 -200.5t40 -200.5t123.5 -147.5t198.5 -57t198.5 57.5t123.5 147.5t40 200t-40 200t-123.5 147.5t-198.5 57.5z" />
    <glyph glyph-name="uni0181" unicode="&#x181;" horiz-adv-x="1638" 
d="M1018 0h-594v1304h-64q-26 0 -44 -2.5t-42 -13t-39 -30t-26 -56.5t-11 -89h-148q0 66 14 118.5t34 85.5t51.5 57t56.5 35t60.5 17.5t52 7t41.5 0.5h638q111 0 196.5 -22t138.5 -57.5t87 -85.5t47 -102t13 -111q0 -106 -54 -185.5t-141 -114.5q253 -89 253 -346
q0 -64 -16 -121t-54.5 -111t-96.5 -92.5t-148.5 -62t-204.5 -23.5zM572 130h446q102 0 176 23.5t114 64.5t58 88.5t18 103.5q0 116 -72.5 194.5t-209.5 78.5h-530v-553zM572 813h530q106 0 165 67.5t59 175.5q0 43 -7.5 77t-29 67.5t-57 55t-95 35t-139.5 13.5h-426v-491z
" />
    <glyph glyph-name="uni0182" unicode="&#x182;" horiz-adv-x="1209" 
d="M140 1434h875v-130h-727v-499h435q189 0 287.5 -113t98.5 -290q0 -85 -23.5 -157t-70 -127t-121.5 -86.5t-171 -31.5h-583v1434zM288 130h435q65 0 113.5 23t74.5 62.5t38 86t12 100.5q0 55 -12 101t-38 86t-74 63t-114 23h-435v-545z" />
    <glyph glyph-name="uni0183" unicode="&#x183;" 
d="M281 0h-141v1434h896v-118h-755v-517q57 111 157 169t205 58q124 0 223 -42t161 -114.5t94.5 -166t32.5 -200.5t-32.5 -200.5t-94.5 -166t-161 -114.5t-223 -42q-105 0 -205 58t-157 169v-207zM643 908q-115 0 -198.5 -57t-123.5 -147.5t-40 -200.5t40 -200.5
t123.5 -147.5t198.5 -57t198.5 57.5t123.5 147.5t40 200t-40 200t-123.5 147.5t-198.5 57.5z" />
    <glyph glyph-name="uni0184" unicode="&#x184;" horiz-adv-x="1180" 
d="M1080 468q0 -59 -13 -121t-47 -129t-85 -119t-135 -85.5t-190 -33.5q-98 0 -178.5 30.5t-133.5 80t-89.5 114.5t-52.5 131t-16 132v1048h141v-729q37 65 126.5 117t202.5 52q106 0 190 -34t135 -85.5t85 -119t47 -129t13 -120.5zM939 468q0 50 -9.5 99t-33.5 99t-60 87.5
t-94.5 61t-131.5 23.5t-131.5 -23.5t-94.5 -61t-60 -87.5t-33.5 -99t-9.5 -99q0 -51 9.5 -99.5t33.5 -98.5t60 -87.5t94.5 -61t131.5 -23.5t131.5 23.5t94.5 61t60 87.5t33.5 98.5t9.5 99.5z" />
    <glyph glyph-name="uni0185" unicode="&#x185;" 
d="M140 503v1013h141v-717q57 111 157 169t205 58q155 0 273 -72.5t178 -190.5t60 -260t-60 -260t-178 -190.5t-273 -72.5q-141 0 -253.5 60t-181 180.5t-68.5 282.5zM643 908q-115 0 -198.5 -57t-123.5 -147.5t-40 -200.5t40 -200.5t123.5 -147.5t198.5 -57t198.5 57.5
t123.5 147.5t40 200t-40 200t-123.5 147.5t-198.5 57.5z" />
    <glyph glyph-name="uni0186" unicode="&#x186;" horiz-adv-x="1363" 
d="M1111 717q0 127 -35 235.5t-102 192.5t-174.5 131.5t-243.5 47.5q-221 0 -397 -116l-79 108q181 138 476 138q168 0 304 -58.5t223 -159.5t133.5 -234t46.5 -285t-46.5 -285t-133.5 -234t-223 -159.5t-304 -58.5q-295 0 -476 138l79 108q176 -116 397 -116
q136 0 243.5 47.5t174.5 131.5t102 192.5t35 235.5z" />
    <glyph glyph-name="uni0187" unicode="&#x187;" horiz-adv-x="1423" 
d="M252 717q0 -127 35 -235.5t102 -192.5t174.5 -131.5t243.5 -47.5q221 0 397 116l79 -108q-181 -138 -476 -138q-168 0 -304 58.5t-223 159.5t-133.5 234t-46.5 285t46.5 285t133.5 234t223 159.5t304 58.5q193 0 309 -60q0 102 52.5 165t174.5 63v-132q-47 0 -69.5 -17
t-22.5 -60v-236q-197 147 -444 147q-136 0 -243.5 -47.5t-174.5 -131.5t-102 -192.5t-35 -235.5z" />
    <glyph glyph-name="uni0188" unicode="&#x188;" horiz-adv-x="1165" 
d="M249 503q0 -178 98.5 -291.5t279.5 -113.5q171 0 297 105l74 -95q-140 -128 -371 -128q-240 0 -383.5 146t-143.5 377t143.5 377t383.5 146q144 0 244 -49q0 223 214 223v-120q-45 0 -67.5 -22.5t-22.5 -54.5v-239q-163 144 -368 144q-181 0 -279.5 -113.5t-98.5 -291.5z
" />
    <glyph glyph-name="uni0189" unicode="&#x189;" horiz-adv-x="1519" 
d="M50 652v126h211v656h458q180 0 316 -53.5t219 -151t124 -226t41 -286.5t-41 -286.5t-124 -226t-219 -151t-316 -53.5h-458v652h-211zM409 652v-522h310q147 0 255.5 45t171 126.5t92 184.5t29.5 231t-29.5 231t-92 184.5t-171 126.5t-255.5 45h-310v-526h330v-126h-330z
" />
    <glyph glyph-name="uni018A" unicode="&#x18a;" horiz-adv-x="1682" 
d="M1582 717q0 -158 -41 -286.5t-124 -226t-219 -151t-316 -53.5h-458v1304h-64q-26 0 -44 -2.5t-42 -13t-39 -30t-26 -56.5t-11 -89h-148q0 66 14 118.5t34 85.5t51.5 57t56.5 35t60.5 17.5t52 7t41.5 0.5h522q180 0 316 -53.5t219 -151t124 -226t41 -286.5zM572 1304
v-1174h310q147 0 255.5 45t171 126.5t92 184.5t29.5 231t-29.5 231t-92 184.5t-171 126.5t-255.5 45h-310z" />
    <glyph glyph-name="uni018B" unicode="&#x18b;" horiz-adv-x="1209" 
d="M194 1434h875v-1434h-583q-96 0 -171 31.5t-121.5 86.5t-70 127t-23.5 157q0 177 98.5 290t287.5 113h435v499h-727v130zM486 130h435v545h-435q-66 0 -114 -23t-74 -63t-38 -86t-12 -101q0 -54 12 -100.5t38 -86t74 -62.5t114 -23z" />
    <glyph glyph-name="uni018C" unicode="&#x18c;" 
d="M1114 0h-141v207q-57 -111 -157 -169t-205 -58q-124 0 -223 42t-161 114.5t-94.5 166t-32.5 200.5t32.5 200.5t94.5 166t161 114.5t223 42q105 0 205 -58t157 -169v517h-755v118h896v-1434zM611 908q-115 0 -198.5 -57.5t-123.5 -147.5t-40 -200t40 -200t123.5 -147.5
t198.5 -57.5t198.5 57t123.5 147.5t40 200.5t-40 200.5t-123.5 147.5t-198.5 57z" />
    <glyph glyph-name="uni018D" unicode="&#x18d;" 
d="M627 1026q240 0 383.5 -146t143.5 -377q0 -124 -47 -228t-125 -171t-182.5 -99.5t-218.5 -22.5l449 -428v-86h-774v118h555l-568 540q-143 143 -143 377q0 231 143.5 377t383.5 146zM627 908q-181 0 -279.5 -113.5t-98.5 -291.5t98.5 -291.5t279.5 -113.5t279.5 113.5
t98.5 291.5t-98.5 291.5t-279.5 113.5z" />
    <glyph glyph-name="uni018E" unicode="&#x18e;" horiz-adv-x="1219" 
d="M178 798h753v506h-801v130h949v-1434h-959v130h811v538h-753v130z" />
    <glyph glyph-name="uni018F" unicode="&#x18f;" horiz-adv-x="1540" 
d="M771 1324q-166 0 -284 -44.5t-192 -104.5l-87 108q199 171 563 171q133 0 242.5 -35t188 -100t132.5 -156t80 -203t26 -243t-26 -243t-80 -203t-132.5 -156t-188 -100t-242.5 -35q-159 0 -286.5 52.5t-216 152.5t-132 253t-34.5 346h1190q-4 248 -138 394t-383 146z
M1292 655h-1042q4 -254 137.5 -399.5t383.5 -145.5q249 0 383 145.5t138 399.5z" />
    <glyph glyph-name="uni0190" unicode="&#x190;" horiz-adv-x="1220" 
d="M1015 261l105 -84q-17 -22 -39 -44t-65 -51t-94 -50.5t-129 -36.5t-166 -15q-114 0 -209 26t-166.5 77t-111.5 133.5t-40 189.5q0 75 26 137t69 103.5t90 68t99 41.5q-102 33 -171 118t-69 206q0 172 134 273t349 101q83 0 157.5 -17t122.5 -39.5t89 -53.5t59 -50t31 -37
l-105 -84q-14 17 -37 37t-67 48.5t-110 47t-140 18.5q-164 0 -249.5 -71.5t-85.5 -172.5q0 -48 16 -87t42.5 -66t65.5 -47t79.5 -31.5t90.5 -18.5t93 -9.5t92 -2.5v-130q-74 0 -134.5 -4.5t-122.5 -15.5t-108 -31.5t-83 -51t-56 -76t-19 -103.5q0 -144 99 -220t280 -76
q81 0 149.5 15.5t116 43.5t72 47t50.5 45z" />
    <glyph glyph-name="uni0191" unicode="&#x191;" horiz-adv-x="1261" 
d="M340 798h753v-130h-753v-889q0 -70 -15 -123.5t-49.5 -97.5t-99 -67t-156.5 -23v130q93 0 132.5 45.5t39.5 134.5v1656h949v-130h-801v-506z" />
    <glyph glyph-name="florin" unicode="&#x192;" horiz-adv-x="1135" 
d="M637 875l-199 -1104q-6 -26 -9.5 -41.5t-16.5 -51t-27.5 -59t-43 -55t-62 -50.5t-84.5 -32.5t-112 -13.5h-153l24 130h138q47 0 82.5 12.5t55 29t34 45.5t20 48t11.5 51l197 1091h-274l26 131h271l22 125q6 26 9.5 41.5t16.5 51t27.5 59t43 55t62 50.5t84.5 32.5
t112 13.5h153l-24 -130h-138q-47 0 -82.5 -12.5t-55 -29t-34 -45.5t-20 -48t-11.5 -51l-20 -112h276l-26 -131h-273z" />
    <glyph glyph-name="uni0193" unicode="&#x193;" horiz-adv-x="1541" 
d="M807 1324q-136 0 -243.5 -47.5t-174.5 -131.5t-102 -192.5t-35 -235.5t35 -235.5t102 -192.5t174.5 -131.5t243.5 -47.5q272 0 417 112v436h-379v130h517v-641q-111 -89 -244 -128t-311 -39q-168 0 -304 58.5t-223 159.5t-133.5 234t-46.5 285t46.5 285t133.5 234
t223 159.5t304 58.5q239 0 409 -83q4 36 14 69.5t32 71t54 65t85 45.5t120 18v-130q-35 0 -63.5 -9.5t-46 -23t-30 -35.5t-18.5 -39t-9 -42.5t-3.5 -37t-0.5 -31.5v-6l-79 -102q-176 140 -464 140z" />
    <glyph glyph-name="uni0194" unicode="&#x194;" horiz-adv-x="1380" 
d="M209 1434l481 -1282l481 1282h159l-560 -1434q127 -157 127 -298q0 -58 -16.5 -102t-40 -68.5t-54 -39.5t-53.5 -19.5t-43 -4.5t-43 4.5t-53.5 19.5t-54 39.5t-40 68.5t-16.5 102q0 141 127 298l-560 1434h159zM690 -118q-31 -54 -45 -94.5t-14 -91.5q0 -39 17.5 -65.5
t41.5 -26.5t41.5 26.5t17.5 65.5q0 51 -14 91.5t-45 94.5z" />
    <glyph glyph-name="uni0195" unicode="&#x195;" horiz-adv-x="1919" 
d="M1334 -20q-215 0 -330 122.5t-115 343.5v114q0 162 -74.5 255t-229.5 93t-229.5 -93t-74.5 -255v-560h-141v1516h141v-675q31 75 107 130t197 55q215 0 330 -122.5t115 -343.5v-114q0 -162 74.5 -255t229.5 -93t229.5 93t74.5 255v560h141v-560q0 -221 -115 -343.5
t-330 -122.5z" />
    <glyph glyph-name="uni0196" unicode="&#x196;" horiz-adv-x="487" 
d="M140 210v1224h148v-1224q0 -41 10 -60.5t36 -19.5h53v-130h-53q-51 0 -89 16.5t-57.5 39t-31 54t-14 54t-2.5 46.5z" />
    <glyph glyph-name="uni0197" unicode="&#x197;" horiz-adv-x="730" 
d="M100 725v130h191v579h148v-579h191v-130h-191v-725h-148v725h-191z" />
    <glyph glyph-name="uni0198" unicode="&#x198;" horiz-adv-x="1324" 
d="M289 704l768 730h194l-639 -607l662 -827h-177l-585 732l-223 -212v-520h-148v1123q0 25 0.5 38.5t6 50.5t16.5 61.5t34.5 57.5t56.5 53.5t86.5 35t120.5 14.5v-130q-29 0 -53 -5t-41 -10.5t-30.5 -18.5t-21.5 -21t-13.5 -26t-8 -25t-4 -27.5t-1.5 -23.5v-22v-421z" />
    <glyph glyph-name="uni0199" unicode="&#x199;" horiz-adv-x="1061" 
d="M281 553l527 453h198l-469 -403l474 -603h-167l-406 518l-157 -135v-383h-141v1073q0 95 7 163t25 127.5t50 95.5t83.5 56.5t122.5 20.5q87 0 186 -37l-37 -111q-77 28 -149 28q-34 0 -59 -12.5t-41 -39t-25.5 -55t-14 -72.5t-6 -78.5t-1.5 -85.5v-520z" />
    <glyph glyph-name="uni019A" unicode="&#x19a;" horiz-adv-x="631" 
d="M50 788v118h195v610h141v-610h195v-118h-195v-563q0 -27 1.5 -42.5t6 -32.5t16.5 -24.5t31 -7.5h52v-118h-52q-63 0 -104.5 20t-60 56t-25 70t-6.5 79v563h-195z" />
    <glyph glyph-name="uni019B" unicode="&#x19b;" horiz-adv-x="1156" 
d="M916 0l-338 851l-338 -851h-160l426 1006l-56 142l-199 -98l-52 106l206 102q-15 36 -19.5 46t-17.5 36t-22 34t-24.5 21t-34 17t-42.5 4q-46 0 -102 -27l-54 108q67 41 173 41q34 0 64.5 -8t52 -18.5t42 -32t32.5 -36.5t27 -43.5t21 -42t18 -43.5l195 96l53 -106
l-201 -99l510 -1205h-160z" />
    <glyph glyph-name="uni019C" unicode="&#x19c;" horiz-adv-x="1736" 
d="M1596 1434v-1434h-148v128q-81 -148 -253 -148q-76 0 -134 16t-95 46t-59.5 61t-39.5 72q-97 -195 -326 -195q-214 0 -307.5 135.5t-93.5 390.5v928h148v-928q0 -195 57 -295.5t196 -100.5q71 0 121 27t78.5 80t41 123.5t12.5 165.5v928h148v-928q0 -195 57 -295.5
t196 -100.5q71 0 121 27t78.5 80t41 123.5t12.5 165.5v928h148z" />
    <glyph glyph-name="uni019D" unicode="&#x19d;" horiz-adv-x="1462" 
d="M192 -221v1655h179l803 -1227v1227h148v-1434h-179l-803 1227v-1448q0 -21 -0.5 -35.5t-6.5 -50t-17 -61t-34.5 -59t-56.5 -54.5t-86 -36t-119 -15v130q29 0 53 5t40.5 10.5t30 18.5t21.5 21t14 26.5t8.5 25.5t3.5 27.5t1 24v22.5z" />
    <glyph glyph-name="uni019E" unicode="&#x19e;" horiz-adv-x="1170" 
d="M140 1006h141v-165q31 75 107 130t197 55q215 0 330 -122.5t115 -343.5v-1092h-141v1092q0 162 -74.5 255t-229.5 93t-229.5 -93t-74.5 -255v-560h-141v1006z" />
    <glyph glyph-name="uni019F" unicode="&#x19f;" horiz-adv-x="1614" 
d="M807 -20q-168 0 -304 58.5t-223 159.5t-133.5 234t-46.5 285t46.5 285t133.5 234t223 159.5t304 58.5t304 -58.5t223 -159.5t133.5 -234t46.5 -285t-46.5 -285t-133.5 -234t-223 -159.5t-304 -58.5zM807 1324q-128 0 -230 -41.5t-169 -116t-106 -171.5t-48 -213h1105
q-8 115 -47 212.5t-106 171.5t-169.5 116t-229.5 42zM807 110q127 0 229.5 41.5t170 115.5t106 171.5t46.5 213.5h-1105q9 -116 48 -213t106 -171.5t169 -116t230 -41.5z" />
    <glyph glyph-name="Ohorn" unicode="&#x1a0;" horiz-adv-x="1614" 
d="M807 -20q-168 0 -304 58.5t-223 159.5t-133.5 234t-46.5 285t46.5 285t133.5 234t223 159.5t304 58.5q210 0 371 -92q70 10 119 57t49 145h148q0 -119 -54 -190.5t-141 -102.5q105 -102 160 -245t55 -309q0 -152 -46.5 -285t-133.5 -234t-223 -159.5t-304 -58.5zM807 110
q136 0 243.5 47.5t174.5 131.5t102 192.5t35 235.5t-35 235.5t-102 192.5t-174.5 131.5t-243.5 47.5t-243.5 -47.5t-174.5 -131.5t-102 -192.5t-35 -235.5t35 -235.5t102 -192.5t174.5 -131.5t243.5 -47.5z" />
    <glyph glyph-name="ohorn" unicode="&#x1a1;" horiz-adv-x="1264" 
d="M627 1026q143 0 257 -56q31 1 60 9.5t60.5 27.5t51 59.5t19.5 97.5h139q0 -66 -17 -118t-47 -85.5t-62 -54.5t-71 -33q137 -145 137 -370q0 -231 -143.5 -377t-383.5 -146t-383.5 146t-143.5 377t143.5 377t383.5 146zM627 908q-181 0 -279.5 -113.5t-98.5 -291.5
t98.5 -291.5t279.5 -113.5t279.5 113.5t98.5 291.5t-98.5 291.5t-279.5 113.5z" />
    <glyph glyph-name="uni01A2" unicode="&#x1a2;" horiz-adv-x="2110" 
d="M807 -20q-168 0 -304 58.5t-223 159.5t-133.5 234t-46.5 285t46.5 285t133.5 234t223 159.5t304 58.5q274 0 458 -152q56 77 141 114.5t178 37.5q82 0 150.5 -27t122 -81.5t83.5 -144.5t30 -208v-993h-148v993q0 165 -63.5 248t-174.5 83q-144 0 -225 -119
q155 -199 155 -488q0 -152 -46.5 -285t-133.5 -234t-223 -159.5t-304 -58.5zM807 110q136 0 243.5 47.5t174.5 131.5t102 192.5t35 235.5t-35 235.5t-102 192.5t-174.5 131.5t-243.5 47.5t-243.5 -47.5t-174.5 -131.5t-102 -192.5t-35 -235.5t35 -235.5t102 -192.5
t174.5 -131.5t243.5 -47.5z" />
    <glyph glyph-name="uni01A3" unicode="&#x1a3;" horiz-adv-x="1658" 
d="M627 1026q168 0 294 -77q119 77 269 77q99 0 164.5 -29.5t101 -92t49 -142.5t13.5 -199v-1095h-141v1095q0 59 -3 102t-14 91.5t-31 79t-55 50.5t-84 20q-84 0 -164 -44q128 -142 128 -359q0 -231 -143.5 -377t-383.5 -146t-383.5 146t-143.5 377t143.5 377t383.5 146z
M627 908q-181 0 -279.5 -113.5t-98.5 -291.5t98.5 -291.5t279.5 -113.5t279.5 113.5t98.5 291.5t-98.5 291.5t-279.5 113.5z" />
    <glyph glyph-name="uni01A4" unicode="&#x1a4;" horiz-adv-x="1614" 
d="M572 0h-148v1304h-64q-26 0 -44 -2.5t-42 -13t-39 -30t-26 -56.5t-11 -89h-148q0 66 14 118.5t34 85.5t51.5 57t56.5 35t60.5 17.5t52 7t41.5 0.5h659q225 0 350 -117.5t125 -323.5q0 -208 -125 -324.5t-350 -116.5h-447v-552zM1019 1304h-447v-622h447q161 0 243 82.5
t82 228.5q0 145 -82 228t-243 83z" />
    <glyph glyph-name="uni01A5" unicode="&#x1a5;" horiz-adv-x="1294" 
d="M140 1006h141v-207q57 111 157 169t205 58q152 0 265 -63q51 233 286 233v-118q-168 0 -174 -202q134 -145 134 -373q0 -107 -32.5 -200.5t-94.5 -166t-161 -114.5t-223 -42q-105 0 -205 58t-157 169v-739h-141v1538zM643 98q115 0 198.5 57.5t123.5 147.5t40 200
t-40 200t-123.5 147.5t-198.5 57.5t-198.5 -57t-123.5 -147.5t-40 -200.5t40 -200.5t123.5 -147.5t198.5 -57z" />
    <glyph glyph-name="uni01A6" unicode="&#x1a6;" horiz-adv-x="1307" 
d="M288 0h-148v1434h148v-218h477q203 0 321.5 -112.5t118.5 -300.5q0 -165 -102.5 -274.5t-259.5 -130.5l364 -616h-163l-359 608h-397v-390zM765 1086h-477v-566h477q145 0 217.5 76.5t72.5 206.5t-72.5 206.5t-217.5 76.5z" />
    <glyph glyph-name="uni01A7" unicode="&#x1a7;" horiz-adv-x="1232" 
d="M230 1223l-76 111q187 120 470 120q233 0 361 -100.5t128 -266.5q0 -162 -116.5 -259t-379.5 -155q-220 -49 -303.5 -116t-83.5 -186q0 -261 356 -261q288 0 490 135l76 -111q-191 -154 -566 -154q-243 0 -374.5 99.5t-131.5 291.5q0 183 122.5 283.5t389.5 160.5
q207 48 289 106t82 166q0 119 -91 178t-248 59q-111 0 -215 -26.5t-179 -74.5z" />
    <glyph glyph-name="uni01A8" unicode="&#x1a8;" horiz-adv-x="994" 
d="M210 836l-70 100q132 90 367 90q188 0 286 -77t98 -195q0 -112 -89.5 -182.5t-295.5 -110.5q-157 -29 -219 -69.5t-62 -122.5t72.5 -125.5t183.5 -43.5q199 0 363 105l70 -100q-157 -125 -433 -125q-177 0 -289 75t-112 214q0 137 95 204.5t307 108.5q141 26 202.5 67
t61.5 105q0 68 -64.5 111t-174.5 43q-178 0 -297 -72z" />
    <glyph glyph-name="uni01A9" unicode="&#x1a9;" horiz-adv-x="1251" 
d="M129 1434h1002v-130h-776l437 -587l-439 -587h778v-130h-1011v77l486 640l-477 640v77z" />
    <glyph glyph-name="uni01AA" unicode="&#x1aa;" horiz-adv-x="639" 
d="M291 225v899q-5 -2 -25 -2q-69 0 -117.5 48.5t-48.5 117.5t48.5 117.5t117.5 48.5t117.5 -48.5t48.5 -117.5v-1063q0 -27 1.5 -42.5t6 -32.5t16.5 -24.5t31 -7.5h52v-118h-52q-63 0 -104.5 20t-60 56t-25 70t-6.5 79zM216 1288q0 -21 14.5 -35.5t35.5 -14.5t35.5 14.5
t14.5 35.5t-14.5 35.5t-35.5 14.5t-35.5 -14.5t-14.5 -35.5z" />
    <glyph glyph-name="uni01AB" unicode="&#x1ab;" horiz-adv-x="854" 
d="M80 888v118h208v299h141v-299h304v-118h-304v-448q0 -66 1.5 -105.5t7 -83t16.5 -67t30.5 -45t48.5 -29.5t70 -8q87 0 171 29v-148q0 -312 -303 -312v118q100 0 134 49t34 143q-91 -5 -153.5 11.5t-101.5 49t-60 93t-28.5 130.5t-7.5 175v448h-208z" />
    <glyph glyph-name="uni01AC" unicode="&#x1ac;" horiz-adv-x="1318" 
d="M390 1434h848v-130h-505v-1304h-148v1304h-195q-26 0 -44 -2.5t-42 -13t-39 -30t-26 -56.5t-11 -89h-148q0 66 13.5 118.5t32.5 85.5t50 57t55.5 35t60.5 17t53.5 7t44.5 1z" />
    <glyph glyph-name="uni01AD" unicode="&#x1ad;" horiz-adv-x="842" 
d="M80 888v118h208v125q0 154 71 228.5t242 74.5v-137q-56 0 -92 -11.5t-52.5 -36.5t-22 -51t-5.5 -67v-125h304v-118h-304v-448q0 -66 1.5 -105.5t7 -83t16.5 -67t30.5 -45t48.5 -29.5t70 -8q63 0 123 20l36 -117q-63 -25 -159 -25q-60 0 -106 10t-79 27t-56.5 47.5
t-38 64.5t-22 85.5t-10.5 102.5t-3 123v448h-208z" />
    <glyph glyph-name="uni01AE" unicode="&#x1ae;" horiz-adv-x="1318" 
d="M80 1434h1158v-130h-505v-1304v-28t1.5 -29.5t4 -33.5t8.5 -30.5t14.5 -30.5t22.5 -24.5t31.5 -21.5t42.5 -12.5t55 -5.5v-130q-54 0 -99 9.5t-77 24t-57 38.5t-41 44.5t-27 51.5t-16 50.5t-8 50.5t-3 42.5v34.5v1304h-505v130z" />
    <glyph glyph-name="Uhorn" unicode="&#x1af;" horiz-adv-x="1459" 
d="M715 110q218 0 322 125.5t104 377.5v821h104q146 9 146 180h148q0 -68 -20 -123t-48.5 -87.5t-65 -56t-64.5 -32.5t-52 -12v-690q0 -308 -146 -470.5t-428 -162.5q-283 0 -429 162.5t-146 470.5v821h148v-821q0 -253 104 -378t323 -125z" />
    <glyph glyph-name="uhorn" unicode="&#x1b0;" horiz-adv-x="1347" 
d="M1030 0h-141v165q-15 -35 -38.5 -65t-59.5 -58.5t-89 -45t-117 -16.5q-215 0 -330 122.5t-115 343.5v560h141v-560q0 -162 74.5 -255t229.5 -93t229.5 93t74.5 255v560h141q27 0 41.5 1t42 10t42.5 25.5t27.5 51.5t12.5 85h131q0 -59 -13.5 -106.5t-33 -77.5t-50 -51.5
t-55 -32t-58 -16t-49.5 -6.5t-38 -1v-888z" />
    <glyph glyph-name="uni01B1" unicode="&#x1b1;" horiz-adv-x="1632" 
d="M816 110q123 0 223.5 42t166.5 115.5t102 173t36 215.5q0 102 -27.5 195t-71.5 162.5t-105 130.5t-121 102t-128 75v113h557v-130h-349q67 -34 133.5 -94t126 -142t96.5 -190.5t37 -221.5q0 -192 -82.5 -345t-237.5 -242t-356 -89t-356 89t-237.5 242t-82.5 345
q0 113 37 221.5t96.5 190.5t126 142t133.5 94h-349v130h557v-113q-67 -32 -128.5 -73.5t-122 -102.5t-104.5 -131t-71 -163t-27 -195q0 -116 35.5 -215.5t101.5 -173t166.5 -115.5t224.5 -42z" />
    <glyph glyph-name="uni01B2" unicode="&#x1b2;" horiz-adv-x="1196" 
d="M212 1434l487 -1223q149 346 227.5 593t78.5 366q0 74 -35.5 101.5t-112.5 27.5v135q289 12 289 -265q0 -158 -94.5 -442t-293.5 -727h-124l-584 1434h162z" />
    <glyph glyph-name="uni01B3" unicode="&#x1b3;" horiz-adv-x="1426" 
d="M671 0v598l-351 527q-21 31 -35 49.5t-39.5 44.5t-50.5 40t-63 24.5t-82 10.5v140q44 0 82.5 -4.5t71 -16.5t57 -22.5t49 -31.5t39 -33.5t35 -40.5t29 -40t28.5 -42l304 -456l458 687h173l-557 -836v-598h-148z" />
    <glyph glyph-name="uni01B4" unicode="&#x1b4;" horiz-adv-x="1160" 
d="M548 155l217 546q20 53 37 89t46.5 80.5t63.5 71.5t85 45.5t113 18.5v-130q-40 0 -71.5 -15t-57.5 -48.5t-44.5 -70t-43.5 -97.5l-397 -938q-42 -96 -60 -125q-72 -114 -204 -114q-106 0 -173 41l54 108q56 -27 102 -27q19 0 35 4t27.5 7.5t23 16t18 18.5t17 26t14 28
t15.5 34.5t16 35.5l95 240l-426 1006h160z" />
    <glyph glyph-name="uni01B5" unicode="&#x1b5;" horiz-adv-x="1320" 
d="M327 130h873v-130h-1080v80l420 592h-256v131h349l356 501h-866v130h1073v-80l-391 -551h245v-131h-338z" />
    <glyph glyph-name="uni01B6" unicode="&#x1b6;" horiz-adv-x="1091" 
d="M120 0v70l294 375h-203v118h295l255 325h-617v118h827v-69l-293 -374h204v-118h-296l-255 -327h640v-118h-851z" />
    <glyph glyph-name="uni01B7" unicode="&#x1b7;" horiz-adv-x="1177" 
d="M100 216l103 80q22 -31 51.5 -59.5t76 -59t113.5 -49t144 -18.5q154 0 247.5 88t93.5 246q0 168 -114.5 244t-364.5 76v108l371 432h-663v130h887v-78l-407 -473q56 -9 105.5 -22t114 -45.5t110 -77.5t77.5 -121.5t32 -172.5q0 -116 -43.5 -208t-115 -146t-156 -82
t-174.5 -28q-97 0 -182 21.5t-143.5 57.5t-98.5 75t-64 82z" />
    <glyph glyph-name="uni01B8" unicode="&#x1b8;" horiz-adv-x="1177" 
d="M974 296l103 -80q-25 -43 -64.5 -82t-98 -75t-143 -57.5t-182.5 -21.5q-90 0 -174.5 28t-156 82t-115 146t-43.5 208q0 96 32 172.5t77.5 121t110 77t114 46t105.5 22.5l-407 473v78h887v-130h-663l371 -432v-108q-250 0 -364.5 -76t-114.5 -244q0 -158 93.5 -246
t247.5 -88q77 0 144 18.5t113.5 49t76 59t51.5 59.5z" />
    <glyph glyph-name="uni01B9" unicode="&#x1b9;" horiz-adv-x="1113" 
d="M921 -274l92 -79q-14 -25 -44 -52.5t-79 -57.5t-124.5 -49.5t-162.5 -19.5q-73 0 -140.5 13.5t-135 48t-116.5 88t-80 139.5t-31 196q0 70 16.5 130t44 103.5t67 79t80 58.5t88.5 40.5t88 26.5t83 15l-415 531v69h827v-118h-617l389 -497v-99q-85 0 -155 -8.5t-138 -31.5
t-114 -60t-74.5 -98t-28.5 -141q0 -104 31.5 -178.5t85.5 -114t114.5 -57t130.5 -17.5q64 0 119.5 15t94.5 39.5t62.5 44.5t41.5 41z" />
    <glyph glyph-name="uni01BA" unicode="&#x1ba;" horiz-adv-x="1089" 
d="M476 -114q52 0 88.5 2.5t84 9.5t79.5 23.5t61.5 42.5t44 68t14.5 97q0 41 -14.5 73.5t-38 55t-62 38t-77.5 24.5t-95.5 14t-104 6.5t-112.5 1.5v99l369 447h-613v118h827v-69l-395 -481q57 -1 115 -11t121 -34.5t111 -60t79 -93t31 -128.5q0 -64 -18 -117t-47 -90
t-71.5 -65t-87 -44.5t-97 -27t-98 -14t-94.5 -3.5q-108 0 -153 -19t-45 -69q0 -38 25.5 -59.5t62 -28t92.5 -6.5q95 0 154 21v-117q-56 -22 -167 -22q-145 0 -224.5 54.5t-79.5 156.5t86 154.5t249 52.5z" />
    <glyph glyph-name="uni01BB" unicode="&#x1bb;" horiz-adv-x="1187" 
d="M283 529v130h346l86 95q93 104 138 178t45 147q0 245 -298 245q-60 0 -112 -18.5t-85.5 -44t-62 -60.5t-41.5 -59t-24 -49l-137 50q11 30 26 60.5t52.5 78.5t85 83.5t126.5 62t172 26.5q205 0 325.5 -97.5t120.5 -277.5q0 -55 -17 -109t-53 -109.5t-69.5 -98
t-87.5 -103.5h138v-130h-257q-48 -51 -234 -258l-129 -141h730v-130h-947v103q70 77 130 142q25 28 260 284h-227z" />
    <glyph glyph-name="uni01BC" unicode="&#x1bc;" horiz-adv-x="1277" 
d="M1090 1434v-130h-669l-26 -433q126 57 295 57q104 0 187.5 -26t138.5 -70t92 -105.5t53 -129t16 -144.5q0 -96 -26.5 -177.5t-82 -149.5t-152.5 -107t-226 -39q-215 0 -371 86q-68 37 -112 87l87 102q44 -42 101 -73q136 -72 295 -72q94 0 162 27.5t105.5 77t54.5 108
t17 130.5q0 73 -17 132.5t-54.5 108.5t-105.5 76.5t-162 27.5q-142 0 -312 -62q-76 -27 -143 -61l36 629h-171v130h990z" />
    <glyph glyph-name="uni01BD" unicode="&#x1bd;" horiz-adv-x="944" 
d="M807 1006v-118h-462l-15 -262q78 26 176 26q97 0 168 -27t111.5 -75t59.5 -105.5t19 -126.5q0 -68 -19 -126.5t-59 -107t-112 -76.5t-168 -28q-74 0 -137 14.5t-105.5 39t-68.5 45.5t-45 44l73 89q107 -114 283 -114q115 0 170 58.5t55 161.5q0 216 -225 216
q-94 0 -217 -39q-48 -17 -98 -39l25 432h-136v118h727z" />
    <glyph glyph-name="uni01BE" unicode="&#x1be;" horiz-adv-x="1134" 
d="M100 121l118 68q16 -26 30.5 -45t45.5 -49.5t64 -49.5t85 -34t111 -15q162 0 247 67t85 184q0 78 -35.5 136.5t-97.5 93.5t-139 53t-167 20v202h-207v126h207v128h148v-128h207v-126h-207v-99q439 -68 439 -406q0 -75 -27.5 -141t-82.5 -121t-150.5 -87t-219.5 -32
q-84 0 -156 19.5t-119 46.5t-86 64.5t-58.5 66t-34.5 58.5z" />
    <glyph glyph-name="uni01BF" unicode="&#x1bf;" horiz-adv-x="1110" 
d="M140 -532v1538h141v-156q98 176 295 176q195 0 314.5 -113.5t119.5 -306.5q0 -104 -31 -192.5t-86 -152.5t-125.5 -114t-154 -81.5t-165.5 -50t-167 -24.5v-523h-141zM576 908q-128 0 -211.5 -102t-83.5 -275v-434q65 5 129 19.5t132 40t125.5 66t103.5 93.5t72 127.5
t26 162.5q0 141 -77 221.5t-216 80.5z" />
    <glyph glyph-name="uni01C0" unicode="&#x1c0;" horiz-adv-x="428" 
d="M140 0v1434h148v-1434h-148z" />
    <glyph glyph-name="uni01C1" unicode="&#x1c1;" horiz-adv-x="722" 
d="M434 0v1434h148v-1434h-148zM140 0v1434h148v-1434h-148z" />
    <glyph glyph-name="uni01C2" unicode="&#x1c2;" horiz-adv-x="932" 
d="M120 504v130h272v173h-272v130h272v497h148v-497h272v-130h-272v-173h272v-130h-272v-504h-148v504h-272z" />
    <glyph glyph-name="uni01C3" unicode="&#x1c3;" horiz-adv-x="472" 
d="M172 314l-10 1120h148l-10 -1120h-128zM140 86q0 40 28 68t68 28t68 -28t28 -68t-28 -68t-68 -28t-68 28t-28 68z" />
    <glyph glyph-name="uni01C4" unicode="&#x1c4;" horiz-adv-x="2613" 
d="M1620 130h873v-130h-1080v80l869 1224h-866v130h1073v-80zM1298 717q0 -158 -41 -286.5t-124 -226t-219 -151t-316 -53.5h-458v1434h458q180 0 316 -53.5t219 -151t124 -226t41 -286.5zM288 1304v-1174h310q147 0 255.5 45t171 126.5t92 184.5t29.5 231t-29.5 231
t-92 184.5t-171 126.5t-255.5 45h-310z" />
    <glyph glyph-name="uni01C5" unicode="&#x1c5;" horiz-adv-x="2404" 
d="M1298 717q0 -158 -41 -286.5t-124 -226t-219 -151t-316 -53.5h-458v1434h458q180 0 316 -53.5t219 -151t124 -226t41 -286.5zM288 1304v-1174h310q147 0 255.5 45t171 126.5t92 184.5t29.5 231t-29.5 231t-92 184.5t-171 126.5t-255.5 45h-310zM1433 0v70l641 818h-617
v118h827v-69l-640 -819h640v-118h-851z" />
    <glyph glyph-name="uni01C6" unicode="&#x1c6;" horiz-adv-x="2241" 
d="M1114 0h-141v207q-57 -111 -157 -169t-205 -58q-124 0 -223 42t-161 114.5t-94.5 166t-32.5 200.5t32.5 200.5t94.5 166t161 114.5t223 42q105 0 205 -58t157 -169v717h141v-1516zM611 908q-115 0 -198.5 -57.5t-123.5 -147.5t-40 -200t40 -200t123.5 -147.5t198.5 -57.5
t198.5 57t123.5 147.5t40 200.5t-40 200.5t-123.5 147.5t-198.5 57zM1270 0v70l641 818h-617v118h827v-69l-640 -819h640v-118h-851z" />
    <glyph glyph-name="uni01C7" unicode="&#x1c7;" horiz-adv-x="2064" 
d="M288 1434v-1304h741v-130h-889v1434h148zM1086 239l136 42q44 -85 106.5 -128t169.5 -43q148 0 213 81.5t65 249.5v993h148v-993q0 -234 -114 -347.5t-312 -113.5q-162 0 -265 68.5t-147 190.5z" />
    <glyph glyph-name="uni01C8" unicode="&#x1c8;" horiz-adv-x="1548" 
d="M288 1434v-1304h741v-130h-889v1434h148zM912 -495l42 110q70 -27 141 -27q34 0 59 11.5t41 36.5t25.5 52t14 71t6 80t1.5 92v1075h141v-1075q0 -95 -7 -163t-25.5 -127.5t-50.5 -95.5t-83 -56.5t-122 -20.5q-102 0 -183 37zM1216 1297q0 40 28 68t68 28t68 -28t28 -68
t-28 -68t-68 -28t-68 28t-28 68z" />
    <glyph glyph-name="uni01C9" unicode="&#x1c9;" horiz-adv-x="917" 
d="M140 225v1291h141v-1291q0 -27 1.5 -42.5t6 -32.5t16.5 -24.5t31 -7.5h52v-118h-52q-63 0 -104.5 20t-60 56t-25 70t-6.5 79zM281 -495l42 110q70 -27 141 -27q34 0 59 11.5t41 36.5t25.5 52t14 71t6 80t1.5 92v1075h141v-1075q0 -95 -7 -163t-25.5 -127.5t-50.5 -95.5
t-83 -56.5t-122 -20.5q-102 0 -183 37zM585 1297q0 40 28 68t68 28t68 -28t28 -68t-28 -68t-68 -28t-68 28t-28 68z" />
    <glyph glyph-name="uni01CA" unicode="&#x1ca;" horiz-adv-x="2367" 
d="M140 0v1434h181l801 -1227v1227h148v-1434h-181l-801 1227v-1227h-148zM1389 239l136 42q44 -85 106.5 -128t169.5 -43q148 0 213 81.5t65 249.5v993h148v-993q0 -234 -114 -347.5t-312 -113.5q-162 0 -265 68.5t-147 190.5z" />
    <glyph glyph-name="uni01CB" unicode="&#x1cb;" horiz-adv-x="1910" 
d="M140 0v1434h181l801 -1227v1227h148v-1434h-181l-801 1227v-1227h-148zM1274 -495l42 110q70 -27 141 -27q34 0 59 11.5t41 36.5t25.5 52t14 71t6 80t1.5 92v1075h141v-1075q0 -95 -7 -163t-25.5 -127.5t-50.5 -95.5t-83 -56.5t-122 -20.5q-102 0 -183 37zM1578 1297
q0 40 28 68t68 28t68 -28t28 -68t-28 -68t-68 -28t-68 28t-28 68z" />
    <glyph glyph-name="uni01CC" unicode="&#x1cc;" horiz-adv-x="1585" 
d="M140 1006h141v-165q31 75 107 130t197 55q215 0 330 -122.5t115 -343.5v-560h-141v560q0 162 -74.5 255t-229.5 93t-229.5 -93t-74.5 -255v-560h-141v1006zM949 -495l42 110q70 -27 141 -27q34 0 59 11.5t41 36.5t25.5 52t14 71t6 80t1.5 92v1075h141v-1075
q0 -95 -7 -163t-25.5 -127.5t-50.5 -95.5t-83 -56.5t-122 -20.5q-102 0 -183 37zM1253 1297q0 40 28 68t68 28t68 -28t28 -68t-28 -68t-68 -28t-68 28t-28 68z" />
    <glyph glyph-name="uni01CD" unicode="&#x1cd;" horiz-adv-x="1430" 
d="M390 439l-182 -439h-158l604 1434h122l604 -1434h-158l-182 439h-650zM715 1223l-271 -652h541zM1033 1848l-270 -312h-94l-270 312h139l178 -187l179 187h138z" />
    <glyph glyph-name="uni01CE" unicode="&#x1ce;" horiz-adv-x="1119" 
d="M893 1434l-270 -312h-94l-270 312h139l178 -187l179 187h138zM580 908q-76 0 -168 -23.5t-159 -61.5l-57 106q72 46 173.5 71.5t210.5 25.5q104 0 178 -22t116.5 -57.5t66.5 -94.5t31 -117.5t7 -142.5v-592h-141v193q-89 -213 -347 -213q-180 0 -285.5 82.5t-105.5 242.5
q0 83 34 147t93 102t132 62t158.5 31.5t163.5 6t157 -11.5q-1 46 -4 76.5t-12.5 64t-27 54t-45 38t-70 25.5t-99.5 8zM247 305q0 -93 60.5 -150t183.5 -57q87 0 154.5 27.5t109 74.5t62.5 105.5t21 124.5v107q-64 7 -128.5 8t-132.5 -4.5t-126 -22.5t-104.5 -43.5t-73 -70
t-26.5 -99.5z" />
    <glyph glyph-name="uni01CF" unicode="&#x1cf;" horiz-adv-x="674" 
d="M263 0v1434h148v-1434h-148zM654 1848l-270 -312h-94l-270 312h139l178 -187l179 187h138z" />
    <glyph glyph-name="uni01D0" unicode="&#x1d0;" horiz-adv-x="614" 
d="M237 0v1006h141v-1006h-141zM624 1434l-270 -312h-94l-270 312h139l178 -187l179 187h138z" />
    <glyph glyph-name="uni01D1" unicode="&#x1d1;" horiz-adv-x="1614" 
d="M807 -20q-168 0 -304 58.5t-223 159.5t-133.5 234t-46.5 285t46.5 285t133.5 234t223 159.5t304 58.5t304 -58.5t223 -159.5t133.5 -234t46.5 -285t-46.5 -285t-133.5 -234t-223 -159.5t-304 -58.5zM807 110q136 0 243.5 47.5t174.5 131.5t102 192.5t35 235.5t-35 235.5
t-102 192.5t-174.5 131.5t-243.5 47.5t-243.5 -47.5t-174.5 -131.5t-102 -192.5t-35 -235.5t35 -235.5t102 -192.5t174.5 -131.5t243.5 -47.5zM1123 1848l-270 -312h-94l-270 312h139l178 -187l179 187h138z" />
    <glyph glyph-name="uni01D2" unicode="&#x1d2;" 
d="M627 1026q240 0 383.5 -146t143.5 -377t-143.5 -377t-383.5 -146t-383.5 146t-143.5 377t143.5 377t383.5 146zM627 908q-181 0 -279.5 -113.5t-98.5 -291.5t98.5 -291.5t279.5 -113.5t279.5 113.5t98.5 291.5t-98.5 291.5t-279.5 113.5zM945 1434l-270 -312h-94
l-270 312h139l178 -187l179 187h138z" />
    <glyph glyph-name="uni01D3" unicode="&#x1d3;" horiz-adv-x="1429" 
d="M715 110q218 0 322 125.5t104 377.5v821h148v-821q0 -308 -146 -470.5t-428 -162.5q-283 0 -429 162.5t-146 470.5v821h148v-821q0 -253 104 -378t323 -125zM1031 1848l-270 -312h-94l-270 312h139l178 -187l179 187h138z" />
    <glyph glyph-name="uni01D4" unicode="&#x1d4;" horiz-adv-x="1170" 
d="M1030 0h-141v165q-15 -35 -38.5 -65t-59.5 -58.5t-89 -45t-117 -16.5q-215 0 -330 122.5t-115 343.5v560h141v-560q0 -162 74.5 -255t229.5 -93t229.5 93t74.5 255v560h141v-1006zM903 1434l-270 -312h-94l-270 312h139l178 -187l179 187h138z" />
    <glyph glyph-name="uni01D5" unicode="&#x1d5;" horiz-adv-x="1429" 
d="M715 110q218 0 322 125.5t104 377.5v821h148v-821q0 -308 -146 -470.5t-428 -162.5q-283 0 -429 162.5t-146 470.5v821h148v-821q0 -253 104 -378t323 -125zM432 1652q0 40 28 68t68 28t68 -28t28 -68t-28 -68t-68 -28t-68 28t-28 68zM805 1652q0 40 28 68t68 28t68 -28
t28 -68t-28 -68t-68 -28t-68 28t-28 68zM367 1828v118h695v-118h-695z" />
    <glyph glyph-name="uni01D6" unicode="&#x1d6;" horiz-adv-x="1170" 
d="M1030 0h-141v165q-15 -35 -38.5 -65t-59.5 -58.5t-89 -45t-117 -16.5q-215 0 -330 122.5t-115 343.5v560h141v-560q0 -162 74.5 -255t229.5 -93t229.5 93t74.5 255v560h141v-1006zM303 1297q0 40 28 68t68 28t68 -28t28 -68t-28 -68t-68 -28t-68 28t-28 68zM676 1297
q0 40 28 68t68 28t68 -28t28 -68t-28 -68t-68 -28t-68 28t-28 68zM238 1483v118h695v-118h-695z" />
    <glyph glyph-name="uni01D7" unicode="&#x1d7;" horiz-adv-x="1429" 
d="M715 110q218 0 322 125.5t104 377.5v821h148v-821q0 -308 -146 -470.5t-428 -162.5q-283 0 -429 162.5t-146 470.5v821h148v-821q0 -253 104 -378t323 -125zM432 1652q0 40 28 68t68 28t68 -28t28 -68t-28 -68t-68 -28t-68 28t-28 68zM805 1652q0 40 28 68t68 28t68 -28
t28 -68t-28 -68t-68 -28t-68 28t-28 68zM636 1848l261 292h188l-297 -292h-152z" />
    <glyph glyph-name="uni01D8" unicode="&#x1d8;" horiz-adv-x="1170" 
d="M1030 0h-141v165q-15 -35 -38.5 -65t-59.5 -58.5t-89 -45t-117 -16.5q-215 0 -330 122.5t-115 343.5v560h141v-560q0 -162 74.5 -255t229.5 -93t229.5 93t74.5 255v560h141v-1006zM303 1297q0 40 28 68t68 28t68 -28t28 -68t-28 -68t-68 -28t-68 28t-28 68zM676 1297
q0 40 28 68t68 28t68 -28t28 -68t-28 -68t-68 -28t-68 28t-28 68zM507 1493l261 292h188l-297 -292h-152z" />
    <glyph glyph-name="uni01D9" unicode="&#x1d9;" horiz-adv-x="1429" 
d="M715 110q218 0 322 125.5t104 377.5v821h148v-821q0 -308 -146 -470.5t-428 -162.5q-283 0 -429 162.5t-146 470.5v821h148v-821q0 -253 104 -378t323 -125zM432 1653q0 40 28 68t68 28t68 -28t28 -68t-28 -68t-68 -28t-68 28t-28 68zM805 1653q0 40 28 68t68 28t68 -28
t28 -68t-28 -68t-68 -28t-68 28t-28 68z" />
    <glyph glyph-name="uni01DA" unicode="&#x1da;" horiz-adv-x="1170" 
d="M1030 0h-141v165q-15 -35 -38.5 -65t-59.5 -58.5t-89 -45t-117 -16.5q-215 0 -330 122.5t-115 343.5v560h141v-560q0 -162 74.5 -255t229.5 -93t229.5 93t74.5 255v560h141v-1006zM303 1297q0 40 28 68t68 28t68 -28t28 -68t-28 -68t-68 -28t-68 28t-28 68zM676 1297
q0 40 28 68t68 28t68 -28t28 -68t-28 -68t-68 -28t-68 28t-28 68z" />
    <glyph glyph-name="uni01DB" unicode="&#x1db;" horiz-adv-x="1429" 
d="M715 110q218 0 322 125.5t104 377.5v821h148v-821q0 -308 -146 -470.5t-428 -162.5q-283 0 -429 162.5t-146 470.5v821h148v-821q0 -253 104 -378t323 -125zM432 1652q0 40 28 68t68 28t68 -28t28 -68t-28 -68t-68 -28t-68 28t-28 68zM805 1652q0 40 28 68t68 28t68 -28
t28 -68t-28 -68t-68 -28t-68 28t-28 68zM538 2140l261 -292h-152l-297 292h188z" />
    <glyph glyph-name="uni01DC" unicode="&#x1dc;" horiz-adv-x="1170" 
d="M1030 0h-141v165q-15 -35 -38.5 -65t-59.5 -58.5t-89 -45t-117 -16.5q-215 0 -330 122.5t-115 343.5v560h141v-560q0 -162 74.5 -255t229.5 -93t229.5 93t74.5 255v560h141v-1006zM303 1297q0 40 28 68t68 28t68 -28t28 -68t-28 -68t-68 -28t-68 28t-28 68zM676 1297
q0 40 28 68t68 28t68 -28t28 -68t-28 -68t-68 -28t-68 28t-28 68zM409 1785l261 -292h-152l-297 292h188z" />
    <glyph glyph-name="uni01DD" unicode="&#x1dd;" horiz-adv-x="1168" 
d="M584 908q-183 0 -330 -124l-88 87q150 155 418 155q149 0 259.5 -68t167.5 -186t57 -269t-57 -269t-167.5 -186t-259.5 -68q-221 0 -352.5 148.5t-131.5 433.5h819q-4 151 -94.5 248.5t-240.5 97.5zM919 444h-670q13 -154 99.5 -250t235.5 -96t235.5 96t99.5 250z" />
    <glyph glyph-name="uni01DE" unicode="&#x1de;" horiz-adv-x="1430" 
d="M390 439l-182 -439h-158l604 1434h122l604 -1434h-158l-182 439h-650zM715 1223l-271 -652h541zM433 1652q0 40 28 68t68 28t68 -28t28 -68t-28 -68t-68 -28t-68 28t-28 68zM806 1652q0 40 28 68t68 28t68 -28t28 -68t-28 -68t-68 -28t-68 28t-28 68zM368 1828v118h695
v-118h-695z" />
    <glyph glyph-name="uni01DF" unicode="&#x1df;" horiz-adv-x="1119" 
d="M310 1297q0 40 28 68t68 28t68 -28t28 -68t-28 -68t-68 -28t-68 28t-28 68zM683 1297q0 40 28 68t68 28t68 -28t28 -68t-28 -68t-68 -28t-68 28t-28 68zM245 1483v118h695v-118h-695zM580 908q-76 0 -168 -23.5t-159 -61.5l-57 106q72 46 173.5 71.5t210.5 25.5
q104 0 178 -22t116.5 -57.5t66.5 -94.5t31 -117.5t7 -142.5v-592h-141v193q-89 -213 -347 -213q-180 0 -285.5 82.5t-105.5 242.5q0 83 34 147t93 102t132 62t158.5 31.5t163.5 6t157 -11.5q-1 46 -4 76.5t-12.5 64t-27 54t-45 38t-70 25.5t-99.5 8zM247 305
q0 -93 60.5 -150t183.5 -57q87 0 154.5 27.5t109 74.5t62.5 105.5t21 124.5v107q-64 7 -128.5 8t-132.5 -4.5t-126 -22.5t-104.5 -43.5t-73 -70t-26.5 -99.5z" />
    <glyph glyph-name="uni01E0" unicode="&#x1e0;" horiz-adv-x="1430" 
d="M390 439l-182 -439h-158l604 1434h122l604 -1434h-158l-182 439h-650zM715 1223l-271 -652h541zM619 1652q0 40 28 68t68 28t68 -28t28 -68t-28 -68t-68 -28t-68 28t-28 68zM368 1828v118h695v-118h-695z" />
    <glyph glyph-name="uni01E1" unicode="&#x1e1;" horiz-adv-x="1119" 
d="M496 1297q0 40 28 68t68 28t68 -28t28 -68t-28 -68t-68 -28t-68 28t-28 68zM245 1483v118h695v-118h-695zM580 908q-76 0 -168 -23.5t-159 -61.5l-57 106q72 46 173.5 71.5t210.5 25.5q104 0 178 -22t116.5 -57.5t66.5 -94.5t31 -117.5t7 -142.5v-592h-141v193
q-89 -213 -347 -213q-180 0 -285.5 82.5t-105.5 242.5q0 83 34 147t93 102t132 62t158.5 31.5t163.5 6t157 -11.5q-1 46 -4 76.5t-12.5 64t-27 54t-45 38t-70 25.5t-99.5 8zM247 305q0 -93 60.5 -150t183.5 -57q87 0 154.5 27.5t109 74.5t62.5 105.5t21 124.5v107
q-64 7 -128.5 8t-132.5 -4.5t-126 -22.5t-104.5 -43.5t-73 -70t-26.5 -99.5z" />
    <glyph glyph-name="uni01E2" unicode="&#x1e2;" horiz-adv-x="2092" 
d="M1162 798h753v-130h-753v-539h810v-129h-958v483h-466l-325 -483h-173l963 1434h949v-130h-800v-506zM1014 1178l-379 -565h379v565zM1015 1536v118h695v-118h-695z" />
    <glyph glyph-name="uni01E3" unicode="&#x1e3;" horiz-adv-x="1906" 
d="M594 1316v118h695v-118h-695zM1322 98q187 0 331 122l87 -85q-150 -155 -418 -155q-137 0 -240 56t-165 158q-155 -214 -426 -214q-180 0 -285.5 82.5t-105.5 242.5q0 83 34 147t93 102t132 62t158.5 31.5t163.5 6t157 -11.5q-1 46 -4 76.5t-12.5 64t-27 54t-45 38
t-70 25.5t-99.5 8q-76 0 -168 -23.5t-159 -61.5l-57 106q72 46 173.5 71.5t210.5 25.5q154 0 240 -45.5t122 -131.5q134 177 380 177q221 0 352.5 -148.5t131.5 -433.5h-819q4 -151 94.5 -248.5t240.5 -97.5zM247 305q0 -93 60.5 -150t183.5 -57q87 0 154.5 27.5t109 74.5
t62.5 105.5t21 124.5v107q-64 7 -128.5 8t-132.5 -4.5t-126 -22.5t-104.5 -43.5t-73 -70t-26.5 -99.5zM987 562h670q-13 154 -99.5 250t-235.5 96t-235.5 -96t-99.5 -250z" />
    <glyph glyph-name="uni01E4" unicode="&#x1e4;" horiz-adv-x="1592" 
d="M807 1324q-136 0 -243.5 -47.5t-174.5 -131.5t-102 -192.5t-35 -235.5t35 -235.5t102 -192.5t174.5 -131.5t243.5 -47.5q272 0 417 112v156h-379v130h379v150h-379v130h517v-280h150v-130h-150v-231q-111 -89 -244 -128t-311 -39q-168 0 -304 58.5t-223 159.5t-133.5 234
t-46.5 285t46.5 285t133.5 234t223 159.5t304 58.5q333 0 543 -168l-79 -102q-176 140 -464 140z" />
    <glyph glyph-name="uni01E5" unicode="&#x1e5;" horiz-adv-x="1266" 
d="M638 -274v122h318q17 70 17 152v207q-57 -111 -157 -169t-205 -58q-124 0 -223 42t-161 114.5t-94.5 166t-32.5 200.5t32.5 200.5t94.5 166t161 114.5t223 42q105 0 205 -58t157 -169v207h141v-1006q0 -79 -14 -152h176v-122h-214q-32 -72 -83 -124t-112.5 -80
t-124.5 -41t-131 -13q-128 0 -239.5 30.5t-182.5 87.5l83 99q142 -95 339 -95q200 0 293 136h-266zM611 908q-115 0 -198.5 -57.5t-123.5 -147.5t-40 -200t40 -200t123.5 -147.5t198.5 -57.5t198.5 57t123.5 147.5t40 200.5t-40 200.5t-123.5 147.5t-198.5 57z" />
    <glyph glyph-name="Gcaron" unicode="&#x1e6;" horiz-adv-x="1482" 
d="M807 1324q-136 0 -243.5 -47.5t-174.5 -131.5t-102 -192.5t-35 -235.5t35 -235.5t102 -192.5t174.5 -131.5t243.5 -47.5q272 0 417 112v436h-379v130h517v-641q-111 -89 -244 -128t-311 -39q-168 0 -304 58.5t-223 159.5t-133.5 234t-46.5 285t46.5 285t133.5 234
t223 159.5t304 58.5q333 0 543 -168l-79 -102q-176 140 -464 140zM1143 1848l-270 -312h-94l-270 312h139l178 -187l179 187h138z" />
    <glyph glyph-name="gcaron" unicode="&#x1e7;" 
d="M973 0v207q-57 -111 -157 -169t-205 -58q-124 0 -223 42t-161 114.5t-94.5 166t-32.5 200.5t32.5 200.5t94.5 166t161 114.5t223 42q105 0 205 -58t157 -169v207h141v-1006q0 -122 -30.5 -217.5t-79.5 -153.5t-116.5 -95.5t-134.5 -51.5t-142 -14q-128 0 -239.5 30.5
t-182.5 87.5l83 99q142 -95 339 -95q171 0 266.5 102.5t95.5 307.5zM611 908q-115 0 -198.5 -57.5t-123.5 -147.5t-40 -200t40 -200t123.5 -147.5t198.5 -57.5t198.5 57t123.5 147.5t40 200.5t-40 200.5t-123.5 147.5t-198.5 57zM925 1434l-270 -312h-94l-270 312h139
l178 -187l179 187h138z" />
    <glyph glyph-name="uni01E8" unicode="&#x1e8;" horiz-adv-x="1323" 
d="M288 704l768 730h194l-639 -607l662 -827h-177l-585 732l-223 -212v-520h-148v1434h148v-730zM941 1848l-270 -312h-94l-270 312h139l178 -187l179 187h138z" />
    <glyph glyph-name="uni01E9" unicode="&#x1e9;" horiz-adv-x="1061" 
d="M281 553l527 453h198l-469 -403l474 -603h-167l-406 518l-157 -135v-383h-141v1516h141v-963zM811 1848l-270 -312h-94l-270 312h139l178 -187l179 187h138z" />
    <glyph glyph-name="uni01EA" unicode="&#x1ea;" horiz-adv-x="1614" 
d="M820 -20h-13q-168 0 -304 58.5t-223 159.5t-133.5 234t-46.5 285t46.5 285t133.5 234t223 159.5t304 58.5t304 -58.5t223 -159.5t133.5 -234t46.5 -285q0 -178 -60.5 -326.5t-183.5 -253.5t-295 -140q-143 -46 -143 -152q0 -28 12 -48.5t27.5 -30.5t40 -15.5t40.5 -6.5
t39 -1v-124q-72 -4 -133 11.5t-104.5 61t-44.5 116.5q-4 118 111 172zM807 110q136 0 243.5 47.5t174.5 131.5t102 192.5t35 235.5t-35 235.5t-102 192.5t-174.5 131.5t-243.5 47.5t-243.5 -47.5t-174.5 -131.5t-102 -192.5t-35 -235.5t35 -235.5t102 -192.5t174.5 -131.5
t243.5 -47.5z" />
    <glyph glyph-name="uni01EB" unicode="&#x1eb;" 
d="M627 1026q240 0 383.5 -146t143.5 -377q0 -193 -103 -330.5t-282 -176.5q-141 -43 -141 -151q0 -28 12 -48.5t27.5 -30.5t40 -15.5t40.5 -6.5t39 -1v-124q-72 -4 -133 11.5t-104.5 61t-44.5 116.5q-4 118 111 172q-236 4 -376 149t-140 374q0 231 143.5 377t383.5 146z
M627 908q-181 0 -279.5 -113.5t-98.5 -291.5t98.5 -291.5t279.5 -113.5t279.5 113.5t98.5 291.5t-98.5 291.5t-279.5 113.5z" />
    <glyph glyph-name="uni01EC" unicode="&#x1ec;" horiz-adv-x="1614" 
d="M820 -20h-13q-168 0 -304 58.5t-223 159.5t-133.5 234t-46.5 285t46.5 285t133.5 234t223 159.5t304 58.5t304 -58.5t223 -159.5t133.5 -234t46.5 -285q0 -178 -60.5 -326.5t-183.5 -253.5t-295 -140q-143 -46 -143 -152q0 -28 12 -48.5t27.5 -30.5t40 -15.5t40.5 -6.5
t39 -1v-124q-72 -4 -133 11.5t-104.5 61t-44.5 116.5q-4 118 111 172zM807 110q136 0 243.5 47.5t174.5 131.5t102 192.5t35 235.5t-35 235.5t-102 192.5t-174.5 131.5t-243.5 47.5t-243.5 -47.5t-174.5 -131.5t-102 -192.5t-35 -235.5t35 -235.5t102 -192.5t174.5 -131.5
t243.5 -47.5zM459 1536v118h695v-118h-695z" />
    <glyph glyph-name="uni01ED" unicode="&#x1ed;" 
d="M627 1026q240 0 383.5 -146t143.5 -377q0 -193 -103 -330.5t-282 -176.5q-141 -43 -141 -151q0 -28 12 -48.5t27.5 -30.5t40 -15.5t40.5 -6.5t39 -1v-124q-72 -4 -133 11.5t-104.5 61t-44.5 116.5q-4 118 111 172q-236 4 -376 149t-140 374q0 231 143.5 377t383.5 146z
M627 908q-181 0 -279.5 -113.5t-98.5 -291.5t98.5 -291.5t279.5 -113.5t279.5 113.5t98.5 291.5t-98.5 291.5t-279.5 113.5zM280 1316v118h695v-118h-695z" />
    <glyph glyph-name="uni01EE" unicode="&#x1ee;" horiz-adv-x="1177" 
d="M100 216l103 80q22 -31 51.5 -59.5t76 -59t113.5 -49t144 -18.5q154 0 247.5 88t93.5 246q0 168 -114.5 244t-364.5 76v108l371 432h-663v130h887v-78l-407 -473q56 -9 105.5 -22t114 -45.5t110 -77.5t77.5 -121.5t32 -172.5q0 -116 -43.5 -208t-115 -146t-156 -82
t-174.5 -28q-97 0 -182 21.5t-143.5 57.5t-98.5 75t-64 82zM905 1848l-270 -312h-94l-270 312h139l178 -187l179 187h138z" />
    <glyph glyph-name="uni01EF" unicode="&#x1ef;" horiz-adv-x="1113" 
d="M100 -353l92 79q18 -21 41.5 -41t62.5 -44.5t94.5 -39.5t119.5 -15q70 0 130.5 17.5t114.5 57t85.5 114t31.5 178.5q0 80 -28.5 141t-74.5 98t-114 60t-138 31.5t-155 8.5v99l389 497h-617v118h827v-69l-415 -531q43 -6 83 -15t88 -26.5t88.5 -40.5t80 -58.5t67 -79
t44 -103.5t16.5 -130q0 -110 -31 -196t-80 -139.5t-116.5 -88t-135 -48t-140.5 -13.5q-87 0 -162.5 19.5t-124.5 49.5t-79 57.5t-44 52.5zM874 1434l-270 -312h-94l-270 312h139l178 -187l179 187h138z" />
    <glyph glyph-name="uni01F0" unicode="&#x1f0;" horiz-adv-x="477" 
d="M-160 -495l42 110q70 -27 141 -27q34 0 59 11.5t41 36.5t25.5 52t14 71t6 80t1.5 92v1075h141v-1075q0 -95 -7 -163t-25.5 -127.5t-50.5 -95.5t-83 -56.5t-122 -20.5q-102 0 -183 37zM557 1434l-270 -312h-94l-270 312h139l178 -187l179 187h138z" />
    <glyph glyph-name="uni01F1" unicode="&#x1f1;" horiz-adv-x="2578" 
d="M1298 717q0 -158 -41 -286.5t-124 -226t-219 -151t-316 -53.5h-458v1434h458q180 0 316 -53.5t219 -151t124 -226t41 -286.5zM288 1304v-1174h310q147 0 255.5 45t171 126.5t92 184.5t29.5 231t-29.5 231t-92 184.5t-171 126.5t-255.5 45h-310zM1585 130h873v-130h-1080
v80l869 1224h-866v130h1073v-80z" />
    <glyph glyph-name="uni01F2" unicode="&#x1f2;" horiz-adv-x="2391" 
d="M1298 717q0 -158 -41 -286.5t-124 -226t-219 -151t-316 -53.5h-458v1434h458q180 0 316 -53.5t219 -151t124 -226t41 -286.5zM288 1304v-1174h310q147 0 255.5 45t171 126.5t92 184.5t29.5 231t-29.5 231t-92 184.5t-171 126.5t-255.5 45h-310zM1420 0v70l641 818h-617
v118h827v-69l-640 -819h640v-118h-851z" />
    <glyph glyph-name="uni01F3" unicode="&#x1f3;" horiz-adv-x="2233" 
d="M1114 0h-141v207q-57 -111 -157 -169t-205 -58q-124 0 -223 42t-161 114.5t-94.5 166t-32.5 200.5t32.5 200.5t94.5 166t161 114.5t223 42q105 0 205 -58t157 -169v717h141v-1516zM611 908q-115 0 -198.5 -57.5t-123.5 -147.5t-40 -200t40 -200t123.5 -147.5t198.5 -57.5
t198.5 57t123.5 147.5t40 200.5t-40 200.5t-123.5 147.5t-198.5 57zM1262 0v70l641 818h-617v118h827v-69l-640 -819h640v-118h-851z" />
    <glyph glyph-name="uni01F4" unicode="&#x1f4;" horiz-adv-x="1482" 
d="M807 1324q-136 0 -243.5 -47.5t-174.5 -131.5t-102 -192.5t-35 -235.5t35 -235.5t102 -192.5t174.5 -131.5t243.5 -47.5q272 0 417 112v436h-379v130h517v-641q-111 -89 -244 -128t-311 -39q-168 0 -304 58.5t-223 159.5t-133.5 234t-46.5 285t46.5 285t133.5 234
t223 159.5t304 58.5q333 0 543 -168l-79 -102q-176 140 -464 140zM742 1536l261 292h188l-297 -292h-152z" />
    <glyph glyph-name="uni01F5" unicode="&#x1f5;" 
d="M973 0v207q-57 -111 -157 -169t-205 -58q-124 0 -223 42t-161 114.5t-94.5 166t-32.5 200.5t32.5 200.5t94.5 166t161 114.5t223 42q105 0 205 -58t157 -169v207h141v-1006q0 -122 -30.5 -217.5t-79.5 -153.5t-116.5 -95.5t-134.5 -51.5t-142 -14q-128 0 -239.5 30.5
t-182.5 87.5l83 99q142 -95 339 -95q171 0 266.5 102.5t95.5 307.5zM611 908q-115 0 -198.5 -57.5t-123.5 -147.5t-40 -200t40 -200t123.5 -147.5t198.5 -57.5t198.5 57t123.5 147.5t40 200.5t-40 200.5t-123.5 147.5t-198.5 57zM536 1142l261 292h188l-297 -292h-152z" />
    <glyph glyph-name="uni01F6" unicode="&#x1f6;" horiz-adv-x="2145" 
d="M1108 1434h148v-988q0 -162 74.5 -255t229.5 -93t229.5 93t74.5 255v560h141v-560q0 -221 -115 -343.5t-330 -122.5q-220 0 -336 122t-116 344v222h-820v-668h-148v1434h148v-636h820v636z" />
    <glyph glyph-name="uni01F7" unicode="&#x1f7;" horiz-adv-x="1133" 
d="M140 0v1434h148v-129q42 80 127.5 124.5t174.5 44.5q198 0 320.5 -117t122.5 -313q0 -127 -46 -231.5t-120 -173.5t-173.5 -118.5t-200 -74t-205.5 -32.5v-414h-148zM590 1344q-138 0 -220 -99.5t-82 -277.5v-443q78 6 155 25.5t158.5 59.5t143 96.5t101 144t39.5 194.5
q0 133 -77.5 216.5t-217.5 83.5z" />
    <glyph glyph-name="uni01F8" unicode="&#x1f8;" horiz-adv-x="1410" 
d="M140 0v1434h181l801 -1227v1227h148v-1434h-181l-801 1227v-1227h-148zM562 1828l261 -292h-152l-297 292h188z" />
    <glyph glyph-name="uni01F9" unicode="&#x1f9;" horiz-adv-x="1170" 
d="M140 1006h141v-165q31 75 107 130t197 55q215 0 330 -122.5t115 -343.5v-560h-141v560q0 162 -74.5 255t-229.5 93t-229.5 -93t-74.5 -255v-560h-141v1006zM420 1434l261 -292h-152l-297 292h188z" />
    <glyph glyph-name="Aringacute" unicode="&#x1fa;" horiz-adv-x="1430" 
d="M530 1721q0 72 49 124l197 219h161l-170 -166q58 -18 95.5 -66.5t37.5 -110.5q0 -75 -54.5 -130t-130.5 -55q-75 0 -130 55t-55 130zM626 1721q0 -37 26 -63t63 -26t63 26t26 63t-26 63t-63 26t-63 -26t-26 -63zM390 439l-182 -439h-158l604 1434h122l604 -1434h-158
l-182 439h-650zM715 1223l-271 -652h541z" />
    <glyph glyph-name="aringacute" unicode="&#x1fb;" horiz-adv-x="1119" 
d="M390 1309q0 72 49 124l197 219h161l-170 -166q58 -18 95.5 -66.5t37.5 -110.5q0 -75 -54.5 -130t-130.5 -55q-75 0 -130 55t-55 130zM486 1309q0 -37 26 -63t63 -26t63 26t26 63t-26 63t-63 26t-63 -26t-26 -63zM580 908q-76 0 -168 -23.5t-159 -61.5l-57 106
q72 46 173.5 71.5t210.5 25.5q104 0 178 -22t116.5 -57.5t66.5 -94.5t31 -117.5t7 -142.5v-592h-141v193q-89 -213 -347 -213q-180 0 -285.5 82.5t-105.5 242.5q0 83 34 147t93 102t132 62t158.5 31.5t163.5 6t157 -11.5q-1 46 -4 76.5t-12.5 64t-27 54t-45 38t-70 25.5
t-99.5 8zM247 305q0 -93 60.5 -150t183.5 -57q87 0 154.5 27.5t109 74.5t62.5 105.5t21 124.5v107q-64 7 -128.5 8t-132.5 -4.5t-126 -22.5t-104.5 -43.5t-73 -70t-26.5 -99.5z" />
    <glyph glyph-name="AEacute" unicode="&#x1fc;" horiz-adv-x="2092" 
d="M1162 798h753v-130h-753v-539h810v-129h-958v483h-466l-325 -483h-173l963 1434h949v-130h-800v-506zM1014 1178l-379 -565h379v565zM1067 1536l261 292h188l-297 -292h-152z" />
    <glyph glyph-name="aeacute" unicode="&#x1fd;" horiz-adv-x="1906" 
d="M870 1142l261 292h188l-297 -292h-152zM1322 98q187 0 331 122l87 -85q-150 -155 -418 -155q-137 0 -240 56t-165 158q-155 -214 -426 -214q-180 0 -285.5 82.5t-105.5 242.5q0 83 34 147t93 102t132 62t158.5 31.5t163.5 6t157 -11.5q-1 46 -4 76.5t-12.5 64t-27 54
t-45 38t-70 25.5t-99.5 8q-76 0 -168 -23.5t-159 -61.5l-57 106q72 46 173.5 71.5t210.5 25.5q154 0 240 -45.5t122 -131.5q134 177 380 177q221 0 352.5 -148.5t131.5 -433.5h-819q4 -151 94.5 -248.5t240.5 -97.5zM247 305q0 -93 60.5 -150t183.5 -57q87 0 154.5 27.5
t109 74.5t62.5 105.5t21 124.5v107q-64 7 -128.5 8t-132.5 -4.5t-126 -22.5t-104.5 -43.5t-73 -70t-26.5 -99.5zM987 562h670q-13 154 -99.5 250t-235.5 96t-235.5 -96t-99.5 -250z" />
    <glyph glyph-name="Oslashacute" unicode="&#x1fe;" horiz-adv-x="1614" 
d="M748 1536l261 292h188l-297 -292h-152zM807 -20q-143 0 -260 41l-39 -82h-152l67 140q-156 94 -239.5 262.5t-83.5 375.5q0 152 46.5 285t133.5 234t223 159.5t304 58.5q139 0 259 -42l40 83h151l-67 -140q157 -95 240.5 -263.5t83.5 -374.5q0 -152 -46.5 -285
t-133.5 -234t-223 -159.5t-304 -58.5zM807 110q136 0 243.5 47.5t174.5 131.5t102 192.5t35 235.5q0 166 -58.5 300t-173.5 215l-525 -1091q93 -31 202 -31zM807 1324q-136 0 -243.5 -47.5t-174.5 -131.5t-102 -192.5t-35 -235.5q0 -167 58.5 -301.5t172.5 -213.5l525 1091
q-90 31 -201 31z" />
    <glyph glyph-name="oslashacute" unicode="&#x1ff;" 
d="M627 1026q90 0 165 -22l30 63h149l-55 -115q114 -67 176 -183.5t62 -265.5q0 -231 -143.5 -377t-383.5 -146q-83 0 -165 21l-30 -62h-149l54 114q-114 67 -175.5 183.5t-61.5 266.5q0 231 143.5 377t383.5 146zM627 98q181 0 279.5 113.5t98.5 291.5q0 225 -144 333
l-347 -725q49 -13 113 -13zM627 908q-181 0 -279.5 -113.5t-98.5 -291.5q0 -107 36.5 -193.5t107.5 -140.5l346 725q-54 14 -112 14zM539 1142l261 292h188l-297 -292h-152z" />
    <glyph glyph-name="uni0200" unicode="&#x200;" horiz-adv-x="1430" 
d="M390 439l-182 -439h-158l604 1434h122l604 -1434h-158l-182 439h-650zM715 1223l-271 -652h541zM778 1536l121 336h159l-154 -336h-126zM528 1536l121 336h159l-154 -336h-126z" />
    <glyph glyph-name="uni0201" unicode="&#x201;" horiz-adv-x="1119" 
d="M642 1180l121 336h159l-154 -336h-126zM392 1180l121 336h159l-154 -336h-126zM580 908q-76 0 -168 -23.5t-159 -61.5l-57 106q72 46 173.5 71.5t210.5 25.5q104 0 178 -22t116.5 -57.5t66.5 -94.5t31 -117.5t7 -142.5v-592h-141v193q-89 -213 -347 -213
q-180 0 -285.5 82.5t-105.5 242.5q0 83 34 147t93 102t132 62t158.5 31.5t163.5 6t157 -11.5q-1 46 -4 76.5t-12.5 64t-27 54t-45 38t-70 25.5t-99.5 8zM247 305q0 -93 60.5 -150t183.5 -57q87 0 154.5 27.5t109 74.5t62.5 105.5t21 124.5v107q-64 7 -128.5 8t-132.5 -4.5
t-126 -22.5t-104.5 -43.5t-73 -70t-26.5 -99.5z" />
    <glyph glyph-name="uni0202" unicode="&#x202;" horiz-adv-x="1430" 
d="M390 439l-182 -439h-158l604 1434h122l604 -1434h-158l-182 439h-650zM715 1223l-271 -652h541zM715 1770q181 0 276 -117q42 -54 58 -117h-108q-26 50 -64 79.5t-76 38.5t-86 9q-164 0 -226 -127h-108q16 63 58 117q97 117 276 117z" />
    <glyph glyph-name="uni0203" unicode="&#x203;" horiz-adv-x="1119" 
d="M580 1434q181 0 276 -117q42 -54 58 -117h-108q-26 50 -64 79.5t-76 38.5t-86 9q-164 0 -226 -127h-108q16 63 58 117q97 117 276 117zM580 908q-76 0 -168 -23.5t-159 -61.5l-57 106q72 46 173.5 71.5t210.5 25.5q104 0 178 -22t116.5 -57.5t66.5 -94.5t31 -117.5
t7 -142.5v-592h-141v193q-89 -213 -347 -213q-180 0 -285.5 82.5t-105.5 242.5q0 83 34 147t93 102t132 62t158.5 31.5t163.5 6t157 -11.5q-1 46 -4 76.5t-12.5 64t-27 54t-45 38t-70 25.5t-99.5 8zM247 305q0 -93 60.5 -150t183.5 -57q87 0 154.5 27.5t109 74.5t62.5 105.5
t21 124.5v107q-64 7 -128.5 8t-132.5 -4.5t-126 -22.5t-104.5 -43.5t-73 -70t-26.5 -99.5z" />
    <glyph glyph-name="uni0204" unicode="&#x204;" horiz-adv-x="1219" 
d="M288 798h753v-130h-753v-538h811v-130h-959v1434h949v-130h-801v-506zM660 1535l121 336h159l-154 -336h-126zM410 1535l121 336h159l-154 -336h-126z" />
    <glyph glyph-name="uni0205" unicode="&#x205;" horiz-adv-x="1168" 
d="M584 98q183 0 330 124l88 -87q-150 -155 -418 -155q-149 0 -259.5 68t-167.5 186t-57 269t57 269t167.5 186t259.5 68q221 0 352.5 -148.5t131.5 -433.5h-819q4 -151 94.5 -248.5t240.5 -97.5zM249 562h670q-13 154 -99.5 250t-235.5 96t-235.5 -96t-99.5 -250zM648 1180
l121 336h159l-154 -336h-126zM398 1180l121 336h159l-154 -336h-126z" />
    <glyph glyph-name="uni0206" unicode="&#x206;" horiz-adv-x="1219" 
d="M288 798h753v-130h-753v-538h811v-130h-959v1434h949v-130h-801v-506zM619 1770q181 0 276 -117q42 -54 58 -117h-108q-26 50 -64 79.5t-76 38.5t-86 9q-164 0 -226 -127h-108q16 63 58 117q97 117 276 117z" />
    <glyph glyph-name="uni0207" unicode="&#x207;" horiz-adv-x="1168" 
d="M584 98q183 0 330 124l88 -87q-150 -155 -418 -155q-149 0 -259.5 68t-167.5 186t-57 269t57 269t167.5 186t259.5 68q221 0 352.5 -148.5t131.5 -433.5h-819q4 -151 94.5 -248.5t240.5 -97.5zM249 562h670q-13 154 -99.5 250t-235.5 96t-235.5 -96t-99.5 -250zM588 1434
q181 0 276 -117q42 -54 58 -117h-108q-26 50 -64 79.5t-76 38.5t-86 9q-164 0 -226 -127h-108q16 63 58 117q97 117 276 117z" />
    <glyph glyph-name="uni0208" unicode="&#x208;" horiz-adv-x="530" 
d="M193 0v1434h148v-1434h-148zM330 1536l121 336h159l-154 -336h-126zM80 1536l121 336h159l-154 -336h-126z" />
    <glyph glyph-name="uni0209" unicode="&#x209;" horiz-adv-x="530" 
d="M192 0v1006h141v-1006h-141zM330 1180l121 336h159l-154 -336h-126zM80 1180l121 336h159l-154 -336h-126z" />
    <glyph glyph-name="uni020A" unicode="&#x20a;" horiz-adv-x="648" 
d="M250 0v1434h148v-1434h-148zM324 1770q181 0 276 -117q42 -54 58 -117h-108q-26 50 -64 79.5t-76 38.5t-86 9q-164 0 -226 -127h-108q16 63 58 117q97 117 276 117z" />
    <glyph glyph-name="uni020B" unicode="&#x20b;" horiz-adv-x="648" 
d="M254 0v1006h141v-1006h-141zM324 1434q181 0 276 -117q42 -54 58 -117h-108q-26 50 -64 79.5t-76 38.5t-86 9q-164 0 -226 -127h-108q16 63 58 117q97 117 276 117z" />
    <glyph glyph-name="uni020C" unicode="&#x20c;" horiz-adv-x="1614" 
d="M807 -20q-168 0 -304 58.5t-223 159.5t-133.5 234t-46.5 285t46.5 285t133.5 234t223 159.5t304 58.5t304 -58.5t223 -159.5t133.5 -234t46.5 -285t-46.5 -285t-133.5 -234t-223 -159.5t-304 -58.5zM807 110q136 0 243.5 47.5t174.5 131.5t102 192.5t35 235.5t-35 235.5
t-102 192.5t-174.5 131.5t-243.5 47.5t-243.5 -47.5t-174.5 -131.5t-102 -192.5t-35 -235.5t35 -235.5t102 -192.5t174.5 -131.5t243.5 -47.5zM869 1536l121 336h159l-154 -336h-126zM619 1536l121 336h159l-154 -336h-126z" />
    <glyph glyph-name="uni020D" unicode="&#x20d;" 
d="M627 1026q240 0 383.5 -146t143.5 -377t-143.5 -377t-383.5 -146t-383.5 146t-143.5 377t143.5 377t383.5 146zM627 908q-181 0 -279.5 -113.5t-98.5 -291.5t98.5 -291.5t279.5 -113.5t279.5 113.5t98.5 291.5t-98.5 291.5t-279.5 113.5zM690 1180l121 336h159l-154 -336
h-126zM440 1180l121 336h159l-154 -336h-126z" />
    <glyph glyph-name="uni020E" unicode="&#x20e;" horiz-adv-x="1614" 
d="M807 -20q-168 0 -304 58.5t-223 159.5t-133.5 234t-46.5 285t46.5 285t133.5 234t223 159.5t304 58.5t304 -58.5t223 -159.5t133.5 -234t46.5 -285t-46.5 -285t-133.5 -234t-223 -159.5t-304 -58.5zM807 110q136 0 243.5 47.5t174.5 131.5t102 192.5t35 235.5t-35 235.5
t-102 192.5t-174.5 131.5t-243.5 47.5t-243.5 -47.5t-174.5 -131.5t-102 -192.5t-35 -235.5t35 -235.5t102 -192.5t174.5 -131.5t243.5 -47.5zM806 1770q181 0 276 -117q42 -54 58 -117h-108q-26 50 -64 79.5t-76 38.5t-86 9q-164 0 -226 -127h-108q16 63 58 117
q97 117 276 117z" />
    <glyph glyph-name="uni020F" unicode="&#x20f;" 
d="M627 1026q240 0 383.5 -146t143.5 -377t-143.5 -377t-383.5 -146t-383.5 146t-143.5 377t143.5 377t383.5 146zM627 908q-181 0 -279.5 -113.5t-98.5 -291.5t98.5 -291.5t279.5 -113.5t279.5 113.5t98.5 291.5t-98.5 291.5t-279.5 113.5zM627 1434q181 0 276 -117
q42 -54 58 -117h-108q-26 50 -64 79.5t-76 38.5t-86 9q-164 0 -226 -127h-108q16 63 58 117q97 117 276 117z" />
    <glyph glyph-name="uni0210" unicode="&#x210;" horiz-adv-x="1307" 
d="M288 0h-148v1434h625q203 0 321.5 -112.5t118.5 -300.5q0 -165 -102.5 -274.5t-259.5 -130.5l364 -616h-163l-359 608h-397v-608zM765 1304h-477v-566h477q145 0 217.5 76.5t72.5 206.5t-72.5 206.5t-217.5 76.5zM651 1536l121 336h159l-154 -336h-126zM401 1536l121 336
h159l-154 -336h-126z" />
    <glyph glyph-name="uni0211" unicode="&#x211;" horiz-adv-x="860" 
d="M140 1006h141v-165q31 75 107 130t197 55q125 0 223 -45l-67 -107q-64 34 -156 34q-155 0 -229.5 -93t-74.5 -255v-560h-141v1006zM530 1180l121 336h159l-154 -336h-126zM280 1180l121 336h159l-154 -336h-126z" />
    <glyph glyph-name="uni0212" unicode="&#x212;" horiz-adv-x="1307" 
d="M288 0h-148v1434h625q203 0 321.5 -112.5t118.5 -300.5q0 -165 -102.5 -274.5t-259.5 -130.5l364 -616h-163l-359 608h-397v-608zM765 1304h-477v-566h477q145 0 217.5 76.5t72.5 206.5t-72.5 206.5t-217.5 76.5zM596 1771q181 0 276 -117q42 -54 58 -117h-108
q-26 50 -64 79.5t-76 38.5t-86 9q-164 0 -226 -127h-108q16 63 58 117q97 117 276 117z" />
    <glyph glyph-name="uni0213" unicode="&#x213;" horiz-adv-x="860" 
d="M142 1006h141v-165q31 75 107 130t197 55q125 0 223 -45l-67 -107q-64 34 -156 34q-155 0 -229.5 -93t-74.5 -255v-560h-141v1006zM474 1434q181 0 276 -117q42 -54 58 -117h-108q-26 50 -64 79.5t-76 38.5t-86 9q-164 0 -226 -127h-108q16 63 58 117q97 117 276 117z
" />
    <glyph glyph-name="uni0214" unicode="&#x214;" horiz-adv-x="1429" 
d="M715 110q218 0 322 125.5t104 377.5v821h148v-821q0 -308 -146 -470.5t-428 -162.5q-283 0 -429 162.5t-146 470.5v821h148v-821q0 -253 104 -378t323 -125zM762 1536l121 336h159l-154 -336h-126zM512 1536l121 336h159l-154 -336h-126z" />
    <glyph glyph-name="uni0215" unicode="&#x215;" horiz-adv-x="1170" 
d="M1030 0h-141v165q-15 -35 -38.5 -65t-59.5 -58.5t-89 -45t-117 -16.5q-215 0 -330 122.5t-115 343.5v560h141v-560q0 -162 74.5 -255t229.5 -93t229.5 93t74.5 255v560h141v-1006zM634 1180l121 336h159l-154 -336h-126zM384 1180l121 336h159l-154 -336h-126z" />
    <glyph glyph-name="uni0216" unicode="&#x216;" horiz-adv-x="1429" 
d="M715 110q218 0 322 125.5t104 377.5v821h148v-821q0 -308 -146 -470.5t-428 -162.5q-283 0 -429 162.5t-146 470.5v821h148v-821q0 -253 104 -378t323 -125zM714 1770q181 0 276 -117q42 -54 58 -117h-108q-26 50 -64 79.5t-76 38.5t-86 9q-164 0 -226 -127h-108
q16 63 58 117q97 117 276 117z" />
    <glyph glyph-name="uni0217" unicode="&#x217;" horiz-adv-x="1170" 
d="M1030 0h-141v165q-15 -35 -38.5 -65t-59.5 -58.5t-89 -45t-117 -16.5q-215 0 -330 122.5t-115 343.5v560h141v-560q0 -162 74.5 -255t229.5 -93t229.5 93t74.5 255v560h141v-1006zM585 1434q181 0 276 -117q42 -54 58 -117h-108q-26 50 -64 79.5t-76 38.5t-86 9
q-164 0 -226 -127h-108q16 63 58 117q97 117 276 117z" />
    <glyph glyph-name="Scommaaccent" unicode="&#x218;" horiz-adv-x="1232" 
d="M1078 1334l-76 -111q-75 48 -179 74.5t-215 26.5q-157 0 -248 -59t-91 -178q0 -109 82 -167t289 -105q267 -60 389.5 -160.5t122.5 -283.5q0 -192 -131.5 -291.5t-374.5 -99.5q-375 0 -566 154l76 111q202 -135 490 -135q356 0 356 261q0 119 -83.5 186t-303.5 116
q-263 58 -379.5 155t-116.5 259q0 166 128 266.5t361 100.5q283 0 470 -120zM377 -532l163 425h163l-194 -425h-132z" />
    <glyph glyph-name="scommaaccent" unicode="&#x219;" horiz-adv-x="994" 
d="M854 936l-70 -100q-119 72 -297 72q-110 0 -174.5 -43t-64.5 -111q0 -64 61 -105t203 -67q212 -41 307 -108.5t95 -204.5q0 -139 -112 -214t-289 -75q-276 0 -433 125l70 100q164 -105 363 -105q111 0 183.5 43.5t72.5 125.5t-62 122.5t-219 69.5q-206 40 -295.5 110.5
t-89.5 182.5q0 118 98 195t286 77q235 0 367 -90zM257 -532l163 425h163l-194 -425h-132z" />
    <glyph glyph-name="uni021A" unicode="&#x21a;" horiz-adv-x="1318" 
d="M80 1434h1158v-130h-505v-1304h-148v1304h-505v130zM415 -532l163 425h163l-194 -425h-132z" />
    <glyph glyph-name="uni021B" unicode="&#x21b;" horiz-adv-x="842" 
d="M80 888v118h208v299h141v-299h304v-118h-304v-448q0 -66 1.5 -105.5t7 -83t16.5 -67t30.5 -45t48.5 -29.5t70 -8q63 0 123 20l36 -117q-63 -25 -159 -25q-60 0 -106 10t-79 27t-56.5 47.5t-38 64.5t-22 85.5t-10.5 102.5t-3 123v448h-208zM297 -532l163 425h163
l-194 -425h-132z" />
    <glyph glyph-name="uni021C" unicode="&#x21c;" horiz-adv-x="1075" 
d="M145 -116l-23 130q80 4 144 9.5t139 18.5t131.5 31.5t112.5 48.5t92.5 69.5t59.5 96t25 125.5q2 83 -29.5 140t-89.5 84.5t-139.5 36t-179.5 -4.5l-15 130q53 9 87 16t84.5 20.5t82.5 27t69.5 36t58.5 48.5t35.5 62.5t14.5 80.5q0 103 -66 168.5t-182 65.5
q-126 0 -208.5 -52.5t-130.5 -158.5l-118 65q61 134 176.5 205t280.5 71q167 0 281.5 -100t114.5 -264q0 -122 -79 -211t-168 -113q116 -31 192 -117t76 -228q0 -354 -414 -482q-180 -55 -415 -55z" />
    <glyph glyph-name="uni021D" unicode="&#x21d;" horiz-adv-x="907" 
d="M133 -227l-15 118q81 3 152.5 12t146.5 32t128.5 56.5t87.5 88.5t34 126q0 61 -28.5 102t-76.5 57t-110 20t-130 -7l-9 118q37 5 66.5 10t65.5 14.5t63 21.5t54 31t44 42.5t28 56.5t11 72q0 74 -47.5 119t-135.5 45q-83 0 -146 -47.5t-97 -133.5l-119 47q99 252 361 252
q149 0 237 -79t88 -187q0 -107 -50 -181t-121 -108q80 -23 134.5 -91t56.5 -168q1 -78 -25.5 -142.5t-69.5 -109t-102.5 -79t-120.5 -54.5t-129 -32.5t-122 -17t-104 -4.5z" />
    <glyph glyph-name="uni021E" unicode="&#x21e;" horiz-adv-x="1396" 
d="M1108 798v636h148v-1434h-148v668h-820v-668h-148v1434h148v-636h820zM1015 1847l-270 -312h-94l-270 312h139l178 -187l179 187h138z" />
    <glyph glyph-name="uni021F" unicode="&#x21f;" horiz-adv-x="1170" 
d="M281 560v-560h-141v1516h141v-675q31 75 107 130t197 55q215 0 330 -122.5t115 -343.5v-560h-141v560q0 162 -74.5 255t-229.5 93t-229.5 -93t-74.5 -255zM902 1848l-270 -312h-94l-270 312h139l178 -187l179 187h138z" />
    <glyph glyph-name="uni0220" unicode="&#x220;" horiz-adv-x="1170" 
d="M140 1434h141v-165q31 75 107 130t197 55q215 0 330 -122.5t115 -343.5v-1520h-141v1520q0 162 -74.5 255t-229.5 93t-229.5 -93t-74.5 -255v-988h-141v1434z" />
    <glyph glyph-name="uni0221" unicode="&#x221;" horiz-adv-x="1278" 
d="M973 1516h141v-1482q51 54 147 54t146.5 -50t50.5 -123q0 -83 -59 -145.5t-170 -62.5q-105 0 -169 67q-20 -39 -31 -68q-6 -14 -12 -31l-110 70q6 17 20 51q24 58 59 108q-13 51 -13 140v163q-57 -111 -157 -169t-205 -58q-124 0 -223 42t-161 114.5t-94.5 166
t-32.5 200.5t32.5 200.5t94.5 166t161 114.5t223 42q105 0 205 -58t157 -169v717zM611 908q-115 0 -198.5 -57.5t-123.5 -147.5t-40 -200t40 -200t123.5 -147.5t198.5 -57.5t198.5 57t123.5 147.5t40 200.5t-40 200.5t-123.5 147.5t-198.5 57zM1229 -166q50 0 76 22t26 56
q0 49 -72 49q-32 0 -65 -21t-53 -50q8 -26 32 -41t56 -15z" />
    <glyph glyph-name="uni0222" unicode="&#x222;" horiz-adv-x="1152" 
d="M576 881q138 0 209.5 79.5t71.5 222.5q0 139 -89 247l132 72q105 -129 105 -319q0 -229 -188 -362q104 -48 169.5 -150t65.5 -240q0 -208 -131.5 -329.5t-344.5 -121.5t-344.5 121.5t-131.5 329.5q0 138 65.5 240t169.5 150q-188 133 -188 362q0 190 105 319l132 -72
q-89 -108 -89 -247q0 -143 71.5 -222.5t209.5 -79.5zM576 751q-160 0 -244 -87.5t-84 -232.5q0 -146 84 -233.5t244 -87.5t244 87.5t84 233.5q0 145 -84 232.5t-244 87.5z" />
    <glyph glyph-name="uni0223" unicode="&#x223;" horiz-adv-x="982" 
d="M491 -20q-180 0 -285.5 97t-105.5 262q0 111 52 190t136 120q-152 99 -152 281q0 152 99 265l113 -66q-71 -85 -71 -199q0 -232 214 -232t214 232q0 114 -71 199l113 66q99 -113 99 -265q0 -182 -152 -281q83 -40 135.5 -120t52.5 -190q0 -165 -105.5 -262t-285.5 -97z
M491 98q119 0 184.5 67.5t65.5 173.5t-65.5 173.5t-184.5 67.5t-184.5 -67.5t-65.5 -173.5t65.5 -173.5t184.5 -67.5z" />
    <glyph glyph-name="uni0224" unicode="&#x224;" horiz-adv-x="1320" 
d="M327 130h873v-130q-13 -3 -32.5 -10t-51.5 -23.5t-53.5 -48.5t-21.5 -73q0 -28 12 -48.5t27.5 -30.5t40 -15.5t40.5 -6.5t39 -1v-124q-72 -4 -133 11.5t-104.5 61t-44.5 116.5q-4 146 168 192h-966v80l869 1224h-866v130h1073v-80z" />
    <glyph glyph-name="uni0225" unicode="&#x225;" horiz-adv-x="1091" 
d="M971 118v-118q-43 -10 -80 -31q-79 -45 -79 -124q0 -28 12 -48.5t27.5 -30.5t40 -15.5t40.5 -6.5t39 -1v-124q-72 -4 -133 11.5t-104.5 61t-44.5 116.5q-4 146 168 192h-737v70l641 818h-617v118h827v-69l-640 -819h640z" />
    <glyph glyph-name="uni0226" unicode="&#x226;" horiz-adv-x="1430" 
d="M390 439l-182 -439h-158l604 1434h122l604 -1434h-158l-182 439h-650zM715 1223l-271 -652h541zM619 1632q0 40 28 68t68 28t68 -28t28 -68t-28 -68t-68 -28t-68 28t-28 68z" />
    <glyph glyph-name="uni0227" unicode="&#x227;" horiz-adv-x="1119" 
d="M498 1297q0 40 28 68t68 28t68 -28t28 -68t-28 -68t-68 -28t-68 28t-28 68zM580 908q-76 0 -168 -23.5t-159 -61.5l-57 106q72 46 173.5 71.5t210.5 25.5q104 0 178 -22t116.5 -57.5t66.5 -94.5t31 -117.5t7 -142.5v-592h-141v193q-89 -213 -347 -213q-180 0 -285.5 82.5
t-105.5 242.5q0 83 34 147t93 102t132 62t158.5 31.5t163.5 6t157 -11.5q-1 46 -4 76.5t-12.5 64t-27 54t-45 38t-70 25.5t-99.5 8zM247 305q0 -93 60.5 -150t183.5 -57q87 0 154.5 27.5t109 74.5t62.5 105.5t21 124.5v107q-64 7 -128.5 8t-132.5 -4.5t-126 -22.5
t-104.5 -43.5t-73 -70t-26.5 -99.5z" />
    <glyph glyph-name="uni0228" unicode="&#x228;" horiz-adv-x="1219" 
d="M428 -421l48 85q32 -15 71 -24t80 -9.5t71 19.5t36 62q2 19 -2.5 34t-16.5 24t-24.5 15.5t-34.5 8t-37.5 2.5t-41 -1t-38 -3.5t-36.5 -4.5l75 213h-438v1434h949v-130h-801v-506h753v-130h-753v-538h811v-130h-406l-42 -120q90 0 145 -43t47 -125q-7 -74 -53.5 -119
t-110 -55.5t-131.5 0t-120 41.5z" />
    <glyph glyph-name="uni0229" unicode="&#x229;" horiz-adv-x="1168" 
d="M371 -421l48 85q32 -15 71 -24t80 -9.5t71 19.5t36 62q2 19 -2.5 34t-16.5 24t-24.5 15.5t-34.5 8t-37.5 2.5t-41 -1t-38 -3.5t-36.5 -4.5l70 197q-194 21 -305 164t-111 355q0 151 57 269t167.5 186t259.5 68q221 0 352.5 -148.5t131.5 -433.5h-819q4 -151 94.5 -248.5
t240.5 -97.5q183 0 330 124l88 -87q-136 -141 -373 -154l-35 -101q90 0 145 -43t47 -125q-7 -74 -53.5 -119t-110 -55.5t-131.5 0t-120 41.5zM249 562h670q-13 154 -99.5 250t-235.5 96t-235.5 -96t-99.5 -250z" />
    <glyph glyph-name="uni022A" unicode="&#x22a;" horiz-adv-x="1614" 
d="M807 -20q-168 0 -304 58.5t-223 159.5t-133.5 234t-46.5 285t46.5 285t133.5 234t223 159.5t304 58.5t304 -58.5t223 -159.5t133.5 -234t46.5 -285t-46.5 -285t-133.5 -234t-223 -159.5t-304 -58.5zM807 110q136 0 243.5 47.5t174.5 131.5t102 192.5t35 235.5t-35 235.5
t-102 192.5t-174.5 131.5t-243.5 47.5t-243.5 -47.5t-174.5 -131.5t-102 -192.5t-35 -235.5t35 -235.5t102 -192.5t174.5 -131.5t243.5 -47.5zM524 1652q0 40 28 68t68 28t68 -28t28 -68t-28 -68t-68 -28t-68 28t-28 68zM897 1652q0 40 28 68t68 28t68 -28t28 -68t-28 -68
t-68 -28t-68 28t-28 68zM459 1828v118h695v-118h-695z" />
    <glyph glyph-name="uni022B" unicode="&#x22b;" 
d="M627 1026q240 0 383.5 -146t143.5 -377t-143.5 -377t-383.5 -146t-383.5 146t-143.5 377t143.5 377t383.5 146zM627 908q-181 0 -279.5 -113.5t-98.5 -291.5t98.5 -291.5t279.5 -113.5t279.5 113.5t98.5 291.5t-98.5 291.5t-279.5 113.5zM345 1297q0 40 28 68t68 28
t68 -28t28 -68t-28 -68t-68 -28t-68 28t-28 68zM718 1297q0 40 28 68t68 28t68 -28t28 -68t-28 -68t-68 -28t-68 28t-28 68zM280 1473v118h695v-118h-695z" />
    <glyph glyph-name="uni022C" unicode="&#x22c;" horiz-adv-x="1614" 
d="M807 -20q-168 0 -304 58.5t-223 159.5t-133.5 234t-46.5 285t46.5 285t133.5 234t223 159.5t304 58.5t304 -58.5t223 -159.5t133.5 -234t46.5 -285t-46.5 -285t-133.5 -234t-223 -159.5t-304 -58.5zM807 110q136 0 243.5 47.5t174.5 131.5t102 192.5t35 235.5t-35 235.5
t-102 192.5t-174.5 131.5t-243.5 47.5t-243.5 -47.5t-174.5 -131.5t-102 -192.5t-35 -235.5t35 -235.5t102 -192.5t174.5 -131.5t243.5 -47.5zM767 1619q-2 2 -11.5 12.5t-14.5 14.5t-14 10.5t-18 9.5t-19 3q-26 0 -36 -42q-4 -18 -6 -41h-130q3 56 21 103q42 103 151 103
q80 0 156 -83q2 -2 11.5 -12.5t14.5 -14.5t14 -10.5t18 -9.5t19 -3q22 0 36 41q5 18 6 42h130q-3 -58 -21 -103q-41 -103 -151 -103q-80 0 -156 83zM459 1852v118h695v-118h-695z" />
    <glyph glyph-name="uni022D" unicode="&#x22d;" 
d="M627 1026q240 0 383.5 -146t143.5 -377t-143.5 -377t-383.5 -146t-383.5 146t-143.5 377t143.5 377t383.5 146zM627 908q-181 0 -279.5 -113.5t-98.5 -291.5t98.5 -291.5t279.5 -113.5t279.5 113.5t98.5 291.5t-98.5 291.5t-279.5 113.5zM588 1261q-2 2 -11.5 12.5
t-14.5 14.5t-14 10.5t-18 9.5t-19 3q-26 0 -36 -42q-4 -18 -6 -41h-130q3 56 21 103q42 103 151 103q80 0 156 -83q2 -2 11.5 -12.5t14.5 -14.5t14 -10.5t18 -9.5t19 -3q22 0 36 41q4 18 6 42h130q-3 -58 -21 -103q-41 -103 -151 -103q-80 0 -156 83zM280 1494v118h695v-118
h-695z" />
    <glyph glyph-name="uni022E" unicode="&#x22e;" horiz-adv-x="1614" 
d="M807 -20q-168 0 -304 58.5t-223 159.5t-133.5 234t-46.5 285t46.5 285t133.5 234t223 159.5t304 58.5t304 -58.5t223 -159.5t133.5 -234t46.5 -285t-46.5 -285t-133.5 -234t-223 -159.5t-304 -58.5zM807 110q136 0 243.5 47.5t174.5 131.5t102 192.5t35 235.5t-35 235.5
t-102 192.5t-174.5 131.5t-243.5 47.5t-243.5 -47.5t-174.5 -131.5t-102 -192.5t-35 -235.5t35 -235.5t102 -192.5t174.5 -131.5t243.5 -47.5zM710 1652q0 40 28 68t68 28t68 -28t28 -68t-28 -68t-68 -28t-68 28t-28 68z" />
    <glyph glyph-name="uni022F" unicode="&#x22f;" 
d="M627 1026q240 0 383.5 -146t143.5 -377t-143.5 -377t-383.5 -146t-383.5 146t-143.5 377t143.5 377t383.5 146zM627 908q-181 0 -279.5 -113.5t-98.5 -291.5t98.5 -291.5t279.5 -113.5t279.5 113.5t98.5 291.5t-98.5 291.5t-279.5 113.5zM531 1297q0 40 28 68t68 28
t68 -28t28 -68t-28 -68t-68 -28t-68 28t-28 68z" />
    <glyph glyph-name="uni0230" unicode="&#x230;" horiz-adv-x="1614" 
d="M807 -20q-168 0 -304 58.5t-223 159.5t-133.5 234t-46.5 285t46.5 285t133.5 234t223 159.5t304 58.5t304 -58.5t223 -159.5t133.5 -234t46.5 -285t-46.5 -285t-133.5 -234t-223 -159.5t-304 -58.5zM807 110q136 0 243.5 47.5t174.5 131.5t102 192.5t35 235.5t-35 235.5
t-102 192.5t-174.5 131.5t-243.5 47.5t-243.5 -47.5t-174.5 -131.5t-102 -192.5t-35 -235.5t35 -235.5t102 -192.5t174.5 -131.5t243.5 -47.5zM710 1652q0 40 28 68t68 28t68 -28t28 -68t-28 -68t-68 -28t-68 28t-28 68zM459 1828v118h695v-118h-695z" />
    <glyph glyph-name="uni0231" unicode="&#x231;" 
d="M627 1026q240 0 383.5 -146t143.5 -377t-143.5 -377t-383.5 -146t-383.5 146t-143.5 377t143.5 377t383.5 146zM627 908q-181 0 -279.5 -113.5t-98.5 -291.5t98.5 -291.5t279.5 -113.5t279.5 113.5t98.5 291.5t-98.5 291.5t-279.5 113.5zM532 1297q0 40 28 68t68 28
t68 -28t28 -68t-28 -68t-68 -28t-68 28t-28 68zM280 1473v118h695v-118h-695z" />
    <glyph glyph-name="uni0232" unicode="&#x232;" horiz-adv-x="1362" 
d="M223 1434l458 -687l458 687h173l-557 -836v-598h-148v598l-557 836h173zM334 1536v118h695v-118h-695z" />
    <glyph glyph-name="uni0233" unicode="&#x233;" horiz-adv-x="1096" 
d="M548 155l338 851h160l-550 -1299q-42 -96 -60 -125q-72 -114 -204 -114q-106 0 -173 41l54 108q56 -27 102 -27q19 0 35 4t27.5 7.5t23 16t18 18.5t17 26t14 28t15.5 34.5t16 35.5l95 240l-426 1006h160zM201 1316v118h695v-118h-695z" />
    <glyph glyph-name="uni0234" unicode="&#x234;" horiz-adv-x="741" 
d="M494 335q96 0 146.5 -50t50.5 -123q0 -83 -59 -145.5t-170 -62.5q-105 0 -169 67q-20 -39 -31 -68q-6 -14 -12 -31l-110 70q6 17 20 51q24 58 59 108q-13 51 -13 140v1225h141v-1235q51 54 147 54zM462 81q50 0 76 22t26 56q0 49 -72 49q-32 0 -65 -21t-53 -50
q8 -26 32 -41t56 -15z" />
    <glyph glyph-name="uni0235" unicode="&#x235;" horiz-adv-x="1174" 
d="M140 1006h141v-165q31 75 107 130t197 55q215 0 330 -122.5t115 -343.5v-526q51 54 147 54t146.5 -50t50.5 -123q0 -83 -59 -145.5t-170 -62.5q-105 0 -169 67q-20 -39 -31 -68q-6 -14 -12 -31l-110 70q6 17 20 51q24 58 59 108q-13 51 -13 140v516q0 162 -74.5 255
t-229.5 93t-229.5 -93t-74.5 -255v-560h-141v1006zM1145 -166q50 0 76 22t26 56q0 49 -72 49q-32 0 -65 -21t-53 -50q8 -26 32 -41t56 -15z" />
    <glyph glyph-name="uni0236" unicode="&#x236;" horiz-adv-x="853" 
d="M576 335q96 0 146.5 -50t50.5 -123q0 -83 -59 -145.5t-170 -62.5q-105 0 -169 67q-20 -39 -31 -68q-6 -14 -12 -31l-110 70q6 17 20 51q24 58 59 108q-13 51 -13 140v597h-208v118h208v299h141v-299h304v-118h-304v-607q51 54 147 54zM544 81q50 0 76 22t26 56
q0 49 -72 49q-32 0 -65 -21t-53 -50q8 -26 32 -41t56 -15z" />
    <glyph glyph-name="uni0237" unicode="&#x237;" horiz-adv-x="451" 
d="M-160 -495l42 110q70 -27 141 -27q34 0 59 11.5t41 36.5t25.5 52t14 71t6 80t1.5 92v1075h141v-1075q0 -95 -7 -163t-25.5 -127.5t-50.5 -95.5t-83 -56.5t-122 -20.5q-102 0 -183 37z" />
    <glyph glyph-name="uni0238" unicode="&#x238;" horiz-adv-x="2087" 
d="M1114 0h-141v207q-57 -111 -157 -169t-205 -58q-155 0 -273 72.5t-178 190.5t-60 260t60 260t178 190.5t273 72.5q105 0 205 -58t157 -169v717h141v-717q57 111 157 169t205 58q155 0 273 -72.5t178 -190.5t60 -260t-60 -260t-178 -190.5t-273 -72.5q-105 0 -205 58
t-157 169v-207zM1476 908q-115 0 -198.5 -57t-123.5 -147.5t-40 -200.5t40 -200.5t123.5 -147.5t198.5 -57t198.5 57.5t123.5 147.5t40 200t-40 200t-123.5 147.5t-198.5 57.5zM611 908q-115 0 -198.5 -57.5t-123.5 -147.5t-40 -200t40 -200t123.5 -147.5t198.5 -57.5
t198.5 57t123.5 147.5t40 200.5t-40 200.5t-123.5 147.5t-198.5 57z" />
    <glyph glyph-name="uni0239" unicode="&#x239;" horiz-adv-x="2087" 
d="M973 1006h141v-207q57 111 157 169t205 58q155 0 273 -72.5t178 -190.5t60 -260t-60 -260t-178 -190.5t-273 -72.5q-105 0 -205 58t-157 169v-739h-141v739q-57 -111 -157 -169t-205 -58q-155 0 -273 72.5t-178 190.5t-60 260t60 260t178 190.5t273 72.5q105 0 205 -58
t157 -169v207zM1476 98q115 0 198.5 57.5t123.5 147.5t40 200t-40 200t-123.5 147.5t-198.5 57.5t-198.5 -57t-123.5 -147.5t-40 -200.5t40 -200.5t123.5 -147.5t198.5 -57zM611 98q115 0 198.5 57t123.5 147.5t40 200.5t-40 200.5t-123.5 147.5t-198.5 57t-198.5 -57.5
t-123.5 -147.5t-40 -200t40 -200t123.5 -147.5t198.5 -57.5z" />
    <glyph glyph-name="uni023A" unicode="&#x23a;" horiz-adv-x="1430" 
d="M390 439l-182 -439h-158l604 1434h122l85 -204l191 474h148l-263 -654l443 -1050h-158l-182 439h-348l-284 -710h-148l284 710h-154zM715 1223l-271 -652h153l191 475zM745 571h240l-122 294z" />
    <glyph glyph-name="uni023B" unicode="&#x23b;" horiz-adv-x="1363" 
d="M962 1443l105 261h148l-117 -292q102 -33 185 -96l-79 -108q-77 48 -157 77l-457 -1139q100 -36 217 -36q221 0 397 116l79 -108q-181 -138 -476 -138q-140 0 -266 43l-118 -294h-148l142 354q-153 94 -235 262t-82 372q0 152 46.5 285t133.5 234t223 159.5t304 58.5
q81 0 155 -11zM252 717q0 -161 55 -293t162 -212l443 1105q-58 7 -105 7q-136 0 -243.5 -47.5t-174.5 -131.5t-102 -192.5t-35 -235.5z" />
    <glyph glyph-name="uni023C" unicode="&#x23c;" horiz-adv-x="1078" 
d="M714 1021l67 168h141l-79 -198q87 -32 155 -94l-74 -94q-59 47 -126 74l-302 -761q58 -18 131 -18q171 0 297 105l74 -95q-140 -128 -371 -128q-90 0 -175 24l-82 -206h-142l103 259q-111 67 -171 182.5t-60 263.5q0 231 143.5 377t383.5 146q40 0 87 -5zM249 503
q0 -214 131 -323l288 726q-26 2 -41 2q-181 0 -279.5 -113.5t-98.5 -291.5z" />
    <glyph glyph-name="uni023D" unicode="&#x23d;" horiz-adv-x="1306" 
d="M465 671v-541h741v-130h-889v671h-297v130h297v633h148v-633h297v-130h-297z" />
    <glyph glyph-name="uni023E" unicode="&#x23e;" horiz-adv-x="1288" 
d="M1041 1434h197v-130h-249l-256 -640v-664h-148v295l-227 -566h-147l374 932v643h-505v130h814l109 270h147zM733 1304v-273l109 273h-109z" />
    <glyph glyph-name="uni023F" unicode="&#x23f;" horiz-adv-x="995" 
d="M855 936l-70 -100q-119 72 -297 72q-110 0 -174.5 -43t-64.5 -111q0 -64 61 -105t203 -67q212 -41 307 -108.5t95 -204.5q0 -139 -112 -214t-289 -75q-173 0 -300 50q11 -265 273 -265q178 0 283 147l118 -67q-22 -35 -51.5 -66.5t-77.5 -66.5t-118.5 -56t-153.5 -21
q-74 0 -134.5 15.5t-103 41.5t-74.5 63.5t-51 78.5t-29.5 88.5t-13.5 91.5t0 91l70 100q164 -105 363 -105q111 0 183.5 43.5t72.5 125.5t-62 122.5t-219 69.5q-206 40 -295.5 110.5t-89.5 182.5q0 118 98 195t286 77q235 0 367 -90z" />
    <glyph glyph-name="uni0240" unicode="&#x240;" horiz-adv-x="1091" 
d="M120 0v70l641 818h-617v118h827v-69l-640 -819h640v-118h-722q4 -41 21.5 -78.5t50.5 -71.5t89.5 -54.5t129.5 -20.5q93 0 163.5 37.5t109.5 79.5l114 -77q-22 -29 -51.5 -55t-75.5 -54t-113.5 -44.5t-146.5 -16.5q-90 0 -162 22.5t-116.5 57.5t-75.5 84t-45.5 94.5
t-20.5 96.5z" />
    <glyph glyph-name="uni0241" unicode="&#x241;" horiz-adv-x="1134" 
d="M218 1131l-118 68q15 30 34.5 58.5t58.5 66t86 64.5t119 46.5t156 19.5q124 0 219.5 -32t150.5 -87t82.5 -121t27.5 -141q0 -338 -439 -406v-667h-148v770q90 2 167 20t139 53t97.5 93.5t35.5 136.5q0 117 -85 184t-247 67q-59 0 -111 -15t-85 -34t-64 -49.5t-45.5 -49.5
t-30.5 -45z" />
    <glyph glyph-name="uni0242" unicode="&#x242;" horiz-adv-x="1134" 
d="M218 703l-118 68q15 30 34.5 58.5t58.5 66t86 64.5t119 46.5t156 19.5q124 0 219.5 -32t150.5 -87t82.5 -121t27.5 -141q0 -338 -439 -406v-771h-148v874q90 2 167 20t139 53t97.5 93.5t35.5 136.5q0 117 -85 184t-247 67q-59 0 -111 -15t-85 -34t-64 -49.5t-45.5 -49.5
t-30.5 -45z" />
    <glyph glyph-name="uni0243" unicode="&#x243;" horiz-adv-x="1457" 
d="M20 344v132h223v958h574q111 0 196.5 -22t138.5 -57.5t87 -85.5t47 -102t13 -111q0 -106 -54 -185.5t-141 -114.5q253 -89 253 -346q0 -64 -16 -121t-54.5 -111t-96.5 -92.5t-148.5 -62t-204.5 -23.5h-594v344h-223zM391 130h446q102 0 176 23.5t114 64.5t58 88.5
t18 103.5q0 116 -72.5 194.5t-209.5 78.5h-530v-207h223v-132h-223v-214zM391 813h530q106 0 165 67.5t59 175.5q0 43 -7.5 77t-29 67.5t-57 55t-95 35t-139.5 13.5h-426v-491z" />
    <glyph glyph-name="uni0244" unicode="&#x244;" horiz-adv-x="1653" 
d="M80 701v140h172v593h148v-593h853v593h148v-593h172v-140h-172v-88q0 -308 -146 -470.5t-428 -162.5q-283 0 -429 162.5t-146 470.5v88h-172zM827 110q218 0 322 125.5t104 377.5v88h-853v-88q0 -253 104 -378t323 -125z" />
    <glyph glyph-name="uni0245" unicode="&#x245;" horiz-adv-x="1430" 
d="M1222 0l-507 1223l-507 -1223h-158l604 1434h122l604 -1434h-158z" />
    <glyph glyph-name="uni0246" unicode="&#x246;" horiz-adv-x="1232" 
d="M716 798h338v-130h-390l-216 -538h664v-130h-716l-108 -271h-148l108 271h-95v1434h670l109 270h148l-109 -270h131v-130h-183zM301 1304v-506h267l203 506h-470zM301 668v-537l215 537h-215z" />
    <glyph glyph-name="uni0247" unicode="&#x247;" horiz-adv-x="1168" 
d="M584 98q183 0 330 124l88 -87q-150 -155 -418 -155q-71 0 -137 17l-79 -199h-142l99 249q-108 66 -166.5 185t-58.5 271q0 151 57 269t167.5 186t259.5 68q61 0 125 -14l71 177h141l-89 -225q112 -65 174 -196t62 -324h-443l-133 -335q46 -11 92 -11zM584 908
q-149 0 -235.5 -96t-99.5 -250h281l134 337q-45 9 -80 9zM672 562h247q-14 187 -135 282zM373 168l110 276h-234q5 -178 124 -276z" />
    <glyph glyph-name="uni0248" unicode="&#x248;" horiz-adv-x="1393" 
d="M80 153l106 78q90 -121 246 -121q145 0 201.5 80t56.5 251v405h-310v130h310v328h-505v130h1158v-130h-505v-328h310v-130h-310v-405q0 -236 -105.5 -348.5t-300.5 -112.5q-244 0 -352 173z" />
    <glyph glyph-name="uni0249" unicode="&#x249;" horiz-adv-x="668" 
d="M-60 -495l42 110q70 -27 141 -27q34 0 59 11.5t41 36.5t25.5 52t14 71t6 80t1.5 92v658h-237v120h237v297h141v-297h237v-120h-237v-658q0 -95 -7 -163t-25.5 -127.5t-50.5 -95.5t-83 -56.5t-122 -20.5q-102 0 -183 37zM244 1297q0 40 28 68t68 28t68 -28t28 -68t-28 -68
t-68 -28t-68 28t-28 68z" />
    <glyph glyph-name="uni024A" unicode="&#x24a;" horiz-adv-x="1684" 
d="M807 -20q-168 0 -304 58.5t-223 159.5t-133.5 234t-46.5 285t46.5 285t133.5 234t223 159.5t304 58.5t304 -58.5t223 -159.5t133.5 -234t46.5 -285v-596q0 -56 1.5 -92t6 -80t14 -71t25.5 -52t41 -36.5t59 -11.5q71 0 141 27l42 -110q-81 -37 -183 -37q-71 0 -122.5 20.5
t-83.5 56.5t-50 95.5t-25 127.5t-7 163v126q-90 -126 -234.5 -196.5t-331.5 -70.5zM807 110q136 0 243.5 47.5t174.5 131.5t102 192.5t35 235.5t-35 235.5t-102 192.5t-174.5 131.5t-243.5 47.5t-243.5 -47.5t-174.5 -131.5t-102 -192.5t-35 -235.5t35 -235.5t102 -192.5
t174.5 -131.5t243.5 -47.5z" />
    <glyph glyph-name="uni024B" unicode="&#x24b;" horiz-adv-x="1284" 
d="M1402 -385l42 -110q-81 -37 -183 -37q-71 0 -122.5 20.5t-83.5 56.5t-50 95.5t-25 127.5t-7 163v276q-57 -111 -157 -169t-205 -58q-124 0 -223 42t-161 114.5t-94.5 166t-32.5 200.5t32.5 200.5t94.5 166t161 114.5t223 42q105 0 205 -58t157 -169v207h141v-1075
q0 -56 1.5 -92t6 -80t14 -71t25.5 -52t41 -36.5t59 -11.5q71 0 141 27zM611 98q115 0 198.5 57t123.5 147.5t40 200.5t-40 200.5t-123.5 147.5t-198.5 57t-198.5 -57.5t-123.5 -147.5t-40 -200t40 -200t123.5 -147.5t198.5 -57.5z" />
    <glyph glyph-name="uni024C" unicode="&#x24c;" horiz-adv-x="1445" 
d="M20 612v130h258v692h625q203 0 321.5 -112.5t118.5 -300.5q0 -165 -102.5 -274.5t-259.5 -130.5l364 -616h-163l-359 608h-397v-608h-148v612h-258zM903 1304h-477v-566h477q145 0 217.5 76.5t72.5 206.5t-72.5 206.5t-217.5 76.5z" />
    <glyph glyph-name="uni024D" unicode="&#x24d;" horiz-adv-x="943" 
d="M20 394v118h205v494h141v-165q31 75 107 130t197 55q125 0 223 -45l-67 -107q-64 34 -156 34q-155 0 -229.5 -93t-74.5 -255v-48h205v-118h-205v-394h-141v394h-205z" />
    <glyph glyph-name="uni024E" unicode="&#x24e;" horiz-adv-x="1362" 
d="M124 996v130h131l-205 308h173l205 -308h505l206 308h173l-205 -308h131v-130h-218l-265 -398v-598h-148v598l-265 398h-218zM515 996l166 -249l166 249h-332z" />
    <glyph glyph-name="uni024F" unicode="&#x24f;" horiz-adv-x="1216" 
d="M50 476v118h234l-174 412h160l163 -412h349l164 412h160l-175 -412h235v-118h-285l-325 -769q-42 -96 -60 -125q-72 -114 -204 -114q-106 0 -173 41l54 108q56 -27 102 -27q19 0 35 4t27.5 7.5t23 16t18 18.5t17 26t14 28t15.5 34.5t16 35.5l95 240l-202 476h-284z
M480 476l128 -321l127 321h-255z" />
    <glyph glyph-name="uni0250" unicode="&#x250;" horiz-adv-x="1119" 
d="M539 98q75 0 166.5 24t160.5 61l57 -106q-72 -46 -174 -71.5t-210 -25.5q-104 0 -178 22t-116.5 57.5t-66.5 94.5t-31 117.5t-7 142.5v592h141v-193q84 213 347 213q180 0 285.5 -82.5t105.5 -242.5q0 -83 -34 -147t-93 -102t-132 -62t-158.5 -31.5t-163.5 -6t-157 11.5
q1 -46 4 -76.5t12.5 -64t27 -54t45 -38t70 -25.5t99.5 -8zM872 701q0 93 -60.5 150t-183.5 57q-87 0 -154.5 -27.5t-109 -74.5t-62.5 -105.5t-21 -124.5v-107q64 -7 128.5 -8t132.5 4.5t126 22.5t104.5 43.5t73 70t26.5 99.5z" />
    <glyph glyph-name="uni0251" unicode="&#x251;" 
d="M1114 0h-141v207q-57 -111 -157 -169t-205 -58q-124 0 -223 42t-161 114.5t-94.5 166t-32.5 200.5t32.5 200.5t94.5 166t161 114.5t223 42q105 0 205 -58t157 -169v207h141v-1006zM611 908q-115 0 -198.5 -57.5t-123.5 -147.5t-40 -200t40 -200t123.5 -147.5t198.5 -57.5
t198.5 57t123.5 147.5t40 200.5t-40 200.5t-123.5 147.5t-198.5 57z" />
    <glyph glyph-name="uni0252" unicode="&#x252;" 
d="M281 0h-141v1006h141v-207q57 111 157 169t205 58q124 0 223 -42t161 -114.5t94.5 -166t32.5 -200.5t-32.5 -200.5t-94.5 -166t-161 -114.5t-223 -42q-105 0 -205 58t-157 169v-207zM643 908q-115 0 -198.5 -57t-123.5 -147.5t-40 -200.5t40 -200.5t123.5 -147.5
t198.5 -57t198.5 57.5t123.5 147.5t40 200t-40 200t-123.5 147.5t-198.5 57.5z" />
    <glyph glyph-name="uni0253" unicode="&#x253;" 
d="M643 1026q124 0 223 -42t161 -114.5t94.5 -166t32.5 -200.5t-32.5 -200.5t-94.5 -166t-161 -114.5t-223 -42q-105 0 -205 58t-157 169v-207h-141v1073q0 95 7 163t25 127.5t50 95.5t83.5 56.5t122.5 20.5q102 0 183 -37l-42 -110q-70 27 -141 27q-34 0 -59 -11.5
t-41 -36.5t-25.5 -52t-14 -71t-6 -80t-1.5 -92v-274q57 111 157 169t205 58zM643 908q-115 0 -198.5 -57t-123.5 -147.5t-40 -200.5t40 -200.5t123.5 -147.5t198.5 -57t198.5 57.5t123.5 147.5t40 200t-40 200t-123.5 147.5t-198.5 57.5z" />
    <glyph glyph-name="uni0254" unicode="&#x254;" horiz-adv-x="1078" 
d="M829 503q0 178 -98.5 291.5t-279.5 113.5q-171 0 -297 -105l-74 94q141 129 371 129q240 0 383.5 -146t143.5 -377t-143.5 -377t-383.5 -146q-231 0 -371 128l74 95q126 -105 297 -105q181 0 279.5 113.5t98.5 291.5z" />
    <glyph glyph-name="uni0255" unicode="&#x255;" horiz-adv-x="1165" 
d="M249 503q0 -178 98.5 -291.5t279.5 -113.5q-57 62 -87.5 149.5t-30.5 148.5q0 144 69 225.5t211 81.5q111 0 189 -79t78 -215q0 -134 -59.5 -228t-144.5 -139q63 -44 154 -89q27 -13 79 -35l-69 -91q-48 16 -101 41q-113 52 -192 119q-131 -21 -247.5 9.5t-198.5 100
t-129.5 175.5t-47.5 231q0 231 143.5 377t383.5 146q230 0 371 -129l-74 -94q-126 105 -297 105q-181 0 -279.5 -113.5t-98.5 -291.5zM917 409q0 163 -129 163q-77 0 -107.5 -47t-30.5 -136q0 -67 31 -138.5t77 -115.5q79 37 119 109t40 165z" />
    <glyph glyph-name="uni0256" unicode="&#x256;" horiz-adv-x="1264" 
d="M973 1516h141v-1586q0 -56 1.5 -92t6 -80t14 -71t25.5 -52t41 -36.5t59 -11.5q71 0 141 27l42 -110q-81 -37 -183 -37q-71 0 -122.5 20.5t-83.5 56.5t-50 95.5t-25 127.5t-7 163v277q-57 -111 -157 -169t-205 -58q-124 0 -223 42t-161 114.5t-94.5 166t-32.5 200.5
t32.5 200.5t94.5 166t161 114.5t223 42q105 0 205 -58t157 -169v717zM611 908q-115 0 -198.5 -57.5t-123.5 -147.5t-40 -200t40 -200t123.5 -147.5t198.5 -57.5t198.5 57t123.5 147.5t40 200.5t-40 200.5t-123.5 147.5t-198.5 57z" />
    <glyph glyph-name="uni0257" unicode="&#x257;" horiz-adv-x="1314" 
d="M973 799v274q0 95 7 163t25 127.5t50 95.5t83.5 56.5t122.5 20.5q102 0 183 -37l-42 -110q-70 27 -141 27q-34 0 -59 -11.5t-41 -36.5t-25.5 -52t-14 -71t-6 -80t-1.5 -92v-1073h-141v207q-57 -111 -157 -169t-205 -58q-124 0 -223 42t-161 114.5t-94.5 166t-32.5 200.5
t32.5 200.5t94.5 166t161 114.5t223 42q105 0 205 -58t157 -169zM611 908q-115 0 -198.5 -57.5t-123.5 -147.5t-40 -200t40 -200t123.5 -147.5t198.5 -57.5t198.5 57t123.5 147.5t40 200.5t-40 200.5t-123.5 147.5t-198.5 57z" />
    <glyph glyph-name="uni0258" unicode="&#x258;" horiz-adv-x="1168" 
d="M584 98q150 0 240.5 97.5t94.5 248.5h-819q0 285 131.5 433.5t352.5 148.5q149 0 259.5 -68t167.5 -186t57 -269t-57 -269t-167.5 -186t-259.5 -68q-268 0 -418 155l88 87q147 -124 330 -124zM249 562h670q-13 154 -99.5 250t-235.5 96t-235.5 -96t-99.5 -250z" />
    <glyph glyph-name="uni0259" unicode="&#x259;" horiz-adv-x="1168" 
d="M584 908q-183 0 -330 -124l-88 87q150 155 418 155q149 0 259.5 -68t167.5 -186t57 -269t-57 -269t-167.5 -186t-259.5 -68q-221 0 -352.5 148.5t-131.5 433.5h819q-4 151 -94.5 248.5t-240.5 97.5zM919 444h-670q13 -154 99.5 -250t235.5 -96t235.5 96t99.5 250z" />
    <glyph glyph-name="uni025A" unicode="&#x25a;" horiz-adv-x="1432" 
d="M585 908q-211 4 -338 -126l-91 87q146 157 429 157q185 0 308.5 -103t160.5 -276l286 42q-14 -11 -32.5 -37t-30 -58t-11 -60t29.5 -43.5t86 -7.5v-124q-31 -2 -65 -2t-66 12.5t-56.5 31.5t-35 54t-2.5 81l-89 -13q8 -241 -124 -392t-359 -151q-108 0 -196.5 31.5
t-154 94.5t-100.5 164.5t-33 234.5l809 120q-8 56 -31.5 105.5t-62 90t-98 64t-133.5 23.5zM920 501l-670 -100q28 -303 335 -303q156 0 252.5 111.5t82.5 291.5z" />
    <glyph glyph-name="uni025B" unicode="&#x25b;" horiz-adv-x="1011" 
d="M827 196l84 -86q-46 -48 -144.5 -89t-256.5 -41q-83 0 -155.5 19t-130 56t-91 98t-33.5 139q0 98 55.5 157t136.5 85q-67 27 -111.5 83t-44.5 139q0 120 101 195t273 75q136 0 235 -40.5t146 -89.5l-84 -86q-39 33 -118.5 65.5t-178.5 32.5q-118 0 -175.5 -43t-57.5 -109
q0 -51 24.5 -85t74 -51.5t109 -24.5t144.5 -7v-118q-203 0 -295.5 -39t-92.5 -139q0 -91 73.5 -142.5t195.5 -51.5q114 0 195 31.5t122 66.5z" />
    <glyph glyph-name="uni025C" unicode="&#x25c;" horiz-adv-x="1011" 
d="M100 110l84 86q41 -35 122 -66.5t195 -31.5q122 0 195.5 51.5t73.5 142.5q0 100 -92.5 139t-295.5 39v118q85 0 144.5 7t109 24.5t74 51.5t24.5 85q0 66 -57.5 109t-175.5 43q-99 0 -178.5 -32.5t-118.5 -65.5l-84 86q47 49 146 89.5t235 40.5q172 0 273 -75t101 -195
q0 -83 -44.5 -139t-111.5 -83q81 -26 136.5 -85t55.5 -157q0 -78 -33.5 -139t-91 -98t-130 -56t-155.5 -19q-158 0 -256.5 41t-144.5 89z" />
    <glyph glyph-name="uni025D" unicode="&#x25d;" horiz-adv-x="1159" 
d="M100 110l84 86q41 -35 122 -66.5t195 -31.5q122 0 195.5 51.5t73.5 142.5q0 100 -92.5 139t-295.5 39v118q85 0 144.5 7t109 24.5t74 51.5t24.5 85q0 66 -57.5 109t-175.5 43q-99 0 -178.5 -32.5t-118.5 -65.5l-84 86q47 49 146 89.5t235 40.5q172 0 273 -75t101 -195
q0 -4 -0.5 -11.5t-0.5 -10.5l253 39q-14 -11 -32 -37.5t-30 -58.5t-12 -59.5t29 -43t87 -7.5v-124q-31 -2 -65 -2t-66 12.5t-56.5 31.5t-35 54t-2.5 81l-129 -21q-33 -38 -96 -65q81 -26 136.5 -85t55.5 -157q0 -78 -33.5 -139t-91 -98t-130 -56t-155.5 -19
q-158 0 -256.5 41t-144.5 89z" />
    <glyph glyph-name="uni025E" unicode="&#x25e;" horiz-adv-x="1062" 
d="M100 503q0 101 31.5 193.5t90 166.5t152 118.5t207.5 44.5q157 0 251 -79.5t94 -194.5q0 -76 -43.5 -137.5t-105.5 -84.5q78 -26 131.5 -89t53.5 -151q0 -78 -33.5 -139t-88.5 -97.5t-121.5 -55t-137.5 -18.5q-121 0 -214 39t-151 109.5t-87 165t-29 209.5zM241 503
q0 -405 340 -405q109 0 174.5 53.5t65.5 138.5q0 99 -85.5 137.5t-264.5 38.5v118q69 0 121 7t98 24.5t70.5 51.5t24.5 85q0 25 -9.5 50t-31 50t-63.5 40.5t-100 15.5q-85 0 -152 -36t-107 -95.5t-60.5 -129.5t-20.5 -144z" />
    <glyph glyph-name="uni025F" unicode="&#x25f;" horiz-adv-x="566" 
d="M-170 -495l42 110q70 -27 141 -27q34 0 59 11.5t41 36.5t25.5 52t14 71t6 80t1.5 92v69h-215v120h215v886h141v-886h215v-120h-215v-69q0 -95 -7 -163t-25.5 -127.5t-50.5 -95.5t-83 -56.5t-122 -20.5q-102 0 -183 37z" />
    <glyph glyph-name="uni0260" unicode="&#x260;" horiz-adv-x="1284" 
d="M973 0v207q-57 -111 -157 -169t-205 -58q-124 0 -223 42t-161 114.5t-94.5 166t-32.5 200.5t32.5 200.5t94.5 166t161 114.5t223 42q105 0 205 -58t157 -169v274q0 95 7 163t25 127.5t50 95.5t83.5 56.5t122.5 20.5q102 0 183 -37l-42 -110q-70 27 -141 27
q-34 0 -59 -11.5t-41 -36.5t-25.5 -52t-14 -71t-6 -80t-1.5 -92v-1073q0 -122 -30.5 -217.5t-79.5 -153.5t-116.5 -95.5t-134.5 -51.5t-142 -14q-128 0 -239.5 30.5t-182.5 87.5l83 99q142 -95 339 -95q171 0 266.5 102.5t95.5 307.5zM611 908q-115 0 -198.5 -57.5
t-123.5 -147.5t-40 -200t40 -200t123.5 -147.5t198.5 -57.5t198.5 57t123.5 147.5t40 200.5t-40 200.5t-123.5 147.5t-198.5 57z" />
    <glyph glyph-name="uni0261" unicode="&#x261;" 
d="M973 0v207q-57 -111 -157 -169t-205 -58q-124 0 -223 42t-161 114.5t-94.5 166t-32.5 200.5t32.5 200.5t94.5 166t161 114.5t223 42q105 0 205 -58t157 -169v207h141v-1006q0 -122 -30.5 -217.5t-79.5 -153.5t-116.5 -95.5t-134.5 -51.5t-142 -14q-128 0 -239.5 30.5
t-182.5 87.5l83 99q142 -95 339 -95q171 0 266.5 102.5t95.5 307.5zM611 908q-115 0 -198.5 -57.5t-123.5 -147.5t-40 -200t40 -200t123.5 -147.5t198.5 -57.5t198.5 57t123.5 147.5t40 200.5t-40 200.5t-123.5 147.5t-198.5 57z" />
    <glyph glyph-name="uni0262" unicode="&#x262;" horiz-adv-x="1129" 
d="M619 449v118h390v-466q-76 -66 -183 -93.5t-213 -27.5q-222 0 -367.5 145.5t-145.5 377.5q0 231 145.5 377t367.5 146q242 0 390 -121l-75 -91q-134 94 -315 94q-171 0 -271.5 -113.5t-100.5 -291.5t101.5 -291.5t270.5 -113.5q68 0 139 16t116 45v290h-249z" />
    <glyph glyph-name="uni0263" unicode="&#x263;" horiz-adv-x="1218" 
d="M609 -532q-26 0 -51.5 6t-53 22.5t-48 42t-33.5 69t-13 99.5q0 122 124 293l-484 1006h155l404 -882l404 882h155l-484 -1006q124 -171 124 -293q0 -56 -13 -99.5t-33.5 -69t-48 -42t-53 -22.5t-51.5 -6zM609 -412q32 0 50 31.5t18 85.5q0 42 -19 93t-49 91
q-30 -40 -49 -91t-19 -93q0 -54 18 -85.5t50 -31.5z" />
    <glyph glyph-name="uni0264" unicode="&#x264;" horiz-adv-x="1104" 
d="M201 1006l351 -648l351 648h151l-420 -730q64 -71 64 -142q0 -78 -40.5 -116t-105.5 -38t-105.5 38t-40.5 116q0 71 64 142l-420 730h151zM585 134q0 38 -33 73q-33 -35 -33 -73q0 -54 34 -54q32 1 32 54z" />
    <glyph glyph-name="uni0265" unicode="&#x265;" horiz-adv-x="1170" 
d="M1030 -532h-141v697q-15 -35 -38.5 -65t-59.5 -58.5t-89 -45t-117 -16.5q-215 0 -330 122.5t-115 343.5v560h141v-560q0 -162 74.5 -255t229.5 -93t229.5 93t74.5 255v560h141v-1538z" />
    <glyph glyph-name="uni0266" unicode="&#x266;" horiz-adv-x="1170" 
d="M281 1073v-232q31 75 107 130t197 55q215 0 330 -122.5t115 -343.5v-560h-141v560q0 162 -74.5 255t-229.5 93t-229.5 -93t-74.5 -255v-560h-141v1073q0 95 7 163t25 127.5t50 95.5t83.5 56.5t122.5 20.5q102 0 183 -37l-42 -110q-70 27 -141 27q-34 0 -59 -11.5
t-41 -36.5t-25.5 -52t-14 -71t-6 -80t-1.5 -92z" />
    <glyph glyph-name="uni0267" unicode="&#x267;" horiz-adv-x="1170" 
d="M1030 560v-629q0 -95 -7 -163t-25.5 -127.5t-50.5 -95.5t-83 -56.5t-122 -20.5q-102 0 -183 37l42 110q70 -27 141 -27q34 0 59 11.5t41 36.5t25.5 52t14 71t6 80t1.5 92v629q0 162 -74.5 255t-229.5 93t-229.5 -93t-74.5 -255v-560h-141v1073q0 95 7 163t25 127.5
t50 95.5t83.5 56.5t122.5 20.5q102 0 183 -37l-42 -110q-70 27 -141 27q-34 0 -59 -11.5t-41 -36.5t-25.5 -52t-14 -71t-6 -80t-1.5 -92v-232q31 75 107 130t197 55q215 0 330 -122.5t115 -343.5z" />
    <glyph glyph-name="uni0268" unicode="&#x268;" horiz-adv-x="659" 
d="M50 522v118h209v366h141v-366h209v-118h-209v-522h-141v522h-209zM233 1297q0 40 28 68t68 28t68 -28t28 -68t-28 -68t-68 -28t-68 28t-28 68z" />
    <glyph glyph-name="uni0269" unicode="&#x269;" horiz-adv-x="488" 
d="M140 225v781h141v-781q0 -27 1.5 -42.5t6 -32.5t16.5 -24.5t31 -7.5h52v-118h-52q-63 0 -104.5 20t-60 56t-25 70t-6.5 79z" />
    <glyph glyph-name="uni026A" unicode="&#x26a;" horiz-adv-x="421" 
d="M140 0v1006h141v-1006h-141z" />
    <glyph glyph-name="uni026B" unicode="&#x26b;" horiz-adv-x="679" 
d="M267 1000v516h141v-623q24 -20 48 -20q22 0 36 41q4 18 6 42h130q-3 -58 -21 -103q-41 -103 -151 -103q-30 0 -48 7v-532q0 -27 1.5 -42.5t6 -32.5t16.5 -24.5t31 -7.5h52v-118h-52q-63 0 -104.5 20t-60 56t-25 70t-6.5 79v641q-20 17 -44 17q-26 0 -36 -42
q-4 -18 -6 -41h-130q3 56 21 103q42 103 151 103q23 0 44 -6z" />
    <glyph glyph-name="uni026C" unicode="&#x26c;" horiz-adv-x="652" 
d="M320 1027v489h141v-717h141v-118h-141v-456q0 -27 1.5 -42.5t6 -32.5t16.5 -24.5t31 -7.5h52v-118h-52q-63 0 -104.5 20t-60 56t-25 70t-6.5 79v456h-44q-30 0 -61.5 8.5t-63 26.5t-51.5 53.5t-20 83.5q0 174 240 174zM320 799v110q-44 0 -71.5 -14t-27.5 -42
q0 -19 14 -36.5t41 -17.5h44z" />
    <glyph glyph-name="uni026D" unicode="&#x26d;" horiz-adv-x="451" 
d="M569 -385l42 -110q-81 -37 -183 -37q-71 0 -122.5 20.5t-83.5 56.5t-50 95.5t-25 127.5t-7 163v1585h141v-1585q0 -56 1.5 -92t6 -80t14 -71t25.5 -52t41 -36.5t59 -11.5q71 0 141 27z" />
    <glyph glyph-name="uni026E" unicode="&#x26e;" horiz-adv-x="1260" 
d="M140 225v1291h141v-510h827v-69l-415 -531q43 -6 83 -15t88 -26.5t88.5 -40.5t80 -58.5t67 -79t44 -103.5t16.5 -130q0 -110 -31 -196t-80 -139.5t-116.5 -88t-135 -48t-140.5 -13.5q-87 0 -162.5 19.5t-124.5 49.5t-79 57.5t-44 52.5l92 79q18 -21 41.5 -41t62.5 -44.5
t94.5 -39.5t119.5 -15q70 0 130.5 17.5t114.5 57t85.5 114t31.5 178.5q0 80 -28.5 141t-74.5 98t-114 60t-138 31.5t-155 8.5v99l389 497h-617v-663q0 -27 1.5 -42.5t6 -32.5t16.5 -24.5t31 -7.5h52v-118h-52q-63 0 -104.5 20t-60 56t-25 70t-6.5 79z" />
    <glyph glyph-name="uni026F" unicode="&#x26f;" horiz-adv-x="1763" 
d="M1623 1006v-1006h-141v143q-30 -79 -101 -121t-164 -42q-251 0 -351 202q-2 5 -3 7q-89 -209 -317 -209q-199 0 -302.5 124t-103.5 362v540h141v-540q0 -167 65 -267.5t200 -100.5t200 100.5t65 267.5v540h141v-540q0 -167 65 -267.5t200 -100.5t200 100.5t65 267.5v540
h141z" />
    <glyph glyph-name="uni0270" unicode="&#x270;" horiz-adv-x="1763" 
d="M1623 1006v-1538h-141v675q-30 -79 -101 -121t-164 -42q-251 0 -351 202q-2 5 -3 7q-89 -209 -317 -209q-199 0 -302.5 124t-103.5 362v540h141v-540q0 -167 65 -267.5t200 -100.5t200 100.5t65 267.5v540h141v-540q0 -167 65 -267.5t200 -100.5t200 100.5t65 267.5v540
h141z" />
    <glyph glyph-name="uni0271" unicode="&#x271;" horiz-adv-x="1763" 
d="M140 0v1006h141v-143q30 79 101 121t164 42q251 0 349 -200q4 -7 5 -9q89 209 317 209q199 0 302.5 -124t103.5 -362v-1072h-141v1072q0 167 -65 267.5t-200 100.5t-200 -100.5t-65 -267.5v-540h-141v540q0 167 -65 267.5t-200 100.5t-200 -100.5t-65 -267.5v-540h-141z
" />
    <glyph glyph-name="uni0272" unicode="&#x272;" horiz-adv-x="1200" 
d="M311 560v-629q0 -95 -7 -163t-25.5 -127.5t-50.5 -95.5t-83 -56.5t-122 -20.5q-102 0 -183 37l42 110q70 -27 141 -27q34 0 59 11.5t41 36.5t25.5 52t14 71t6 80t1.5 92v1075h141v-165q31 75 107 130t197 55q215 0 330 -122.5t115 -343.5v-560h-141v560q0 162 -74.5 255
t-229.5 93t-229.5 -93t-74.5 -255z" />
    <glyph glyph-name="uni0273" unicode="&#x273;" horiz-adv-x="1200" 
d="M889 -69v629q0 162 -74.5 255t-229.5 93t-229.5 -93t-74.5 -255v-560h-141v1006h141v-165q31 75 107 130t197 55q215 0 330 -122.5t115 -343.5v-629q0 -56 1.5 -92t6 -80t14 -71t25.5 -52t41 -36.5t59 -11.5q71 0 141 27l42 -110q-81 -37 -183 -37q-71 0 -122.5 20.5
t-83.5 56.5t-50 95.5t-25 127.5t-7 163z" />
    <glyph glyph-name="uni0274" unicode="&#x274;" horiz-adv-x="1150" 
d="M140 0v1006h145l584 -789v789h141v-1006h-145l-584 789v-789h-141z" />
    <glyph glyph-name="uni0275" unicode="&#x275;" 
d="M627 1026q240 0 383.5 -146t143.5 -377t-143.5 -377t-383.5 -146t-383.5 146t-143.5 377t143.5 377t383.5 146zM627 98q165 0 262 95t113 251h-750q15 -155 112.5 -250.5t262.5 -95.5zM627 908q-165 0 -262.5 -95.5t-112.5 -250.5h750q-16 156 -113 251t-262 95z" />
    <glyph glyph-name="uni0276" unicode="&#x276;" horiz-adv-x="1515" 
d="M100 503q0 119 39.5 218.5t107.5 165.5t158.5 102.5t192.5 36.5q98 0 183 -42v22h634v-118h-493v-324h467v-118h-467v-328h493v-118h-634v22q-85 -42 -183 -42q-102 0 -192.5 36.5t-158.5 102.5t-107.5 165.5t-39.5 218.5zM781 148v710q-67 50 -183 50q-153 0 -255 -107
t-102 -298t102 -298t255 -107q116 0 183 50z" />
    <glyph glyph-name="uni0277" unicode="&#x277;" horiz-adv-x="1426" 
d="M713 214q-24 -110 -95 -172t-173 -62q-159 0 -252 126t-93 356q0 259 166.5 411.5t446.5 152.5t446.5 -152.5t166.5 -411.5q0 -230 -93 -356t-252 -126q-102 0 -173 62t-95 172zM713 908q-236 0 -355 -122t-119 -324q0 -176 53.5 -270t152.5 -94q51 0 88.5 31.5t58 78.5
t32.5 118.5t15.5 133.5t3.5 141h140q0 -79 3.5 -141t15.5 -133.5t32.5 -118.5t58 -78.5t88.5 -31.5q99 0 152.5 94t53.5 270q0 202 -119 324t-355 122z" />
    <glyph glyph-name="uni0278" unicode="&#x278;" horiz-adv-x="1397" 
d="M628 1026v490h141v-490q76 -5 146.5 -23.5t141.5 -58.5t123 -96.5t84.5 -145.5t32.5 -199t-32.5 -199t-84.5 -145.5t-123 -96.5t-141.5 -58.5t-146.5 -23.5v-512h-141v512q-76 5 -146.5 23.5t-141.5 58.5t-123 96.5t-84.5 145.5t-32.5 199t32.5 199t84.5 145.5t123 96.5
t141.5 58.5t146.5 23.5zM1156 503q0 105 -33.5 183.5t-91.5 123.5t-122.5 68.5t-139.5 29.5v-810q59 5 112 20t104.5 45.5t88.5 74.5t59.5 112t22.5 153zM241 503q0 -85 22.5 -153t59.5 -112t88.5 -74.5t104.5 -45.5t112 -20v810q-75 -6 -139.5 -29.5t-122.5 -68.5
t-91.5 -123.5t-33.5 -183.5z" />
    <glyph glyph-name="uni0279" unicode="&#x279;" horiz-adv-x="888" 
d="M748 0h-141v165q-15 -35 -38.5 -65t-59.5 -58.5t-89 -45t-117 -16.5q-125 0 -223 45l67 107q64 -34 156 -34q155 0 229.5 93t74.5 255v560h141v-1006z" />
    <glyph glyph-name="uni027A" unicode="&#x27a;" horiz-adv-x="888" 
d="M748 0h-141v165q-15 -35 -38.5 -65t-59.5 -58.5t-89 -45t-117 -16.5q-125 0 -223 45l67 107q64 -34 156 -34q155 0 229.5 93t74.5 255v1070h141v-1516z" />
    <glyph glyph-name="uni027B" unicode="&#x27b;" horiz-adv-x="918" 
d="M607 -69v234q-15 -35 -38.5 -65t-59.5 -58.5t-89 -45t-117 -16.5q-125 0 -223 45l67 107q64 -34 156 -34q155 0 229.5 93t74.5 255v560h141v-1075q0 -56 1.5 -92t6 -80t14 -71t25.5 -52t41 -36.5t59 -11.5q71 0 141 27l42 -110q-81 -37 -183 -37q-71 0 -122.5 20.5
t-83.5 56.5t-50 95.5t-25 127.5t-7 163z" />
    <glyph glyph-name="uni027C" unicode="&#x27c;" horiz-adv-x="858" 
d="M140 1006h141v-165q31 75 107 130t197 55q125 0 223 -45l-67 -107q-64 34 -156 34q-155 0 -229.5 -93t-74.5 -255v-1092h-141v1538z" />
    <glyph glyph-name="uni027D" unicode="&#x27d;" horiz-adv-x="858" 
d="M140 1006h141v-165q31 75 107 130t197 55q125 0 223 -45l-67 -107q-64 34 -156 34q-155 0 -229.5 -93t-74.5 -255v-560q0 -138 17.5 -191t75.5 -53q31 0 73.5 17.5t83.5 58.5l65 -114q-87 -96 -226 -96q-127 0 -178.5 84t-51.5 294v1006z" />
    <glyph glyph-name="uni027E" unicode="&#x27e;" horiz-adv-x="903" 
d="M853 989l-56 -107q-64 26 -161 26q-165 0 -260 -111.5t-95 -295.5v-501h-141v501q0 237 135 381t361 144q139 0 217 -37z" />
    <glyph glyph-name="uni027F" unicode="&#x27f;" horiz-adv-x="933" 
d="M136 882l-56 107q78 37 217 37q226 0 361 -144t135 -381v-1033h-141v1033q0 184 -95.5 295.5t-259.5 111.5q-97 0 -161 -26z" />
    <glyph glyph-name="uni0280" unicode="&#x280;" horiz-adv-x="1101" 
d="M281 0h-141v1006h523q135 0 222 -87t87 -223q0 -107 -62.5 -188t-168.5 -113l280 -395h-169l-270 386h-301v-386zM663 888h-382v-384h382q72 0 120 54t48 138q0 83 -48 137.5t-120 54.5z" />
    <glyph glyph-name="uni0281" unicode="&#x281;" horiz-adv-x="1101" 
d="M140 1006h141v-386h301l270 386h169l-280 -395q107 -35 169 -114.5t62 -186.5q0 -136 -87 -223t-222 -87h-523v1006zM281 118h382q72 0 120 54t48 138q0 83 -48 137.5t-120 54.5h-382v-384z" />
    <glyph glyph-name="uni0282" unicode="&#x282;" horiz-adv-x="971" 
d="M82 -69v284q112 -63 206.5 -89t201.5 -26q111 0 183.5 43.5t72.5 125.5t-62 122.5t-219 69.5q-206 40 -295.5 110.5t-89.5 182.5q0 118 98 195t286 77q235 0 367 -90l-70 -100q-119 72 -297 72q-110 0 -174.5 -43t-64.5 -111q0 -64 61 -105t203 -67q212 -41 307 -108.5
t95 -204.5q0 -139 -112 -214t-289 -75q-159 5 -267 40v-89q0 -56 1.5 -92t6 -80t14 -71t25.5 -52t41 -36.5t59 -11.5q71 0 141 27l42 -110q-81 -37 -183 -37q-71 0 -122.5 20.5t-83.5 56.5t-50 95.5t-25 127.5t-7 163z" />
    <glyph glyph-name="uni0283" unicode="&#x283;" horiz-adv-x="601" 
d="M701 1499l-42 -110q-70 27 -141 27q-34 0 -59 -11.5t-41 -36.5t-25.5 -52t-14 -71t-6 -80t-1.5 -92v-1142q0 -95 -7 -163t-25.5 -127.5t-50.5 -95.5t-83 -56.5t-122 -20.5q-102 0 -183 37l42 110q70 -27 141 -27q34 0 59 11.5t41 36.5t25.5 52t14 71t6 80t1.5 92v1142
q0 95 7 163t25 127.5t50 95.5t83.5 56.5t122.5 20.5q102 0 183 -37z" />
    </font>
</defs>
</svg>
